<svg width="720" height="640" viewBox="0 0 720 640" fill="black" xmlns="http://www.w3.org/2000/svg">
  <g xmlns="http://www.w3.org/2000/svg" fill="none" fill-rule="evenodd">
    <rect width="720" height="640"/>
  </g>
<g transform="translate(120, 80)"><path xmlns="http://www.w3.org/2000/svg" d="M258.66 47.9s-1.83 1.25-3.23 1.32c-1.4.07-1.47-.07-1.47-1.03s-.15-1.54-.37-2.27-1.17-1.83-1.17-1.83-.8 1.54-2.64 1.98-3.6-.3-6.53-1.54c-2.94-1.25-5.72-1.47-8.15-.8-2.42.66-3.3 1.4-4.26 2.13s-2.35 2.95-2.35 2.95-2.83-.33-5.87 1.08c-3.34 1.56-4.77 5.87-5.14 9.03s.6 6.68 1.17 8.5 1.65 4.13 1.65 4.13.18-.22.5-.5l.12.6c-1 1.04-1.6 2.48-1.6 4.1 0 3.15 2.37 5.7 5.3 5.7.37 0 .72-.05 1.07-.13l-6.87 22.43-2.2 5.7s3.2 4.1 10.8 5.7c5.2 1.1 8.7 1.2 11 1 1.9-.2 4.2-.6 3-4.1-1.7-5.2-1.1-8.5-1.1-8.5l2.4-13.1c1.63.3 3.14.35 4.3-.01 3.2-1 5.9-4.4 6.9-10.1.5-3.3.8-9.2.8-13.4 0-1.1-.1-3.4-.3-5.4-.07-.52-.16-1.02-.26-1.5a11.2 11.2 0 0 0 3.3-2.34c4.95-5.07 1.2-9.77 1.2-9.77zm-30.63 32.2c.01.03.02.06.02.1l-.08-.05c.02-.01.04-.02.06-.04z" fill="#fff"/><path xmlns="http://www.w3.org/2000/svg" d="M251.86 60.2l.33-.04c-.02-.03-.1-.01-.33.04zm-29.66 9.23l.08-.04c-.06.02-.08.03-.08.04zm38.86-18.17v.02l.03.1-.03-.12z"/><circle xmlns="http://www.w3.org/2000/svg" cx="242.08" cy="72.05" r="1.4"/><path xmlns="http://www.w3.org/2000/svg" d="M224.94 72.72c-1.6 0-2.9 1.35-2.9 3s1.3 3 2.9 3 2.9-1.35 2.9-3-1.3-3-2.9-3zm0 5c-1.05 0-1.9-.9-1.9-2s.85-2 1.9-2 1.9.9 1.9 2-.85 2-1.9 2zm14.48-10.36c.12-.13 1.2-1.8 3.9-1.6.4 0 .8-.3.8-.7s-.3-.8-.7-.8c-3.6-.3-5.2 2.1-5.3 2.2-.2.3-.18.75.15 1 .5.38.92.16 1.15-.1zm11.14-2.54c.15-.02 1.24-.35 2.1.14.14.08.3.16.4.16.2 0 .5-.1.6-.3a.78.78 0 0 0-.2-1c-1.4-1-3.13-.44-3.28-.4a.73.73 0 0 0-.52.9c.1.4.5.54.9.5z"/><circle xmlns="http://www.w3.org/2000/svg" cx="252.08" cy="71.25" r="1.4"/><path xmlns="http://www.w3.org/2000/svg" d="M244.3 82.96c-3.6.17-4.65-2.7-4.7-2.85-.18-.4-.56-.54-.95-.4s-.55.56-.4.95c.55 1.45 2.42 3.98 6.22 3.8.4-.04.67-.37.62-.87a.76.76 0 0 0-.77-.62zm16.76-31.68l-.57-2.03-.22-.55-.18-.37-.23-.4c-.32-.52-.68-.98-1-1.3l-.47.35-.78.37-.46.3-.27.16a1.93 1.93 0 0 1-.56.21l.01-.04c-.48.3-1.07.28-1.2.32l.01-.03c-.05 0-.1.01-.15 0l.05-.03c-.06.02-.1-.02-.12-.07-.01-.03-.01-.04-.02-.1v-.38c-.04-.63-.17-1.27-.3-1.8l-.1.12c-.04-.18-.07-.36-.17-.6l-.13-.3c-.04-.1-.12-.22-.18-.33a8.35 8.35 0 0 0-.82-1.12l-.52-.03c-.14-.01-.26-.05-.34.02-.18.1-.43.18-.83.28-.22.33-.58.66-.68.7-.16.12-.35.22-.56.3v-.04c-.8.6-1.73.55-2.55.32l-2.95-.96c.3.08-.1-.1-.06-.13-1.06-.42-2.35-.9-2.44-.65-.85-.28-.68-.28-.76-.42-.02.1-.8-.06-1.48-.17h.33a11.3 11.3 0 0 0-2-.2 4.79 4.79 0 0 1 .38.23c-1.05-.1-.26-.3-1.3-.23l.02.17c-1.46.03-2.4.01-3.8.34-1.22.38-2.46 1.15-3.42 1.98-.6.52-.96 1.03-1.35 1.56l-.55.8-.13.2-.04.08c-.03.04-.05.1-.08.14h-.2l-.66.02-1.3.15a14.34 14.34 0 0 0-2.52.65c-.8.3-1.6.65-2.33 1.18-.7.52-1.3 1.13-1.83 1.77l-.25.13c-.26-.02-.6 1.5-.8 1.6l-.2.63c-.1.15-.27.5-.2.18-.23.56-.2.6-.3 1l-.3.58c-.74 2.24-.7 4.37-.43 6.8.05 1.16.33 2.68.8 4.24.23.78.53 1.6.85 2.34l.5 1.13.8 1.72c.08 0 .13.01.2.02a6.42 6.42 0 0 0-1.07 3.57c0 3.42 2.6 6.2 5.8 6.2.12 0 .24-.02.36-.03l-6.63 21.65-2.3 5.96.17.22c.14.17 3.4 4.26 11.1 5.88 3.44.73 6.48 1.1 9.08 1.1a22.56 22.56 0 0 0 2.07-.09c1.28-.13 2.7-.37 3.4-1.45.5-.8.52-1.88.03-3.3-1.63-5-1.1-8.22-1.08-8.25l2.3-12.56c.68.1 1.35.18 1.96.18.76 0 1.46-.1 2.08-.28 3.63-1.14 6.27-4.96 7.25-10.5.1-.64.18-1.36.26-2.14 1.83-.73 3.13-3.16 3.13-6.12 0-2.67-1.06-4.9-2.6-5.86-.03-1.26-.13-3.14-.3-4.8-.02-.17-.06-.33-.1-.5 1.08-.5 2.23-1.22 3.5-2.52.85-.9 1.65-1.98 2.17-3.23.54-1.26.72-2.66.56-3.94zm-21.2 52.15c-.03.14-.6 3.5 1.12 8.75.38 1.1.4 1.93.07 2.45-.45.7-1.6.88-2.64 1-2.9.25-6.55-.08-10.85-1-6.34-1.33-9.56-4.47-10.33-5.3l2.1-5.45 6.78-22.16c.58-.16 1.13-.4 1.63-.75.08.3.16.6.22.88.53 2.22 2.42 4.1 5.96 5.93 2.5 1.3 5.52 2.5 8.25 3.06l-2.3 12.6zm13.6-23.2c-.9 5.15-3.3 8.7-6.56 9.7-3 .94-8.62-1.07-12.52-3.07-3.2-1.65-5-3.38-5.44-5.27a24.44 24.44 0 0 0-.35-1.35l-.24-1.25c-.88 1.16-2.2 1.92-3.7 1.92-2.65 0-4.8-2.33-4.8-5.2s2.15-5.2 4.8-5.2c1.2 0 2.28.48 3.12 1.27.1.1.2.22.3.35l.23.36c.07.12.28.38.46.5.4.3.8.44 1.14.52l.93.2c.92.08 1.54-.14 2.2-.45a5.42 5.42 0 0 0 .9-.6l3.95.67c0 .08-.01.17-.01.25 0 3.6 2.2 6.6 5 6.6 2.7 0 5-3 5-6.6a8.76 8.76 0 0 0-.07-1.03c.05-.05.1-.1.17-.14-.01.1.01.23.07.35.5 1.3 1.4 3.8 1.3 4.7s-.85 1-1.2 1.1c-.45.12-.75.45-.65.9.12.58.65.63.95.6.8-.1 2.2-.9 2.3-2.4a4.77 4.77 0 0 0-.04-.82c.76 1 1.76 1.62 2.88 1.62.04 0 .08-.01.12-.01a42.74 42.74 0 0 1-.23 1.75zM236.38 64.3c-.2-1.83-1.2-3.7-2.13-4.98-.25-.34-.34-.46-.42-.7-.03-.1-.05-.2-.07-.27a1.12 1.12 0 0 0 .22-.03l.02.08c.02.02.05.03.07.04l.13.05a20.69 20.69 0 0 1 .76.35l1.04.52c3.87 1.95 6.4 2.96 11.87 2.92 2.42-.01 3.98-.3 5.5-.76l.5-.18c.01.08.03.15.04.22a73.09 73.09 0 0 1 .28 4.29c-.22-.05-.44-.08-.67-.08-2.2 0-3.95 2.33-4.24 5.44a2.4 2.4 0 0 0-.76-.09 1.91 1.91 0 0 0-1 .31c-.7-2.55-2.58-4.42-4.7-4.42-2.38 0-4.45 2.33-4.9 5.35l-3.22-.56c.1-.15.2-.33.17-.34.86-1.33 1.18-2.73 1.42-4.14 0 0 .06-.32.1-.86.05-.52.08-1.28-.02-2.16zm-2.44-6.13h0l.02.02h0c-.01-.01-.02-.02-.02-.03zm12.9 15.45c0 3.1-1.8 5.6-4 5.6s-4-2.5-4-5.6 1.8-5.6 4-5.6 4 2.5 4 5.6zm6.93 3.85c-.07.01-.15.02-.22.02-1.78 0-3.3-2.45-3.3-5.35s1.5-5.35 3.3-5.35a2.01 2.01 0 0 1 .69.13 125.81 125.81 0 0 1-.47 10.55zm1.47-9.9c.95.95 1.6 2.66 1.6 4.56 0 2.18-.85 4.1-2.02 4.93.26-3.05.4-6.7.43-9.5zm3.68-13.35c-.13.45-.36.83-.52 1.22-.23.36-.4.72-.65 1.05-.25.3-.47.65-.74.94-.28.28-.54.58-.86.85-.2.05.07-.23.4-.6a5.72 5.72 0 0 1-.88.75c-.06-.1.5-.43.74-.7-1.12.74-2.2 1.83-3.83 2.2l-.3.2-.1.02c.02.05-.3.22-.55.28-.25-.05-.04-.23-.83-.05-.64.01-1.8.32-2.64.37.46.01.3.07.12.1-.4.01-.65-.08-.97-.05l-.04-.14c.16.13-1.08.1-1.23.13-.22-.12.64-.03.75-.12-1.64-.1-.82-.02-2.45-.24-.88-.06.13.16-.3.2-.77-.12-1.55-.2-2.4-.55l.24.2a11.33 11.33 0 0 1-3.15-1.24l-3.17-1c-.8-.22-1.4-.28-1.6-.15-.05.04-.13.13-.2.2 0-.07.01-.13.03-.18.02-.07.04-.13-.05-.14-.06-.02-.2-.03-.37.15-.16.17-.27.55-.2 1.02.07.5.4 1 .62 1.6.25.6.53 1.34.73 2.2l-.07-.07c.33 1 .38 1.76.4 2.53.02.76 0 1.45-.02 2.18-.26.18-.38 1.7-.67 2.1v-.05a2.95 2.95 0 0 1-.87 1.55c-.42.4-.9.66-1.36.92.03-.04.03-.1.24-.2-.32.18-.78.3-1.07.3-.06 0-.1-.01-.12-.02-.1-.03-.2-.06-.3-.1-.16-.05-.23-.08-.25-.12-.26-.04-.47-.1-.58-.16-.06-.03-.1-.06-.12-.1-.03-.04-.14-.2-.24-.33-.4-.6-1.06-1.18-1.7-1.5-.65-.35-1.3-.54-1.86-.66-.57-.13-1.14-.14-1.55-.1l.1-.03c-.93.17-1.24.08-2.2.5-.06 0-.13.02-.12.01a20.35 20.35 0 0 1-.68.41c-.13.07-.25.16-.38.25l-.2.14c-.12.1-.23.18-.32.28-.1.2-.13-.07-.18-.12-.02-.04-.04-.08-.06-.1l.05-.13-.18-.38-.35-.82.23.62c-.33-.1-.37-1.3-.9-2.44-.32-1.14-1.2-2.2-1.3-3.47-.22-.57.3.48.05-.38.13-.05.15.4.23.15-.2-.85-.07-1.42-.22-2.47l.1-.05c-.26-1.38.27-2.54.28-3.46.1-.7.26-.9.4-1.13s.24-.44.4-1.15l.35-.46c.28-.54.01-.48.4-1.05.05.07.5-.7.37-.3.9-1.17 1.7-2.54 3.72-2.97.35-.33 1.36-.48 1.66-.66.06.02 2.03-.23.9.05-.1.02-.27.04-.26.01l-.12.13a8.7 8.7 0 0 0 1.16-.05c.2-.02.34-.04.57-.05.37-.01.75.01 1.1.03.15-.26.3-.52.46-.77l.22-.34.14-.2-.17.2a7.51 7.51 0 0 0-.23.32c-.13.18-.17.22-.05-.04l.4-.58.32-.44-.06.24c.33-.43.67-.85 1.02-1.2-.07.02-.15.05-.22.08.27-.26.48-.38.65-.47.26-.15.5-.33.8-.64.27-.3-.68.3-.04-.2.84-.52 2.34-.97 3.62-1.22-.14-.1.2-.17.54-.25l.06.1c.67-.17.8-.1.93-.04s.25.1.92.07l-.12.07c.12-.07.24-.15.37-.2.63-.06.8.02.97.1s.36.13 1.08.14c-.54-.1-.2-.3.46-.08l-.2.06c.37.08.5.07.74.17-.23-.01-.16.1.37.27l-.4.01a10.21 10.21 0 0 1 1.06.18c.72.42 2.07.84 2.35 1.1a15.55 15.55 0 0 0 .96.37c.52.18 1.13.3 1.4.27-.44.02.7.27.36.33.28-.01.85 0 1.43-.07a9.46 9.46 0 0 0 1.52-.3l-.12.06a4.37 4.37 0 0 0 1.21-.58 4.88 4.88 0 0 0 .49-.38c.08-.07.04-.05.07-.08a.81.81 0 0 0 .06-.13c.02-.07.06.01.1.02.04.03.07.08.1.13l.1.23c.03.12.05.23.08.36.12-.1.25.77.36.52a3.19 3.19 0 0 1 .12.6c.02.22.02.35.02.75 0 .36.04.7.17.97s.38.5.64.6.55.14.83.15c.13 0 .26-.01.4-.01l.24-.02c.36-.05.63-.17.8-.35.94-.3 1.13-.28 1.6-.46l-.2.12a3.72 3.72 0 0 1 .4-.2c.04-.03.08-.05.12-.08.07-.05.14-.1.2-.13.1-.01.15.16.2.24.03.05.04.1.08.16.07.13.1.28.18.43.22.5.52.52.62 1.55-.14-.3-.05.1-.04.47-.02-.24-.05-.3-.1.18.03.07.05.17.07.27-.01 0-.01.02-.02.01-.02.62.01.52.06.23.01.02.03-.01.07-.1-.14.66-.37 1.8-.57 1.82zm134.2 190.68l.01.1-.01-.1z"/><g xmlns="http://www.w3.org/2000/svg" fill="#fff"><path d="M350.75 422.05c-.4-2.44-1.27-6.3-3.08-9.02-2.4-3.33-27.3-9.47-34.35-11.25-1.06-.2-2.2.18-2.76 1.17l-.24.4-3.8-17.74 9.87-2.3a3.46 3.46 0 0 0 2.6-3.9l-1.78-9.77-3.87.65s-9.3-60.5-12.57-70.87c-3.35-10.5-26.04-63.6-37.02-89.1l1.18-3.28H194.2l-17.33 72.68c-1.26 2.12-58.48 22.17-58.48 22.17l-.8-2.12-9.1 2.75c-1.8.5-2.8 2.4-2.4 4.1l3.85 16.26-2.02-7.65-15.4 4.02c-1.1.3-2.1.64-3.02 1.03.24-.2.45-.4.6-.6.45-.64.57-1.65-.16-2.1-2.15-1.12-8.63-3.22-16.5-4.02l.06-.32v-.07l-.07-.01-.14-.01-.28-.03-1.77-.15-1.36-.1c-.22-.01-.42-.04-.7-.03H69a2.3 2.3 0 0 0-.75.19c-.88.4-1.3 1.1-1.48 1.55-.04.1-.06.18-.08.26-.03-.02-.08.05-.13.17-.1-1.1-.98 3.15-.98 3.15-.98 4.47-1.16 6.84-2.05 12.2-.88 4.7-1.26 5.93-2.07 10.82l-1.22 7.1c-.07 1.1-.53 3-.65 4.3l-.16.48a8.46 8.46 0 0 1-.23 1.41l-.02-.03c-.06.67-.23 1.4-.26 1.74l-.02-.03-.1.84v-.14c-.15 1.16-.35 2.34-.57 3.38l.1-.07c-.5 2.2-.46 3.06-.93 5.05l-.02-.03c-.23 2.6-.87 4-1.12 6.66.03-.33-.07.13-.1.1-.2 1.2-.4 2.5-.24 2.55-.16.88-.18.7-.27.8.04.01.02.18 0 .53-.01.34.05.8.25 1.2-.07-.1-.12-.24-.17-.36.22.82 1 1.45 1.8 1.54l-.15-.1c.1.03.22.08.33.1-.07-.03-.13-.08-.2-.12.06.02.12.03.16.04h-.03c.26.1 0 .14.8.2v-.02c.06.01.1.01.18.02v-.1l.8.1 1.26.2c0-.01.01-.02.01-.03l.18.03c.04-.13.07-.26.1-.4 2.07.16 4.42.13 6.44-.42 3.92-1.2 17.67-22.85 21.6-28.97.16-.28.26-.6.32-.9 2.98.04 6.58-1.2 6.58-1.2l18.54-4.6 2.38 10.04c.4 1.7 2.2 2.8 3.9 2.4l8.67-2.16-.1-4.38s59.43-12.7 71.25-17.23c17.4-6.7 25.5-16.5 30-28.6l3.8-10.43 20.4 34.13c2.7 6.3 10.35 37.03 12.6 44.46 1.3 4.12 3.13 11.66 2.93 11.27l-2.48.75 1.6 9.2c.2 1.4 1.6 2.3 3 2l5.84-1.36c.01.06.02.16.06.34l-.05-.34.57-.13 3.72 15.32c.3 1.16.64 2.22 1.04 3.18-.05.1-.1.2-.12.3-.44 2.8-.27 11.63 2.48 20.9.34 1.05 1.43 1.57 2.37 1.5l60.84-9c1.14-.17 1.83-1.1 1.58-2.2zm-283.9-107c-.02.16.02.23.07.16.07-.07.2-.3.44-.6a2.07 2.07 0 0 0-.18.47l-.75 4.2c.26-2.34.34-3.56.33-4.08a.85.85 0 0 0 .1-.13zM329.1 428.47l.13-.03c-.06.01-.1.02-.13.03zm-7.16.6l.1-.03h-.02zM108.7 344.34l.1-.08z"/><path d="M58.73 355.24l-.01.14c0-.07.01-.1.01-.14zm48.7-40.36l.4-.07c.01-.01-.1 0-.4.07zm7.6 34.94l.1.4c-.01-.03-.01-.05-.02-.07-.02-.1-.06-.23-.1-.33z"/></g><path xmlns="http://www.w3.org/2000/svg" d="M351.65 421.8l-.06-.46-.13-.96c-.2-1.28-.44-2.58-1.17-4.12.18.38.01-.2.05-.18-.55-1.46-1.42-2.95-1.68-2.82l-.5-.85c-.07-.13-.02-.15-.05-.26-.1.03-.98-.63-1.77-1l.38.16c-.75-.43-1.52-.76-2.28-1.1l.35.42c-1.17-.6-.2-.4-1.37-.84l-.06.2c-1.66-.7-2.56-1.33-4.17-2.03-6.86-2.38-14.48-3.86-20.88-5.86l-.25-.22c-.07-.24-1.87-.15-2.07-.4l-.78-.1c-.2-.1-.64-.24-.25-.2-.7-.18-.72-.15-1.26-.22-.1-.05-.28-.1-.47-.16-.17-.04-.34-.07-.5-.1a3.53 3.53 0 0 0-2.09.66c-.1-.94-.44-1.67-.62-2.6.04.3.12.66.02.42l-.18-.9.1.17-.25-1.33-.04.2c-.1-.66-.02-.9-.28-1.62-.13-.32.03.63-.14-.04-.13-.88-.33-2.2-.55-3.3-.06.12-.12-.18-.2-.48l.07-.05c-.35-1.15.07-.46-.26-1.6l-.15-.18c-.37-1.02.03-.6-.42-1.72.1.46-.1.25-.2-.32l.1.13c-.08-.3-.13-.4-.16-.62.08.18.12.08.01-.38l.15.3-.32-.85c-.01-.1-.03-.2-.04-.3l-.01-.06 3.36-.8 3.36-.78 2.55-.57c.33-.08.7-.2 1-.36 1.28-.65 2.2-1.97 2.3-3.44.03-.35 0-.76-.05-1.08l-.45-2.64-1.35-7.98-2.86.45-.68.1-.26.03-.03-.3-.14-.98-.34-2.28-.7-4.53-1.5-8.82a16.47 16.47 0 0 0-.19-1.12l-.1-.5c-.03-.13-.05-.2-.06-.2l-2.36-14.5s-2.88-17.6-5.3-28.4c-1.17-5.4-2.46-9.1-2.42-8.12-.01.5.36 2.12.88 5.3l2.26 14.63-.1-.35 3.28 18.35c-.13.9 1.05 6.52 1.26 8.4l-.05-.17c1 4.8 1.44 10 2.37 14.64-.05-.18-.15-.27-.32-1.34.58 3.4 1.37 8.04 1.24 8.32l.68 4.3 3.9-.66 1.64 8.8c.2 1.1-.46 2.2-1.32 2.64a2.92 2.92 0 0 1-.69.26l-.87.23-1.53.42.34-.13c-2.9.85-3.78.9-7.03 1.75-.18.02-.42.06-.38.05-3.15.9-9.3 2.2-11.86 2.86l-.2-.07-6.34 1.5 2.38-.53c-.75.5-4.84.93-9.4 2.2-2.16.48-4.3 1.14-6.48 1.8l-1.64.5c-.57.16-1.06.34-1.58.25-.5-.07-1.02-.32-1.36-.72-.37-.4-.5-.9-.55-1.5-.5-2.14.56 1.87-.1-1.35.14-.13.36 1.5.34.64-.3-1.45-.46-2.67-.65-3.94l-.3-1.98-.18-1.1-.12-.63c.14-.05.3-.1.47-.16.05.03.1.06.13.1l.03-.01c.02.05-.02-.1-.04-.23l-.07-.36.17.34.1.17c.03.06.03.01.05.02l.17-.06.68-.22.26-.16.25-.15c.98-.16 1.62-.5 2.9-.86 1.35-.27 1.75-.2 3.13-.58.67-.14 1.37-.34 2-.5.28-.2.85-.2 1.2-.4l.16.04c.12-.06.26-.12.4-.1v.02c.18-.1.4-.1.48-.16v.02l.23-.06-.03.04a4.35 4.35 0 0 1 .95-.26l-.04-.08c.66-.05.85-.28 1.45-.3v.02c.67-.4 1.18-.1 1.88-.5-.1.05.05.03.05.06.34-.1.7-.2.67-.37.25-.06.22 0 .26.06-.02-.07.2-.15.4-.2l-.08.05.56-.15-.14-.1c.3-.03.1.15.4.05l-.03-.1c.42-.07.7.04 1.12.04 1.67-.34 3.38-1.04 4.97-1.2l.1.07c.06.12.38-.28.47-.18l.17-.1c.06.01.17.01.08.06.17-.03.17-.05.28-.12l.2.04c.67-.1 1.2-.37 1.9-.5.86-.03 2.4-.54 3.26-.83 1.22-.48 2.8-.32 4.04-.83.05.01.15-.06.14-.07l1.2-.26s5.74-1.28 1.15-1.3l.02-.03c-.66.08-1.07.16-1.5.4-.1-.15-.54.1-.7.1h.01c-.36.22-.84.08-1.2.28.01-.02.01-.06.1-.1-.27.1-.64.2-.7.12-.66.18-1.6.35-1.98.6l.02-.03c-.22.16-.3.1-.57.2-.02-.01-.04-.01-.04-.02-.24.17-.76.2-.97.3l-.03-.06-.52.14.2-.03c-.03.2-.42-.02-.78.18-.36.06-.64.54-1.02.54-.16.12.12-.17-.12-.05-.03-.1.1-.1.02-.15-.25.1-.45 0-.75.14l-.03-.07c-.4.23-.8.1-1.05.28-.42.16-.34-.15-.75.1l-.2-.06c-.2.03-.1.15-.33.15 0-.06-.28.01-.17-.07-.5.01-.94.36-1.6.35-.1.15-.44.15-.53.27-.03-.05-.64.14-.3-.06.03-.02.08-.03.08-.01l.03-.08c-.4-.05-.64.23-1 .3.1 0 .25-.04.17.03l-.33.07.05-.08-.5.08.1.06c-.25.02-.36-.1-.6.08-.1.1.25.05 0 .13-.33.02-.84.06-1.25.13.06.07-.05.1-.16.14l-.03-.07c-.4.2-.2-.12-.6.06l-.05.12c-.36.23-.25-.1-.64.2.17-.05.12.14-.1.16l.04-.08c-.1.04-.15.08-.23.08.06-.05.01-.1-.16-.06l.1-.1-.3.2c-.27-.02-.65.17-.77.1 0 0-.55.08-.65.2.1-.1-.2-.05-.14-.15-.12.1-.52.27-.7.22l.03-.02c-.6.06-1 .34-1.55.38-.03-.67-.14-1.84-.38-3.7l.04.07c-.3-1.7-.54-2.77-.94-3.9.13-.22-.3-1.4-.33-1.8l.02.03c-.36-1-.37-2.15-.7-3.12.02.04.07.05.13.27-.18-.72-.45-1.7-.36-1.78-.42-1.72-.92-4.15-1.33-5.22l.04.07c-.25-.6-.2-.8-.4-1.5 0-.04 0-.1.01-.1-.26-.66-.47-2-.64-2.55l.06-.05-.33-1.37.1.52c-.22-.14-.12-1.06-.47-2.03-.2-.93-.8-1.8-.94-2.78-.2-.44.23.37.01-.3.1-.04.13.3.17.1-.2-.67-.16-1.13-.4-1.95l.06-.05c-.38-1.06-.38-2.07-.67-2.77-.32-1.1.04-.8-.37-1.94l-.01-.48c-.1-.5-.2-.33-.28-.9.07.02-.1-.7.02-.4-.2-1.28-.73-2.5-.95-4.2-.2-.33-.33-1.18-.48-1.42.04-.06-.4-1.66-.05-.76.03.08.06.22.04.2l.1.1c-.1-.97-.48-1.7-.68-2.63.04.28.14.65.03.4l-.2-.87.1.17-.27-1.3-.03.2c-.1-.64-.04-.9-.32-1.58-.14-.3.04.62-.14-.04-.15-.85-.38-2.13-.63-3.2-.06.12-.13-.17-.22-.46l.06-.05c-.4-1.1.05-.46-.3-1.57l-.15-.17c-.4-.98 0-.6-.5-1.67.13.44-.1.25-.22-.3l.1.12c-.1-.3-.15-.4-.2-.6.1.17.13.07-.02-.38l.18.28-.38-.82c-.1-.7-.63-1.67-.63-1.97 0 0-.55-1.36-.78-1.62.18.24-.12-.5.05-.33-.23-.3-.76-1.3-.87-1.73l.04.07c-.62-1.53-1.32-2.5-1.87-3.86-.05.1-.35-.62-.36-.4-.77-1.32-1.03-2.6-1.58-2.94-.33-.6-.3-.77-.44-1.1l.1.14-1.2-2.35c-.25-.42-.42-.4-.78-1.2.18.22.01-.1-.13-.38.1.18.15.23 0-.17a1.04 1.04 0 0 1-.14-.19c0-.01 0-.02.01-.02-.26-.47-.24-.38-.13-.15-.01-.01-.02.02 0 .1-.18-.54-.7-1.4-.64-1.5-.76-1.43-1.38-2.42-2.03-3.6-.02-.16.17.1.37.44l-.45-.84c.08-.03.3.47.44.72-.4-1.07-1.18-2.03-1.7-3.28l-.18-.22-.03-.08c-.03.02-.2-.23-.3-.4-.02-.2.15-.06-.16-.65-.18-.5-.7-1.3-1.06-1.9.16.33.07.25-.03.12-.15-.3-.18-.5-.32-.7l.07-.07c-.02.16-.48-.72-.57-.82-.02-.2.3.43.37.48l-.92-1.76c-.4-.6-.02.16-.25-.1-.3-.55-.64-1.06-.92-1.72l.03.24c-.6-1-.9-1.64-1.2-2.38-4.65-7.44-1.68-1.2-1.68-1.2 1.42 3.14 2.46 4.6 4.4 8.22 1.6 3.22 1.9 4.15 3.66 7.44.8 1.6 1.7 3.27 2.5 4.8.48.68 1.03 2.04 1.56 2.87l.1.37c.18.3.38.63.5.95l-.03-.01c.27.43.5.95.63 1.16l-.03-.01.28.54-.07-.08a26.29 26.29 0 0 1 1.17 2.3l.05-.1c.65 1.57 1.1 2.05 1.65 3.5l-.03-.01c1.03 1.66 1.18 2.84 2.1 4.57-.12-.22 0 .1-.03.1.37.82.6 1.76.78 1.72.18.64.1.54.05.64.07-.02.25.53.4 1.04l-.1-.23.4 1.44.06-.32c.16.78-.12.24.1.97l.1-.04c.24 1.08.23 1.75.4 2.8 1 4.32 2.4 8.9 3.12 12.97l-.04.2c-.1.1.44 1.07.36 1.25l.17.45c.01.14.05.42-.03.2.1.43.12.44.23.74l.03.48c.34 1.72.82 3.14 1.2 4.95.34 2.2 1.4 6.23 2.03 8.55.94 3.25 1.3 7.2 2.28 10.52.01.1.1.4.12.38l.68 3.1s1.24 5.6 1.85 7.3c-.5.16-.97.02-1.1.37-.25.08-.32-.01-.46.01l.06-.03c-.48.14-.62.18-.98.25-.17.07-.16.24-.5.27.1-.1-.04-.04-.16-.02.07-.03.1-.06-.07-.06-.02.02-.05.04-.08.06-.2.06-.17.07-.07.06 0 .01.01.02.04.03-.23-.03-.58.14-.63.04-.6.16-1 .37-1.5.53-.07-.04.04-.12.18-.17l-.35.1c-.02-.08.2-.1.3-.13-.45-.03-.85.33-1.37.33l-.1.1h-.03c.01.03-.1.1-.16.13-.1-.05-.03-.16-.28-.1-.2-.02-.55.16-.8.26.14-.02.1.03.05.07-.12.03-.2-.02-.3.03l-.03-.1c.07.08-.3.17-.34.22-.1-.05.18-.1.2-.16l-.74.18c-.25.13.07.08-.04.2-.23.07-.44.2-.72.2l.1.06c-.32.12-.54.18-.77.2-.07-.37-.18-.77-.23-1.03l-.2-.9-.8-3.36c-.52-2.14-1.02-4.08-1.63-5.7-1.55-5.07-.62-3.52-2.3-8.82l-.4-2.13c-.6-2.3-.64-1.6-1.24-4.16.14.13-.78-3.24-.28-1.78-1.4-5.8-3.34-11.65-5.26-19.3-.67-1.6-1.72-5.43-2.32-6.6.03-.1-.68-2.05-1.37-3.32-.3-.66-.58-1.14-.6-1.24-.03-.1.18.16.73 1.18.2.35.5.98.45.95l.36.44c-1.88-4.3-4-7.2-6.15-11.1.6 1.17 1.48 2.7.83 1.7l-2.02-3.6.5.7-3-5.37.3.8c-1.44-2.64-1.78-3.67-3.62-6.52-.85-1.28 1.27 2.56-.35-.18l-2.8-5.1-.8 2.65 13.25 23.08.95 1.72.87 1.7c.56 1.13.94 2.35 1.36 3.57.8 2.45 1.53 4.9 2.23 7.36a457.6 457.6 0 0 1 3.81 14.36l.08.85c-.1.4 1.67 5.03 1.66 5.8l.67 2.13c.12.62.43 1.9.1.84.52 2 .57 2.04 1.02 3.45l.45 2.17a130.28 130.28 0 0 0 1.2 4.34c.43 1.38.83 2.74 1.2 4.1l1.1 4.12.5 2.03c0 .01-.04.02-.06.03l-.32.1-2.06.63.97 5.64.64 4.2c.03.16.06.46.15.72.08.27.2.53.35.77.3.5.73.9 1.23 1.17.5.3 1.08.44 1.66.46.3.01.6-.03.88-.08l.62-.14 10.65-2.5 22.17-5.4.1.4c.1.36.2.6.3.6.14.67.06.56.02.66.07-.02.23.56.34 1.08l-.08-.24.35 1.5.08-.32c.13.8-.13.24.07 1l.1-.03c.2 1.1.18 1.8.32 2.88.43 2.12.95 4.3 1.45 6.46l-.4-.1.01-.03c-.38.01-.62.04-.85.22-.07-.16-.3.04-.4 0l.01-.02c-.2.17-.5-.02-.68.14.01-.02 0-.06.05-.08-.16.05-.37.13-.4.04-.38.1-.9.16-1.13.36l.01-.03c-.12.13-.18.05-.32.13l-.02-.02c-.13.13-.44.1-.55.17l-.02-.06-.3.07.12-.01c0 .2-.25-.07-.45.1-.2.02-.34.46-.57.4-.08.1.06-.15-.08-.06-.02-.1.06-.07.01-.14-.14.07-.26-.05-.43.05v-.07c-.2.18-.47-.01-.6.15-.23.1-.2-.2-.44.01l-.12-.08c-.1.01-.06.14-.2.1 0-.06-.16-.02-.1-.1-.3-.04-.53.25-.93.15-.06.14-.25.1-.3.2-.02-.05-.37.06-.18-.1.02-.01.05-.02.05 0v-.08c-.23-.1-.36.15-.57.17.07.01.14-.01.1.05l-.2.03.03-.07-.3.02.05.07c-.15-.01-.22-.13-.36.01-.06.07.15.08.01.13a3.52 3.52 0 0 0-.73-.01c.04.08-.03.1-.1.12l-.02-.07c-.23.15-.12-.14-.36-.01l-.02.1c-.2.2-.15-.13-.36.12.1-.03.08.15-.05.14l.02-.08c-.06.03-.08.06-.13.06.03-.05 0-.1-.1-.08l.05-.1-.16.17c-.16-.05-.37.1-.45 0 0 0-.32.01-.37.13.05-.08-.13-.07-.1-.16-.07.1-.3.2-.4.14l.02-.01c-.37-.02-.58.23-.92.2.03.08-.15.07-.08.17-.3.17-.64-.1-.7.25-.15.05-.2-.04-.27-.05l.03-.02c-.27.08-.35.1-.56.13-.1.05-.08.2-.28.2.05-.07-.03-.05-.1-.03.04-.02.05-.04-.05-.07-.01.02-.03.04-.04.05-.12.03-.1.05-.04.05 0 .01.01.02.03.04-.14-.06-.33.07-.37-.03-.34.1-.57.25-.85.35-.04-.05.01-.1.1-.15l-.2.06c-.01-.08.1-.07.17-.1-.27-.08-.48.23-.8.16l-.05.07-.02-.01c.01.03-.05.1-.1.1-.05-.06-.03-.16-.17-.13-.12-.04-.3.1-.45.16.08 0 .06.04.03.07-.07.02-.12-.04-.17 0v-.1c.04.08-.17.13-.2.17-.05-.06.1-.08.1-.14-.28.06-.14.03-.42.1-.14.1.04.08-.01.18-.13.04-.25.13-.4.1l.06.07c-.24.1-.4.13-.58.08-1.74 1.03-.22 1-.22 1 .77.04 1.1-.27 1.97-.5.78-.1 1.02.01 1.8-.2.38-.06.78-.18 1.15-.27.15-.16.5-.1.68-.24l.1.05c.07-.05.15-.1.23-.07v.02c.1-.07.23-.07.27-.1v.02l.13-.03-.02.03a1.4 1.4 0 0 1 .55-.14l-.03-.08c.38.02.48-.18.83-.13v.02c.37-.3.7.03 1.08-.27-.05.04.03.04.03.06.2-.06.4-.12.37-.3.14-.03.13.03.16.1-.02-.07.1-.13.22-.15l-.05.04.32-.1-.1-.13c.18.01.08.16.23.1l-.02-.1c.24-.02.4.12.66.16.96-.14 1.93-.63 2.85-.6l.06.08c.04.12.2-.23.26-.12l.1-.08c.03.02.1.03.05.07.1-.01.1-.03.16-.1l.12.06c.4-.01.68-.23 1.08-.27.5.07 1.37-.25 1.87-.44.7-.33 1.63.01 2.33-.35.03.01.08-.04.08-.05l.68-.1s.68-.12 1.17-.3l.3 1.28-.18.3c-.15.27-.33.54-.5.8-.7 1.07-1.48 2.1-2.5 3.1-1.3 1.12-3.25 2.64-5.5 3.73-1.12.55-2.3 1.02-3.44 1.33a13.85 13.85 0 0 1-3.11.6c-1.28.12-2.62-.07-3.9-.54-1.3-.5-2.44-1.25-3.7-2.1-.35-.22-.6-.42-1.2-.64-.3-.1-.55-.12-.84-.12a2.8 2.8 0 0 0-.93.16c-.07.03-.14.07-.2.1-.03-.07-.07-.14-.1-.24-.4-1.12-.7-1.9-.8-1.67-.03.16-.05.88.3 2.33-.22.22-.4.5-.48.8-.06.15-.08.3-.1.47l-.05.33c-.03.2-.04.4-.06.58-.14 1.54-.1 3.02.06 4.44a2.11 2.11 0 0 0 .1.66c.1 1.73.25 3.46.47 5.18 0 0 .2 1.56.6 3.6.4 2.04 1.03 4.47 1.72 6.38.25.63.7 1.07 1.15 1.32s.86.34 1.2.36c.53.01.8-.1.8-.2.17-.04.23-.1.14-.12-.14-.07-.68-.1-1.44-.6-.3-.22-.66-.57-.8-1.05-.06-.28-.1-.7-.18-1.1a52.47 52.47 0 0 1-.24-1.54l.03.05c-.07-.4-.14-.5.13-.5l.13-.01c.12-.01.23-.03.34-.04l.65-.1c.84-.12 1.6-.25 2.37-.43.27.14 1.88-.24 2.42-.25l-.05.02c1.37-.32 2.88-.28 4.2-.58-.05.02-.07.07-.38.12.97-.15 2.3-.37 2.4-.28 2.33-.34 5.6-.74 7.07-1.1l-.1.04c.84-.22 1.1-.17 2.05-.35.05.01.12 0 .1.01.9-.23 2.7-.38 3.45-.53l.06.06 1.85-.27-.7.08c.2-.2 1.4-.08 2.74-.38 1.26-.15 2.5-.72 3.8-.8.6-.17-.53.2.4.02.04.1-.43.12-.18.16.9-.17 1.5-.1 2.63-.32l.06.07c1.45-.33 2.78-.28 3.74-.54 1.5-.27 1.05.08 2.6-.28l.63.02c.68-.08.47-.2 1.22-.24-.04.07.95-.08.52.04 1.7-.13 3.42-.6 5.67-.74.47-.2 1.6-.27 1.95-.4.07.05 2.25-.3 1-.01-.1.02-.3.05-.3.03l-.14.1c1.3-.04 2.3-.4 3.56-.54-.38.03-.87.1-.55.01l1.17-.15-.24.1 1.75-.2-.25-.04c.86-.08 1.18.01 2.12-.23.43-.12-.82.01.08-.14l3.72-.35c.01-.03.03-.06.06-.07.02 0 .04.06.07.13l-.07.04c.4 1.32.03.65.3 1.82l.01.07c.01.03.01.06.02.1l-.07-.07c.07.07.13.15.18.24.05.46-.1.56-.2.65-.12.07-.15.2-.63.48.38-.18.32.12-.35.2.06-.03.13-.07.17-.1-.38.08-.54.13-.8.15.24-.08.12-.12-.5-.02l.4-.15-1.13.3c-.9.06-2.3.36-2.67.3 0 0-1.9.23-2.33.4.37-.13-.68.01-.4-.12-.48.15-1.93.43-2.53.44l.1-.03c-2.17.24-3.68.67-5.63.85.1.07-.93.18-.66.25-2 .4-3.7.32-4.36.77-.9.15-1.1.08-1.57.13l.2-.05-3.47.54c-.63.13-.7.3-1.85.43.36-.12-.1-.04-.53.03.27-.05.35-.1-.2-.04-.08.03-.2.06-.3.1-.01 0-.03 0-.02-.01-.7.13-.58.13-.25.1-.02.01.01.02.12.02-.75.03-2.05.3-2.15.22-2.13.34-3.64.68-5.4 1-.2-.03.2-.14.7-.23l-1.26.2c0-.08.72-.15 1.1-.23-1.52.1-3.07.6-4.84.73l-.36.12-.1.01c.01.03-.38.14-.64.2-.26-.03-.01-.16-.88-.03-.7.04-1.95.32-2.84.5.5-.06.34 0 .13.06-.43.07-.7.04-1.03.12l-.06-.1c.18.06-1.12.26-1.28.33-.26-.03.67-.16.77-.23l-2.6.4c-.92.2.18.06-.25.2-.82.14-1.6.33-2.56.4l.3.04c-1.53.3-2.46.42-3.5.5-4.85 1.02-5.98 1.4-5.7 1.5-1.5.74 3.96.14 3.96.14 5.56-.5 8.35-1.33 14.9-2.4 5.78-.78 7.35-.74 13.32-1.74 2.86-.4 5.9-.9 8.68-1.36 1.3-.4 3.66-.54 5.2-.95l.62.03c.53-.14 1.16-.27 1.7-.3l-.03.04c.8-.2 1.7-.3 2.1-.4l-.03.04.98-.16-.16.07c1.4-.3 2.84-.52 4.13-.67l-.13-.13a29.25 29.25 0 0 0 3.2-.46l1.37-.23.76-.1a7.42 7.42 0 0 0 .44-.05c.2-.03.42-.07.64-.14l-.05.02c1.12-.5 1.76-1.64 1.72-2.64 0-.24-.05-.5-.07-.65zM304 431.63l1.63-.22-1.63.22zm6.56-.84l1.94-.27-1.94.27zm20.02-3.07l.13-.05-.13.05zm20.5-5.75l.01.03-.01-.03zm-40.57-20.83c.03.08.06.23.03.22l.04.04c-.03.03-.06.06-.1.08-.08-.43-.2-.96.03-.34zm-24.63 27.96l.02.04-.02-.04zm44.82-7.56l-.25-.05c-.12-.1-1.48.4-1.7.3l-.62.14c-.18 0-.56.03-.25-.04-.6.07-.6.1-1 .2l-.64.01c-2.32.25-4.26.67-6.7.97-2.94.23-8.4 1.13-11.57 1.65-3.6.64-7.7.9-11.55 1.42.03-.14.02-.3.02-.3-.02-.58-.35-.75-.66-1.32-.2-.53-.1-.74-.43-1.24-.12-.26-.3-.5-.44-.74-.18-.05-.18-.32-.35-.4l.03-.1c-.06-.03-.1-.07-.1-.13l.02-.01c-.1-.04-.1-.13-.15-.15l.02-.01-.06-.08h.03c-.12-.1-.2-.2-.26-.32l-.07.06c-.07-.28-.27-.26-.32-.52h.02c-.36-.1-.17-.5-.55-.6.05.01.02-.04.04-.05-.1-.1-.22-.2-.36-.1-.07-.08-.02-.1.02-.15-.06.05-.14 0-.2-.06l.05.01-.18-.16-.07.13c-.06-.12.1-.14-.01-.2l-.08.08c-.1-.14-.07-.33-.14-.52-.53-.55-1.35-.7-1.85-1.17l.01-.1c.04-.12-.25.1-.22-.03l-.1.02c-.01-.03-.04-.07 0-.08-.06-.04-.07-.02-.14 0l-.04-.1c-.24-.16-.52-.12-.8-.23-.28-.27-.98-.3-1.36-.3-.55.07-1.08-.54-1.66-.4-.02-.02-.07.02-.07.03l-.5-.07c-.01-.04-2.4-.15-.64.97l-.01.03c.25.08.4.1.6-.02.01.17.2.04.26.1l-.01.01c.17-.12.3.15.47.05-.01.01-.02.06-.05.06.1-.01.27-.02.26.08.26.02.6.12.8 0l-.02.02c.12-.1.12.01.24-.02 0 .01.01.02.01.03.13-.08.3.05.4.03l-.01.07.2.04-.07-.03c.07-.17.12.15.3.08.13.06.4-.28.5-.15.1-.06-.1.1.02.08-.03.1-.07.04-.06.12.1-.01.13.14.27.12l-.02.07c.2-.07.25.2.4.12.18.01.02.24.24.18l.02.12c.06.05.1-.1.15-.01-.03.06.07.1 0 .12.12.17.4.03.53.3.1-.08.17.04.26-.02-.02.05.2.13.03.16-.02 0-.03-.01-.02-.03l-.05.05c.05.18.24.07.34.16-.02-.04-.06-.07-.01-.1l.1.08-.06.04.13.14.03-.08c.05.1 0 .2.14.18.07-.02 0-.14.1-.1.06.12.14.3.23.4.05-.07.08-.04.12-.03l-.05.06c.2.03-.07.16.1.22l-.05.03.14-.08c.2.01-.06.16.2.15-.05-.04.1-.13.13-.05l-.07.03c.04.02.08.01.08.05-.05.01-.1.06-.03.1l-.1.03.18.01c0 .13.18.18.12.28 0 0 .1.2.2.16-.08.01-.03.12-.12.14.1 0 .24.1.2.2h-.01c.07.24.33.26.37.5.07-.06.1.06.17-.02.22.13.03.46.36.35.07.08 0 .15.01.2l-.03-.01c.13.15.16.2.22.33.06.05.2-.02.24.1-.08-.01-.04.03-.02.08-.02-.02-.05-.02-.05.06.02 0 .04 0 .05.01.05.07.06.05.05.01.01 0 .02-.01.03-.03-.03.1.1.2.02.26.13.2.32.3.44.47-.04.05-.1.02-.15-.02l.08.12c-.07.03-.08-.05-.1-.1-.04.2.28.26.25.5l.07.01v.02c.03-.01.1.01.1.03-.05.06-.15.07-.1.15-.03.1.12.2.2.27-.01-.06.03-.05.06-.04.02.04-.03.1.01.12l-.08.04c.07-.05.14.08.18.08-.05.05-.1-.05-.14-.04.1.18.04.1.13.27.1.07.08-.05.17-.04.05.08.15.14.14.26l.07-.06c.13.14.16.25.12.4a3.41 3.41 0 0 0 .4.31 64.6 64.6 0 0 0-2.08.33c-.15 0-.53.1-.52.1l-4.17.55-2.92.4-.98.14.57-.08c-.48-2.65-.73-4.34-1.2-6.17.24-.34-.24-2.27-.2-2.92l.03.06c-.37-1.67-.05-3.48-.22-5.1.02.06.1.1.1.47-.05-1.16.02-2.8.2-2.75 0-.1.04-.2.14-.25.1-.05.17-.07.4-.05.05-.02.45.2.76.37l1.03.62c1.4.85 2.9 1.44 3.9 1.57h-.14c1.12.12 1.42.35 2.67.36.07.03.15.04.14.05.6-.04 1.5-.07 2.33-.17s1.64-.25 2.1-.42l.1.1c.76-.18 1.5-.46 2.24-.72-.28.1-.56.17-.84.26.18-.38 1.77-.37 3.2-1.35 1.45-.72 2.42-2.2 3.72-3.12.48-.62-.35.63.43-.23.14.1-.34.44-.03.33.8-.82 1.5-1.18 2.35-2.33l.13.04c.52-.78 1.06-1.47 1.54-2.1.23-.3.48-.67.64-.93a3.23 3.23 0 0 1 .41-.53c.55-.4.88-.26 1.1-.2.1.04.25.08.37.1.23.07.52.12 1 .18l.7.35c.44.13.6.1.78.1-.02.15.01.3-.03.53-.16.3-.34.3-.4.65-.07.14-.1.32-.14.47.1.12-.08.2-.01.32l-.08.01c.02.04.03.08-.02.1l-.02-.01c.03.06-.02.1 0 .13v-.01l-.01.05-.02-.02c.02.1 0 .17-.05.23l.08.03c-.15.1 0 .23-.16.3l-.02-.01c.15.25-.25.2-.12.45-.02-.03-.05-.01-.06-.02-.01.1-.03.17.13.24-.03.06-.07.03-.13.01.07.03.08.1.07.13l-.02-.03-.03.14.14.03c-.06.05-.17-.05-.16.03l.1.04c-.06.08-.25.07-.36.13-.2.36-.08.87-.4 1.14l-.1-.02c-.12-.04.14.17.02.14l.04.06c-.03 0-.06.02-.08-.01-.02.04 0 .04.02.1l-.1.01c-.12.12-.02.3-.12.45-.23.13-.23.53-.23.77.06.36-.54.5-.46.87-.02 0 .01.04.02.05l-.12.26s-.57 1.27.82.7l.02.02c.12-.12.17-.2.08-.36.17.05.06-.1.13-.13l.01.01c-.1-.14.18-.14.1-.27.01.01.05.03.05.05.01-.07 0-.17.1-.14.04-.16.16-.35.05-.5l.02.02c-.08-.1.01-.08-.01-.16h.03c-.08-.1.05-.18.03-.24l.06.02.03-.12-.03.04c-.16-.08.14-.05.07-.18.05-.07-.3-.3-.17-.36-.06-.07.12.1.08 0 .1.03.04.05.12.06-.02-.08.13-.06.1-.16l.07.02c-.1-.14.16-.14.07-.25-.02-.12.23.02.14-.14h.1c.03-.04-.1-.08-.04-.1.06.03.07-.04.12.01.14-.07-.04-.27.17-.35-.1-.08-.01-.12-.08-.18.05.02.07-.14.14-.02.01.01 0 .02-.02.01l.06.04c.16-.03-.01-.18.04-.25-.03.01-.04.05-.08.01l.04-.07.05.04.08-.1-.08-.01c.06-.04.2-.01.1-.1-.04-.05-.12.01-.12-.05.08-.05.2-.13.25-.22-.08-.02-.07-.05-.08-.08h.07c-.06-.14.17.03.13-.1l-.1-.06c-.1-.14.16.01.02-.16 0 .04-.16-.04-.1-.08l.06.04c0-.03-.03-.05-.01-.06.03.03.1.05.1 0l.07.06-.1-.12c.1-.03.04-.15.14-.14 0 0 .1-.1 0-.17.05.05.1-.01.17.04-.06-.06-.08-.18.01-.18v.01c.13-.1-.01-.28.13-.37-.08-.03-.01-.07-.12-.1-.05-.17.3-.15 0-.32.01-.07.1-.04.13-.06l.01.02c.02-.12.03-.15.07-.23-.01-.05-.16-.12-.1-.18.05.05.05.01.06-.01 0 .02.02.04.08.02-.02-.01-.02-.02-.03-.04.01-.05-.01-.05-.03-.04-.01 0-.02-.01-.04-.01.1-.02.05-.13.15-.1.03-.15-.03-.3-.03-.4.06.01.1.05.1.1v-.1c.07.03.02.06.03.1.16-.05-.04-.25.12-.3l-.05-.05h.01c-.03-.01-.06-.05-.07-.08.07.01.15.06.17 0 .08-.02.02-.14.01-.2-.02.03-.06 0-.07-.02.01-.03.08-.02.06-.05l.1.03c-.1-.02-.06-.1-.1-.13.07.01.04.07.08.1.04-.1.02-.06.06-.17-.04-.1-.1-.02-.15-.08 0-.06-.04-.14.04-.17h-.1c-.01-.07 0-.12.03-.15.28.1.8.25.4.22 1.68.57 3.5.77 5.6 1.4 0 .1 0 .2-.02.32-.16.3-.34.3-.4.65-.07.14-.1.32-.14.47.1.12-.08.2-.01.32l-.08.01c.02.04.03.08-.02.1l-.02-.01c.03.06-.02.1 0 .13l-.02-.01-.01.05-.02-.02c.02.1 0 .17-.05.23l.08.03c-.15.1 0 .23-.16.3l-.02-.01c.15.25-.25.2-.1.45-.02-.03-.05-.01-.06-.02-.01.1-.03.17.13.24-.03.06-.07.03-.13.01.07.03.08.1.07.13l-.02-.03-.03.14.14.03c-.06.05-.17-.05-.16.03l.1.04c-.06.08-.25.07-.36.13-.2.36-.08.87-.4 1.14l-.1-.02c-.12-.04.14.17.02.14l.04.06c-.03 0-.06.02-.08-.01-.02.04 0 .04.02.1h-.1c-.12.12-.02.3-.12.45-.23.13-.23.53-.23.77.06.36-.54.5-.46.87-.02 0 .01.04.02.05l-.12.26s-.57 1.27.82.7h.02c.12-.12.17-.2.08-.36.17.05.06-.1.13-.13v.01c-.1-.14.18-.14.1-.27.01.01.05.03.05.05 0-.07 0-.17.1-.14.04-.16.16-.35.05-.5l.02.02c-.08-.1.01-.08-.01-.16h.03c-.08-.1.05-.18.03-.24l.06.02.03-.12-.03.04c-.16-.08.14-.05.07-.18.05-.07-.3-.3-.17-.36-.06-.07.12.1.08 0 .1.03.04.05.12.06-.02-.08.13-.06.1-.16l.07.02c-.1-.14.16-.14.07-.25-.02-.12.23.02.14-.14h.1c.03-.04-.1-.08-.04-.1.06.03.07-.04.12.01.14-.07-.04-.27.17-.35-.1-.08-.01-.12-.08-.18.05.02.07-.14.14-.02.01.01 0 .02-.02.01l.06.04c.16-.03-.01-.18.04-.25-.03.01-.04.05-.08.01l.04-.07.05.04.08-.1-.08-.01c.06-.04.2-.01.1-.1-.04-.05-.12.01-.12-.05.08-.05.2-.13.25-.22-.08-.02-.07-.05-.08-.08l.07.02c-.06-.14.17.03.13-.1l-.1-.06c-.1-.14.16.01.02-.16 0 .04-.16-.04-.1-.08l.06.04c0-.03-.03-.05-.01-.06.03.03.1.05.1 0l.07.06-.1-.12c.1-.03.04-.15.14-.14 0 0 .1-.1 0-.17.05.05.1-.01.17.04-.06-.06-.08-.18.01-.18l.01.01c.13-.1-.01-.28.13-.37-.08-.03-.01-.07-.12-.1-.05-.17.3-.15 0-.32.01-.07.1-.04.13-.06v.02c.02-.12.03-.15.07-.23-.01-.05-.16-.12-.1-.18.05.05.05.01.06-.01 0 .02.02.04.08.02-.02-.01-.02-.02-.03-.04.01-.05-.01-.05-.03-.04-.01 0-.02-.01-.04-.01.1-.02.05-.13.15-.1.03-.15-.03-.3-.03-.4.06.01.1.05.1.1l.01-.1c.07.03.02.06.03.1.16-.05-.04-.25.12-.3l-.05-.05h.01c-.03-.01-.06-.05-.07-.08.07.01.15.06.17 0 .08-.02.02-.14.01-.2-.02.03-.06 0-.07-.02.01-.03.08-.02.06-.05l.1.03c-.1-.02-.06-.1-.1-.13.07.01.04.07.08.1.04-.1.02-.06.06-.17-.04-.1-.1-.02-.15-.08 0-.03-.01-.06-.01-.1.08.03.16.05.24.08.63-.05 1.93.43 2.4.4.05.1 2.66.75 1.1.52-.13-.02-.36-.1-.33-.1l-.2.07c1.44.63 2.76.64 4.24 1.1-.43-.17-1.02-.32-.6-.3l1.37.4-.32.02 2.03.66-.25-.2c.98.36 1.27.67 2.44.85.54.06-.9-.46.17-.17l4.9 1.9c-.1-.2.34-.03.8.12l.01.14c1.8.52.55.5 2.3 1.07l-.18.02.54-.04c1.57.48.73.57 2.33 1.16-.28-.17-.3-.27-.18-.27s.4.12.68.38l-.23-.03c.2.12.23.17.3.23.07.04.14.18.2.3-.2-.2-.22-.04.14.54-.12-.1-.24-.22-.36-.32.28.3.56.68.82 1.04.35.97 1.04 2.5 1 2.96l.28 1.06c-.25.01-.5.03-.76.05-5.8.75-12.05 1.9-17.52 2.43zm19.6 2.75c.4-.26.68-.67.83-1.12-.14.44-.43.86-.83 1.12z"/><path xmlns="http://www.w3.org/2000/svg" d="M282.75 404.83c-.36-1.93-.73-3.32-1.17-4.87l-.9.48.08.37.03-.25c.35 1.15.5 1.85.62 2.66 2.77 8.53 1.35 1.6 1.35 1.6zm25.55-14.6h0l.07.1zM270 323.3h0l.08.08zm10.58-71.66l.02-.04c-.02-.02-.03-.01-.02.04zm-54.6-32h0v.07zm-29.12 53.27h0l.02.15z"/><path xmlns="http://www.w3.org/2000/svg" d="M195.58 273.58c-.43 1.5-.84 2.36-1.38 3.76-.94 2.95-2.37 5.87-4.42 8.28-2.02 2.42-4.6 4.3-7.2 5.56l-.26.05c-.15-.06-1.35.88-1.6.87l-.6.34c-.18.05-.56.2-.27.03-.58.24-.58.27-.98.5l-.65.2-6.77 2.5c-3.04.84-8.68 2.77-11.92 3.88-4.54 1.63-10.04 2.82-14.67 4.5-.16.03-.54.2-.53.2l-4.3 1.34s-20.9 6.52-4.7 2.55l-.1.06c2.38-.68 3.87-1.13 5.45-1.78.3.08 1.94-.6 2.5-.7l-.05.03c1.4-.58 3-.83 4.35-1.38-.05.03-.07.08-.38.2 1-.34 2.37-.8 2.48-.74 2.4-.78 5.78-1.8 7.28-2.44l-.1.06c.85-.38 1.14-.37 2.1-.74.06 0 .13-.02.12-.01.93-.4 2.8-.9 3.56-1.18l.07.05 1.9-.62-.72.2c.2-.25 1.48-.35 2.83-.9 1.3-.4 2.5-1.2 3.88-1.56.6-.3-.52.32.42-.06.06.08-.43.2-.16.2.93-.35 1.57-.4 2.7-.87l.07.05c1.46-.65 2.88-.9 3.82-1.4 1.5-.66 1.12-.18 2.64-1l.66-.17c.68-.3.43-.34 1.18-.65-.02.08.95-.4.55-.15 1.7-.78 3.27-1.9 5.3-3.34.37-.4 1.3-1.22 1.54-1.55.13.04 1.7-1.83.86-.7-.07.1-.22.25-.22.23l-.06.18c.52-.48.94-.98 1.34-1.48.37-.53.7-1.1 1.12-1.65-.26.32-.58.77-.4.45.25-.35.53-.7.74-1.07l-.08.27 1-1.66-.2.2c.5-.8.7-1.08 1.08-2.08.15-.46-.47.77-.07-.14.53-1.13 1.25-2.9 1.68-4.43-.12.12 0-.3.1-.72l.1-.03c.34-1.65.32-.55.67-2.18l-.03-.3c.23-1.5.35-.75.57-2.4-.15.64-.23.26-.01-.52l.02.22c.1-.44.1-.6.2-.88-.03.27.07.16.2-.48l-.02.45.17-1.24c.3-.92.57-2.42.76-2.78 0 0 .53-2 .53-2.5-.03.42.26-.68.26-.35.05-.54.34-2.1.57-2.7v.12c.6-2.26.78-3.93 1.35-5.96-.1.07.2-1 .02-.76.37-2.15 1.1-3.82.93-4.66.2-.97.33-1.13.46-1.62l-.03.23.8-3.7c.12-.68-.02-.82.3-2-.02.4.07-.1.17-.54-.05.3-.05.38.12-.2 0-.1.02-.22.03-.34.01 0 .01-.03.02-.01.14-.76.1-.63.01-.28-.01-.02-.02.01-.06.1.25-.76.47-2.17.6-2.25.47-2.26.7-3.9 1.07-5.8.1-.2.05.25-.04.8l.27-1.34c.08.03-.12.78-.2 1.2.47-1.56.58-3.3 1.1-5.14l.02-.4.03-.1c-.03 0 .01-.43.06-.7.12-.25.15.05.35-.87.1-.36.2-.88.3-1.43.2.1.48.2.82.32l-.03.03c.6.1 1 .13 1.4-.01.07.18.5.01.64.07h-.01c.37-.13.77.1 1.12-.05-.01.01-.02.06-.1.07.26-.04.6-.1.64 0 .62-.08 1.5-.13 1.86-.35l-.02.03c.2-.14.3-.06.53-.15.02.01.03.02.03.02.22-.14.7-.15.9-.23l.03.06.48-.1h-.18c.02-.2.4.04.7-.16.33-.06.56-.53.9-.52.13-.13-.1.17.12.04.03.1-.1.1-.01.15.22-.1.4-.02.67-.17l.03.07c.33-.25.73-.1.94-.32.36-.2.33.12.67-.16l.2.04c.17-.05.08-.16.28-.18.01.06.25-.04.17.06.46-.06.8-.5 1.4-.56.07-.16.37-.22.42-.34.04.04.54-.26.3 0-.02.02-.07.04-.07.02v.08c.36-.03.52-.35.82-.48-.1.02-.2.1-.16 0l.28-.13-.03.08.43-.18-.1-.04c.22-.07.36.01.52-.22.07-.1-.24.02-.04-.12a11.11 11.11 0 0 0 1.07-.46c-.08-.05.01-.1.1-.18l.05.06c.3-.3.23.07.52-.24v-.13c.22-.34.25.01.47-.4-.12.1-.16-.1.02-.18v.1c.08-.08.1-.12.16-.15-.03.07.03.1.16 0l-.03.14.17-.3c.25-.07.48-.4.6-.38 0 0 .42-.3.44-.46-.03.12.2-.04.2.07.05-.15.3-.45.48-.5l-.02.03c.48-.34.62-.78 1.07-1.08-.08-.04.15-.2.02-.23.28-.47.8-.6.68-.96.14-.2.25-.17.35-.25l-.02.06c.27-.37.33-.5.55-.75.07-.16-.04-.27.17-.5-.01.12.06.01.12-.08-.04.06-.03.1.1 0 0-.03.01-.06.02-.1 0 0 .01 0 .02.01.1-.17.05-.15 0-.1-.01-.01-.02-.01-.05 0 .17-.12.3-.46.4-.42.3-.5.42-.9.6-1.32.07-.02.06.1.01.23l.15-.3c.07.04-.06.2-.1.3.3-.3.3-.77.62-1.13l-.01-.12.02-.02c-.03-.01-.02-.13 0-.2.1-.03.14.08.24-.13.15-.13.2-.48.26-.72-.06.1-.08.06-.08 0 .04-.1.14-.14.14-.23l.1.03c-.1.01.04-.3.02-.37.1-.03-.02.2.02.23.18-.43.1-.2.26-.65.02-.26-.1.01-.13-.13.06-.2.08-.43.22-.64l-.1.05c.07-.4.17-.63.33-.86v-.06h-1.03c-.2.64-.3 1.22-.64 2.14-.55 1.08-.84 1.28-1.4 2.38-.32.5-.63 1.05-.96 1.53-.06.3-.45.6-.57.94l-.13.06c-.04.1-.1.22-.22.28l-.01-.02c-.07.16-.22.28-.25.37v-.02l-.13.16v-.05c-.15.26-.34.5-.55.66l.08.04c-.47.33-.5.6-.94.9l-.01-.02c-.33.6-.88.55-1.24 1.16.05-.08-.06-.01-.06-.03-.23.2-.5.4-.4.55-.18.13-.18.07-.24.03.05.06-.1.2-.24.3l.05-.07-.4.32.16.06c-.24.12-.15-.1-.34.08l.07.1c-.33.17-.62.14-.97.25-1.27.75-2.63 1.68-4 2.03l-.1-.06c-.07-.1-.3.3-.38.22l-.13.1c-.05-.01-.15 0-.08-.05-.14.05-.14.07-.23.14l-.18-.02c-.57.16-1 .42-1.6.58-.76.06-2.08.5-2.87.73-1.1.38-2.48.02-3.6.28-.04-.01-.13.03-.13.04-.35 0-.7.01-1.06-.01 0 0-1.2-.03-2.02-.01.05-.33.1-.66.16-.95-.12.5-.12.34-.1.1.1-.46.22-.7.27-1.08l.1-.02c-.13.16.16-1.23.16-1.4.12-.25-.1.73-.07.85l.58-2.78c.14-1-.13.16-.1-.33.17-.88.28-1.74.55-2.73l-.15.3c.28-1.65.5-2.63.8-3.72l.6-4.3h-.6l-.06.24-.32 1.3c-1.2 4.77-1.47 7.3-2.62 13.02-1.1 5-1.56 6.3-2.62 11.53l-1.6 7.56c-.13 1.18-.7 3.18-.9 4.57l-.2.5c-.07.48-.17 1.03-.3 1.5l-.01-.03c-.1.7-.3 1.5-.36 1.85l-.01-.03-.18.85v-.15a58.99 58.99 0 0 1-.77 3.59l.1-.07c-.63 2.35-.65 3.25-1.26 5.36l-.01-.03c-.4 2.75-1.14 4.23-1.6 7.06.06-.35-.08.14-.1.1-.28 1.28-.6 2.65-.44 2.7-.23.93-.24.74-.33.85.07.01-.1.83-.28 1.55l.06-.34-.5 2.08.24-.37c-.33 1.1-.24.24-.48 1.3l-.05-.03zm-69.4 26.4l-.04-.02c-.02.02-.01.03.04.02zm50.28-20.47l.04.03-.04-.03zm.22.1c.2.12.15.1 0 0h0z"/><path xmlns="http://www.w3.org/2000/svg" d="M250.98 248.48l.44-.8c.33-.3 1.6-5.35 2.04-6l.7-2.24c.26-.6.77-1.9.42-.8l1.2-3.6.92-2.15c2.65-7.08 4.7-13.3 7.3-20.5l2.94 6.52c.2.68-.46-.63-1.2-2.3l1.78 4.07c-.14.02-1.08-2.32-1.64-3.56 1.9 4.95 4.5 9.94 6.75 15.72l.6 1.14.13.35c.04-.04.66 1.2 1.04 2.05.24.85-.27.05.94 2.87.85 2.28 2.75 6.33 4.05 9.23-.65-1.6-.38-1.1-.05-.44.6 1.4.84 2.27 1.35 3.34l-.07.15c.2.15 1.7 3.72 1.97 4.17.23.85-1.02-2.16-1.25-2.47l3.6 8.5c1.38 2.98-.1-.6.64.8 1.15 2.66 2.34 5.23 3.53 8.34l-.28-1.03c2.2 5 3.42 8 4.67 11.46 8.23 18.55 8.74 20.72 8.18 17.8-.66-2.96-3.54-10.44-3.54-10.44-5.68-14.97-9.27-22.4-16.76-39.9l-14.9-35.5-1.52-3.52a3.32 3.32 0 0 0 .1-.29l.76-1.97.18-.48h-1.62l-.3.8-.8 2.06c-.54 1.4-1.1 2.87-1.77 4.85l-.17.12c-1.64 5.2-3.65 9.6-4.68 13.1-1.8 5.32-1.63 3.42-3.4 9l-.93 2.08c-.88 2.34-.42 1.76-1.44 4.34-.04-.2-1.27 3.27-.8 1.7-2.3 5.85-4.1 12.07-7.2 19.75-.42 1.76-1.95 5.63-2.26 6.95-.16.18-2.85 7.84-1.44 3.38.12-.38.37-1.05.38-1l.08-.57c-1.82 4.36-2.8 8.1-4.42 12.48.5-1.3 1.12-3.02.78-1.84l-1.5 4.07.2-.88-2.25 6.06.42-.8c-1.14 2.95-1.72 3.92-2.76 7.34-.45 1.55 1.18-2.76.08.4a54.68 54.68 0 0 1-3.03 6.77c-1.28 2.4-2.84 4.8-4.47 6.86.43-.3-.48.8-1.4 1.94l-.2.04c-1.82 2.12-2.3 2.37-2.7 2.67s-.8.6-2.9 2.4c.1-.12.23-.24.33-.37-.32.38-.67.72-1 1.1-.96.82-1.62 1.27-2.1 1.57a23.03 23.03 0 0 1-1.12.67c-.32.2-.68.35-1.23.7-.56.32-1.3.85-2.5 1.55 1.95-1.04 1.06-.24-1.4.98l.56-.43c-1.33.73-1.8.94-2.7 1.35.8-.45.37-.33-1.66.56a24.13 24.13 0 0 0 1.31-.73c-1.24.66-2.53 1.22-3.8 1.83-3.04 1-8.05 2.5-9.4 2.7l-3.6.94c-1.9.5-4 1.06-4.77 1.34 1.35-.45-2.44.44-1.4.04-1.74.58-6.98 1.95-9.12 2.3l.4-.1c-7.83 1.7-13.3 3.3-20.37 4.72.35.07-3.38.83-2.42.8-7.23 1.8-13.34 2.56-15.85 3.7-1.67.38-2.6.55-3.47.7l-.9.16-.14.02c-.06-.22-.13-.43-.24-.63.15-.12-.12-.62-.1-.8l.02.01c-.23-.43-.1-.97-.3-1.38.02.01.07.01.1.1-.1-.32-.23-.75-.13-.8-.2-.76-.4-1.84-.65-2.3l.03.03c-.17-.26-.1-.36-.22-.66.01-.02.01-.04.02-.04-.17-.28-.2-.9-.3-1.12l.06-.03-.15-.6.04.23c-.2-.04.01-.48-.2-.9-.07-.42-.56-.75-.56-1.2-.13-.2.18.15.04-.14.1-.03.1.13.15.03-.1-.3-.01-.5-.16-.87l.07-.03c-.24-.45-.1-.93-.3-1.22-.17-.48.14-.38-.1-.87l.05-.22c-.03-.23-.16-.13-.16-.4.07 0-.02-.32.07-.2-.03-.58-.4-1.1-.38-1.87-.16-.13-.17-.52-.28-.62.05-.03-.15-.74.05-.35.02.03.03.1.01.1l.08.03c.04-.45-.24-.74-.3-1.16 0 .13.05.3-.03.2l-.07-.4.08.07-.1-.58-.06.1c-.02-.3.08-.42-.1-.7-.1-.13-.04.3-.13 0a18.27 18.27 0 0 0-.16-1.45c-.07.06-.1-.07-.15-.2l.07-.03c-.2-.48.12-.22-.07-.7l-.12-.07c-.24-.42.1-.28-.2-.74.06.2-.14.13-.16-.12l.08.05c-.04-.13-.08-.17-.1-.27.06.07.1.02.06-.18l.12.1-.2-.35c.01-.3-.2-.75-.1-.9 0 0-.1-.64-.23-.76.1.1.04-.24.15-.16-.1-.15-.28-.6-.24-.82l.02.03c-.07-.73-.38-1.2-.42-1.85-.08.05-.1-.3-.2-.2-.25-.64-.05-1.25-.43-1.42-.08-.3 0-.37-.02-.53l.03.07a18.3 18.3 0 0 1-.28-1.14c-.08-.2-.24-.2-.3-.58.1.1.04-.04.01-.18.03.1.06.1.06-.08-.02-.02-.05-.06-.06-.1-.06-.24-.07-.2-.06-.08-.01 0-.02.01-.03.05.03-.26-.15-.67-.05-.73-.18-.7-.4-1.17-.57-1.75.04-.08.12.05.18.2l-.1-.4c.08-.01.1.23.14.35.02-.52-.35-1-.36-1.6l-.1-.1v-.04c-.03.01-.1-.1-.14-.2.05-.1.16-.03.1-.3.02-.24-.17-.64-.28-.92.02.16-.03.12-.06.06-.03-.14.02-.24-.04-.34l.1-.03c-.07.08-.18-.35-.23-.4.05-.1.1.2.17.23l-.2-.86c-.14-.3-.07.07-.2-.05-.08-.27-.2-.52-.2-.84l-.06.12c-.18-.5-.23-.8-.23-1.16-1.5-3.64-1.1-.6-1.1-.6.15 1.53.56 2.25 1 4 .3 1.57.23 2.02.66 3.62.16.77.38 1.6.56 2.34.2.33.22 1 .42 1.4l-.03.18c.07.14.13.3.12.46h-.02c.1.2.12.46.17.56h-.02l.07.26-.04-.04a5.39 5.39 0 0 1 .28 1.1l.08-.05c.07.76.3 1 .34 1.68h-.02c.4.8.14 1.36.54 2.18-.05-.1-.03.06-.06.05.1.4.22.82.4.8.06.3 0 .25-.06.3.07-.02.16.23.2.45l-.05-.1.17.65.1-.16c.04.35-.15.12-.04.45l.1-.03c.08.48-.03.8-.01 1.28.37 1.93 1.12 3.93 1.3 5.76l-.07.1c-.12.06.3.45.2.55l.1.2c-.01.06-.01.2-.06.1.04.2.06.2.13.32l-.03.22c.1.77.4 1.38.55 2.2.05 1 .6 2.77.9 3.8.5 1.42.4 3.23.93 4.68-.01.05.06.17.07.17l.28 1.37a35.65 35.65 0 0 0 .5 2.01l.08 2.78-7.98 2c-.8.18-1.4.08-2.03-.27-.32-.18-.64-.47-.9-.94-.22-.4-.38-1.32-.6-2.32.42 1.3 0-.37-.36-1.9.25.98.36 1.27-.05-.76-.1-.28-.22-.7-.34-1.12 0-.02-.01-.1.01-.06-.64-2.55-.57-2.1-.3-.9-.03-.06-.03.05.03.42-.5-2.7-1.77-7.4-1.67-7.78l-4.94-19.56c-.08-.74.36.74.83 2.6l-1.1-4.54c.14.01.7 2.6 1.05 4-.54-2.73-1.25-5.5-2-8.4l-1.12-4.44-.27-1.14a2.98 2.98 0 0 1-.06-.94c.07-.63.38-1.25.85-1.68.22-.27.5-.5.83-.66l.32-.1c-.03-.05 1.35-.55 2.27-.84.92-.16.01.28 3.1-.67.5-.13 1.07-.3 1.7-.48l.88-.27a5.41 5.41 0 0 1 .43-.14l.07.15.03.08-.01-.04.44 1.1.25.63.06.16c.02.06.1-.02.14-.02l.32-.12 1.22-.45 3.2-1.2c-1.7.58-1.18.33-.46.03 1.52-.54 2.44-.74 3.6-1.2l.15.08c.17-.18 4.02-1.56 4.5-1.8.9-.2-2.33.94-2.68 1.15l9.15-3.3c3.2-1.28-.64.07.87-.62 2.86-1.06 5.63-2.18 8.95-3.3l-1.1.25c5.35-2.06 8.58-3.24 12.24-4.46 9.9-4.02 15.32-6.47 17.7-7.93l.38-.27a2.22 2.22 0 0 0 .16-.12c.02-.03.03-.05.05-.07l.03-.02.01-.01.03.02a4.6 4.6 0 0 1-.23-.15c-.03-.02-.04-.03-.06-.04.1.05.24.15.4.23l-.05-.02.05.03c-.03.18-.03.22.13.07h0c.3-.35.97-2 1.97-5.23 1-3.26 2.4-8.13 4.26-15l-.04.38c2.06-8.2 3.28-13.4 4.37-19.14.5-.83 1.6-6.77 2.13-8.68l-.02.2c.94-5.08 2.56-10.32 3.5-15.22-.02.2.03.32-.22 1.43.78-3.54 1.83-8.4 2.05-8.6l.6-2.65h-2.06l-1.83 7.7-2.13 9.7c-.08.26-.18.75-.26 1.16l-.1.54-.03.22-3.5 15.06-6.82 29.6-1.57 6.77c-.05.24-.1.44-.14.62-.07-.02-.32.3-.7.84-.05-.04-.01-.02-.03-.03-.06.01-.13.04-.2.08-.17.1-.36.18-.6.28-.45.2-.98.42-1.53.65l-3.52 1.38-4.3 1.62-42.64 15.82-3.87 1.34-.3.1c-.02 0-.05.02-.07.01l-.16-.42-.63-1.67-8.6 2.5-1.8.53c-.77.25-1.46.74-2 1.34-.52.6-.9 1.34-1.06 2.12-.1.4-.12.8-.1 1.2.01.4.12.87.17 1.1l4.05 17.16 4.17 17.38c-.83.23-1.64.46-1.6.6-.68.17-.56.08-.67.04.02.07-.56.25-1.08.38l.24-.1-1.5.4.33.06c-.8.16-.25-.12-1 .1l.04.1c-1.12.25-1.8.24-2.9.43l-4.98 1.28a.99.99 0 0 0-.22-.59c.16-.08-.05-.3-.01-.4h.02c-.18-.2.01-.5-.15-.68.02.01.06 0 .08.05-.05-.15-.14-.36-.04-.4-.1-.37-.17-.9-.38-1.12l.03.01c-.14-.12-.05-.18-.14-.32h.02c-.14-.13-.1-.44-.18-.55l.06-.02-.08-.3.01.12c-.2 0 .06-.25-.1-.44-.02-.2-.46-.33-.42-.56-.1-.08.16.06.06-.08.1-.02.07.06.14 0-.08-.14.04-.26-.06-.43l.07-.02c-.18-.2 0-.47-.16-.6-.1-.23.18-.2-.02-.44l.08-.12c-.01-.1-.14-.05-.12-.18.06-.01.02-.16.1-.1.04-.3-.26-.53-.17-.92-.14-.05-.1-.25-.2-.3.05-.02-.07-.37.1-.2.01.02.02.05 0 .05l.08.01c.1-.23-.15-.36-.18-.57-.01.07.01.14-.05.1l-.03-.2.07.03-.02-.3-.07.05c.01-.15.13-.22-.01-.36-.07-.06-.07.15-.13.01.01-.2.03-.5 0-.73-.08.04-.1-.02-.12-.1l.07-.02c-.15-.23.14-.13.01-.36h.06l-.17-.03c-.2-.2.13-.15-.12-.36.03.1-.15.08-.15-.05l.08.02c-.03-.06-.06-.08-.06-.13.05.03.1 0 .07-.1l.1.05-.17-.16c.05-.16-.1-.37-.01-.45 0 0-.02-.32-.14-.37.08.05.07-.13.16-.1-.1-.06-.2-.3-.14-.4l.01.02c.01-.37-.24-.58-.2-.9-.08.03-.07-.14-.17-.08-.18-.3.1-.64-.27-.7-.05-.14.04-.2.04-.27l.03.03a2.53 2.53 0 0 1-.14-.56c-.05-.1-.2-.08-.2-.27.07.05.05-.03.03-.1.02.04.04.05.07-.05-.02-.01-.04-.03-.05-.04-.04-.12-.05-.1-.05-.04-.01 0-.02.01-.03.03.05-.14-.08-.33.03-.37-.1-.34-.26-.57-.36-.84.05-.04.1.01.15.1l-.06-.2c.08-.01.07.1.1.17.08-.27-.23-.47-.18-.8l-.07-.05h.01c-.03.01-.1-.05-.1-.1.06-.05.16-.03.12-.17.04-.13-.1-.3-.17-.45.01.08-.04.06-.07.04-.02-.07.04-.13 0-.17l.1-.03c-.08.05-.13-.16-.18-.18.06-.05.08.1.14.1-.07-.28-.03-.14-.1-.42-.1-.14-.08.05-.18-.01-.05-.13-.14-.25-.12-.4l-.07.07c-.12-.24-.14-.4-.1-.58-1.06-1.73-1-.2-1-.2-.03.77.3 1.1.54 1.96.12.78.01 1.02.24 1.8.07.38.2.78.3 1.15.16.15.1.5.25.67l-.05.1c.05.06.1.14.07.22h-.02c.08.1.07.22.1.27h-.02l.04.13h-.03a1.26 1.26 0 0 1 .15.54l.08-.03c-.02.38.2.48.14.83h-.02c.3.37-.01.7.3 1.07-.04-.05-.04.03-.06.03.07.2.12.4.3.37.03.14-.03.13-.1.16.07-.02.13.1.16.2l-.04-.05.1.32.12-.1c0 .18-.16.08-.1.24l.1-.03c.03.24-.12.42-.15.66.15.96.66 1.92.64 2.84l-.08.06c-.12.04.24.2.13.26l.08.1c-.02.03-.03.1-.07.05.02.1.04.1.1.15l-.06.12c.02.4.24.67.3 1.07-.06.5.28 1.37.47 1.86.34.68.02 1.63.4 2.32-.01.03.04.08.05.08l.13.68a11.01 11.01 0 0 0 .15.6l-.8.2-1.7.45-.42.1c-.13.03-.34.1-.45.13l-.8.24c-1.08.3-2.15.52-3.2.62l-.2-.06c-.06-.08-.58.1-.94.18a3.41 3.41 0 0 0-.4-1.56c-.12-.22-.27-.4-.42-.58l-.32-.36a23.52 23.52 0 0 1-.61-.73c-.8-1-1.53-2.07-2.14-3.37-.64-1.6-1.47-3.92-1.8-6.4-.16-1.24-.23-2.5-.17-3.68a13.96 13.96 0 0 1 .42-3.14 8.96 8.96 0 0 1 1.76-3.53c.87-1.07 1.96-1.9 3.18-2.84.3-.24.55-.42.9-.83.01 0 .02-.01.02-.01 1.13-.44 1.92-.76 1.68-.84-.1-.02-.53-.03-1.3.1.02-.04.03-.07.05-.12.1-.28.15-.62.14-.93-.01-.64-.3-1.27-.83-1.64a2.14 2.14 0 0 0-.41-.25l-.3-.15c-.18-.1-.36-.16-.53-.24-1.42-.62-2.83-1.05-4.23-1.36a2.08 2.08 0 0 0-.65-.12c-1.67-.47-3.36-.86-5.06-1.2 0 0-1.55-.3-3.6-.57-2.06-.27-4.56-.44-6.6-.4a2.62 2.62 0 0 0-1.61.67 2.7 2.7 0 0 0-.72 1c-.18.5-.16.78-.07.8-.02.17.01.25.07.17.1-.1.3-.62 1.02-1.17.35-.26.88-.53 1.48-.4-.08-.02-.15-.01-.23-.01.3.03.7.12 1.1.18a36.73 36.73 0 0 1 1.54.27l-.05.01c.4.06.53.03.43.28l-.03.13-.07.34-.12.64c-.15.83-.27 1.6-.35 2.38-.22.2-.37 1.85-.53 2.37V320c-.13 1.4-.65 2.82-.8 4.17 0-.05-.04-.1.01-.4-.16.97-.38 2.3-.5 2.36-.42 2.32-1.08 5.54-1.2 7.05v-.1c-.06.87-.2 1.1-.32 2.05-.02.05-.04.1-.05.1-.07.94-.5 2.7-.6 3.44l-.07.04-.34 1.84.15-.68c.13.27-.38 1.36-.52 2.72-.26 1.24-.1 2.6-.44 3.87-.03.63-.03-.57-.14.36-.1.01.02-.44-.1-.22-.13.9-.38 1.46-.53 2.6l-.08.03c-.14 1.48-.62 2.73-.68 3.72-.23 1.5-.4.96-.57 2.56l-.22.6c-.14.67.03.5-.16 1.23-.05-.06-.23.93-.2.48-.42 1.66-.5 3.43-1.1 5.6.03.5-.26 1.6-.23 1.98-.06.05-.44 2.23-.3.96.01-.1.05-.3.07-.28l-.04-.16c-.38 1.23-.36 2.3-.62 3.55.1-.37.18-.86.17-.52l-.23 1.16-.06-.14-.37 1.72.12-.22c-.2.84-.4 1.1-.46 2.08-.02.44.25-.78.1.12l-.85 3.64c.03.02.04.05.05.07-.01.02-.07.02-.14.02v-.08c-1.4-.04-.63-.18-1.82-.3l-.07-.01c-.03 0-.06 0-.1-.01l.1-.04c-.1.04-.18.08-.3.1-.46-.1-.5-.28-.55-.4-.03-.14-.14-.2-.25-.74.05.4-.22.27-.08-.4.01.06.02.14.04.2.05-.4.05-.55.1-.8-.01.25.08.15.18-.46v.42l.07-1.17c.23-.87.4-2.28.55-2.63 0 0 .4-1.9.35-2.34 0 .4.2-.65.24-.34.01-.5.2-1.97.4-2.54l-.01.1c.47-2.13.54-3.7 1-5.6-.1.07.13-.94-.03-.7.25-2.02.87-3.6.66-4.38.14-.9.27-1.06.37-1.53v.22l.6-3.46c.08-.64-.06-.76.18-1.9 0 .38.07-.1.14-.5-.04.27-.03.36.1-.2-.01-.08 0-.2.01-.32.01 0 .01-.03.02-.01.1-.7.06-.6 0-.26-.01-.02-.02.01-.06.1.2-.72.36-2.04.48-2.1.35-2.13.5-3.66.8-5.44.1-.2.07.23 0 .75l.2-1.26c.08.02-.08.73-.14 1.12.4-1.47.42-3.1.85-4.83v-.37l.03-.1c-.03 0-.01-.4.03-.66.1-.23.16.05.3-.82.2-.67.3-1.95.44-2.85-.1.48-.1.32-.1.1.07-.43.2-.67.22-1l.1-.02c-.12.15.1-1.15.1-1.3.1-.23-.06.68-.03.8l.45-2.6c.1-.94-.12.15-.12-.3.13-.82.2-1.63.43-2.56l-.14.28c.2-1.55.38-2.46.65-3.48.58-4.92.58-6.1.38-5.87-.23-1.65-1.4 3.7-1.4 3.7-1.3 5.44-1.4 8.34-2.46 14.9-1.1 5.73-1.64 7.2-2.6 13.18l-1.48 8.66c-.03 1.36-.65 3.65-.76 5.24l-.23.58c-.04.55-.1 1.2-.27 1.7l-.03-.04c-.05.82-.27 1.7-.3 2.12l-.03-.04-.16.98-.02-.18a40.24 40.24 0 0 1-.68 4.12l.16-.08c-.32 1.34-.46 2.28-.6 3.18l-.22 1.37-.15.76a8.69 8.69 0 0 1-.1.43 3.32 3.32 0 0 0-.07.65l-.04-.05c.1 1.2 1 2.2 1.95 2.47.23.08.48.1.64.14l.46.1.96.18c1.27.22 2.6.4 4.28.2-.42.05.18.07.15.1 1.56-.06 3.25-.4 3.2-.7l.97-.2c.15-.02.15.03.26.04.01-.1.9-.73 1.52-1.35l-.28.3c.65-.58 1.2-1.2 1.76-1.82l-.5.2c.94-.92.44-.05 1.23-1.03l-.16-.12c1.2-1.35 2.08-2 3.26-3.3 4.44-5.75 8.27-12.5 12.2-17.92l.28-.17c.25.01.74-1.73 1.04-1.83l.34-.7c.15-.16.43-.53.27-.18.4-.6.38-.64.6-1.12.08-.08.2-.23.3-.4.1-.14.17-.3.25-.46.02-.06.02-.12.04-.17.1-.02.2-.03.4-.03-.03.07.77-.04.42.06 1.4-.06 2.7-.58 4.47-.93.08-.06.2-.1.34-.17l.17-.07.22-.06c.3-.08.58-.16.7-.24.06.04 1.72-.42.8-.07-.08.03-.23.06-.22.04l-.1.1c1-.1 1.75-.5 2.7-.73-.3.05-.67.15-.43.04l.9-.2-.17.1 1.34-.3-.2-.03c.66-.12.92-.05 1.63-.34.32-.14-.64.05.04-.14.88-.17 2.2-.4 3.32-.67-.12-.06.18-.13.48-.22l.05.06c1.15-.4.47.05 1.62-.32l.18-.15c1.02-.4.6.01 1.73-.48-.46.13-.26-.1.32-.22l-.13.1c.3-.1.4-.15.62-.2-.18.08-.07.13.4 0l-.3.16.85-.35c.28-.04.62-.12.94-.2l1.73 7.2.44 1.6c.04.14.08.3.1.44l.06.23.1.3c.14.4.33.8.6 1.16.52.72 1.27 1.3 2.16 1.6a4.04 4.04 0 0 0 1.4.25c.45.02 1.06-.1 1.34-.2l4.2-1.05 4.35-1.16.66-.14.03-1.98.02-.37-.07-1.28-.02-.33-.01-.16h0l-.01-.13c-.02-.06.02-.07.07-.07h.13l1.2-.23-.1.06c2.4-.6 5.1-1.15 6.3-1.45l-.1.06 2.92-.66-.5.16 12.3-2.8-.35-.07c8.16-1.68 11.06-2.65 18.43-4.18l-.1.06c9.16-2.58 14.7-3.2 24.07-6.2-1.17.4.53-.08.44-.02l3.24-1c1.04-.38 2.04-.7 2.87-1.06 1.65-.72 2.76-1.26 2.74-1.4 3-1.4 2.5-1.06 2.93-1.14-.03-.04.58-.42 1.5-.93.45-.26 1-.53 1.54-.86l1.68-1-1 .65 1.6-.95 1.55-1.03c1.05-.67 2-1.46 3-2.2l-1.3.7c1.6-1.14 1.82-1.28 2.04-1.38.2-.1.42-.2 1.8-1.47l-.17-.1c3.98-3.7 6.23-6.1 9.03-10.65 1.35-2.42 2.5-4.98 3.45-7.6l2.8-7.8 5.56-15.7L251 248.53zM128.5 349.2v-.24c0 .01.01.03.01.04v.2zm48.13-69.6l-.06-.03.06.03zm-.2-.13l.01-.02c.03-.05.05-.1.07-.16.04-.1.1-.2.12-.27.03-.06.04-.1.06-.15a9.72 9.72 0 0 0-.13.54c-.01.05-.02.1-.03.13-.1-.07-.23-.15-.1-.07zm-57.37 21.04l-.04-.08c-.01-.07.01.01.04.08zM88.5 348a2.57 2.57 0 0 0-.22.32c-.14.2-.28.46-.5.9l-.55.54c-.26.38-.28.53-.34.7-.13-.06-.3-.1-.5-.2-.22-.24-.18-.42-.48-.6-.1-.12-.27-.2-.4-.3-.14.05-.16-.13-.3-.1l.02-.08c-.05.01-.1 0-.1-.05l.02-.01c-.07.01-.1-.05-.12-.04h.02l-.05-.03.03-.02c-.1-.01-.16-.06-.2-.13l-.06.08c-.05-.17-.2-.07-.25-.25l.02-.01c-.28.06-.1-.3-.4-.25.03-.01.02-.04.04-.06-.08-.04-.16-.08-.27.05-.04-.04 0-.07.03-.13-.05.06-.1.05-.15.02l.04-.01-.12-.07-.07.12c-.03-.08.1-.14.02-.16l-.08.1c-.06-.08.01-.26-.01-.38-.27-.3-.8-.35-.95-.75l.04-.08c.08-.1-.2.08-.14-.02l-.07.02c.01-.03 0-.06.04-.07-.03-.03-.04-.01-.1 0v-.1c-.08-.15-.28-.12-.4-.25-.05-.25-.43-.4-.65-.46-.36-.05-.3-.67-.68-.7 0-.02-.04-.01-.05 0l-.2-.2s-1.03-.94-.9.56l-.02.02c.08.15.14.23.3.2-.1.14.1.1.08.16l-.01.01c.16-.04.08.2.23.18-.01.01-.04.04-.06.03.07.03.16.06.1.14.14.08.28.27.46.2v.02c.12-.04.07.04.15.04-.01.01-.01.02-.01.02.12-.04.15.1.22.1l-.04.05.1.07-.03-.04c.13-.13 0 .15.15.12.05.07.38-.18.4-.05.1-.04-.12.08-.03.07-.06.07-.06.03-.1.1.08.01.01.14.12.14l-.05.06c.17-.04.08.2.22.14.12.02-.1.2.1.17l-.03.1c.02.04.1-.07.1 0-.04.05.02.08-.05.1.02.15.27.05.28.27.1-.07.12.03.2-.02-.03.04.1.1-.03.14-.01 0-.02-.01-.01-.02l-.06.05c-.02.16.17.05.22.12 0-.04-.03-.05.02-.08l.05.06-.05.04.07.1.04-.07c.02.07-.05.18.07.14.06-.03.02-.1.1-.1.03.1.06.23.13.3.05-.07.07-.05.1-.05l-.05.06c.15-.01-.08.15.06.16l.08-.07c.17-.05-.06.15.15.07-.04-.02.1-.14.1-.08l-.06.05c.03.01.06-.01.06.01-.04.02-.08.07-.04.1l-.08.05.15-.05c0 .1.13.1.1.18 0 0 .07.12.16.06-.07.04-.03.1-.1.15.08-.04.2-.02.17.07h-.01c.06.16.27.08.3.24.05-.07.07.01.13-.08.18.01.05.34.3.1.06.03 0 .1.02.14h-.02c.1.06.14.08.2.14.05 0 .16-.1.2-.03-.06.03-.03.04-.01.06-.02 0-.04.01-.04.07.02-.01.03-.02.04-.02.04.02.05 0 .04-.02.01-.01.01-.02.02-.04-.01.1.1.1.05.17.13.08.28.06.4.1-.03.05-.08.07-.12.06l.08.04c-.05.06-.07 0-.1 0-.01.17.25.04.26.2l.06-.03h0c.02-.03.07-.04.1-.04-.03.06-.1.12-.06.16-.01.08.12.06.2.07-.02-.03.02-.05.04-.06.02.02-.01.08.03.07l-.06.07c.05-.08.12-.02.16-.04-.03.06-.07.02-.1.05.1.07.05.04.15.1.1-.01.05-.08.13-.12.06.02.14.01.15.1l.04-.08c.07.01.1.04.14.08-.2.23-.5.67-.34.3-1.07 1.4-1.84 3.07-3.1 4.85-.1-.03-.2-.06-.3-.13-.22-.24-.18-.42-.48-.6-.1-.12-.27-.2-.4-.3-.14.05-.16-.13-.3-.1l.02-.08c-.05.01-.1 0-.1-.05v-.01c-.07.01-.1-.05-.12-.04h0l-.05-.03.03-.02c-.1-.01-.16-.06-.2-.13l-.05.07c-.05-.17-.2-.07-.25-.25v-.01c-.28.06-.1-.3-.4-.25.03-.01.02-.04.04-.06-.08-.04-.16-.08-.27.05-.04-.04 0-.07.03-.13-.05.06-.1.05-.15.02l.04-.01-.12-.07-.07.12c-.03-.08.1-.14.02-.16l-.08.1c-.06-.08.01-.26-.01-.38-.27-.3-.8-.35-.95-.75l.04-.08c.08-.1-.2.08-.14-.02l-.07.02c.01-.03 0-.06.04-.07-.03-.03-.04-.01-.1 0l.02-.1c-.08-.15-.28-.12-.4-.25-.05-.25-.43-.4-.65-.46-.36-.05-.3-.67-.68-.7 0-.02-.04-.01-.05 0l-.2-.2s-1.03-.94-.9.56v.02c.08.15.14.23.3.2-.1.14.1.1.08.16l-.01.01c.16-.04.08.2.23.18-.01.01-.04.04-.06.03.07.03.16.06.1.14.14.08.28.27.46.2v.02c.12-.04.07.04.15.04-.01.01-.01.02-.01.02.12-.04.15.1.22.1l-.04.05.1.07-.03-.04c.13-.13 0 .15.15.12.05.07.38-.18.4-.05.1-.04-.12.08-.03.07-.06.07-.06.03-.1.1.08.01.01.14.12.14l-.05.06c.17-.04.08.2.22.14.12.02-.1.2.1.17l-.03.1c.02.04.1-.07.1 0-.04.05.02.08-.05.1.02.15.27.05.28.27.1-.07.12.03.2-.02-.03.04.1.1-.03.14-.01 0-.02-.01-.01-.02l-.06.05c-.02.16.17.05.22.12 0-.04-.03-.05.02-.08l.05.06-.05.04.07.1.04-.07c.02.07-.05.18.07.14.06-.03.02-.1.1-.1.03.1.06.23.13.3.05-.07.07-.05.1-.05l-.1.04c.15-.01-.08.15.06.16l-.04.03.12-.1c.17-.05-.06.15.15.07-.04-.02.1-.14.1-.08l-.06.05c.03.01.06-.01.06.01-.04.02-.07.07-.04.1l-.08.05.15-.05c0 .1.13.1.1.18 0 0 .07.12.16.06-.07.04-.03.1-.1.15.08-.04.2-.02.17.07h-.01c.06.16.27.08.3.24.05-.07.07.01.13-.08.18.01.05.34.3.1.06.03 0 .1.02.14h-.02c.1.06.14.08.2.14.05 0 .16-.1.2-.03-.06.03-.03.04-.01.06-.02 0-.04.01-.04.07.02-.01.03-.02.04-.02.04.02.05 0 .04-.02.01-.01.01-.02.02-.04-.01.1.1.1.05.17.13.08.28.06.4.1-.03.05-.08.07-.12.06l.08.04c-.05.06-.07 0-.1 0-.01.17.25.04.26.2l.06-.03v.01c.02-.03.07-.04.1-.04-.03.06-.1.12-.06.16-.01.08.12.06.2.07-.02-.03.02-.05.04-.06.02.02-.01.08.03.07l-.06.07c.05-.08.12-.02.16-.04-.03.06-.07.02-.1.05.1.07.05.04.15.1.1-.01.05-.08.13-.12.03.01.06.01.1.02-.05.07-.1.13-.15.2-.16.6-1.02 1.7-1.14 2.14-.1.01-1.56 2.28-.85.9.06-.12.2-.3.2-.28v-.22c-1.06 1.16-1.48 2.42-2.4 3.67.3-.35.63-.86.47-.48l-.83 1.17.1-.3-1.27 1.7.27-.17c-.66.8-1.04 1-1.6 2.04-.23.5.72-.7.1.22l-3.37 4.03c.2-.04-.08.33-.37.73l-.13-.03c-1.06 1.54-.64.37-1.74 1.83l.04-.18-.13.53c-.96 1.33-.78.5-1.84 1.84.25-.2.35-.2.3-.1-.04.12-.24.35-.57.52l.1-.2c-.18.14-.24.16-.3.22-.06.05-.22.08-.36.1.24-.13.1-.2-.56-.04.14-.08.3-.15.4-.24-.4.17-.82.3-1.25.45-1.03.02-2.7.2-3.12 0l-1.1-.07-.4 1.46.6-2.2c1.16-5.8 2.06-12.07 3.3-17.43l.13-.22c.15-.08.1-1.52.25-1.7l.06-.64c.06-.17.15-.54.12-.22.12-.58.1-.6.14-1.02l.2-.6c.5-2.28.72-4.25 1.2-6.65.7-2.86 1.6-8.34 2.13-11.5.53-3.6 1.6-7.6 2.34-11.4a.86.86 0 0 0 .27.11c.56.17.83-.1 1.46-.2.57-.01.74.13 1.3-.01a4.86 4.86 0 0 0 .84-.19c.1-.15.36-.07.5-.2l.07.06c.04-.05.1-.1.16-.06v.02c.07-.07.16-.06.2-.1v.02l.1-.03-.01.03a.74.74 0 0 1 .39-.14l-.03-.08c.3.02.33-.17.6-.14v.02c.22-.3.52 0 .75-.33-.03.04.03.04.04.06.13-.08.27-.14.2-.3.1-.04.1.01.14.07-.03-.07.04-.14.12-.17l-.02.04.2-.12-.1-.1c.13-.02.1.14.2.06l-.05-.1c.17-.06.34.04.54.03.7-.33 1.1-1.06 1.7-1.38l.08.04c.1.08-.01-.27.1-.2v-.1c.03 0 .08-.02.08.03.05-.05.04-.06.05-.13l.1-.01c.23-.18.27-.45.47-.67.35-.18.6-.83.73-1.2.1-.54.85-.85.9-1.45.02-.01.01-.07-.01-.07l.22-.45c.04 0 .9-2.22-.72-.9l-.02-.02c-.16.2-.24.35-.18.57-.17-.04-.1.18-.18.22l-.01-.01c.06.2-.24.24-.2.43-.01-.01-.05-.04-.04-.07-.03.1-.06.26-.16.22-.1.24-.3.54-.26.76l-.02-.02c.04.14-.05.1-.06.23h-.03c.04.15-.14.27-.15.36l-.06-.03-.1.18.05-.06c.14.12-.18.07-.17.26-.1.1.14.45-.02.52.03.1-.07-.13-.08-.01-.08-.05-.02-.08-.1-.1-.03.1-.18.08-.2.22l-.06-.04c0 .2-.27.17-.24.34-.06.17-.24-.06-.24.17l-.12-.02c-.06.04.05.12-.04.15-.04-.05-.1.04-.12-.04-.2.06-.16.37-.46.4.04.13-.1.15-.07.25-.04-.04-.2.15-.16-.03 0-.02.02-.03.03-.01l-.03-.07c-.18-.01-.14.2-.26.27.05 0 .1-.04.1.02l-.1.06-.02-.07-.17.08.06.05c-.1.02-.2-.07-.22.08-.01.07.13.05.06.1-.13.02-.33.03-.47.1.05.07.02.1-.01.12l-.04-.06c-.1.17-.12-.12-.24.02l-.01-.05.03.16c-.08.2-.14-.1-.2.15.06-.04.1.14.01.14l-.01-.07c-.04.03-.04.07-.07.07.01-.05-.03-.1-.08-.06v-.1l-.07.17c-.12-.04-.23.1-.3.03 0 0-.2.03-.22.15.02-.08-.1-.07-.1-.15-.03.1-.16.2-.25.14l.01-.01c-.25-.01-.36.23-.6.2.03.08-.1.07-.03.17-.2.17-.45-.12-.45.23-.1.04-.14-.05-.2-.06h.02a1.34 1.34 0 0 1-.38.1c-.06.05-.04.2-.18.2.03-.07-.02-.05-.07-.04.03-.02.03-.04-.04-.07-.01.02-.02.04-.03.05-.07.02-.06.03-.02.04 0 .01.01.02.02.04-.1-.06-.23.04-.26-.06-.23.06-.4.2-.6.27-.03-.05.01-.1.07-.14l-.14.04c-.01-.08.08-.06.12-.08-.2-.1-.33.18-.55.08l-.03.07h-.01c0 .03-.04.08-.06.1-.04-.07-.02-.16-.1-.15-.08-.06-.22.06-.32.1.06.01.04.05.02.07-.05.01-.08-.06-.12-.03l-.01-.1c.03.1-.12.1-.14.15-.03-.07.07-.07.08-.12-.2.02-.1.01-.3.04-.1.08.03.1-.02.17-.1.02-.18.1-.3.05l.04.08c-.17.07-.28.07-.4-.01-.2.1-.32.2-.42.28a53.11 53.11 0 0 0 .35-2.08c.05-.14.08-.53.06-.53l.8-4.13.55-2.9.18-.98c-.04.2-.07.38-.1.57 2.66.4 4.35.7 6.24.82.24.33 2.23.5 2.83.75l-.07.01c1.7.18 3.3 1.07 4.9 1.4-.07 0-.13.06-.48-.05 1.12.32 2.65.9 2.54 1.08.1.03.17.1.2.2.02.1.02.18-.1.4.01.06-.32.36-.6.6l-.9.78c-1.25 1.06-2.3 2.3-2.72 3.2l.04-.14c-.47 1.03-.78 1.23-1.2 2.42-.05.05-.1.13-.1.1-.15.6-.4 1.43-.58 2.26-.17.83-.28 1.64-.27 2.1l-.12.05c-.07.78-.05 1.57-.03 2.35-.01-.3.01-.6.02-.88.3.3-.2 1.8.25 3.47.22 1.6 1.3 3 1.77 4.52.44.66-.5-.54.08.48-.13.1-.3-.46-.3-.13.52 1.02.64 1.8 1.46 2.97l-.08.1c.58.74 1.05 1.47 1.5 2.13.2.32.5.66.68.9.16.2.26.37.37.56.22.66-.01.92-.13 1.1zm6.6-28.6c2-.4 3.42-.82 5.03-1.3l-.48-.9-.5.13.25.02c-1.16.37-1.87.54-2.68.67-8.6 2.94-1.6 1.38-1.6 1.38z"/><path xmlns="http://www.w3.org/2000/svg" d="M179.76 172.82l.15-.17-.03.03-.12.14zm16.3-11.62c-.03.01-.1.2-.2.8l.2-.8zm60.5 47.56l-.2.01c.14 0 .18 0 .2-.01zm103.26-37.44c.7-.4 1.1-1.4 1-2.3-.2-1.6-1.5-1.4-1.5-2 0-.5.6-1 1-1.6.6-1.2.2-2.9-1.1-3.2s-5.2.2-5.2.2 3.1-1.2 4.3-2.6c.8-1 .3-1.6.3-1.6l-8.9.2c-1.7 0-4.4 2.8-5.6 3.6-1.3.8-3.6 1.6-4.8 1.8-.2.03-.97.05-2.13.05-.08-.53-.52-.96-1.07-1.05l-2.8.1c-.8-.1-1.3.2-1.3.9v.03l-9.4-.1.26-4.53s-31.66-4-44.06-10.7c-12.4-6.8-23.1-25.5-29.1-33.8-5.46-8.1-14.28-18.12-28.87-14.3-4.8.76-8.18 2.96-10.67 6.1-11.33 2.9-33.25 10.4-50.26 27.9-23.9 24.6-29.46 55.94-29.46 55.94l4.7 2.7-4.64 14.76s-2.72 4.45-3.93 11.35c-.2.4-.36.85-.47 1.35-.5 1.7-.3 2.4.8 2.7.15.04.3 0 .46-.1.24.03.48.01.68.02-.2 1.3.13 1.92 1.16 2.16.2.04.4-.02.6-.14.2.14.4.28.6.4-.07.96.2 1.73 1.3 2.03.76.17 1.27-.05 1.64-.48a9.35 9.35 0 0 1 .36.18s.1.12.26.3c.1.67.5 1.2 1.34 1.4a1.22 1.22 0 0 0 .6 0h.01c.9.1 2.1-2.1 2.6-4.2.4-2.1.4-2.1.9-3.1.4-.9.34 2.35.67 4 .38 1.9 2.03 3.28 2.63.38.6-3 1.02-5.6 1.12-6.5s-.23-2.98-.23-4.48v-1.5s-.2-1.2 1.5-3.9c.52-.83 2.57-3.92 5.25-7.9l6.53 3.76s12.22-24.66 23.72-35.36c4.7-4.37 10.87-8.28 16.54-11.4L188.9 208h81.9s-.72-9.47-2.2-21.48c3.88.93 7.7 1.56 11.5 2.08 17.5 2.4 41.06.5 41.06.5l.45-7.92c3.4.05 8.15.1 10.97-.01.17.5.64.83 1.12.83l2.8-.1c.64 0 1.1-.5 1.17-1.04a54.96 54.96 0 0 0 2.73-.16c2.6-.2 11-.7 15.5-2.6s4.1-3.4 4.1-4.2c0-.4-.5-.8-.6-1.2-.1-.48.01-1.18.4-1.38zm-9.72 9.08l.1-.03-.02.01z" fill="#fff"/><path xmlns="http://www.w3.org/2000/svg" d="M322.5 157.84h0c.04-.01.06-.03.1-.04l-.1.04zm16.12 15.08l-2.58.23c-.1-.24-.27-.47-.52-.63-.6-.3-1.3-.1-1.7.5-.3.6-.1 1.3.5 1.7a1.34 1.34 0 0 0 1.02.06l.88 1.14c.2.1.3.1.5-.1.1-.1.1-.4 0-.5l-.78-1c.02-.04.06-.06.08-.1.06-.1.08-.23.1-.35l2.6-.25c.2 0 .3-.2.3-.4s-.2-.3-.4-.3zm-132-56.68l-.03-.03v.07c.01-.01.01-.03.02-.04z"/><path xmlns="http://www.w3.org/2000/svg" d="M361.3 168.57c-.08-.32-.22-.64-.43-.9-.2-.27-.5-.5-.7-.62-.17-.1-.15-.2-.04-.34l.5-.65.14-.2a1.14 1.14 0 0 0 .16-.31c.07-.18.12-.36.15-.56-.07.4.08-.15.1-.12.13-.72.01-1.5-.3-2-.3-.53-.7-.75-.76-.7-.45-.32-.68-.34-.77-.4-.1-.04-.07-.06-.13-.1-.03.05-.84 0-1.52.03l.32-.03-1.18.05c.54-.3 1.08-.65 1.58-1.1.3-.3.58-.56.82-1.12.24-.58.2-1.22-.15-1.65-.1-.1-.24-.1-.35-.13-.12-.03-.24-.07-.4-.05l-.75.02-3.27.12-4.57.14-.33.03a3.76 3.76 0 0 0-.6.15c-.38.13-.7.3-1.02.48-.63.36-1.2.77-1.74 1.17l-.24.08c-.17-.03-1.02 1.1-1.24 1.12l-.43.42c-.14.08-.4.24-.2.06l-.77.5-.57.18-2.93 1.02c-.24.07-.47.1-.7.12l-.78.04h-.6c-.25-.5-.74-.88-1.34-.98-.03-.01-.07-.01-.1-.01l-2.72.1c-.76-.1-1.2.13-1.42.33a1.25 1.25 0 0 0-.32.47l-5.25.05c.13-.57-.03-1.07.03-1.65-.03.18-.04.43-.08.26l.04-.58.05.12.08-.86-.08.1c.03-.2.08-.35.1-.5.02-.07.03-.15.03-.24v-.14l-.01-.3c-.04-.36-.14.7-.12-.06l.1-.96-2.1-.36c.06.1-.14.07-.33.06l-.01-.08c-.2 0-.3-.01-.38-.03-.1-.02-.2-.05-.25-.08-.12-.06-.28-.12-.97-.17-.06.03-.13.05-.18.08h-.14v.3l-.37-.05-1.3-.2-.55-.23c-.22-.24-3.6-.22-4.07-.5l-1.52-.15c-.42-.1-1.3-.3-.54-.22l-2.43-.32-1.46-.4c-5.43-1.08-10.1-1.75-15.73-3.23-3.34-1-8.22-2.3-12.83-4.3-4.58-1.96-8.53-5.3-11.2-7.94-3.83-3.67-7.3-8.3-10.55-13.1-3.26-4.8-6.3-9.8-9.65-14.2-.18-.3-.76-1.04-.8-1-1.98-2.75-4.2-5.4-6.8-7.66 0 0-.15-.13-.4-.37l-1.2-.94c-1.03-.8-2.57-1.78-4.44-2.7-.47-.22-.98-.4-1.48-.6-.5-.2-1.03-.4-1.58-.53l-1.65-.44-1.7-.25-.85-.1-.85-.02-1.67-.03c-1.1.1-2.14.2-3.1.35l-2.58.6c-.74.25-1.37.5-1.87.7-1 .4-1.43.65-1.08.66.35.04 1.47-.24 3.63-.63l1.83-.23c.67-.12 1.44-.06 2.25-.1 1.64-.05 3.57.18 5.73.7-.08-.01-.16-.01-.24 0 5.13 1.34 7.86 3.45 10.78 5.7.3.53 3.1 3.14 3.8 4.22l-.1-.08c1.13 1.2 2.1 2.6 3.03 4.03.94 1.42 1.87 2.84 2.85 4.12-.1-.1-.2-.1-.6-.7 1.35 1.92 3.2 4.56 3.15 4.8l5.36 7.64c1.87 2.52 3.68 4.76 4.96 6.07l-.2-.16c1.44 1.5 1.75 2.03 3.37 3.7.07.1.18.23.15.22.84.76 1.98 1.95 3.16 3.03.57.56 1.16 1.08 1.7 1.53s1 .85 1.38 1.12l.03.16 1.84 1.33c.6.44 1.3.8 1.94 1.2l-1.44-.9c.34.03 1.04.5 2.04 1.2.5.32 1.12.63 1.78.97.33.16.68.34 1.04.5.37.14.75.28 1.14.4 2.83 1.22 6.03 1.46 9 2.47 1.5.25-1.34-.1.86.35.03.17-1.04-.17-.5.1 2.15.5 3.46 1.08 6.13 1.6l.08.15c3.5.56 6.5 1.57 8.87 1.8 3.6.57 2.34.8 6.14 1.22l1.43.4c1.6.3 1.2-.02 2.96.34-.13.1 2.25.42 1.18.37a47.29 47.29 0 0 0 2.13.35l.9.12.33.03.01.23-.03.92-.1 2.24c-.08 1.53-.2 3.15-.38 4.9.14 1.18-.14 3.87-.03 4.74-.1.14-.32 5.4-.34 2.37 0-.26.03-.72.06-.7l-.1-.37c-.4 3.04-.2 5.56-.4 8.6.1-.9.15-2.1.2-1.3l-.18 2.8-.07-.6-.28 3.9c.02-.01.04-.02.07-.04.02-.04.05-.17.08-.26-.03.34-.04.3-.05.36-.01.05-.03.1-.05.12-.06.03-.18-.03-.23-.03-.04 0 .02-.01-.1-.01h-.28l-.6.03c-.42.03-.9.08-1.47.16-1.04.16 1.94.06-.2.22l-10.32.14c.33.14-.6.15-1.58.2l-.1-.12c-3.7.2-1.36-.25-5.03-.1l.32-.08-.97.25c-3.32.22-1.78-.28-5.47-.03 1.46.01.68.3-1.1.18l.46-.1c-1-.02-1.32.02-1.98-.04.6-.04.32-.16-1.14-.2l.98-.1c-.92.04-1.84.04-2.76.06-2.1-.25-5.47-.4-6.3-.7l-2.4-.3c-1.26-.2-2.65-.35-3.18-.35.92.04-1.55-.43-.82-.44-1.2-.05-4.63-.6-5.95-1.06l.26.05c-4.96-1.3-8.56-2.05-12.76-3.97.13.24-2.06-.82-1.6-.4-1.1-.46-2.16-.9-3.1-1.4l-2.6-1.42c-1.55-.9-2.76-1.64-3.66-1.83-1.88-1.12-2.1-1.5-3.03-2.14l.45.26c-1.74-1.07-2.8-1.87-3.75-2.56s-1.83-1.3-3-2.27c-1.2-.92-1.6-.8-3.63-2.64.73.5-.12-.22-.88-.9.5.42.68.52-.28-.4-.16-.1-.4-.28-.6-.44 0-.01-.04-.05-.01-.04-1.3-1.1-1.1-.87-.52-.34-.04-.01 0 .04.16.23-1.27-1.23-3.6-3.36-3.64-3.62-1.9-1.72-3.4-3.3-4.92-4.75-.76-.72-1.48-1.44-2.17-2.2-.7-.73-1.4-1.48-2.1-2.3-.23-.43.46.3 1.3 1.2-.67-.75-1.3-1.52-1.95-2.3.12-.06 1.16 1.28 1.77 1.98-2.15-2.85-4.8-5.62-6.8-9.33l-.52-.7-.1-.23c-.04.04-.58-.74-.9-1.28-.17-.58.26-.1-.7-1.93-.6-1.52-1.96-4.2-2.62-6.25.35 1.1.17.77-.03.3-.35-.98-.35-1.6-.62-2.35l.1-.1c-.15-.1-.76-2.65-.84-3 .01-.3.1.1.2.6.13.5.28 1.08.35 1.2-.24-1-.36-1.64-.42-2.1l-.16-.95c-.05-.25-.07-.5-.12-.96-.04-.45-.15-1.1-.18-2.12-.22-2.2-.13.4-.32-.64-.07-1.95-.1-3.9.36-6.1-.1.22-.17.45-.25.68l.16-1.07c.1-.3.2-.62.3-.9l.6-2.78c.4-1.16.9-2.17 1.48-3.17 1.48-3.1 3.28-5.18 4.84-6.53 1.56-1.36 2.83-2.1 3.68-2.55 1.68-.9 1.5-.95.5-.73-1.04.25-2.9 1.03-4.32 2.03l-1 .72-.77.66c-.45.37-.7.65-.7.65-.43.43-.83.86-1.2 1.3-4.42 1.17-8.7 2.53-12.68 3.9l-.5.05c-.28-.12-2.77 1.44-3.24 1.42-.4.2-.77.4-1.16.6-.35.1-1.08.4-.5.08-1.1.5-1.12.53-1.9.94l-1.24.4c-4.34 2.02-7.84 4.1-12.1 6.78-1.3.76-2.9 1.7-4.53 2.9-1.64 1.18-3.44 2.44-5.1 3.92l-2.52 2.15c-.82.72-1.56 1.52-2.3 2.24-1.48 1.47-2.87 2.82-3.9 4.1-1.5 1.75-3.13 3.5-4.65 5.4l-2.36 2.84-3.4 4.48-1.05 1.55-2.07 3.1-1.84 3.2-.88 1.58-.77 1.6a5.44 5.44 0 0 0-.45 1l-1 1.9-.92 1.95c-.6 1.3-1.24 2.6-1.78 3.93l-.67 1.6c-.44 1-.94 2.4-1.54 4.02-1.16 3.22-2.4 7.27-3.1 10.45-.18.8-.33 1.57-.45 2.23-.2-.28-.7 1.6-.7 1.6a19.41 19.41 0 0 0-.34 1.29c-.04.2-.08.4-.13.6l-.23 1.15.7.4.34.2.18.1c.25.13.5.26.78.4a52.92 52.92 0 0 1 1.85.97l.88.54c-1.02 3.18-1.76 5.04-2.87 9.14.2-.68-.13.28-.14.2l-1.05 3.53c-.14.5-.25.92-.32 1.22 0 .14-.14.38-.08.4-.9 1.7-.75 1.38-.94 1.58.07.02-.6 1.55-1.1 2.97l.2-.66c-.5 1.34-.94 2.7-1.3 4.1l.36-.78c-.63 2.18-.33.5-.8 2.64h.12c-.07.3-.12.57-.18.85-.4.63-.63 1.36-.75 1.9-.3 1.4-.5 2.8 1.1 3.2h.2c.2 0 .4-.1.6-.2.05-.04.1-.1.14-.13-.12 1.1.1 2.08 1.46 2.43h.3c.18 0 .35-.08.52-.17-.04.56 0 1.06.23 1.47.3.4.74.72 1.34.82.78.18 1.44-.17 1.97-.75 0 .5.08.95.34 1.33.2.4.7.8 1.3.9h.4c1.48 0 2.22-1.9 2.6-3.06.2-.45.64-1.32.68-1.58.06-.32.46-.9.52-1.2.01.17.03.34.04.5.06.62.1 1.24.27 1.9.17.67.43 1.3 1 1.86.28.3.83.55 1.3.38.46-.13.8-.6.93-.9.32-.66.4-1.3.5-1.88l.62-3.56.4-2.2c.02-.16.03-.34.03-.5 0-.3-.01-.6-.03-.9-.07-1.18-.2-2.3-.16-3.4l.1-.52c.04-.07.04-.37.02-.78v-.1c-.01-.02-.01-.34.03-.57.04-.25.1-.52.2-.77.16-.5.36-.9.46-1.03.18-.4.4-.78.6-1.17.22-.3.68-.96.34-.38.68-1.04.7-1.08 1.15-1.85l.8-1.08c1-1.48 1.77-2.7 2.64-4.03.45.3.9.63 1.57.9-.16-.06.04.08.02.1.55.3 1.13.6 1.23.47.4.23.3.23.3.32.04-.07.4.1.7.28l-.16-.06.9.5-.1-.22c.45.3.03.22.5.45l.05-.1c.3.2.5.35.75.56.33.25.7.54 1.2.88l.1-.2.65-1.5c.13-.33.27-.66.4-1l.27-.68c.08-.15.15-.3.23-.45 2.32-4.25 3.95-6.85 5.6-9.47l6.15-9.42c2.74-3.9 5.8-7.98 9-11.28 1.33-1.76 4.43-4.08 6.42-5.77l.9-.5c.7-.58 1.53-1.22 2.32-1.66l-.03.06c.8-.64 1.77-1.23 2.42-1.65l.8-2.88c-1.5.84-2.68 1.56-3.2 2.26-1.55 1.08-1.95 1.1-2.76 1.66l.35-.3c-1.43 1.06-2.37 1.7-3.16 2.38-.8.65-1.55 1.2-2.54 2.07-.96.92-.96 1.22-2.67 2.85.47-.6-.2.08-.83.7.4-.4.46-.58-.37.23-.1.14-.24.34-.4.53-.01 0-.05.03-.04.01-.96 1.12-.76.95-.3.45-.01.04.04.01.2-.13-1.16 1.02-2.75 3.24-3.02 3.26-2.73 3.48-4.38 6.17-6.36 9.24-.3.3.1-.47.67-1.37-.5.72-.95 1.45-1.42 2.18-.1-.1.74-1.3 1.2-1.97-1.9 2.45-3.33 5.44-5.36 8.44l-.3.7-.12.18c.05.02-.3.76-.55 1.23-.36.38-.22-.17-1.1 1.4-.7 1.02-1.64 2.92-2.4 4.5l-1.17-.63c-.7-.4-1.36-.78-1.98-1.2l-.06-.14c.02-.14-.76-.2-.8-.37l-.3-.1c-.07-.06-.22-.18-.07-.13-.26-.15-.28-.14-.48-.2l-.24-.23c-1-.63-1.96-1-3.03-1.63-1.23-.87-3.76-2.12-5.22-2.83-2.08-.95-4.15-2.7-6.3-3.64-.06-.05-.25-.1-.26-.1l-1.86-1.06s-3.42-1.93-4.56-2.3c.6-1.8 1.5-4.53 3-8.43l-.02.2 1.1-3 .98-2.55c.57-1.62 1.17-3.03 1.66-4.56.42-.37 1.62-3.46 2.15-4.4l-.02.1c1.06-2.64 2.78-5.14 4-7.58-.03.1.01.2-.3.74l1.52-2.73c.5-.8.92-1.4 1.02-1.4 2.4-4.1 6.5-9.3 8.27-11.8l-.1.2c.94-1.48 1.4-1.75 2.66-3.24.1-.06.2-.16.18-.14.57-.76 1.5-1.8 2.4-2.77l2.44-2.35h.15l1.35-1.3.68-.65.72-.6c-.36.3-.74.57-1.08.9.13-.6 2.3-1.7 4.27-3.6.97-.83 1.97-1.65 2.94-2.56 1-.87 1.95-1.82 3.13-2.46 1-.8-.82.8.73-.32.14.1-.7.56-.2.4 1.54-1.05 2.64-1.54 4.56-2.8l.14.06c1.25-.83 2.5-1.5 3.64-2.1 1.15-.58 2.22-1.03 3.06-1.58 2.72-1.48 2-.6 4.83-2.13l1.2-.35c1.26-.54.82-.58 2.27-1.07-.05.13 1.82-.63 1.03-.2 3.25-1.13 6.48-2.66 10.92-3.68.2-.1.5-.22.8-.33-.01.02-.02.04-.03.05-1.66 2.56-2.58 4.8-2.65 6.1-.7 2.07-.93 2.43-1.3 3.5l.1-.5c-1.07 3.95-1.2 5.15-1.84 8.1-.25 1.5-.02 1.77-.6 4.4.06-.87-.13.2-.32 1.2.1-.63.1-.84-.2.45 0 .2-.03.48-.07.74-.01.01-.03.06-.03.03-.27 1.66-.18 1.38-.03.6.01.04.04-.02.1-.25-.45 1.7-.86 4.78-1.08 4.95-.85 4.98-1.3 8.56-1.94 12.7-.17.45-.1-.53.1-1.74l-.48 2.94c-.13-.05.22-1.7.35-2.6-.83 3.46-1.04 7.24-1.94 11.3l-.04.87-.06.24c.06 0-.02.93-.1 1.54-.2.56-.26-.1-.6 1.95-.4 1.6-.72 4.57-1 6.68.2-1.13.2-.75.17-.26-.17 1.02-.38 1.58-.46 2.37l-.13.06c.1.16-.33 2.73-.33 3.08-.2.56.17-1.6.12-1.86l-1 6.1c-.25 2.2.2-.37.17.7-.3 1.92-.5 3.8-.96 6l.25-.67c-.5 3.62-.87 5.77-1.4 8.18-.84 6.9-1.22 10.67-1.3 12.44-.8.1-.9.2-.01.36-.05 1.42.16 1.1.45.06 1.7.22 5.56.5 12.53.83l-.24.05c5.4.1 8.8.14 12.5-.1.6.3 4.43.03 5.7.12l-.12.02c3.3-.22 6.77.18 9.94-.01-.12.02-.2.1-.92.1 2.3-.04 5.47-.1 5.64.07 5.52-.04 13.22.03 16.75-.23l-.24.05c2-.18 2.6-.03 4.86-.12.12.02.28.03.26.04 2.2-.18 6.4-.03 8.18-.1l.1.1 4.37-.03-1.63-.02c.14-.08.42-.1.8-.1.2.01.4.01.66.02l1.05.04 1.42.04c.02-.01.08.02.08-.01v-.1l-.01-.18-.02-.38-.05-.8-.1-1.38c-.04-.38-.1-.77-.15-1.16-.22-2.96-1.2-5.94-1.36-9-.3-1.45.37 1.26.03-.9.15-.1.2 1 .28.43-.3-2.14-.22-3.54-.63-6.17l.1-.12c-.08-.42-.13-.8-.2-1.22l6.74 1.3c1.22.24 2.44.43 3.76.64 1.33.15 2.75.33 4.36.38-.8-.03.33.1.27.13 2.94.25 6.08.37 6.14.1 2.14.1 1.74.17 2 .3-.01-.12 1.85-.1 3.52-.07l-.77.03c1.6.04 3.2.03 4.8.03l-.94-.24c2.53.1.64.3 3.07.24l-.03-.2c3.5.02 5.57.27 8.97.3l5-.2 2.52-.15 1.35-.1 1.08-.1.54-.04c.08-.02.2.01.25-.05l.02-.27v-.01l1.4-.02-.05.04.6-.08c.23-.03.45-.07.65-.1.1-1.28.1-1.58.02-2.2.18-.1.07-.92.14-1.18l.01.03c-.1-.7.2-1.4.1-2.07.01.03.06.04.05.2.01-.48 0-1.14.1-1.17.01-.34.03-.7.05-1.1 2.06-.02 4.1-.12 7.16-.23.33.43.86.68 1.37.68l2.78-.1c.63 0 1.13-.34 1.42-.8 1.46-.02 2.96-.12 5.28-.34a69.49 69.49 0 0 0 6.97-.9c1.04-.3 2.93-.56 4.14-1.05l.5-.08c.42-.16.9-.4 1.34-.5l-.02.03c.6-.3 1.3-.6 1.57-.8l-.01.03c.24-.14.48-.27.7-.43l-.1.1c.5-.35 1-.72 1.44-1.2.44-.46.82-1.1.9-1.8l-.1.1c.05-.26.05-.5.05-.7v-.13c0-.03-.01-.15-.01-.2-.02-.15-.07-.3-.13-.42-.22-.4-.43-.63-.47-.74-.02-.01-.03-.1-.04-.22-.01-.1 0-.2.01-.3.04-.2.07-.26.15-.3.47-.28.8-.67 1.04-1.2l.01.04c.17-.65.2-1.34.03-1.98zm-234.27 54.25c-.63-.04-1-.4-.5-2.2.3-1.1.8-2 1.3-2.3 1.34-.14.7 1.53.4 2.5-.2.67-.62 2.03-1.2 2zm3.4.6l-.15.53c-.2.36-.44.64-.65.77-.2.1-.3.1-.3.1-.8-.2-1.2-.5-.6-2.8.3-1.5 1.06-2.5 1.6-2.9.18-.13.3-.2.7-.06.46.15.3 1.4.01 2.78a13.86 13.86 0 0 0-.61 1.58zm3.5.9s-1 3.1-2.2 2.8c-.4-.1-.6-.2-.8-.5-.28-.57-.03-1.67.25-2.7a6.18 6.18 0 0 0 .24-.84c.42-1.3 1.08-2.63 2-3.05.8-.23 1.92.56.5 4.3zm3.9.56c-.82 2.5-1.37 3.83-2.5 3.64a1.02 1.02 0 0 1-.8-.5c-.3-.6-.1-1.8.1-2.6.3-1.2 1.02-3.3 2.1-3.6 1.44-.4 1.53 1.76 1.1 3.06zm10.67-21c-1.75 2.74-1.4 1.7-3.15 4.6l-.8 1.06c-.4.63-.5.9-.6 1.16l-.55 1.34c-.01-.06-.2.45-.3.9s-.08.87-.1.26c-.01.16-.04.26-.01.53l-.01-.1c-.01.87-.04 1.78.04 2.72.07.92.2 1.86.23 2.76.03.4-.1.88-.16 1.38l-.26 1.5-.6 3.22c-.02.5-.15 1.43-.44 1.85-.1.15-.22.16-.33.1-.12-.06-.3-.27-.4-.38-.01-.02-.14-.26-.27-.6s-.2-.78-.25-1.2c-.08-.83-.1-1.3.1-.01.04.22.1.6.07.57.04.1.1.17.13.25-.2-1.18-.22-2.45-.4-3.72-.03-.17-.05-.32-.12-.57-.02-.06-.04-.13-.12-.27.01-.01.02-.01.03-.02.1-.2.1-.5-.1-.6 0 0-1.7-1.1-2.4-3.1s.7-4.7.7-4.7c.1-.2 0-.5-.2-.6s-.5 0-.6.2c-.07.07-.74 1.36-.96 2.9-3.9.93-6.64-1.9-6.74-1.98-.2-.1-.4-.2-.6 0-.1.2-.2.4 0 .6.1.1 2.3 2.4 5.7 2.4a7.88 7.88 0 0 0 1.57-.18c-.01.53.05 1.07.23 1.58.6 1.7 1.7 2.78 2.3 3.28-.02.02-.04.03-.07.06-.13.12-.12.13-.16.2s-.04.08-.06.1l-.06.13c-.05.1-.1.23-.16.35a1.6 1.6 0 0 0-.79-.72 1.95 1.95 0 0 0-1.5 0c-.38.18-.73.5-1.04.9.1-1.23-.05-2.47-1.06-2.9-.4-.2-.8-.2-1.2 0-.32.18-.62.48-.9.84.03-.72-.15-1.3-.9-1.54-.4-.2-.9-.1-1.3.1-.24.15-.44.36-.64.6.06-.7-.08-1.34-.76-1.6a1.89 1.89 0 0 0-.82-.03l.32-1.35-.02.3.07-.86c.33-1.42.5-1.78.68-2.18.18-.4.34-.84.87-2.37-.47 1.2-.4.5.27-.95l-.1.4c.34-.8.45-1.07.73-1.58-.1.24-.1.3-.02.18.05-.08.1-.2.2-.35.05-.08.1-.18.16-.3.03-.05.06-.1.1-.17a1.15 1.15 0 0 0 .15-.33c-.01.12-.1.26-.13.33l-.08.2-.16.4.26-.54.1-.2c.03-.07.06-.2.07-.23l.07-.3.3-1.2c.64-1.8 1.45-4.7 1.78-5.42 0 0 1.28-3.9 1.46-4.82-.18.8.53-1.34.4-.7.1-.44.16-.76.32-1.34.8.52 1.5.98 2.82 1.7 1.03.62 2.16 1.23 3.2 1.8.55.17 1.34.77 1.96 1l.2.2c.2.08.46.2.64.34l-.02.01c.32.12.64.34.8.4l-.02.01.36.2-.08-.01c.54.25 1.07.55 1.52.84l.01-.1c.95.66 1.4.72 2.24 1.34l-.02.01c.2.07.36.15.52.23a25.1 25.1 0 0 0-1.13 1.81zm-14.7-15.65h-.06c1 .63 1.62 1 2.4 1.27.03.2.83.5 1.04.67h-.03c.7.23 1.23.8 1.9 1.05-.03 0-.07.03-.2-.04.45.23 1.06.53 1.05.63 1.06.56 2.5 1.42 3.24 1.65h-.06c.43.12.5.26.95.45a.39.39 0 0 1 .04.05c.47.14 1.22.66 1.58.8l-.01.07.83.45-.3-.2c.2-.1.57.45 1.23.68.55.33 1.33.3 1.86.7.32.08-.3-.02.13.16-.03.1-.22-.06-.15.07.43.2.62.46 1.16.7l-.02.08c.72.25 1.2.78 1.7.9.7.33.35.45 1.12.72l.22.24c.3.18.28.01.6.24-.05.04.4.28.17.22.7.5 1.6.74 2.52 1.44.28.01.74.36.95.37-.01.03.27.2.4.27.06.04.06.06-.05.07 0 .01-.12-.06-.1-.07l-.1.03c.04.04.17.13.15.13 0 .01.01.02.01.02.01.01.04 0 .08.01.01.01.03.03.03.06s.02.02-.07.22a1.78 1.78 0 0 0 .07-.13c.02-.04.02-.03.03-.04s.03-.02.04.01l-.22.48-.01-.14-.38.8.12-.08c-.2.4-.4.48-.48.97-.03.23.26-.34.1.1l-.15.28-.08.15c-.02.03-.02.03-.04.05-.04.05-.08.08-.1.1l-.12-.12c-.03.08 0 .1-.24-.02l.02-.08c-.74-.3-.17-.3-.9-.6l.1-.01-.26.03c-.7-.23-.25-.33-1.04-.55.28.15.04.22-.27 0l.12-.01c-.2-.1-.27-.1-.38-.2.13.03.1-.06-.17-.2l.23.03-.58-.18c-.35-.3-1.03-.57-1.14-.76 0 0-.82-.53-1.07-.55.2.04-.25-.25-.07-.25-.26-.06-.94-.38-1.16-.6l.05.02c-.92-.63-1.7-.85-2.5-1.44 0 .1-.44-.2-.38-.05-.95-.42-1.5-1.14-2-1.03-.4-.22-.44-.35-.64-.48l.1.04c-.77-.42-1-.54-1.55-.88-.3-.13-.42-.02-.9-.35.2.04-.02-.07-.2-.18.13.06.17.06-.05-.12-.04 0-.1-.02-.16-.04 0-.01-.01-.01 0-.02-.33-.16-.28-.1-.14-.02-.01 0-.01.02.03.06-.3-.26-.9-.52-.9-.64-.96-.53-1.7-.82-2.5-1.24-.06-.1.15-.04.4.08l-.57-.3c.05-.07.34.15.52.23-.6-.5-1.44-.68-2.16-1.24l-.2-.04-.04-.04c-.01.03-.2-.03-.33-.1-.08-.12.1-.14-.3-.36-.27-.24-.88-.47-1.3-.67.2.14.12.13.02.1-.2-.1-.27-.24-.43-.3l.03-.1c.03.12-.55-.2-.64-.22-.07-.12.33.12.4.1l-1.17-.66c-.45-.18.03.12-.2.08-.35-.18-.8-.38-1.1-.6.01.04.03.08.05.13-.16-.08-.3-.14-.42-.2a5.32 5.32 0 0 1 .31-1.17l.05-.57c.15-.35.37-1.02.7-2.04.33.3.96.83 2.02 1.63zm135.87 18.3l.04.32c0 .07.07.2-.06.18l-.25.01-.77.01-3.66.06-6.46.12c-10.5.32-22.74-.53-33.5-.17-.35-.03-1.26.04-1.25.06l-9.85-.03s-18.9-.03-23.88.4c.57-2.25 1.35-6.48 1.35-6.48 2.05-10.52 2.56-16.04 4.57-28.63l4.6-25.38 2.93-16.6c.16-1.47.57-3.56 1-5.63 0 .05 0 .1.01.15.23 2.6.74 5.45 1.7 8.63 1.72 5.6 3.44 8.9 5.3 12.15 1.9 3.2 4.07 6.37 8.14 10.8 3.9 4.17 8.2 8.45 12.5 12.02 2.12 1.58 5.67 4.64 8.35 6.3.3.27.6.55.92.8.94.54 2.02 1.2 2.9 1.85l-.08-.01 3.68 2.1h-.08a26.13 26.13 0 0 0 1.73.94l-.32-.1c1.28.6 2.55 1.27 3.82 1.84 1.3.55 2.5 1.17 3.7 1.65l-.14-.2c1.26.53 2.32.98 3.3 1.33l2.72.88c.86.28 1.72.47 2.65.75.76.23 1.58.46 2.5.7a152.57 152.57 0 0 1 .71 5.82c.2 3.42.7 8.36 1.18 13.37zm51.1-18.28c.04.5.08.85.13 1.1-.02.01-.06.02-.08.03a1.31 1.31 0 0 0-.13.07l.08-1.2zm-.1 1.5l.01-.14c.05.03.14.05.3.07v.01l-.3.06zm19-13.54c-.66 1.28-1.8 2.22-3.17 2.64-1.4.42-2.86.26-4.15-.44-2.6-1.44-3.58-4.66-2.2-7.32 1-1.8 2.85-2.83 4.78-2.83.86 0 1.73.2 2.55.62 2.6 1.44 3.57 4.66 2.2 7.33zm-7.06-12.7c.1-.1.34-.13.72-.1l2.74-.1c.36.08.64.38.64.7l.1 3.5c-1.4-.43-2.88-.36-4.2.14h0l-.1-3.85c0-.14.03-.24.1-.3zm-6.3-.34c0 .04 0 .08-.01.1h-.1c.03-.25.05-.48.1-.1zm-1.5 3.92c-.13.04.15.75.02.85l.04.32c-.03.1-.06.27-.08.1-.02.3 0 .3.03.5l-.1.3c-.13 1.13-.03 2.1-.13 3.3-.24 1.43-.25 4.14-.25 5.7.07 2.2-.6 4.72-.5 6.98-.02.07.01.26.02.26l-.16 2.52c-.01.14-.02.3-.02.5v.2l-1.47.32c-.3.07-.6.14-.83.2.1-.44.15-.93.15-.93.34-2.22.17-3.4.28-6.05.2-2.33.4-2.94.5-5.37.1-1.15.14-2.4.2-3.52-.1-.54.1-1.48.04-2.12l.1-.24c-.02-.22-.03-.48.02-.7l.02.02c-.03-.33.03-.7.01-.86l.02.02.02-.4.03.07c-.02-.57.02-1.16.08-1.67l-.1.04c.17-1.1.02-1.5.2-2.5l.02.02c-.14-1.28.3-1.98.16-3.3.02.16.05-.07.07-.05.02-.6.05-1.24-.12-1.26.03-.44.08-.35.15-.4-.04 0-.06-.1-.07-.24 0-.12 0-.23-.01-.34l.02.08v-.35l.1.01c-.06-.05-.13-.1-.2-.17.35.08.2.2.42.2l-.02-.12c.53.1 1.13.34 1.64.5l.17.03-.1 3.5c-.04 1.35-.1 2.68-.27 3.9l-.1.1zm7.1 13.76l-.04-.1c.17.08-1.1.12-1.26.16-.24-.07.66-.07.76-.13l-2.55.04c-.9.08.17.1-.27.17-.8.02-1.6.1-2.5.02l.3.1c-.4.02-.76.02-1.1.03.02-.6.02-1.13-.03-1.48l.03.05c-.08-.43.01-.54-.01-1.02.01-.02.02-.06.03-.05-.08-.46.06-1.34.03-1.7l.07-.02.04-.9-.03.34c-.18-.13.15-.68.07-1.35.06-.62-.3-1.28-.18-1.9-.07-.3.12.28.08-.18.1-.01.05.22.13.1-.02-.45.14-.73.1-1.3l.08-.02c-.1-.73.18-1.36.07-1.85-.02-.75.25-.5.15-1.27l.12-.3c.04-.33-.1-.25-.04-.6.06.03.08-.46.12-.24.15-.83-.05-1.7.18-2.8-.05-.1-.05-.27-.05-.44.6.01 1.17.03 1.5.01l.05.07h1.8l-.67-.02c.23-.18 1.34.12 2.64.02l.1 3.87c-.96.57-1.8 1.4-2.37 2.45-1.63 3.15-.5 6.96 2.6 8.67.03.02.07.03.1.05h0l.04 1.52v.02h-.12zm4.58.58l-2.78.1c-.33 0-.7-.3-.7-.7l-.03-1.08a6.31 6.31 0 0 0 1.97.33c.62 0 1.24-.1 1.84-.28.13-.04.26-.1.4-.14h0l.03 1.08c0 .33-.3.7-.72.7zm23.58-11.64l.01-.08c-.1.46-.4.84-.6.97-.27.14-.47.37-.6.63-.12.26-.16.46-.2.68a3.11 3.11 0 0 0 0 .61 1.73 1.73 0 0 0 .22.7c.2.33.42.6.4.64v.3a1.4 1.4 0 0 1-.04.37c.05-.02.03.14 0 .28-.04.14-.1.28 0 .22-.3.72-1.1 1.2-1.68 1.52-.62.33-1.12.57-1.36.87-.8.38-.98.3-1.4.47l.2-.1c-1.52.56-2 .64-3.2.92-.6.15-.65.34-1.75.5.34-.12-.1-.03-.5.04.26-.06.33-.1-.2-.04-.07.03-.2.06-.3.1-.01 0-.03 0-.02-.01-.68.13-.56.13-.24.1-.01.01.01.02.1.02-.72.03-1.97.28-2.07.18l-5.25.68c-.2-.04.2-.12.7-.18l-1.22.1c0-.08.7-.1 1.08-.14-1.26-.02-2.57.25-4 .3l-.04-1.23a6.18 6.18 0 0 0 2.39-2.52c1.63-3.15.5-6.96-2.6-8.67-.04-.02-.08-.03-.1-.05l-.1-3.67a4.35 4.35 0 0 0 .35-.02l.05.07c.7-.06 1.5-.08 2.1-.25.62-.14 1.17-.3 1.6-.52.7-.3.95-.35 1.2-.4.26-.07.52-.13 1.2-.6.2-.07.42-.2.6-.3.55-.4.3-.4.9-.83.01.08.74-.55.45-.23.66-.48 1.28-1.03 1.98-1.5.35-.23.73-.45 1.1-.57.2-.06.32-.07.57-.07l.8.03c.47-.13 1.57-.1 1.92-.2.06.05 2.2-.04.97.1-.1.01-.3.01-.28-.01l-.15.08c1.25.1 2.26-.13 3.5-.13-.37-.02-.85 0-.53-.06l1.14-.02-.24.07h.85c.1.01.12 0 .16.02.02-.04.02-.05.02-.08.1.02.02.18-.01.2-.02.03-.03.04-.04.07-.04.06-.1.2-.2.35-.18.3.5-.4.04.14-.7.67-2.18 1.4-3.44 1.93.15.03-.2.18-.53.33l-.02-.02.3 1.2.03.04c1.46-.27.56.1 2-.12l-.12.06.37-.2c1.3-.22.73.08 2.14-.1-.56 0-.24-.2.4-.1l-.17.05c.35.03.44.02.6.12-.17-.02-.1.02.2.25-.08-.04-.17-.06-.24-.08.2.07.4.23.56.47a2.51 2.51 0 0 1 .09 1.14 1.76 1.76 0 0 1-.16.49.97.97 0 0 1-.2.22s-.07.1-.18.22c-.06.07-.13.16-.2.25-.08.1-.15.18-.3.4-.26.4-.32.88-.16 1.24.17.35.52.5.67.57-.3-.14-.03.05.12.17.1.1.18.2.08.16.16.06.35.2.46.53.18.34.13.73.03.93z"/></g></svg>