<svg width="720" height="640" viewBox="0 0 720 640" fill="black" xmlns="http://www.w3.org/2000/svg">
  <g xmlns="http://www.w3.org/2000/svg" fill="none" fill-rule="evenodd">
    <rect width="720" height="640"/>
  </g>
<g transform="translate(120, 80)"><path xmlns="http://www.w3.org/2000/svg" d="M258.66 47.9s-1.83 1.25-3.23 1.32c-1.4.07-1.47-.07-1.47-1.03s-.15-1.54-.37-2.27-1.17-1.83-1.17-1.83-.8 1.54-2.64 1.98-3.6-.3-6.53-1.54c-2.94-1.25-5.72-1.47-8.15-.8-2.42.66-3.3 1.4-4.26 2.13s-2.35 2.95-2.35 2.95-2.83-.33-5.87 1.08c-3.34 1.56-4.77 5.87-5.14 9.03s.6 6.68 1.17 8.5 1.65 4.13 1.65 4.13.18-.22.5-.5l.12.6c-1 1.04-1.6 2.48-1.6 4.1 0 3.15 2.37 5.7 5.3 5.7.37 0 .72-.05 1.07-.13l-6.87 22.43-2.2 5.7s3.2 4.1 10.8 5.7c5.2 1.1 8.7 1.2 11 1 1.9-.2 4.2-.6 3-4.1-1.7-5.2-1.1-8.5-1.1-8.5l2.4-13.1c1.63.3 3.14.35 4.3-.01 3.2-1 5.9-4.4 6.9-10.1.5-3.3.8-9.2.8-13.4 0-1.1-.1-3.4-.3-5.4-.07-.52-.16-1.02-.26-1.5a11.2 11.2 0 0 0 3.3-2.34c4.95-5.07 1.2-9.77 1.2-9.77zm-30.63 32.2c.01.03.02.06.02.1l-.08-.05c.02-.01.04-.02.06-.04z" fill="#fff"/><path xmlns="http://www.w3.org/2000/svg" d="M251.86 60.2l.33-.04c-.02-.03-.1-.01-.33.04zm-29.66 9.23l.08-.04c-.06.02-.08.03-.08.04zm38.86-18.17v.02l.03.1-.03-.12z"/><circle xmlns="http://www.w3.org/2000/svg" cx="242.08" cy="72.05" r="1.4"/><path xmlns="http://www.w3.org/2000/svg" d="M224.94 72.72c-1.6 0-2.9 1.35-2.9 3s1.3 3 2.9 3 2.9-1.35 2.9-3-1.3-3-2.9-3zm0 5c-1.05 0-1.9-.9-1.9-2s.85-2 1.9-2 1.9.9 1.9 2-.85 2-1.9 2zm14.48-10.36c.12-.13 1.2-1.8 3.9-1.6.4 0 .8-.3.8-.7s-.3-.8-.7-.8c-3.6-.3-5.2 2.1-5.3 2.2-.2.3-.18.75.15 1 .5.38.92.16 1.15-.1zm11.14-2.54c.15-.02 1.24-.35 2.1.14.14.08.3.16.4.16.2 0 .5-.1.6-.3a.78.78 0 0 0-.2-1c-1.4-1-3.13-.44-3.28-.4a.73.73 0 0 0-.52.9c.1.4.5.54.9.5z"/><circle xmlns="http://www.w3.org/2000/svg" cx="252.08" cy="71.25" r="1.4"/><path xmlns="http://www.w3.org/2000/svg" d="M244.3 82.96c-3.6.17-4.65-2.7-4.7-2.85-.18-.4-.56-.54-.95-.4s-.55.56-.4.95c.55 1.45 2.42 3.98 6.22 3.8.4-.04.67-.37.62-.87a.76.76 0 0 0-.77-.62zm16.76-31.68l-.57-2.03-.22-.55-.18-.37-.23-.4c-.32-.52-.68-.98-1-1.3l-.47.35-.78.37-.46.3-.27.16a1.93 1.93 0 0 1-.56.21l.01-.04c-.48.3-1.07.28-1.2.32l.01-.03c-.05 0-.1.01-.15 0l.05-.03c-.06.02-.1-.02-.12-.07-.01-.03-.01-.04-.02-.1v-.38c-.04-.63-.17-1.27-.3-1.8l-.1.12c-.04-.18-.07-.36-.17-.6l-.13-.3c-.04-.1-.12-.22-.18-.33a8.35 8.35 0 0 0-.82-1.12l-.52-.03c-.14-.01-.26-.05-.34.02-.18.1-.43.18-.83.28-.22.33-.58.66-.68.7-.16.12-.35.22-.56.3v-.04c-.8.6-1.73.55-2.55.32l-2.95-.96c.3.08-.1-.1-.06-.13-1.06-.42-2.35-.9-2.44-.65-.85-.28-.68-.28-.76-.42-.02.1-.8-.06-1.48-.17h.33a11.3 11.3 0 0 0-2-.2 4.79 4.79 0 0 1 .38.23c-1.05-.1-.26-.3-1.3-.23l.02.17c-1.46.03-2.4.01-3.8.34-1.22.38-2.46 1.15-3.42 1.98-.6.52-.96 1.03-1.35 1.56l-.55.8-.13.2-.04.08c-.03.04-.05.1-.08.14h-.2l-.66.02-1.3.15a14.34 14.34 0 0 0-2.52.65c-.8.3-1.6.65-2.33 1.18-.7.52-1.3 1.13-1.83 1.77l-.25.13c-.26-.02-.6 1.5-.8 1.6l-.2.63c-.1.15-.27.5-.2.18-.23.56-.2.6-.3 1l-.3.58c-.74 2.24-.7 4.37-.43 6.8.05 1.16.33 2.68.8 4.24.23.78.53 1.6.85 2.34l.5 1.13.8 1.72c.08 0 .13.01.2.02a6.42 6.42 0 0 0-1.07 3.57c0 3.42 2.6 6.2 5.8 6.2.12 0 .24-.02.36-.03l-6.63 21.65-2.3 5.96.17.22c.14.17 3.4 4.26 11.1 5.88 3.44.73 6.48 1.1 9.08 1.1a22.56 22.56 0 0 0 2.07-.09c1.28-.13 2.7-.37 3.4-1.45.5-.8.52-1.88.03-3.3-1.63-5-1.1-8.22-1.08-8.25l2.3-12.56c.68.1 1.35.18 1.96.18.76 0 1.46-.1 2.08-.28 3.63-1.14 6.27-4.96 7.25-10.5.1-.64.18-1.36.26-2.14 1.83-.73 3.13-3.16 3.13-6.12 0-2.67-1.06-4.9-2.6-5.86-.03-1.26-.13-3.14-.3-4.8-.02-.17-.06-.33-.1-.5 1.08-.5 2.23-1.22 3.5-2.52.85-.9 1.65-1.98 2.17-3.23.54-1.26.72-2.66.56-3.94zm-21.2 52.15c-.03.14-.6 3.5 1.12 8.75.38 1.1.4 1.93.07 2.45-.45.7-1.6.88-2.64 1-2.9.25-6.55-.08-10.85-1-6.34-1.33-9.56-4.47-10.33-5.3l2.1-5.45 6.78-22.16c.58-.16 1.13-.4 1.63-.75.08.3.16.6.22.88.53 2.22 2.42 4.1 5.96 5.93 2.5 1.3 5.52 2.5 8.25 3.06l-2.3 12.6zm13.6-23.2c-.9 5.15-3.3 8.7-6.56 9.7-3 .94-8.62-1.07-12.52-3.07-3.2-1.65-5-3.38-5.44-5.27a24.44 24.44 0 0 0-.35-1.35l-.24-1.25c-.88 1.16-2.2 1.92-3.7 1.92-2.65 0-4.8-2.33-4.8-5.2s2.15-5.2 4.8-5.2c1.2 0 2.28.48 3.12 1.27.1.1.2.22.3.35l.23.36c.07.12.28.38.46.5.4.3.8.44 1.14.52l.93.2c.92.08 1.54-.14 2.2-.45a5.42 5.42 0 0 0 .9-.6l3.95.67c0 .08-.01.17-.01.25 0 3.6 2.2 6.6 5 6.6 2.7 0 5-3 5-6.6a8.76 8.76 0 0 0-.07-1.03c.05-.05.1-.1.17-.14-.01.1.01.23.07.35.5 1.3 1.4 3.8 1.3 4.7s-.85 1-1.2 1.1c-.45.12-.75.45-.65.9.12.58.65.63.95.6.8-.1 2.2-.9 2.3-2.4a4.77 4.77 0 0 0-.04-.82c.76 1 1.76 1.62 2.88 1.62.04 0 .08-.01.12-.01a42.74 42.74 0 0 1-.23 1.75zM236.38 64.3c-.2-1.83-1.2-3.7-2.13-4.98-.25-.34-.34-.46-.42-.7-.03-.1-.05-.2-.07-.27a1.12 1.12 0 0 0 .22-.03l.02.08c.02.02.05.03.07.04l.13.05a20.69 20.69 0 0 1 .76.35l1.04.52c3.87 1.95 6.4 2.96 11.87 2.92 2.42-.01 3.98-.3 5.5-.76l.5-.18c.01.08.03.15.04.22a73.09 73.09 0 0 1 .28 4.29c-.22-.05-.44-.08-.67-.08-2.2 0-3.95 2.33-4.24 5.44a2.4 2.4 0 0 0-.76-.09 1.91 1.91 0 0 0-1 .31c-.7-2.55-2.58-4.42-4.7-4.42-2.38 0-4.45 2.33-4.9 5.35l-3.22-.56c.1-.15.2-.33.17-.34.86-1.33 1.18-2.73 1.42-4.14 0 0 .06-.32.1-.86.05-.52.08-1.28-.02-2.16zm-2.44-6.13h0l.02.02h0c-.01-.01-.02-.02-.02-.03zm12.9 15.45c0 3.1-1.8 5.6-4 5.6s-4-2.5-4-5.6 1.8-5.6 4-5.6 4 2.5 4 5.6zm6.93 3.85c-.07.01-.15.02-.22.02-1.78 0-3.3-2.45-3.3-5.35s1.5-5.35 3.3-5.35a2.01 2.01 0 0 1 .69.13 125.81 125.81 0 0 1-.47 10.55zm1.47-9.9c.95.95 1.6 2.66 1.6 4.56 0 2.18-.85 4.1-2.02 4.93.26-3.05.4-6.7.43-9.5zm3.68-13.35c-.13.45-.36.83-.52 1.22-.23.36-.4.72-.65 1.05-.25.3-.47.65-.74.94-.28.28-.54.58-.86.85-.2.05.07-.23.4-.6a5.72 5.72 0 0 1-.88.75c-.06-.1.5-.43.74-.7-1.12.74-2.2 1.83-3.83 2.2l-.3.2-.1.02c.02.05-.3.22-.55.28-.25-.05-.04-.23-.83-.05-.64.01-1.8.32-2.64.37.46.01.3.07.12.1-.4.01-.65-.08-.97-.05l-.04-.14c.16.13-1.08.1-1.23.13-.22-.12.64-.03.75-.12-1.64-.1-.82-.02-2.45-.24-.88-.06.13.16-.3.2-.77-.12-1.55-.2-2.4-.55l.24.2a11.33 11.33 0 0 1-3.15-1.24l-3.17-1c-.8-.22-1.4-.28-1.6-.15-.05.04-.13.13-.2.2 0-.07.01-.13.03-.18.02-.07.04-.13-.05-.14-.06-.02-.2-.03-.37.15-.16.17-.27.55-.2 1.02.07.5.4 1 .62 1.6.25.6.53 1.34.73 2.2l-.07-.07c.33 1 .38 1.76.4 2.53.02.76 0 1.45-.02 2.18-.26.18-.38 1.7-.67 2.1v-.05a2.95 2.95 0 0 1-.87 1.55c-.42.4-.9.66-1.36.92.03-.04.03-.1.24-.2-.32.18-.78.3-1.07.3-.06 0-.1-.01-.12-.02-.1-.03-.2-.06-.3-.1-.16-.05-.23-.08-.25-.12-.26-.04-.47-.1-.58-.16-.06-.03-.1-.06-.12-.1-.03-.04-.14-.2-.24-.33-.4-.6-1.06-1.18-1.7-1.5-.65-.35-1.3-.54-1.86-.66-.57-.13-1.14-.14-1.55-.1l.1-.03c-.93.17-1.24.08-2.2.5-.06 0-.13.02-.12.01a20.35 20.35 0 0 1-.68.41c-.13.07-.25.16-.38.25l-.2.14c-.12.1-.23.18-.32.28-.1.2-.13-.07-.18-.12-.02-.04-.04-.08-.06-.1l.05-.13-.18-.38-.35-.82.23.62c-.33-.1-.37-1.3-.9-2.44-.32-1.14-1.2-2.2-1.3-3.47-.22-.57.3.48.05-.38.13-.05.15.4.23.15-.2-.85-.07-1.42-.22-2.47l.1-.05c-.26-1.38.27-2.54.28-3.46.1-.7.26-.9.4-1.13s.24-.44.4-1.15l.35-.46c.28-.54.01-.48.4-1.05.05.07.5-.7.37-.3.9-1.17 1.7-2.54 3.72-2.97.35-.33 1.36-.48 1.66-.66.06.02 2.03-.23.9.05-.1.02-.27.04-.26.01l-.12.13a8.7 8.7 0 0 0 1.16-.05c.2-.02.34-.04.57-.05.37-.01.75.01 1.1.03.15-.26.3-.52.46-.77l.22-.34.14-.2-.17.2a7.51 7.51 0 0 0-.23.32c-.13.18-.17.22-.05-.04l.4-.58.32-.44-.06.24c.33-.43.67-.85 1.02-1.2-.07.02-.15.05-.22.08.27-.26.48-.38.65-.47.26-.15.5-.33.8-.64.27-.3-.68.3-.04-.2.84-.52 2.34-.97 3.62-1.22-.14-.1.2-.17.54-.25l.06.1c.67-.17.8-.1.93-.04s.25.1.92.07l-.12.07c.12-.07.24-.15.37-.2.63-.06.8.02.97.1s.36.13 1.08.14c-.54-.1-.2-.3.46-.08l-.2.06c.37.08.5.07.74.17-.23-.01-.16.1.37.27l-.4.01a10.21 10.21 0 0 1 1.06.18c.72.42 2.07.84 2.35 1.1a15.55 15.55 0 0 0 .96.37c.52.18 1.13.3 1.4.27-.44.02.7.27.36.33.28-.01.85 0 1.43-.07a9.46 9.46 0 0 0 1.52-.3l-.12.06a4.37 4.37 0 0 0 1.21-.58 4.88 4.88 0 0 0 .49-.38c.08-.07.04-.05.07-.08a.81.81 0 0 0 .06-.13c.02-.07.06.01.1.02.04.03.07.08.1.13l.1.23c.03.12.05.23.08.36.12-.1.25.77.36.52a3.19 3.19 0 0 1 .12.6c.02.22.02.35.02.75 0 .36.04.7.17.97s.38.5.64.6.55.14.83.15c.13 0 .26-.01.4-.01l.24-.02c.36-.05.63-.17.8-.35.94-.3 1.13-.28 1.6-.46l-.2.12a3.72 3.72 0 0 1 .4-.2c.04-.03.08-.05.12-.08.07-.05.14-.1.2-.13.1-.01.15.16.2.24.03.05.04.1.08.16.07.13.1.28.18.43.22.5.52.52.62 1.55-.14-.3-.05.1-.04.47-.02-.24-.05-.3-.1.18.03.07.05.17.07.27-.01 0-.01.02-.02.01-.02.62.01.52.06.23.01.02.03-.01.07-.1-.14.66-.37 1.8-.57 1.82zm134.2 190.68l.01.1-.01-.1z"/><path xmlns="http://www.w3.org/2000/svg" d="M231.77 204.85l-.4.01h.07l.34-.01zM169.82 410.7c-.02 0-.04.08-.08.3l.08-.3zm38.72 37.42l.13-.02h-.02l-.1.02zm-6.42.02l.1-.02h-.02zm-26.08-112.88l-.05.43c0-.03.01-.05.01-.07l.04-.36zm105.33 112.86l.13-.02-.13.02zm23.5-5.92h-.04c-.2-2.2-.7-4.76-1.66-6.7-1.8-3.6-25.5-13.3-32.3-16-.73-.3-1.5-.2-2.2.17l-.72-9.82 7.3-.65c1.6-.1 2.8-1.5 2.8-3.1l-.2-8.08-2.47-.92 1.18-53-1.8-52.2c-1.3-42.7-4-80.3-4.6-85.8h-4.4c0-.03 0-.07.01-.1l-71.3.1c-1.1 4.9-3.3 22.6-6.6 45.1-1.8 12.7-5 47.7-6 54.9-1.33 9.54-13.32 85.56-13.32 85.56l-2.96-.54-2.12 10.68c-.4 1.8.8 3.5 2.6 3.9l5.22 1.08-1.2 6.2-1.7 13.03c-.67-.26-1.44.05-1.62.78-.7 2.3-1.8 7.32-1.08 15h-.02c.1 1.1.2 2.2.4 3.5.2.9 1.1 1.7 2.1 1.7l62.1-.2c1.1 0 1.9-.9 1.9-2 0-.7 0-1.7-.1-2.6H232c-.2-2.2-.7-4.76-1.66-6.7-1.8-3.6-25.5-13.3-32.3-16-.85-.34-1.77-.17-2.5.38l1.28-7.83 8.85 1.83c2 .4 4-.8 4.6-2.8.76-2.35 2.98-10.16 2.98-10.16l-2.5-1.17 17.34-56.46 6.7 57.17-2.27 1.22.84 8.03c.2 1.8 1.8 3.1 3.5 2.9l2.57-.23.68 13.72c-.25.15-.45.38-.53.7-.7 2.3-1.8 7.32-1.08 15h-.02c.1 1.1.2 2.2.4 3.5.2.9 1.1 1.7 2.1 1.7l62.1-.2c1.1 0 1.9-.9 1.9-2-.01-.7-.01-1.7-.1-2.6zm-29.93 5.94l.1-.02h-.02z" fill="#fff"/><path xmlns="http://www.w3.org/2000/svg" d="M173.63 432.88h0l.04-.03zm72.82 0h0l.05-.03zm25.1-195.78l.03-.04c-.01-.02-.02-.01-.03.04zm-84.4 26.15l-.04.03c0 .02.02.02.04-.03zm7.48 29.45l-.01-.32-.38 2.22.12-.3c-.2 1.08-.4 1.45-.47 2.7-.03.57.26-1.02.1.14l-1.07 5.45c.12-.16.02.34-.05.85l-.08.05c-.26 1.98-.3.7-.57 2.65l-.02-.18.06.54c-.18 1.78-.33.92-.5 2.9.14-.77.23-.33.02.6l-.02-.25-.17 1.06c.02-.32-.07-.2-.2.6v-.53l-.15 1.48-.75 3.36-.54 3c.03-.5-.26.83-.27.43-.05.64-.36 2.5-.6 3.23v-.14l-1.46 7.15c.1-.1-.2 1.2-.03.9-.42 2.56-1.2 4.6-1.05 5.58-.23 1.16-.37 1.35-.5 1.95l.04-.28-.9 4.4c-.14.8-.01.97-.35 2.4.04-.48-.08.1-.2.65.06-.35.06-.46-.13.24 0 .1-.02.26-.04.4-.01 0-.02.03-.02.02-.17.9-.12.75-.02.34.01.02.02-.01.07-.13-.28.9-.55 2.6-.68 2.7l-1.3 6.9c-.1.24-.04-.3.08-.95l-.32 1.6c-.08-.03.15-.93.24-1.42-.54 1.87-.72 3.94-1.32 6.14l-.04.47-.04.13c.03 0-.03.5-.1.84-.14.3-.15-.06-.4 1.05-.25.86-.5 2.48-.72 3.63.15-.6.14-.4.1-.14-.12.55-.26.85-.32 1.28l-.1.03c.13-.2-.22 1.46-.23 1.67-.14.3.13-.87.1-1.02l-.7 3.3c-.2 1.2.13-.2.1.4l-.7 3.25.17-.36-1 4.43c-2.57 14.7.23 3.27.23 3.27 1.45-5.7 1.87-8.7 3.3-15.53 1.35-6 1.86-7.54 3.14-13.77l1.9-9.04c.17-1.4.8-3.8 1.05-5.46l.2-.62c.08-.57.2-1.23.36-1.8v.04c.12-.85.36-1.8.42-2.2l.01.04.2-1.02-.01.18c.25-1.48.56-3 .86-4.3l-.1.1c.7-2.82.72-3.9 1.36-6.45l.01.04c.45-3.3 1.2-5.1 1.65-8.5-.06.42.08-.17.1-.13.28-1.55.58-3.2.42-3.26.22-1.13.23-.9.32-1.04-.07-.01.08-1 .25-1.87l-.05.4.45-2.53-.23.47c.3-1.33.23-.3.43-1.6h-.12c.36-1.85.74-2.9 1.12-4.68 1.27-7.47 2.14-15.55 3.42-22.48l.13-.3c.15-.1.1-1.95.26-2.2l.07-.82c.06-.22.15-.7.12-.3.12-.75.1-.77.14-1.3l.2-.8c.5-2.94.74-5.48 1.25-8.58.73-3.7 1.65-10.76 2.18-14.82.68-5.72 2.2-12.26 2.86-18.12a3.78 3.78 0 0 0 .07-.68l.83-5.33s4-25.84-.06-6.36l-.01-.14c-.5 2.9-.8 4.74-.97 6.78-.22.3-.38 2.4-.54 3.07v-.07c-.14 1.8-.67 3.65-.8 5.38 0-.07-.04-.1.01-.5-.17 1.25-.4 2.97-.5 3.05-.43 3-1.1 7.15-1.24 9.1v-.1c-.06 1.1-.2 1.4-.33 2.64-.02.06-.04.15-.05.14-.08 1.2-.5 3.47-.6 4.44l-.08.05-.34 2.37.15-.88c.13.33-.4 1.77-.53 3.5-.27 1.6-.12 3.3-.46 4.97-.04.8-.03-.72-.15.48-.1.02.03-.56-.1-.27-.13 1.17-.4 1.9-.54 3.35l-.08.05c-.15 1.9-.64 3.53-.7 4.8-.23 1.95-.42 1.26-.58 3.3l-.22.77c-.15.86.03.64-.17 1.6-.05-.07-.23 1.2-.2.63-.43 2.15-.53 4.42-1.13 7.24.03.64-.26 2.06-.24 2.54-.06.07-.45 2.88-.32 1.25.01-.14.05-.38.07-.36l-.04-.2c-.38 1.6-.37 2.97-.64 4.57.1-.47.2-1.1.17-.68l-.23 1.43zm-6.53 101.88h0l.05-.04zm-8.57 25.12h0l.02-.05zm26.97 7.87h0l.04.03zm43.48-7.87h0l.02-.05zm24.32 5.82h0l.04.03zm-72.87-.02h0l.04.03zm77.95 2.1h0l.04.03z"/><path xmlns="http://www.w3.org/2000/svg" d="M305.6 440.73c.1.4.05-.2.1-.16-.24-1.5-.72-3.1-1-3.04-.32-1.07-.2-.9-.14-1.07-.06.02-.18-.2-.34-.5-.18-.33-.32-.7-.68-1.2l.32.4c-.6-.96-1.3-1.4-1.96-1.9l.25.5c-1.02-.84-.1-.45-1.17-1.1l-.1.17-3.7-2.7c-6.3-3.4-13.5-5.95-19.47-8.82l-.2-.25c-.04-.25-1.8-.4-1.96-.68l-.75-.2c-.2-.12-.6-.33-.22-.23-.66-.28-.68-.25-1.18-.38l-.66-.4-.95-.4-.47-.2c-.2-.07-.44-.16-.66-.2a3.34 3.34 0 0 0-1.41.04c-.08-1.3-.32-2.65-.3-4.34-.15-.42-.15-1.42-.27-1.73.05-.06-.14-2 .06-.88.02.1.03.26.01.25l.08.13a5.88 5.88 0 0 0-.04-1.04l1.37-.13 4.34-.42.7-.07c.22-.02.58-.06.86-.14 1.2-.33 2.15-1.25 2.58-2.32a4.18 4.18 0 0 0 .31-1.66l-.05-1.3-.18-4.8-.1-2.45-1.92-.7-.4-.14c-.05-.02-.12-.03-.15-.07v-.17l.07-2.8.2-6.32.5-12.92.6-25.55c.02-.28.01-.77 0-1.2l-.02-.55c-.01-.14-.02-.23-.02-.23.04-2.62-.1-5.2-.16-7.8l-.25-7.77s-2.52-75.33-2.32-18.05l-.06-.38c.18 8.5.34 13.85.78 19.7-.26.93.2 6.98.2 8.98l-.03-.2c.23 2.6.18 5.23.1 7.88-.08 2.64-.18 5.27-.13 7.77-.02-.2-.1-.3-.08-1.45-.03 3.64-.1 8.62-.26 8.9l-.46 26.42-.04-.38c.05 1.6.02 2.62-.01 3.7l-.06 1.72-.03 1.33c-.2.03-.4.07-.58.14-.1-.17-.6.03-.8-.01l.02-.02c-.44.17-.95-.04-1.37.12.02-.02.02-.06.12-.07-.32.05-.75.12-.78.02-.76.1-1.83.13-2.3.32l.03-.03c-.27.13-.36.04-.67.12h-.04c-.3.13-.88.1-1.13.15l-.02-.07-.6.06h.23c-.06.2-.47-.08-.9.08-.4.01-.8.45-1.23.4-.2.1.17-.15-.13-.06-.02-.1.14-.07.05-.14-.3.07-.5-.06-.86.04l-.02-.07c-.47.17-.9-.03-1.22.13-.5.1-.35-.2-.85-.01l-.2-.08c-.22 0-.15.14-.4.1.01-.06-.3-.03-.17-.1-.56-.05-1.1.23-1.85.12-.15.14-.52.1-.63.2-.02-.05-.74.05-.33-.1.03-.01.1-.02.1.01l.04-.08c-.43-.1-.75.14-1.16.15.12.01.3 0 .18.05l-.38.02.07-.07-.57.01.08.07c-.28-.02-.4-.14-.7-.01-.14.07.27.08-.02.13-.38-.02-.94-.06-1.42-.04.05.08-.08.1-.2.12l-.02-.07c-.5.14-.2-.15-.7-.03l.04-.06-.12.17c-.44.18-.26-.14-.74.1.2-.03.1.16-.14.14l.06-.08c-.13.03-.18.06-.27.05.08-.05.03-.1-.16-.08l.13-.1-.37.16c-.3-.05-.75.08-.88-.01 0 0-.63 0-.76.12.12-.08-.23-.08-.13-.17-.16.1-.63.2-.83.12l.04-.01c-.7-.03-1.2.2-1.84.16.04.08-.3.06-.2.17-.65.16-1.2-.13-1.42.23-.3.04-.36-.05-.52-.06l.07-.02c-.56.07-.72.1-1.14.1-.2.05-.22.2-.6.2.12-.07-.04-.05-.17-.04.1-.02.1-.04-.07-.07-.02.02-.06.04-.1.05 0 0-.01-.01-.01-.02-.23.04-.2.06-.08.06 0 .01.01.02.04.04-.25-.06-.67.06-.7-.05-.7.08-1.2.23-1.76.32-.07-.05.06-.1.23-.15l-.4.05c0-.08.23-.07.36-.1-.5-.1-1 .2-1.6.14l-.1.07-.04-.01c0 .03-.12.1-.2.1-.1-.06-.01-.16-.3-.13-.23-.05-.64.08-.93.15.16 0 .1.04.05.07-.14.01-.23-.05-.34-.01l-.02-.1c.06.08-.36.13-.4.17-.1-.06.22-.08.25-.13l-.86.08c-.3.1.06.08-.08.18-.24.04-.48.1-.75.1-.16-1.42-.2-1.88-.23-2.42l-.06-1.4c-.04-.9-.13-1.98-.55-4.6l-.1-2.3c-.27-2.5-.4-1.77-.66-4.54.12.16-.33-3.5-.04-1.9-.57-6.3-1.72-12.7-2.4-21-.4-1.77-.78-5.94-1.1-7.26.06-.23-.96-8.33-.22-3.7.06.4.14 1.1.1 1.06l.2.54c-.26-3.8-.83-7-1.3-10.55l2.93-9.23.42-.86c.33-.33 1.42-5.7 1.84-6.43l.6-2.4c.23-.66.68-2.06.38-.86.65-2.2.62-2.27 1-3.88l.8-2.33c2.53-8.68 4.3-16.17 6.84-25.33 3.26-10.95 8.6-31.78 11.66-43.8l2.64-10.14 2.82-10.2.2-.14.46-.33c.3-.22.6-.46.9-.7.58-.5 1.13-1 1.65-1.6.5-.6.98-1.24 1.34-2a5.08 5.08 0 0 0 .4-1.25c.08-.5.1-.84.1-1.2l.45-8.63.2-4.44 1.24-.01 1-.02c.14.01.35-.05.46.02l.08.56.1 1.04.22 2.3c.14 1.56.24 3.16.3 4.8l.2 1.35.01.4c.05-.02.23 1.44.32 2.4-.05.93-.27-.05-.05 3.2.06 2.57.53 7.27.8 10.63-.1-1.8.01-1.23.1-.45.1 1.62.04 2.56.16 3.8l-.12.13c.13.22.38 4.3.47 4.86-.06.93-.24-2.5-.35-2.9l.56 9.75c.3 3.46.12-.64.34 1 .2 3.06.45 6.04.52 9.57l.1-1.12c.38 5.75.52 9.2.53 13.08l1.43 19.5c.3 2.85.44 2.64.52 1.08.07-1.56.07-4.45.04-6.96l-.08-4.63c-.34-16.9-1.14-25.62-2.4-45.7l-1.13-20.1-.3-4.32-.17-2.27-.16-1.76-.1-1.12-.01-.14c0-.05 0-.1-.07-.08h-.9l-12.33.02-26.62.07c-4.06.2-11.22 0-16.02.18l-1.9-.12-2.74.05.03.26c-16.54.18-29.32.6 6.02 1.6l-.4.05c8.93.1 14.55.12 20.7-.13.97.3 7.34.02 9.43.1l-.2.02c4.2-.18 8.58.02 12.78.02v19.9l.2-.1-1.33 5.2-1.02 4.3.06-.4c-.7 3.27-1.1 4.18-1.97 7.8-.07.2-.15.44-.15.4-.77 3.56-2.72 10.25-3.4 13.1l-.16.16-1.85 7 .73-2.6c.05.98-1.6 5.24-2.78 10.36-1.3 4.73-1.98 9.8-3.46 14.67-.5 2.4.34-2.13-.5 1.4-.2.07.35-1.67-.02-.8-.86 3.47-1.7 5.6-2.74 9.9l-.17.14c-1.3 5.6-3 10.4-3.82 14.16-1.48 5.74-1.4 3.73-2.85 9.73l-.83 2.25c-.77 2.52-.35 1.87-1.28 4.64-.05-.2-1.16 3.5-.76 1.85-2.1 6.3-3.72 12.93-6.54 21.2-.36 1.87-1.76 6.04-2.03 7.43-.15.2-2.6 8.4-1.33 3.64.1-.4.33-1.13.35-1.07l.06-.6c-1.68 4.7-2.53 8.68-4 13.38.47-1.38 1.03-3.24.73-1.98L217 376.3l.18-.94-2.05 6.5.4-.86c-1.04 3.17-1.6 4.23-2.52 7.88-.4 1.66 1.1-2.97.1.4l-1.54 4.7-1.7 5.28c-.26-.15-.63-.33-1.16-.56l.04-.02c-.67-.2-1.1-.3-1.6-.24-.04-.18-.56-.12-.7-.2l.02-.01c-.44.05-.84-.27-1.26-.23.02-.01.04-.06.13-.04-.3-.03-.7-.07-.7-.17-.7-.1-1.67-.33-2.15-.26l.04-.02c-.28.06-.33-.05-.63-.05-.01-.02-.03-.03-.03-.03-.3.05-.82-.14-1.05-.13v-.07l-.56-.1.2.05c-.1.17-.4-.2-.82-.15-.37-.1-.83.23-1.2.07-.2.05.2-.1-.1-.1.01-.1.14-.03.08-.12-.28-.01-.43-.18-.78-.18v-.08c-.47.05-.8-.25-1.13-.18-.47-.02-.26-.27-.76-.22l-.17-.13c-.2-.05-.17.1-.38 0 .03-.06-.27-.1-.13-.14-.5-.2-1.06-.05-1.7-.35-.17.1-.5-.04-.62.03-.01-.06-.67-.14-.27-.18.03 0 .1.01.08.03l.06-.06c-.36-.2-.7-.05-1.08-.15.1.04.26.07.15.1l-.35-.08.08-.05-.52-.13.06.1c-.25-.1-.3-.23-.62-.18-.14.03.22.15-.05.12-.33-.12-.83-.3-1.26-.4.02.1-.1.07-.22.06v-.08c-.48.02-.14-.2-.6-.2l-.1.1c-.44.07-.2-.2-.7-.08.18.02.06.18-.16.1l.07-.06c-.13-.01-.17.01-.25-.02.08-.02.06-.1-.13-.12l.14-.07-.37.07c-.25-.13-.7-.1-.78-.23 0 0-.56-.16-.7-.07.13-.05-.18-.13-.08-.2-.16.05-.6.03-.77-.08h.03c-.63-.2-1.13-.1-1.7-.3.01.1-.3-.01-.23.1-.62-.01-1.06-.43-1.34-.13-.28-.03-.3-.14-.45-.18h.07c-.52-.07-.67-.1-1.05-.17-.2 0-.26.15-.6.05.12-.04-.02-.06-.15-.08.08.01.1-.01-.05-.1-.03.01-.07.02-.1.02-.22-.04-.18-.01-.1.02-.01.01 0 .02.03.05-.2-.12-.62-.1-.62-.22-.64-.1-1.12-.07-1.66-.13-.05-.07.08-.1.24-.08l-.38-.05c.02-.08.23 0 .34 0-.43-.2-.95-.05-1.46-.26l-.12.04-.03-.02c0 .03-.13.06-.2.05-.06-.08.04-.16-.23-.2-.2-.1-.6-.08-.87-.1.14.04.1.07.02.08-.13-.02-.2-.1-.3-.1v-.1c.03.1-.36.03-.4.06-.06-.08.2-.02.26-.07l-.8-.13c-.3.02.03.1-.1.15-.25-.03-.5-.01-.78-.12l.07.1c-.48-.02-.75-.08-1.05-.23-.4 0-.7.02-.94.03l.5-3.47 1.06-6.55c-.2.32.5-3.63.16-2.68 1.03-7.8 2.58-14.1 2.45-17 .52-3.54.78-4.17 1.1-6l-.1.85 2.06-13.47c.33-2.46.12-2.9.87-7.28-.12 1.44.14-.36.4-2-.15 1.05-.16 1.38.25-.77.02-.3.07-.78.12-1.22.01-.02.03-.1.04-.06.4-2.75.28-2.28.07-1-.01-.07-.04.04-.13.43.58-2.83 1.23-7.95 1.46-8.27l1.58-11.06c.45-3.37.95-6.57 1.27-10.05.18-.77.1.86-.13 2.88l.53-4.92c.13.06-.23 2.83-.4 4.35.9-5.83 1.08-12.08 1.98-18.9l.04-1.43.06-.4c-.06.02.02-1.53.1-2.55.22-.96.26.1.6-3.3.4-2.67.73-7.62 1.05-11.14-.22 1.9-.22 1.27-.18.45.18-1.7.4-2.66.5-3.97l.14-.1c-.1-.24.38-4.53.4-5.1.23-.95-.2 2.64-.16 3.07.78-6.78.35-3.4 1.23-10.16.4-3.63-.24.63-.13-1.1.43-3.2.77-6.32 1.4-9.96l-.3 1.14c.74-6 1.26-9.6 1.96-13.6l2.3-20.4c.43-3 .25-2.8-.24-1.25-.5 1.62-1.05 4.62-1.5 7.22l-.78 4.8c-1.4 8.77-2.28 15.43-3.2 22.52l-1.48 11.27-1.52 13.87-2.37 21-1.63 14.92c-.23 2-.44 4.12-.83 6.5l-4.22 27.62c-.45 4.24-1.8 11.64-2.4 16.64l-.42 1.9c-.2 1.72-.48 3.74-.8 5.46l-.02-.1c-.3 2.58-.8 5.46-.97 6.74l-.02-.1-.47 3.12.03-.54a410.11 410.11 0 0 1-1.99 13.14l.2-.3-1.16 7.16-.2 1.44c-.03.12 0 .32-.08.38l-.52-.08-2.34-.42-.8 4-.77 3.6v-.1l-.6 3.53c-.08.5-.28 1.25-.16 1.96.1.7.36 1.37.76 1.9s.9 1 1.48 1.3c.57.32 1.26.46 1.7.55l2.94.65.88.2 1.18.28c3.24.72 6.64 1.44 10.83 2.15-1.27-.22.53.18.42.2 4.67.92 9.65 1.93 9.78 1.66 3.4.7 2.75.66 3.17.86 0-.02.1-.02.27-.01l-.58 4.14-.1.2c-.14.08.02 1.37-.12 1.54l-.01.36a3.39 3.39 0 0 0-.42.33 2.69 2.69 0 0 0-.44.49c-.2.25-.4.5-.6.75-.43.5-.9.98-1.42 1.44-1.33 1.06-3.3 2.48-5.53 3.5s-4.7 1.6-6.54 1.73c-3.6.4-7.82-.1-11.05-2-.08-.05-.17-.08-.26-.12.25-1.44.43-2.7.6-3.97.16.1.4.13.4.13.73.2 1.1-.06 1.97-.12.76.04.96.2 1.75.14.38.01.78-.02 1.14-.04.17-.13.48 0 .7-.1l.08.07c.07-.04.15-.06.23-.02v.02c.1-.05.23-.02.28-.05v.02l.13-.01v.03a1.27 1.27 0 0 1 .54-.04l-.01-.1c.36.1.5-.08.82.03v.02c.4-.23.65.16 1.07-.06-.05.03.02.04.02.07.2-.02.4-.04.4-.2.14 0 .12.05.13.12 0-.07.12-.1.23-.1l-.05.03.32-.03-.06-.14c.17.04.04.17.2.14v-.12c.23.02.37.2.6.3.94.05 1.94-.25 2.8-.04l.04.1c.02.13.24-.2.27-.07l.1-.06c.03.02.1.05.04.08.1.01.1-.02.16-.05l.1.08c.37.06.68-.1 1.07-.06.47.16 1.35.01 1.85-.07.7-.2 1.54.32 2.27.1.02.02.1-.02.08-.04l.67.02s3.24.05.78-1.02l.02-.03c-.37-.07-.6-.08-.85.06-.04-.17-.3-.02-.4-.07l.01-.01c-.22.13-.46-.1-.67.01.01-.01.01-.06.06-.06-.16.02-.37.06-.38-.04-.37.03-.9-.02-1.14.14l.02-.03c-.14.1-.18.02-.33.07-.01-.01-.02-.02-.02-.03-.15.1-.43.02-.55.06l-.01-.07-.3.02.1.01c-.04.18-.22-.12-.44 0-.2-.02-.4.38-.62.3-.1.1.1-.14-.06-.07 0-.1.07-.06.03-.14-.15.05-.24-.1-.42-.03v-.07c-.24.14-.44-.1-.6.03-.24.06-.16-.22-.42-.08l-.1-.1c-.1-.02-.08.12-.2.07.01-.06-.15-.05-.08-.1-.27-.1-.55.14-.9-.03-.08.12-.26.05-.32.14-.01-.05-.36-.01-.16-.13.02-.01.05-.01.05.01l.02-.07c-.2-.14-.37.08-.57.05.06.02.14.02.1.07l-.2-.01.04-.06-.28-.04.04.08c-.14-.04-.18-.17-.34-.06-.07.06.13.1-.01.13-.18-.05-.46-.13-.7-.15.02.1-.04.08-.1.1l-.01-.07c-.25.1-.1-.16-.34-.08l-.04.1c-.22.15-.12-.16-.37.05.1-.01.05.16-.07.13l.03-.07c-.07.02-.1.05-.13.03.04-.04.02-.1-.08-.1l.07-.1-.18.13c-.14-.08-.37.02-.43-.08 0 0-.3-.05-.38.06.06-.07-.1-.1-.06-.18-.08.08-.3.14-.4.06l.02-.01c-.35-.1-.6.12-.9.01.01.1-.15.04-.1.15-.32.1-.6-.23-.7.12-.15.02-.17-.08-.25-.1l.03-.02c-.27.03-.35.03-.56.02-.1.03-.12.2-.3.15.06-.06-.02-.05-.08-.05.04-.01.06-.03-.03-.08-.01.02-.03.03-.05.04-.1 0-.1.02-.04.03 0 .01 0 .02.02.04-.12-.08-.33.01-.34-.1-.34.03-.6.14-.87.18-.03-.06.03-.1.12-.13l-.2.02c0-.08.12-.05.18-.06-.24-.13-.5.13-.78.01l-.06.06-.02-.01c0 .03-.06.08-.1.1-.04-.07 0-.16-.14-.16-.1-.07-.3.03-.46.07.08.01.05.05.02.08-.07 0-.1-.07-.16-.04v-.1c.03.1-.18.1-.2.13-.04-.07.1-.06.13-.1-.28.01-.14 0-.42.01-.15.07.03.1-.04.17-.13.02-.26.08-.4.03l.05.08c-.25.07-.4.06-.56-.03-.35.13-.57.24-.72.34l.7-5.62.56-3.25c.04-.7.01-1.5-.36-1.54-.2-.02-.38.2-.53.5.03.03.03.36 0 .6-.1.2-.16-.04-.27.74-.16.6-.23 1.76-.32 2.57.08-.43.1-.3.1-.1-.06.4-.16.6-.18.9l-.1.02c.1-.14-.06 1.03-.04 1.18-.1.2.03-.6 0-.72l-.35 2.35c-.06.84.1-.14.13.27-.1.74-.14 1.47-.33 2.3l.12-.25c-.15 1.4-.28 2.22-.5 3.14l-.1 1.2a2.22 2.22 0 0 0-1.13.24c-.34.18-.64.45-.85.78-.2.3-.32.82-.37.97-.25.9-.42 1.8-.53 2.68-.06.18-.08.66-.05.66-.3 1.7-.45 3.42-.52 5.14 0 0-.07 1.56.03 3.6a48.35 48.35 0 0 0 .14 1.95c-.1 0-.02.13-.03.2l.04.3.07.58.15 1.15.22 1.5.1.66c.01.08.05.3.1.42.05.14.1.26.18.38.54.95 1.4 1.33 1.96 1.4.37.03.58-.02.66-.1.05-.04.06-.08 0-.12-.02-.02-.05-.03-.1-.05-.2-.12-.7-.28-1.2-.9-.07-.1-.13-.2-.2-.3-.1-.18-.17-.4-.2-.62a1.73 1.73 0 0 1-.01-.56c.03-.64 0-1.8.08-2l.05.07v-.16c.01-.04-.03-.12.06-.1l.3.03c.1.01.13.01.3.02.23 0 .45 0 .66.01.86 0 1.62-.05 2.43-.16.25.3 1.9.04 2.45.14l-.05.02c1.42-.2 2.92.2 4.3.01-.05.02-.08.1-.4.1 1-.03 2.36-.1 2.43.08 2.38-.03 5.7.07 7.22-.2l-.1.05c.87-.18 1.12-.02 2.1-.1.05.02.12.03.1.04.95-.17 2.76-.01 3.53-.08l.05.1 1.88-.01-.7-.03c.25-.3 1.42.2 2.8.01 1.28.05 2.6-.62 3.92-.46.63-.14-.56.23.4.12.03.16-.44.1-.2.23.93-.07 1.52.17 2.67.07l.05.12c1.5-.22 2.82.18 3.82-.03 1.54-.1 1.03.38 2.64.14l.62.17c.7.03.5-.2 1.25-.12-.05.1.96.1.52.2 1.72.18 3.5-.2 5.77.08.5-.2 1.64-.07 2-.23.06.1 2.3.03 1 .22-.1.02-.3.01-.3-.02l-.15.12c1.3.24 2.35-.1 3.64-.07-.38-.04-.9-.04-.55-.12l1.2.02-.25.1 1.77.07-.24-.13c.87.07 1.17.3 2.15.1.44-.1-.82-.18.1-.2l2.07.16.87.06c.08.01.05.01.1.02.06.03.14.02.15.06.03-.04.06-.06.08-.08 0 .06.01.1.01.16l-.04.02c.02.03.04.07.04.1.01.1.01.2 0 .28-.01.15-.04.22-.08.28-.03.07-.07.14-.08.28-.02.12.01.44.01.55l-.08-.07c.05.04.1.1.14.15-.03.02-.06.02-.1-.02.04.13-.01.4-.2.56-.02.01-.06.03-.1.06a.48.48 0 0 1-.24.07c-.1-.01-.2-.01-.28-.02a2.36 2.36 0 0 1-.31-.04l.13-.02c-2.62-.13-4.48.2-6.83.04.03.04-.05.06-.18.08-.2-.05-.53-.1-.34-.18-.5.13-2 .24-2.6.1l.1-.02c-2.2-.13-3.77.2-5.75.04.1.14-.95.07-.7.25-2.05.2-3.73-.36-4.47.2-.32.01-.54 0-.72-.02-.01-.02-.14-.05-.47-.08a2.13 2.13 0 0 0-.39-.06l.22-.03c-1.74.05-2.25.06-3.55.05a2.62 2.62 0 0 0-.47.09c-.65.02-1.25.05-1.83.1h-.14c.28-.02.36-.06-.2-.13-.08.03-.2.05-.32.07 0-.01-.03-.01-.02-.03-.72.04-.6.07-.26.1-.01.01.01.03.06.05h-.07c-.76-.1-1.98.02-2.07-.15-.07 0-.14 0-.2.01-1.75-.17-3.6.22-5.64.05.25-.02.65-.01.9-.03-.88-.12-1.8-.03-2.76.04-.12-.02-.3-.03-.62-.03-.7-.1-1.9.02-2.9.1-.08-.05-.23-.08-.67-.08-.55-.1-1.44 0-2.25.07l-1.6.02-.01-.05c.02.02.02.04-.01.05-.15 0-.33 0-.57.01.02-.01.04-.01.05-.02l-2.67.03c-.95.12.17.15-.28.3a25.94 25.94 0 0 0-.88.05h-.04c-.54.03-1.1.06-1.7 0l.3.14c-.4.03-.75.05-1.07.06-.5-.02-.95-.05-1.44-.1-.22.02-.4.04-.62.05-.15-.01-.3-.03-.45-.05-3.4.34-5.02.6-5.63.83-.53.16-.42.3 0 .4.85.24 3.16.34 3.16.34 1.48.1 2.73.12 3.92.1 3.24.02 5.88-.2 10.1-.32 3.66.08 5.18.28 9.62.17h.08c1.37.03 2.9.03 5-.02 2.84.01 5.87-.06 8.65-.1.62-.1 1.47-.1 2.35-.1l-.08.03c.2-.02.4-.02.58-.03.67 0 1.34-.01 1.94-.05.2 0 .42 0 .63.01l.4.08c.54-.06 1.17-.1 1.7-.04l-.03.03c.8-.1 1.7-.04 2.1-.1l-.03.04.98-.02-.17.05c1.4-.1 2.84-.1 4.1-.07l-.07-.1c.85.05 1.73.08 2.78-.03.1 0 .2-.01.3-.01-.01.03.26.05.24.08.67-.02 1.35-.04 1.85-.1.3.01.6.02.96.05l-.03.04a14.54 14.54 0 0 1 1.12-.1c.52-.03 1.02-.18 1.44-.45.84-.53 1.3-1.4 1.4-2.3.08-1.4.07-2.63-.34-4.26.1.4.05-.2.1-.16-.24-1.5-.72-3.1-1-3.04-.32-1.07-.2-.9-.14-1.07-.06.02-.18-.2-.34-.5-.18-.33-.32-.7-.68-1.2l.32.4c-.6-.96-1.3-1.4-1.96-1.9.1.16.17.33.25.5-1.02-.84-.1-.45-1.17-1.1l-.1.17c-1.48-1-2.25-1.76-3.7-2.7-6.3-3.4-13.5-5.95-19.47-8.82l-.2-.25c-.04-.25-1.8-.4-1.96-.68l-.75-.2c-.2-.12-.6-.33-.22-.23-.66-.28-.68-.25-1.18-.38l-.66-.4-.95-.4-.47-.2c-.2-.07-.44-.16-.66-.2-.54-.1-1.08-.05-1.6.1.01-.08.02-.17.05-.3.06.05.16-.84.17-.44.27-1.43.26-2.96.62-4.8a144.29 144.29 0 0 1 4.23.81l-1.23-.2 3.8.76c.65.12 1.22.26 1.95.38.76.1 1.54.01 2.26-.26-.6.13-1.2.15-1.76.05 1.16.03 1.8-.27 2.16-.4l.63-.28c.13-.05.25-.12.55-.37.28-.25.8-.72 1.2-1.8l-.2-.02 2.17-6.67 1.1-3.3.2-.65.1-.33.05-.17c.01-.05-.08-.06-.12-.1l-1.25-.63-.52-.26-.17-.1-.06-.04-.22-.14c.03-.07.06-.16.1-.24l5-16.44 5.05-16.84 5.6-18.42 3.88 33.6-.04.9c-.17.4.97 5.52.86 6.3l.37 2.33c.04.66.16 2.06-.02.9.25 2.17.3 2.22.53 3.77l.14 2.34.26 2.42-2.26 1.2.6 5.36.27 2.32c.05.4.08.74.15 1.2a4.26 4.26 0 0 0 .49 1.43c.5.9 1.32 1.6 2.3 1.94a3.9 3.9 0 0 0 1.55.2l1.26-.1 1.12-.1.9-.04 2.95-.26c5.43-.34 13.23-1.03 21.15-1.78l3.3-.32c.23 2.6.45 5.18.52 7.57l-.07.22c-.03.03-.02.14 0 .28-.16.1-.3.22-.45.35a2.69 2.69 0 0 0-.44.49 20.08 20.08 0 0 1-.61.75c-.43.5-.9.98-1.42 1.44-1.33 1.06-3.3 2.48-5.53 3.5s-4.7 1.6-6.54 1.73c-3.6.4-7.82-.1-11.05-2-.34-.2-.73-.32-1.13-.34 0-.37-.01-.65-.01-.65a51.53 51.53 0 0 0-.08-2.93c.5.03.9-.12 1.6-.18.76.04.96.2 1.75.14.38.01.78-.02 1.14-.04.17-.13.48 0 .7-.1l.08.07c.07-.04.15-.06.23-.02v.02c.1-.05.23-.02.28-.05v.02l.13-.01-.02.03a1.27 1.27 0 0 1 .54-.04v-.1c.36.1.5-.08.82.03v.02c.4-.23.65.16 1.07-.06-.05.03.02.04.02.07.2-.02.4-.04.4-.2.14 0 .12.05.13.12 0-.07.12-.1.23-.1l-.05.03.32-.03-.06-.14c.17.04.04.17.2.14v-.12c.23.02.37.2.6.3.94.05 1.94-.25 2.8-.04l.04.1c.02.13.24-.2.27-.07l.1-.06c.03.02.1.05.04.08.1.01.1-.02.16-.05l.1.08c.37.06.68-.1 1.07-.06.47.16 1.35.01 1.85-.07.7-.2 1.54.32 2.27.1.02.02.1-.02.08-.04l.67.02s3.24.05.78-1.02l.02-.03c-.37-.07-.6-.08-.85.06-.04-.17-.3-.02-.4-.07v-.01c-.22.13-.46-.1-.67.01.01-.01.01-.06.06-.06-.16.02-.37.06-.38-.04-.37.03-.9-.02-1.14.14l.02-.03c-.14.1-.18.02-.33.07-.01-.01-.02-.02-.02-.03-.15.1-.43.02-.55.06l-.01-.07-.3.02.1.01c-.04.18-.22-.12-.44 0-.2-.02-.4.38-.62.3-.1.1.1-.14-.06-.07 0-.1.07-.06.03-.14-.15.05-.24-.1-.42-.03l-.01-.07c-.24.14-.44-.1-.6.03-.24.06-.16-.22-.42-.08l-.1-.1c-.1-.02-.08.12-.2.07.01-.06-.15-.05-.08-.1-.27-.1-.55.14-.9-.03-.08.12-.26.05-.32.14-.01-.05-.36-.01-.16-.13.02-.01.05-.01.05.01l.02-.07c-.2-.14-.37.08-.57.05.06.02.14.02.1.07l-.2-.01.04-.06-.28-.04.04.08c-.14-.04-.18-.17-.34-.06-.07.06.13.1-.01.13-.18-.05-.46-.13-.7-.15.02.1-.04.08-.1.1l-.01-.07c-.25.1-.1-.16-.34-.08l-.04.1c-.22.15-.12-.16-.37.05.1-.01.05.16-.07.13l.03-.07c-.07.02-.1.05-.13.03.04-.04.02-.1-.08-.1l.07-.1-.18.13c-.14-.08-.37.02-.43-.08 0 0-.3-.05-.38.06.06-.07-.1-.1-.06-.18-.08.08-.3.14-.4.06l.02-.01c-.35-.1-.6.12-.9.01.01.1-.15.04-.1.15-.32.1-.6-.23-.7.12-.15.02-.17-.08-.25-.1l.03-.02c-.27.03-.35.03-.56.02-.1.03-.12.2-.3.15.06-.06-.02-.05-.08-.05.04-.01.06-.03-.03-.08-.01.02-.03.03-.05.04-.1 0-.1.02-.04.03 0 .01 0 .02.02.04-.12-.08-.33.01-.34-.1-.34.03-.6.14-.87.18-.03-.06.03-.1.12-.13l-.2.02c0-.08.12-.05.18-.06-.24-.13-.5.13-.78.01l-.06.06-.02-.01c0 .03-.06.08-.1.1-.04-.07 0-.16-.14-.16-.1-.07-.3.03-.46.07.08.01.05.05.02.08-.07 0-.1-.07-.16-.04l-.01-.1c.03.1-.18.1-.2.13-.04-.07.1-.06.13-.1-.28.01-.14 0-.42.01-.15.07.03.1-.04.17-.13.02-.26.08-.4.03l.05.08c-.25.07-.4.06-.56-.03-.03.01-.04.02-.07.03-.08-1.28-.2-2.53-.32-4.03-.1-.3-.23-.5-.38-.5-.3.02-.4.83-.43 1.45.05.63.13 1.25.1 1.97l.07-.27c.13 1.37.16 2.2.13 3.1l.37 2.86c-.15.04-.3.08-.44.15-.34.18-.64.45-.85.78-.2.3-.32.82-.37.97-.25.9-.42 1.8-.53 2.68-.06.18-.08.66-.05.66-.3 1.7-.45 3.42-.52 5.14 0 0-.07 1.56.03 3.6a48.35 48.35 0 0 0 .14 1.95c-.1 0-.02.13-.03.2l.04.3.07.58.15 1.15.22 1.5.1.66c.01.08.05.3.1.42.05.14.1.26.18.38.54.95 1.4 1.33 1.96 1.4.37.03.58-.02.66-.1.05-.04.06-.08 0-.12-.02-.02-.05-.03-.1-.05-.2-.12-.7-.28-1.2-.9-.07-.1-.13-.2-.2-.3-.1-.18-.17-.4-.22-.62a1.73 1.73 0 0 1-.01-.56c.03-.64 0-1.8.08-2l.05.07v-.16c.01-.04-.03-.12.06-.1l.3.03c.1.01.13.01.3.02.23 0 .45 0 .66.01.86 0 1.62-.05 2.43-.16.25.3 1.9.04 2.45.14l-.05.02c1.42-.2 2.92.2 4.3.01-.05.02-.08.1-.4.1 1-.03 2.36-.1 2.43.08 2.38-.03 5.7.07 7.22-.2l-.1.05c.87-.18 1.12-.02 2.1-.1.05.02.12.03.1.04.95-.17 2.76-.01 3.53-.08l.05.1 1.88-.01-.7-.03c.25-.3 1.42.2 2.8.01 1.28.05 2.6-.62 3.92-.46.63-.14-.56.23.4.12.03.16-.44.1-.2.23.93-.07 1.52.17 2.67.07l.05.12c1.5-.22 2.82.18 3.82-.03 1.54-.1 1.03.38 2.64.14l.62.17c.7.03.5-.2 1.25-.12-.05.1.96.1.52.2 1.72.18 3.5-.2 5.77.08.5-.2 1.64-.07 2-.23.06.1 2.3.03 1 .22-.1.02-.3.01-.3-.02l-.15.12c1.3.24 2.35-.1 3.64-.07-.38-.04-.9-.04-.55-.12l1.2.02-.25.1 1.77.07-.24-.13c.87.07 1.17.3 2.15.1.44-.1-.82-.18.1-.2l2.07.16.87.06c.08.01.05.01.1.02.06.03.14.02.15.06.03-.04.06-.06.08-.08 0 .06.01.1.01.16h-.04c.02.03.04.07.04.1.01.1.01.2 0 .28-.01.15-.04.22-.08.28-.03.07-.07.14-.08.28-.02.12.01.44.01.55l-.08-.07c.05.04.1.1.14.15-.03.02-.06.02-.1-.02.04.13-.01.4-.2.56-.02.01-.06.03-.1.06a.48.48 0 0 1-.24.07c-.1-.01-.2-.01-.28-.02a2.36 2.36 0 0 1-.31-.04l.13-.02c-2.62-.13-4.48.2-6.83.04.03.04-.05.06-.18.08-.2-.05-.53-.1-.34-.18-.5.13-2 .24-2.6.1l.1-.02c-2.2-.13-3.77.2-5.75.04.1.14-.95.07-.7.25-2.05.2-3.73-.36-4.47.2-.32.01-.54 0-.72-.02-.01-.02-.14-.05-.47-.08a2.13 2.13 0 0 0-.39-.06l.22-.03c-1.74.05-2.25.06-3.55.05a2.62 2.62 0 0 0-.47.09c-.65.02-1.25.05-1.83.1h-.14c.28-.02.36-.06-.2-.13-.08.03-.2.05-.32.07 0-.01-.03-.01-.02-.03-.72.04-.6.07-.26.1-.01.01.01.03.06.05h-.07c-.76-.1-1.98.02-2.07-.15-.07 0-.14 0-.2.01-1.75-.17-3.6.22-5.64.05.25-.02.65-.01.9-.03-.88-.12-1.8-.03-2.76.04-.12-.02-.3-.03-.62-.03-.7-.1-1.9.02-2.9.1-.08-.05-.23-.08-.67-.08-.55-.1-1.44 0-2.25.07l-1.6.02v-.05c.02.02.02.04-.01.05-.15 0-.33 0-.57.01.02-.01.04-.01.05-.02l-2.67.03c-.95.12.17.15-.28.3a25.94 25.94 0 0 0-.88.05h-.04c-.54.03-1.1.06-1.7 0l.3.14c-.4.03-.75.05-1.07.06-.5-.02-.95-.05-1.44-.1-.22.02-.4.04-.62.05-.15-.01-.3-.03-.45-.05-3.4.34-5.02.6-5.63.83-.53.16-.42.3 0 .4.85.24 3.16.34 3.16.34 1.48.1 2.73.12 3.92.1 3.24.02 5.88-.2 10.1-.32 3.66.08 5.18.28 9.62.17h.08c1.37.03 2.9.03 5-.02 2.84.01 5.87-.06 8.65-.1.62-.1 1.47-.1 2.35-.1l-.08.03c.2-.02.4-.02.58-.03.67 0 1.34-.01 1.94-.05.2 0 .42 0 .63.01l.4.08c.54-.06 1.17-.1 1.7-.04l-.03.03c.8-.1 1.7-.04 2.1-.1l-.03.04.98-.02-.17.05c1.4-.1 2.84-.1 4.1-.07l-.07-.1c.85.05 1.73.08 2.78-.03.1 0 .2-.01.3-.01-.01.03.26.05.24.08.67-.02 1.35-.04 1.85-.1.3.01.6.02.96.05l-.03.04a14.54 14.54 0 0 1 1.12-.1c.52-.03 1.02-.18 1.44-.45.84-.53 1.3-1.4 1.4-2.3.05-1.34.04-2.57-.36-4.2zM260.53 207.4h.01l4.1.2-.02 2.65c-.03.34-.06.56-.1.6l-.34 8.72c-.02.36-.02.8-.06 1.1-.02.26-.1.53-.2.8-.7 1.04-2.13 2.2-3.4 3.02v-17.1zm-78.7 239.02c-.03-.01-.04-.03-.04-.04l.1.03c-.02.01-.04.01-.05.01zm-7.04-5.53c-.15-.03-.54.03-.54.06l-4.25-.06h-3.6c-.1-2.48-.08-4.1-.23-5.9.28-.28.17-2.22.34-2.84l.02.06c0-.26.01-.52.04-.77.34.1.65.03 1.16.1.53.2.6.4 1.18.53.25.1.54.18.8.26.17-.07.32.14.5.1l.02.1c.06-.01.13-.01.16.05h-.01c.1-.02.16.05.2.04l-.01.02.1.03-.03.02a.65.65 0 0 1 .37.15l.03-.08c.2.2.35.1.5.32l-.01.02c.38-.05.32.37.7.36-.05 0-.01.05-.03.06.13.06.27.13.36-.01.08.06.04.1.01.16.04-.06.13-.03.2.01h-.05l.2.12.05-.14c.07.1-.08.16.04.2l.07-.1c.13.12.08.33.15.5.47.45 1.2.8 1.44 1.43l-.05.08c-.1.1.25.02.17.1l.1.02c-.01.03 0 .08-.04.07.04.06.05.05.12.06l-.02.1c.12.24.35.36.5.6.05.37.48.84.72 1.14.4.4.16 1.15.52 1.57-.01.02.04.05.05.05l.12.47s.12.48.27.82c-.77-.02-1.54-.01-2.3.05zm21.55-20.63c.62-.25 1.05-.17 1.52-.1 1.74.58 1 .8 2.86 1.3l.62.44c.12.05.2.1.3.1-.01.04-.01.1-.02.14-.17.25-.35.24-.44.55-.08.13-.12.28-.16.42.08.12-.08.17-.03.3h-.08c.02.04.03.08-.02.1h-.02c.03.06-.02.1-.01.12h-.02l-.01.05v-.02a.2.2 0 0 1-.07.21l.08.03c-.15.08-.01.2-.17.27l-.02-.01c.13.25-.25.16-.14.4-.01-.03-.04-.01-.06-.02-.01.08-.04.16.1.24-.03.05-.07.02-.13-.01.07.03.07.1.06.13l-.02-.03-.03.12.14.04c-.07.04-.16-.06-.16.01l.1.05c-.06.07-.24.04-.36.08-.2.3-.12.8-.46 1l-.1-.03c-.12-.05.13.17.01.13l.03.06c-.03 0-.06.01-.08-.02-.02.03 0 .04.02.08h-.1c-.12.1-.04.28-.14.4-.23.1-.25.47-.26.68.04.34-.56.4-.5.75-.02 0 .01.04.02.05l-.14.23s-.62 1.1.77.73l.02.02c.13-.1.18-.17.1-.32.16.06.07-.1.13-.1h.01c-.08-.14.18-.1.1-.24.01.01.05.03.05.05.01-.06.01-.16.1-.12.04-.14.18-.3.08-.46l.02.02c-.07-.1.02-.07 0-.15.01 0 .02 0 .03.01-.07-.1.06-.16.04-.22l.06.03.04-.1-.03.03c-.16-.1.14-.03.07-.16.06-.06-.27-.32-.15-.35-.06-.07.1.1.08.01.1.04.04.05.12.07-.01-.07.13-.04.1-.13l.07.03c-.08-.14.17-.1.08-.22-.01-.1.23.04.14-.1h.1c.03-.03-.1-.08-.03-.1.06.03.07-.03.1.02.14-.05-.03-.26.2-.3-.1-.08 0-.1-.07-.18.05.02.07-.12.14 0 .01.01 0 .02-.02.01l.06.04c.16-.01 0-.16.05-.22-.03.01-.04.04-.08 0l.04-.06.05.04.08-.08-.08-.02c.06-.03.18.01.1-.1-.04-.05-.1 0-.1-.06.08-.04.2-.1.26-.17-.08-.03-.07-.05-.07-.08l.07.03c-.05-.13.15.03.13-.08l-.1-.06c-.1-.14.16.03.02-.15-.01.04-.15-.06-.1-.1l.06.04c0-.03-.02-.05 0-.06.03.03.1.05.1.02l.07.06-.1-.12c.1-.01.05-.14.15-.1 0 0 .1-.08.01-.16.05.05.1.01.17.06-.06-.06-.07-.17.02-.17l.01.01c.14-.08 0-.26.15-.32-.08-.03-.01-.07-.1-.1-.04-.16.3-.1.02-.3.01-.06.1-.02.13-.04h.01c.02-.1.04-.14.08-.2-.01-.05-.15-.13-.08-.17.05.05.05.02.06-.01 0 .02.02.03.07.02-.02-.01-.02-.03-.03-.04.01-.04-.01-.04-.03-.03-.01-.01-.02-.01-.04-.01.1 0 .05-.12.15-.07.04-.13-.02-.27 0-.4.06.01.1.06.1.1l.02-.08c.07.04.02.06.02.1.16-.03-.03-.23.13-.28l-.05-.05h.01c-.03-.02-.06-.06-.06-.08.07.02.14.07.16.02.08-.01.03-.12.02-.2-.02.02-.05 0-.07-.03.01-.03.08-.01.06-.04l.1.04c-.08-.03-.05-.1-.08-.13.07.02.03.07.08.1l.06-.15c-.04-.08-.08-.03-.15-.1v-.1a2.67 2.67 0 0 1 .24.12c-.1.08 1.02.52.5.4 1.04.53 2.17.9 3.38 1.38 0 .04-.01.08-.02.13-.17.24-.35.24-.42.54-.08.12-.1.28-.16.4.08.12-.08.17-.02.28h-.08c.02.04.03.08-.02.1h-.02c.03.06-.02.1 0 .12h-.02l-.01.05-.02-.02c.02.1-.01.16-.06.2l.08.03c-.15.08-.01.2-.17.27l-.02-.01c.14.24-.25.15-.13.4-.02-.03-.04-.01-.06-.02-.01.08-.04.15.12.23-.03.05-.07.02-.13-.01.07.03.07.1.06.13l-.02-.03-.03.12.14.04c-.07.04-.16-.06-.16.01l.1.05c-.06.07-.24.04-.36.08-.2.3-.1.78-.44.98l-.1-.03c-.12-.05.13.17.02.13l.04.06c-.03 0-.06.01-.08-.02-.02.03 0 .04.02.08h-.1c-.12.1-.03.28-.13.4-.23.1-.24.46-.25.67.05.33-.55.4-.48.73-.02 0 .01.04.02.05l-.13.22s-.6 1.1.78.72l.02.02c.12-.1.18-.17.1-.32.16.06.07-.1.13-.1h.01c-.08-.14.18-.1.1-.23.01.01.05.03.05.05.01-.06.01-.15.1-.1.04-.14.17-.3.07-.45l.02.02c-.07-.1.02-.07-.01-.14.01 0 .02 0 .03.01-.07-.1.06-.16.04-.22l.06.03.04-.1-.03.03c-.16-.1.14-.03.07-.15.06-.06-.27-.3-.16-.34-.06-.07.1.1.08.01.1.04.04.05.12.07-.02-.07.13-.04.1-.13l.07.03c-.08-.14.16-.1.07-.22-.01-.1.23.04.14-.1l.1.01c.03-.03-.1-.08-.03-.1.06.03.07-.03.1.02.14-.05-.03-.25.18-.3-.1-.08 0-.1-.07-.17.05.02.07-.12.14 0 .01.01 0 .02-.02.01l.06.04c.16-.01 0-.16.05-.22-.03.01-.04.04-.08 0l.04-.06.05.04.08-.08-.08-.02c.06-.03.18.01.1-.1-.04-.05-.1 0-.1-.06.08-.04.2-.1.26-.17-.08-.03-.07-.05-.07-.08l.07.03c-.05-.13.15.03.13-.08l-.1-.06c-.1-.14.16.03.02-.15-.01.04-.16-.06-.1-.08l.06.04c0-.03-.03-.05 0-.06.03.03.1.05.1.02l.07.06-.1-.12c.1-.01.05-.13.15-.1 0 0 .1-.08.01-.16.05.05.1.01.17.06-.06-.06-.07-.17.02-.17l.01.01c.14-.08 0-.26.14-.32-.08-.03-.01-.07-.12-.1-.04-.16.3-.1.02-.3.01-.06.1-.02.13-.04v.02a.42.42 0 0 1 .07-.2c-.01-.05-.15-.13-.1-.17.05.05.05.02.06-.01 0 .02.02.03.07.02-.02-.01-.02-.03-.03-.04.01-.04-.01-.04-.03-.03-.01-.01-.02-.01-.04-.01.1 0 .05-.12.15-.07.04-.13-.02-.26-.01-.38.06.01.1.06.1.1l.02-.08c.07.04.02.06.03.1.16-.02-.03-.23.12-.27l-.05-.05h.01c-.03-.01-.06-.06-.06-.08.07.02.14.07.16.02.08-.01.02-.12.01-.2-.02.02-.05 0-.07-.03.01-.03.08-.01.06-.04l.1.04c-.08-.03-.05-.1-.08-.13.07.02.04.06.08.1.03-.1.03-.07.05-.13.6.26 1.23.55 1.88.92.62.04 1.8.7 2.27.73.03.1 2.48 1.12 1 .68-.13-.04-.34-.13-.3-.16l-.22.04c1.3.83 2.6 1.02 3.96 1.7-.4-.23-.94-.47-.54-.38l1.27.6-.3-.03 1.87.95-.2-.24c.9.5 1.13.85 2.24 1.2.5.14-.8-.58.2-.14l4.43 2.63c-.07-.2.33.03.76.25v.14c1.63.8.44.57 1.96 1.44l-.18-.02.52.06c.68.37.77.57.85.74.03.08.12.2.16.26.04.03.2.28.45.64-.3-.6.14-.42.4.4l-.2-.16c.2.43.3.56.36.87-.15-.25-.2-.1.01.57a5.71 5.71 0 0 0-.28-.4c.2.4.38.8.55 1.2.08.65.26 1.54.34 2.2l-.6-.06c-5.96-.12-12.36.34-17.9-.04l-.24-.15c-.1-.22-1.53.3-1.74.1l-.65.1c-.18-.04-.56-.08-.24-.13-.6-.01-.6.02-1.04.1l-.64-.14c-2.35-.12-4.35.13-6.83.06-2.97-.3-8.57-.07-11.8.05-3.6.23-7.65-.27-11.5-.32.07-.12.13-.27.2-.48l.03.01c.01-.3-.02-.48-.2-.64.16-.08-.05-.23-.01-.3h.02c-.17-.13 0-.38-.17-.5.02 0 .06-.01.08.03-.06-.1-.15-.26-.06-.3-.13-.27-.24-.68-.47-.78h.03c-.14-.05-.07-.12-.17-.2.01-.01.01-.02.02-.02-.15-.06-.17-.3-.25-.36l.06-.04-.12-.2.03.08c-.17.06.02-.2-.17-.3-.06-.15-.5-.08-.5-.27-.1-.02.15-.02.04-.08.08-.05.08.01.13-.05-.1-.07-.02-.2-.15-.3l.06-.05c-.22-.08-.1-.35-.3-.37-.16-.12.1-.23-.14-.3l.03-.12c-.04-.08-.14.03-.15-.08.05-.03-.03-.13.05-.12-.05-.24-.4-.24-.45-.57-.13.04-.17-.12-.27-.1.03-.04-.2-.2 0-.18.02 0 .03.02.02.04l.07-.04c-.01-.2-.26-.16-.36-.3.02.05.07.1 0 .1l-.1-.1.07-.02-.13-.18-.03.08c-.05-.1.01-.23-.16-.23-.08.01.01.14-.1.1-.07-.13-.2-.34-.32-.48-.04.08-.08.04-.13.02l.04-.06c-.22-.04.04-.17-.17-.23l-.1.06c-.23.01.02-.18-.26-.14.07.04-.07.15-.12.07l.06-.04c-.05-.02-.08-.01-.1-.04.05-.01.07-.08 0-.1l.1-.04-.2.02c-.05-.13-.25-.14-.24-.25 0 0-.18-.18-.28-.1.08-.03-.02-.13.05-.18-.1.03-.3 0-.3-.1h.02c-.2-.2-.46-.14-.64-.34-.03.08-.12-.02-.15.1-.27-.02-.3-.4-.54-.14-.1-.03-.1-.13-.14-.17l.03-.01c-.2-.06-.27-.1-.4-.16-.1 0-.16.14-.28.05.07-.04.01-.05-.04-.07.04 0 .05-.01.01-.08-.02.01-.04.02-.05.02-.1-.03-.08-.01-.05.01-.01.01-.01.02 0 .04-.05-.1-.24-.1-.2-.2-.26-.08-.48-.03-.7-.07 0-.06.06-.1.13-.1l-.15-.03c.03-.08.1-.01.15-.01-.13-.2-.4 0-.58-.18l-.06.05-.01-.01c-.01.03-.07.06-.1.06-.01-.08.05-.15-.05-.18-.06-.1-.24-.04-.36-.03.05.03.02.06-.01.08-.05-.01-.06-.1-.1-.07l.02-.1c0 .1-.16.05-.2.1-.01-.08.1-.04.12-.08-.2-.05-.1-.02-.32-.07-.13.04 0 .1-.08.16-.1-.01-.2.03-.3-.05l.02.1c-.2.02-.3-.02-.4-.13-.02.01-.04.01-.07.02.22-1.08.58-2.13.74-3.14.01.07.07.12-.02.47.18-.72.14-.8.36-.9.2-.08.33.03.3.1l.06.03c1.27.7 3.02 1.28 4.57 1.54 1.57.28 3 .33 3.9.24l-.13.04c1.06-.14 1.37.02 2.55-.1.06.02.15.03.14.04 1.13-.18 3.37-.28 4.27-.57l.08.1c.76-.18 1.5-.38 2.23-.64l-.84.24c.2-.38 1.76-.3 3.2-1.24 1.45-.67 2.44-2.08 3.76-2.96.5-.6-.37.6.44-.2.13.1-.35.42-.04.33.82-.78 1.52-1.1 2.4-2.2l.13.04c.25-.37.57-.76.8-1.03.2-.2.5-.4.76-.47zm15.53-18.67l-.05.13-.22.73-.44 1.45c.3-.47-.15 1-.56 2.5l-.17.14c-.76 2.92-1 3.43-1.2 3.93-.12.28-.2.43-.4.78-.22.32-.55.9-1.52 1.3.1-.06.2-.14.3-.2-.28.24-.6.42-1 .53a2.5 2.5 0 0 1-.67 0c-.23-.03-.5-.1-.73-.12l-1.12-.22c-.6-.13-.98-.24-1.36-.35-.78-.2-1.63-.43-4.6-.88 2.33.46 1.04.5-1.8-.15l.75.03c-1.6-.3-2.13-.36-3.18-.6.96.13.53-.07-1.8-.53l1.6.17-4.45-.7c-3.38-.83-8.8-1.78-10.16-2.24 0 0-7.3-1.6-9-1.75 1.5.2-2.53-.68-1.35-.58-.48-.07-1.2-.18-2.02-.33l-.32-.06-.23-.05c-.15-.04-.3-.1-.44-.16a2.19 2.19 0 0 1-.75-.6 1.99 1.99 0 0 1-.38-1.8c.18-.87.35-1.64.5-2.2l-.07.43.95-4.6.42-2.16.1-.53.05-.24v-.03l.02-.14h.1c.06.01-.02-.01.37.06l1.46.26.72.13.18.03h.1l.05.01v-.04l.05-.33.15.05c1.32.44 2.07.33 3.7.57 1.4.3 1.76.54 3.25.75.7.14 1.46.25 2.15.36.35-.06.9.17 1.3.14l.14.1c.14-.01.3-.01.43.06l-.01.02c.2-.02.43.06.53.05v.02l.24.04-.05.02a4.11 4.11 0 0 1 1.02.16l-.01-.1c.65.22.93.1 1.52.32l-.01.02c.8-.08 1.18.38 2 .32-.1.01.03.05.02.07.37.04.76.1.8-.06.27.05.2.1.23.16.01-.07.25-.06.46-.03h-.1l.6.1-.1-.16c.3.1.05.18.36.2l.02-.12c.43.1.65.33 1.06.5 1.74.38 3.68.44 5.27.95l.06.1c.01.13.48-.1.53.03l.2-.02c.05.03.16.08.06.1.17.04.18.02.32 0l.17.1c.68.2 1.3.15 2.02.32.84.32 2.52.5 3.48.58 1.37.06 2.82.86 4.23.9.04.03.16.01.17-.01l1.25.25s1.68.33 2.63.36c-.05.17-.1.34-.16.5l2.26 1.1.13.07.06.03-.1.01zm49.6 8.1c-4.67.37-9.4 1.47-14.26 1.75-2.3.35 2-.4-1.43 0-.13-.15 1.6-.24.7-.3-3.37.4-5.58.36-9.73.84l-.14-.12c-.94.1-1.9-.5-2.3-1.32-.23-.44-.28-.8-.33-1.43l-.15-1.65-.27-3.1-.25-2.28.47-.3c1.4.04 2.16-.25 3.86-.45 1.55-.08 1.98.05 3.58-.15.77-.05 1.58-.15 2.33-.23.35-.15.98-.08 1.4-.22l.17.06c.14-.05.3-.1.46-.06l-.01.02c.2-.07.46-.06.56-.1v.02l.26-.03-.04.03c.37-.1.76-.12 1.1-.12l-.04-.08c.74.04 1-.16 1.67-.1h-.01c.82-.3 1.34.05 2.18-.24-.1.04.05.04.04.06.4-.06.82-.1.8-.27.3-.02.24.03.28.1-.01-.07.24-.13.47-.15l-.1.04.65-.08-.14-.13c.35.01.1.17.43.1l-.01-.12c.48-.01.77.14 1.24.2 1.9-.1 3.94-.56 5.74-.5l.1.08c.04.13.48-.23.55-.12l.2-.08c.06.02.18.03.08.07.2-.01.2-.03.33-.08l.2.06c.76 0 1.4-.2 2.2-.24.97.1 2.75-.2 3.78-.38 1.44-.3 3.17.07 4.64-.27.05.01.17-.04.17-.05l1.36-.1s.98-.07 1.9-.2c.17.1.4.18.35.17l.66.2c.03.2.08 1.5.1 2.52l.12 4.86c.02.5-.05.82-.2 1.18-.3.7-.82 1.13-1.27 1.32-.06-.01-.1-.04-.17-.06-.2.08-.4.1-.66.12l-6 .56 2.57-.2c-.87.38-5.2.27-10.18.9zm-13.85 31.2c-.15-.03-.54.03-.54.06l-4.25-.06h-3.6c-.1-2.48-.08-4.1-.23-5.9.28-.28.17-2.22.34-2.84l.02.06c0-.26.01-.52.04-.77.34.1.65.03 1.16.1.53.2.6.4 1.18.53.25.1.54.18.8.26.17-.07.32.14.5.1l.02.1c.06-.01.13-.01.16.05h-.01c.1-.02.16.05.2.04v.02l.1.03-.03.02a.65.65 0 0 1 .37.15l.03-.08c.2.2.35.1.5.32l-.01.02c.38-.05.32.37.7.36-.05 0-.01.05-.03.06.13.06.27.13.36-.01.08.06.04.1.01.16.04-.06.13-.03.2.01h-.05l.2.12.05-.14c.07.1-.08.16.04.2l.07-.1c.13.12.08.33.15.5.47.45 1.2.8 1.44 1.43l-.05.08c-.1.1.25.02.18.1l.1.02c-.01.03 0 .08-.04.07.04.06.05.05.12.06l-.02.1c.12.24.35.36.5.6.05.37.48.84.72 1.14.4.4.16 1.15.52 1.57-.01.02.04.05.05.05l.12.47s.12.48.27.82c-.8-.02-1.56-.01-2.3.05zm55.52.3c-5.96-.12-12.36.34-17.9-.04L285 441c-.1-.22-1.53.3-1.74.1l-.65.1c-.18-.04-.56-.08-.24-.13-.6-.01-.6.02-1.04.1l-.64-.14c-2.35-.12-4.35.13-6.83.06-2.97-.3-8.57-.07-11.8.05-3.6.23-7.65-.27-11.5-.32.07-.12.13-.27.2-.48l.03.01c.01-.3-.02-.48-.2-.64.16-.08-.05-.23-.01-.3h.02c-.17-.13 0-.38-.17-.5.02 0 .06-.01.08.03-.06-.1-.15-.26-.06-.3-.13-.27-.24-.68-.47-.78h.03c-.14-.05-.07-.12-.17-.2.01-.01.01-.02.02-.02-.15-.06-.17-.3-.25-.36l.06-.04-.12-.2.03.08c-.17.06.02-.2-.17-.3-.06-.15-.5-.08-.5-.27-.1-.02.15-.02.04-.08.08-.05.08.01.13-.05-.1-.07-.02-.2-.15-.3l.06-.05c-.22-.08-.1-.35-.3-.37-.16-.12.1-.23-.14-.3l.03-.12c-.04-.08-.14.03-.15-.08.05-.03-.03-.13.05-.12-.05-.24-.4-.24-.45-.57-.13.04-.17-.12-.27-.1.03-.04-.2-.2 0-.18.02 0 .03.02.02.04l.07-.04c-.01-.2-.26-.16-.36-.3.02.05.07.1 0 .1l-.1-.1.07-.02-.13-.18-.03.08c-.05-.1.01-.23-.16-.23-.08.01.01.14-.1.1-.07-.13-.2-.34-.32-.48-.04.08-.08.04-.13.02l.04-.06c-.22-.04.04-.17-.17-.23l-.1.06c-.23.01.02-.18-.26-.14.07.04-.07.15-.12.07l.06-.04c-.05-.02-.08-.01-.1-.04.05-.01.07-.08 0-.1l.1-.04-.2.02c-.05-.13-.26-.14-.24-.25 0 0-.18-.18-.28-.1.08-.03-.02-.13.05-.18-.1.03-.3 0-.3-.1h.02c-.2-.2-.46-.14-.64-.34-.03.08-.12-.02-.15.1-.27-.02-.3-.4-.54-.14-.1-.03-.1-.13-.14-.17l.03-.01c-.2-.06-.27-.1-.4-.16-.1 0-.16.14-.28.05.07-.04.01-.05-.04-.07.04 0 .05-.01.01-.08-.02.01-.04.02-.05.02-.1-.03-.08-.01-.05.01-.01.01-.01.02 0 .04-.05-.1-.24-.1-.2-.2-.26-.08-.48-.03-.7-.07 0-.06.06-.1.13-.1l-.15-.03c.03-.08.1-.01.15-.01-.13-.2-.4 0-.58-.18l-.06.05-.01-.01c-.01.03-.07.06-.1.06-.01-.08.05-.15-.05-.18-.06-.1-.24-.04-.36-.03.05.03.02.06-.01.08-.05-.01-.06-.1-.1-.07l.02-.1c0 .1-.16.05-.2.1-.01-.08.1-.04.12-.08-.2-.05-.1-.02-.32-.07-.13.04 0 .1-.08.16-.1-.01-.2.03-.3-.05l.02.1c-.2.02-.3-.02-.4-.13-.02.01-.04.01-.07.02.22-1.08.58-2.13.74-3.14.01.07.07.12-.02.47.18-.72.14-.8.36-.9.2-.08.33.03.3.1l.06.03c1.27.7 3.02 1.28 4.57 1.54 1.56.28 3 .33 3.9.24l-.13.04c1.06-.14 1.37.02 2.55-.1.06.02.15.03.14.04 1.13-.18 3.37-.28 4.27-.57l.08.1c.76-.18 1.5-.38 2.23-.64l-.84.24c.2-.38 1.76-.3 3.2-1.24 1.45-.67 2.44-2.08 3.76-2.96.5-.6-.37.6.44-.2.13.1-.35.42-.04.33.82-.78 1.52-1.1 2.4-2.2l.13.04c.25-.37.57-.76.8-1.03.2-.2.5-.4.76-.47.56-.18 1-.1 1.46-.03 1.74.58 1 .8 2.86 1.3l.62.44c.12.05.2.1.3.1-.01.04-.01.1-.02.14-.17.25-.35.24-.44.55-.08.13-.12.28-.16.42.08.12-.08.17-.03.3h-.08c.02.04.03.08-.02.1v-.01c.03.06-.02.1-.01.12l-.02-.01-.01.05-.02-.02a.2.2 0 0 1-.07.21l.08.03c-.15.08-.01.2-.17.27l-.02-.01c.13.25-.25.16-.14.4-.01-.03-.04-.01-.06-.02-.01.08-.04.16.1.24-.03.05-.07.02-.13-.01.07.03.07.1.06.13l-.02-.03-.03.12.14.04c-.07.04-.16-.06-.16.01l.1.05c-.06.07-.24.04-.36.08-.2.3-.12.8-.46 1l-.1-.03c-.12-.05.13.17.01.13l.03.06c-.03 0-.06.01-.07-.02-.02.03 0 .04.02.08h-.1c-.12.1-.04.28-.14.4-.23.1-.25.47-.26.68.04.34-.56.4-.5.75-.02 0 .01.04.02.05l-.14.23s-.62 1.1.77.73l.02.02c.13-.1.18-.17.1-.32.16.06.07-.1.13-.1l.01.01c-.08-.14.18-.1.1-.24.01.01.05.03.05.05.01-.06.01-.16.1-.12.04-.14.18-.3.08-.46l.02.02c-.07-.1.02-.07 0-.15.01 0 .02 0 .03.01-.07-.1.06-.16.04-.22l.06.03.04-.1-.03.03c-.16-.1.14-.03.07-.16.06-.06-.27-.32-.15-.35-.06-.07.1.1.08.01.1.04.04.05.12.07-.01-.07.13-.04.1-.13l.07.03c-.08-.14.17-.1.08-.22-.01-.1.23.04.14-.1l.1.01c.03-.03-.1-.08-.03-.1.06.03.07-.03.1.02.14-.05-.03-.26.2-.3-.1-.08 0-.1-.07-.18.05.02.07-.12.14 0 .01.01 0 .02-.02.01l.06.04c.16-.01 0-.16.05-.22-.03.01-.04.04-.08 0l.04-.06.05.04.08-.08-.07-.02c.06-.03.18.01.1-.1-.04-.05-.1 0-.1-.06.08-.04.2-.1.26-.17-.08-.03-.07-.05-.07-.08l.07.03c-.05-.13.15.03.13-.08l-.1-.06c-.1-.14.16.03.02-.15-.01.04-.15-.06-.1-.1l.06.04c0-.03-.02-.05 0-.06.03.03.1.05.1.02l.07.06-.1-.12c.1-.01.05-.14.15-.1 0 0 .1-.08.01-.16.05.05.1.01.17.06-.06-.06-.07-.17.02-.17l.01.01c.14-.08 0-.26.15-.32-.08-.03-.01-.07-.1-.1-.04-.16.3-.1.02-.3.01-.06.1-.02.13-.04l.01.02c.02-.1.04-.14.08-.2-.01-.05-.15-.13-.08-.17.05.05.05.02.06-.01 0 .02.02.03.07.02-.02-.01-.02-.03-.03-.04.01-.04-.01-.04-.03-.03-.01-.01-.02-.01-.04-.01.1 0 .05-.12.15-.07.04-.13-.02-.27 0-.4.06.01.1.06.1.1v-.08c.07.04.02.06.02.1.16-.03-.03-.23.13-.28l-.05-.05h.01c-.03-.02-.06-.06-.06-.08.07.02.14.07.16.02.08-.01.03-.12.02-.2-.02.02-.05 0-.07-.03.01-.03.08-.01.06-.04l.1.04c-.08-.03-.05-.1-.08-.13.07.02.03.07.08.1l.06-.15c-.04-.08-.08-.03-.15-.1v-.1a2.67 2.67 0 0 1 .24.12c-.1.08 1.02.52.5.4 1.04.53 2.17.9 3.38 1.38 0 .04-.01.08-.02.13-.17.24-.35.24-.42.54-.08.12-.1.28-.16.4.08.12-.08.17-.02.28h-.08c.02.04.03.08-.02.1l-.02-.01c.03.06-.02.1 0 .12v-.01l-.01.05-.02-.02c.02.1-.01.16-.06.2l.08.03c-.15.08-.01.2-.17.27v-.01c.14.24-.25.15-.13.4-.02-.03-.04-.01-.06-.02-.01.08-.04.15.12.23-.03.05-.07.02-.13-.01.07.03.07.1.06.13l-.02-.03-.03.12.14.04c-.07.04-.16-.06-.16.01l.1.05c-.06.07-.24.04-.36.08-.2.3-.1.78-.44.98l-.1-.03c-.12-.05.13.17.02.13l.04.06c-.03 0-.06.01-.07-.02-.02.03 0 .04.02.08h-.1c-.12.1-.03.28-.13.4-.23.1-.24.46-.25.67.05.33-.55.4-.48.73-.02 0 .01.04.02.05l-.13.22s-.6 1.1.78.72l.02.02c.12-.1.18-.17.1-.32.16.06.07-.1.13-.1l.01.01c-.08-.14.18-.1.1-.23.01.01.05.03.05.05.01-.06.01-.15.1-.1.04-.14.17-.3.07-.45l.02.02c-.07-.1.02-.07-.01-.14.01 0 .02 0 .03.01-.07-.1.06-.16.04-.22l.06.03.04-.1-.03.03c-.16-.1.14-.03.07-.15.06-.06-.27-.3-.16-.34-.06-.07.1.1.08.01.1.04.04.05.12.07-.02-.07.13-.04.1-.13l.07.03c-.08-.14.16-.1.07-.22-.01-.1.23.04.14-.1l.1.01c.03-.03-.1-.08-.03-.1.06.03.07-.03.1.02.14-.05-.03-.25.18-.3-.1-.08 0-.1-.07-.17.05.02.07-.12.14 0 .01.01 0 .02-.02.01l.06.04c.16-.01 0-.16.05-.22-.03.01-.04.04-.08 0l.04-.06.05.04.08-.08-.08-.02c.06-.03.18.01.1-.1-.04-.05-.1 0-.1-.06.08-.04.2-.1.26-.17-.08-.03-.07-.05-.07-.08l.07.03c-.05-.13.15.03.13-.08l-.1-.06c-.1-.14.16.03.02-.15-.01.04-.16-.06-.1-.08l.06.04c0-.03-.03-.05 0-.06.03.03.1.05.1.02l.07.06-.1-.12c.1-.01.05-.13.15-.1 0 0 .1-.08.01-.16.05.05.1.01.17.06-.06-.06-.07-.17.02-.17v.01c.14-.08 0-.26.14-.32-.08-.03-.01-.07-.12-.1-.04-.16.3-.1.02-.3.01-.06.1-.02.13-.04l.01.02a.42.42 0 0 1 .07-.2c-.01-.05-.15-.13-.1-.17.05.05.05.02.06-.01 0 .02.02.03.07.02-.02-.01-.02-.03-.03-.04.01-.04-.01-.04-.03-.03-.01-.01-.02-.01-.04-.01.1 0 .05-.12.15-.07.04-.13-.02-.26-.01-.38.06.01.1.06.1.1l.02-.08c.07.04.02.06.03.1.16-.02-.03-.23.12-.27l-.05-.05h.01c-.03-.01-.06-.06-.06-.08.07.02.14.07.16.02.08-.01.02-.12.01-.2-.02.02-.05 0-.07-.03.01-.03.08-.01.06-.04l.1.04c-.08-.03-.05-.1-.08-.13.07.02.04.06.08.1.03-.1.03-.07.05-.13.6.26 1.23.55 1.88.92.62.04 1.8.7 2.27.73.03.1 2.48 1.12 1 .68-.13-.04-.34-.13-.3-.16l-.22.04c1.3.83 2.6 1.02 3.96 1.7-.4-.23-.94-.47-.54-.38l1.27.6-.3-.03 1.87.95-.2-.24c.9.5 1.13.85 2.24 1.2.5.14-.8-.58.2-.14l4.43 2.63c-.07-.2.33.03.76.25l-.02.14c1.63.8.44.57 1.96 1.44l-.18-.02.52.06c.68.37.77.57.85.74.03.08.12.2.16.26.04.03.2.28.45.64-.3-.6.14-.42.4.4l-.2-.16c.2.43.3.56.36.87-.15-.25-.2-.1.01.57a5.71 5.71 0 0 0-.28-.4c.2.4.38.8.55 1.2.08.65.26 1.54.34 2.2-.18-.08-.37-.1-.58-.12zm-48.5 5.23c-.03-.01-.04-.03-.04-.04l.1.03c-.02.01-.04.01-.05.01z"/><path xmlns="http://www.w3.org/2000/svg" d="M353.95 172.7c-.2-1.3-1.4-1.3-1.4-1.3s.56-1.4.05-2.02c-.7-.84-3.2-.14-5.75.22l-8.5 1.3c-1 .2 2-1.18 3.4-2.08 1.4-1 2.4-3.82-.5-2.72l-7.1 2.6c-.8.4-2.5 1.6-3.8 2.5l-1.2.9s-.9.8-4.1.9c-1.1.03-5.7.07-11.48.1l-.22-2.3c-.1-1-.2-.9-1.7-.9-4.8 0-17.6-.1-21.3-.6-4.6-.7-7.2-3.6-12.8-11.3-4.8-6.64-14.72-22.86-19.16-30.2-7.52-17.32-18.73-29.58-31.44-29.8-4.5-.27-7.85.04-10.42.78-11.47-.48-25.27 8.66-34.78 31.02-13.7 32.2-12.6 51.3-7.7 68.6s16.9 39.4 16.9 39.4l6.72-2.5 6.08 11.3s1.3 6.3 6.4 12.1c5.2 5.8 6.2 5.9 7.1 6.6.8.7 1.5-.9 1.5-.9s1.5 1.8 2.8 1.3c1.2-.5.7-1.9.7-1.9s1.48.76 2.18.16c.34-.6 0-2.05-1.2-5.9-.7-2.22-2.58-7.07-2.98-8.07s1.8 1.5 3.1 2.7 3.4.9 1.7-1.7-2.9-5-3.4-5.7-2-2.2-3.2-3.2l-1.1-1s-1-.7-1.7-3.9c-.2-.7-.5-2.5-1.7-5.9l-.63-1.87 6.23-2.33s-2.66-8.8-5.02-19.23l59.42-.07-.58-5 1.08.1c14.3 1.3 34-3.6 39.9-5.2 1.3-.3 1.6-.3 1.5-1.3l-.5-5.24 16.3-4.86s6.4 0 13.1-3.9 7-5 7.9-5.7-.6-1.6-.6-1.6 2.1-1.1 1.9-2.4zm-78.4-18.87l.3.56c.01-.03-.06-.18-.3-.56zm-15.85 54.75l-.2.01.2-.01zm.36 0l-.2.01.2-.01zm-56.2 40.92l.06.15c0-.01-.01-.02-.01-.03a.61.61 0 0 1-.05-.12zm-29.5-103.33l-.06.27c.01-.02.01-.03.01-.04.01-.08.03-.16.05-.23z" fill="#fff"/><path xmlns="http://www.w3.org/2000/svg" d="M251.6 113.52v.01l.26.22zM220.7 252.4l-.1-.22.1.22zm88.66-52.14h0l-.22.14zm-39.16-54.7l-.1-.17-.27-.3.38.48z"/><path xmlns="http://www.w3.org/2000/svg" d="M182.85 218.32c0 .01.01.01.01.02l.2.25-.2-.27zm171.55-45.74a2.35 2.35 0 0 0-.2-.6 1.58 1.58 0 0 0-.4-.53 1.35 1.35 0 0 0-.27-.2l-.14-.08-.06-.02c-.07-.03-.14-.04-.22-.05-.04-.03.03-.13.04-.2l.03-.16c-.04.08-.07.1-.1.17l-.14.22.07-.2c.05-.15.1-.37.13-.48l.06-.22c.02-.05.03-.1.03-.26-.02-.15.01-.42-.3-.85-.05-.04-.1-.1-.17-.16l-.05.1c-.33-.28-.68-.33-.97-.38-.3-.04-.58-.04-.85-.03l-1.5.1-2.9.3-5.38.84c-.13.03-.01-.06.03-.07l.16-.1.34-.2.37-.22c.05-.03.03-.01.13-.1l.3-.26a3.35 3.35 0 0 0 .5-.58c.3-.43.54-.85.67-1.45a1.52 1.52 0 0 0-.13-1.02c-.16-.33-.53-.48-.86-.55-.17 0-.36-.01-.5 0l-.4.08c-.24.06-.5.15-.7.23l-1.24.5-4.97 1.74c-.4.14-.88.34-1.25.57l-1.1.7-2.1 1.4-.4.16c-.1 0-.63.45-1.14.9l-.04.03c.01.01-.14.12-.24.16l-.33.16c-.2.1-.4.13-.47.12-.3.1-.63.2-.96.25-.28.02-.9.06-.4-.03l-1.65.16-1.04-.06c-3.15-.02-5.93.1-9.05.12l-.12-1.65c-.03.05-.06-.03-.1-.17l-.04-.25-.1-.46c-.2-.6-.72-.9-.5-.6-.27-.24-.6-.32-.94-.36-.35-.03-.74-.01-.97-.01-.43 0-.84-.01-1.25-.01l-2.24-.1c-1.36-.05-2.43-.06-3.1.22-1.65.01-1.95-.16-2.8-.2l.4-.02-6.26-.1c-1.14.01-1.33.28-3.37.1.66-.07-.17-.1-.93-.14.5.01.64-.01-.35-.15-.14.02-.36.02-.56.02-.01-.01-.05-.02-.03-.03-1.23-.1-1.02-.04-.45.04-.03.01.01.04.2.1l-2.18-.5c-.7-.22-1.22-.5-1.25-.6-1.6-.76-2.82-1.8-3.9-2.87-1.1-1.07-2.08-2.18-3.08-3.42-.15-.34.37.2.98.9l-1.4-1.76c.12-.07.85 1 1.3 1.5-1.48-2.23-3.54-4.3-5.15-7l-.46-.48-.1-.17c-.04.04-.5-.5-.78-.9-.15-.44.24-.12-.63-1.43-.6-1.1-1.97-2.92-2.9-4.26.45.75.25.55.01.25-.43-.66-.57-1.1-.94-1.6l.1-.15c.03.27-.74-.9-1.18-1.5-.46-.45-.88-.7-1.17-.52-.4.24-.15 1.2.33 2.33l1.1 1.7 5.2 8.27a83.29 83.29 0 0 0 6 8.1c1.4 1.65 3 3.38 5.17 4.57 1.07.6 2.25 1 3.42 1.2 1.2.2 2.26.25 3.3.3 2-.1 5.47.22 7.8.1l.9.14c.8-.05 1.75-.07 2.55 0l-.05.03 3.14-.05-.05.03h1.46l-.25.05a110.46 110.46 0 0 1 3.14-.07h.52c.05 0 .1 0 .16.03.04.03.04.1.05.15l.05.6.13-.2.83 9-.04-.04c.82 4.48.44 7.16 1.26 11.8-.1-.58-.05.25-.1.2l.38 3.03c.16 1.02.2.95.32 1.12-.12.2-.3.18-.38.2-.1.02-.14.01-.23.01-.15 0-.14-.05-.26-.08.02.1-1.3.53-2.5.84l.54-.2-3.45.9.74.07c-1.86.37-.53-.17-2.28.3l.07.2c-2.56.53-4.12.56-6.63.9-5.16.93-10.52 1.85-15.84 2.26-2.66.24-5.3.28-7.87.2-1.05-.06-2.1-.15-3.13-.25-.45-2.5-1.2-5-1.42-7.6-.34-1.48.4 1.3 0-.94.15-.1.24 1.03.3.44-.36-2.2-.32-3.63-.8-6.33l.1-.13c-.7-3.5-.77-6.7-1.33-9.02-.64-3.63 0-2.5-.8-6.26l-.07-1.5c-.23-1.63-.4-1.13-.6-2.94.13.1-.28-2.3-.01-1.25-.52-4.1-1.6-8.22-2.38-13.6-.4-1.12-.88-3.83-1.2-4.66.1-.17-1.26-5.36-.34-2.4.08.25.2.7.14.7l.2.33c-.5-3.02-1.42-5.38-2.3-8.24l-3.55-9.62c.02.22.55 1.62-.15.03-1-2.6-2.7-6.46-4.47-9.6.04.36-.43-.48-.97-1.3l.05-.16c-2.17-3.13-.48-1.36-2.7-4.4l-.54-.45c-1.1-1.32-1.36-1.7-1.6-2.14-.27-.43-.58-.9-1.95-2.24 1 1.12.26.7-.92-.7l.4.27c-.7-.75-1-.95-1.43-1.46.46.4.37.1-.73-.95l.83.6c-.73-.62-1.45-1.25-2.22-1.82-.78-.8-1.87-1.7-2.9-2.45-1.02-.76-1.96-1.36-2.3-1.66 0 0-1-.66-2.22-1.25-.6-.3-1.26-.57-1.83-.8-.58-.2-1.07-.35-1.35-.4.97.2-1.6-.65-.82-.55-.3-.07-.78-.16-1.33-.24a26.78 26.78 0 0 0-1.82-.25c-1.3-.13-2.56-.14-3.28-.23h.27c-1.2-.06-2.33-.12-3.42-.05-2.15-.25-4.45.05-6.17.28-2.45.34-4.85.66-7.12 1.34-4.5 1.4-8.94 3.96-13.82 8.7-2.17 2.06-3.76 3.9-5.1 5.6-.7.84-1.3 1.65-1.86 2.46-.6.8-1.1 1.6-1.64 2.38-2.06 3.2-4 6.58-6.36 12.24a175.66 175.66 0 0 0-6.05 16.63c-.27 1.33-.8 3.12-1.32 4.98-.45 1.88-.96 3.8-1.2 5.4l-.36 1.2c-.14 1.1-.4 2.37-.62 3.46l-.02-.07c-.15 1.65-.5 3.48-.54 4.3l-.03-.07-.2 2v-.35l-.16 2.17-.1 2.16-.1 2.1-.03 2.02.15-.22c-.05 1.4-.05 2.58.02 3.63.07 1.06.1 2 .2 2.9l.3 2.8.4 3.3-.04-.06 1.76 8.07c.58 2.47 1.2 4.98 2.45 8-.3-.76.04.36-.01.3 1 2.84 2.2 5.83 2.5 5.76.8 2.04.57 1.7.57 2 .1-.06.88 1.68 1.54 3.25l-.34-.7 1.97 4.48-.17-.97c1 2.4 0 .72 1.07 2.96l.16-.1c1.45 3.28 2.08 5.3 3.47 8.5l2.26 4.53 1.18 2.27 1.23 2.3.13.24.07.12.65-.25 19.55-7.5 2.4-.9.43 1.1.18.83c.28.9.33.6.6 1.6-.07-.04.3 1.27.1.7l.82 3.24c.16.58.35 1.2.6 1.8.13.3.27.63.45.95a6.3 6.3 0 0 0 .3.48c.13.17.2.3.48.53l-.06-.05.54.53c.6.38 1.7 1.43 2.12 1.72.01.05.56.6.92 1 .35.4.55.65-.06.06-.1-.1-.3-.3-.26-.3l-.2-.1.8.93c.12.15.24.28.33.4l.3.47c.42.66.86 1.35 1.3 2.12-.24-.47-.6-1.07-.32-.7l.82 1.43-.23-.26a65.3 65.3 0 0 0 1.25 2.12l-.12-.33.4.68c.08.18.18.35.24.52.15.3.25.74.24.76-.02.07.05.05.1 0 .02-.05.1-.08 0 .1-.05.04-.13.06-.2.06-.1-.01-.27-.03-.44-.1-.36-.14-.6-.37-1-.77l-1.72-1.78c-.34-.34-.68-.66-.93-.82a1.33 1.33 0 0 0-.57-.21c.1.08.05.1-.04.1-.05 0-.1 0-.17.01-.03.01-.08.01-.14.06-.04.04-.04.07-.04.1-.01-.01-.02-.01-.03-.01.78 2.32.14.7.9 3l.2.46c.76 2.04.2 1.05 1.1 3.3-.3-.87.01-.4.33.65l-.15-.26c.2.6.3.78.4 1.17-.15-.35-.15-.15.13.7l-.27-.55.6 1.53c.3 1.2.9 3.06.82 3.52a7.76 7.76 0 0 0 .02.26c0 .06.01.2 0 .23a.31.31 0 0 1-.02.08c-.03.06-.07.07-.2.08-.1.01-.2-.01-.34-.03-.15-.03-.3-.08-.47-.13l-3.92-7.17c-.13-.24-.44-.33-.68-.2s-.33.44-.2.68l3.87 7.07c-.05.05-.1.06-.02-.03-.07.08-.14.18-.36.4.03.13.04.24.05.37 0 .15-.02.18-.02.2-.01.06-.03.12-.06.16a.62.62 0 0 1-.32.24c-.26.1-.7-.08-.9-.26.04.02.07.04.1.05-.1-.06-.22-.13-.32-.2-.05-.03-.1-.08-.15-.12l-.2-.18c-.2-.2-.42-.43-.63-.66l-3.5-5.66a.49.49 0 0 0-.69-.16.5.5 0 0 0-.16.69l3.34 5.42c-.1.2-.2.4-.33.57-.08.1-.07.1-.1.1-.01.01-.03.02-.05.02-.05 0-.01.02-.25-.14l-.63-.4c-.78-.5-1.5-1.12-2.24-1.87.02.15-.95-.87-.78-.55-2.05-1.9-3.3-3.85-4.2-4.4-.78-1-.84-1.24-1.18-1.78l.18.24c-1.33-1.93-1.65-2.55-2.42-4.1-.4-.77-.62-.83-1.16-2.3.24.45 0-.14-.2-.7.14.35.2.45-.02-.3a5.59 5.59 0 0 1-.18-.4c0-.01 0-.04.01-.02-.3-.92-.27-.76-.15-.32-.02-.02-.02.02.01.16l-.32-1.34c-.12-.25-.17-.32-.25-.47-.3-.53-.52-.97-.5-1.05-1.12-2.04-2.05-3.6-2.97-5.22-.34-.44-.8-.94-1.08-.83-.2.08-.15.56-.02 1.1a22.16 22.16 0 0 1 .38.7l3.3 6.05c.07.12.02.02.04.1l.08.32c.22.84.5 1.63.8 2.4.63 1.42 1.7 3.96 2.8 5.46l.32.64c.4.5.8 1.1 1.18 1.64l-.04-.02 1.6 1.9-.04-.01.77.83-.15-.12 3.37 3.42-.03-.15c.97.98 1.8 1.64 2.6 2.14.2.13.36.22.57.37.2.16.62.4.98.3a1.42 1.42 0 0 0 .53-.2 2.22 2.22 0 0 0 .37-.33.69.69 0 0 0 .13-.2c.03.01.06.07.1.1.05.06.02.04.15.15l-.05-.01c.65.45 1.4.88 2.3.77a1.93 1.93 0 0 0 1.13-.6c.14-.17.26-.36.33-.56.04-.08.07-.23.08-.26v-.07c.01-.07 0-.13-.01-.2.03 0 .13.06.18.08l.06.02c.02.01.02.01.13.03a2.84 2.84 0 0 0 .62.04c.54-.06 1.18-.3 1.25-.93.03-.15.06-.3.06-.45.01-.13 0-.22-.01-.32-.02-.2-.05-.4-.1-.6a13.02 13.02 0 0 0-.3-1.15c.14.45 0-.2.02-.17-.47-1.66-1.04-3.4-1.2-3.34-.35-.95-.23-.77-.2-.87-.08 0-.42-.83-.7-1.58l.17.36-.8-2.13c-.03.04-.06.1-.1.16-.37-1.12.2.05-.26-1.1l-.23-.28c-.14-.4-.24-.72-.32-1-.02-.14-.12-.28-.02-.28.13.08.23.2.32.3.38.44.6.77.76 1l.33.33c.14.14.27.27.43.4a3.28 3.28 0 0 0 1.22.7c.24.07.5.1.8.1.33-.03.65-.15.9-.38.22-.24.37-.55.38-.88.02-.18 0-.3-.03-.44-.02-.14-.05-.26-.1-.37-.14-.46-.37-.82-.6-1.18l-.63-.97-1.2-1.97-1.17-2c-.2-.33-.4-.7-.7-1.03-.26-.32-.53-.6-.8-.9-1.08-1.14-2.3-2.1-3.4-3.1l-.05-.04c-.07-.06-.26-.28-.36-.46-.13-.2-.23-.4-.34-.63-.2-.44-.36-.9-.5-1.38-.26-.95-.44-1.93-.66-2.9v-.35c.1-.18-.76-2-.75-2.3l-.34-.83c-.06-.24-.2-.76-.04-.34-.27-.8-.28-.78-.5-1.33l-.04-.17 1.22-.46 5.3-1.92-.63-2.22-.37-1.42-.02-.6c.13-.3-1.3-3.46-1.23-4l-.5-1.48c-.07-.43-.27-1.33-.02-.6-.36-1.4-.4-1.42-.7-2.4l-.25-1.53-1.12-4.73 1.2-.06c.6.3 4.56.02 5.86.12l-.12.02c3.4-.23 6.97.18 10.23-.03-.13.02-.2.1-.95.1 2.38-.04 5.63-.1 5.8.06 5.68-.05 13.6.02 17.24-.25l-.25.05c2.07-.18 2.68-.03 5-.12.13.02.3.03.26.04 2.26-.18 6.6-.04 8.42-.1l.12.1 4.86-.03-2.04-.02c.15-.08.43-.1.83-.1l2.14.06c.1-.01.26.03.32-.01l-.03-.34-.06-.72-.14-1.46a36.19 36.19 0 0 0-.28-2.07c1.25.08 2.57.18 4 .32.45-.1 1.18-.1 1.9-.1.7-.03 1.38-.06 1.7-.14.1.12 4.1-.2 1.8.14-.2.03-.55.05-.52.01l-.27.13c1.17.06 2.22-.04 3.27-.17 1.04-.15 2.08-.32 3.22-.42-.68.04-1.58.12-1-.02.7-.05 1.4-.14 2.12-.2l-.43.15 3.15-.34-.45-.07c1.54-.15 2.12 0 3.8-.46.76-.22-1.47.06.13-.24 2.06-.24 5.13-.67 7.72-1.18-.27-.1.43-.23 1.13-.4l.1.1c2.7-.78 1.07.06 3.74-.7l.44-.28c2.37-.84 1.4-.06 4-1.1-1.05.3-.56-.13.74-.43l-.3.2.82-.25c.34-.1.63-.17.97-.35-.27.2-.36.25-.14.2.1-.04.3-.1.5-.28s.4-.5.47-.94c-.01.4-.15.83-.45 1.13.46-.4.58-1.03.5-1.63l-.2-1.08c-.02-1.16-.24-2.8-.32-3.9 1.5-.44 3.13-.9 4.38-1.34l.82-.17c.7-.24 1.53-.52 2.25-.7l-.04.03c1.05-.37 2.25-.7 2.77-.88l-.04.03 1.3-.4-.2.1 2.77-.9 1.36-.4c0-.02.3-.01.53-.03l.7-.04-.16-.07c1.92-.13 3.2-.43 4.4-.74 1.2-.33 2.37-.68 4-1.26l-.04.04a56.9 56.9 0 0 0 5-2.58c1.5-.86 3-1.72 4.73-3.2-.43.37.22-.1.2-.07.4-.33.8-.7 1.17-1.06l.5-.5c.12-.14.32-.27.56-.56.4-.57.14-1.2-.12-1.47a1.68 1.68 0 0 0-.3-.28c.15-.08.14-.05.25-.08-.03-.03.24-.24.6-.63.17-.2.37-.44.5-.76.15-.3.22-.75.14-1.1.06.2.06.48.02.7.08-.2.08-.43.04-.65zm-91-34.03c.22.86.52 1.83.23 1.12-.14-.5-.3-.98-.45-1.48a3.13 3.13 0 0 0 .22.36zm9.3 68.27l-.26.01-3.7.06-6.65.13c-10.82.33-23.4-.5-34.48-.13-.18-.01-.5-.01-.78.01s-.5.04-.5.05l-10.94-.02c-.74-3.06-1.44-6.1-2.02-9.6-.46-3.54-1.26-8.64-1.38-13.77-.08-5.1 1.35-10.2 2.7-13.78 1.85-5.1 4.73-10.27 7.9-15.28 2.2-3.55 4.75-9.17 6.9-12.65 0 0 2.06-4.44 1.2-3.9-1.2.75-2.7 4.48-3.17 5.35.05-.12.02-.22.42-.87-1.25 2.05-2.96 4.86-3.2 4.92l-4.94 8.16c-1.6 2.78-2.93 5.4-3.63 7.14l.07-.25c-.4.98-.7 1.6-1 2.25s-.66 1.3-1.07 2.42c-.07.1-.14.26-.14.23-.82 2.16-2.34 6.33-2.7 8.18l-.13.1-.48 2.27-.3 2.3.25-1.72c.12.32-.06 1.18-.26 2.4-.1 1.22-.3 2.8-.08 4.47.06 3.15 1.14 6.23 1.46 9.43.4 1.5-.45-1.3.03.95-.15.1-.27-1.04-.3-.44.42 2.22.45 3.68 1.07 6.4l-.1.14c.94 3.5 1.26 6.73 2.03 9.03.97 3.6.23 2.52 1.42 6.24l.22 1.5c.4 1.62.5 1.1.9 2.9-.14-.08.54 2.27.15 1.26.18.77.4 1.55.6 2.33l.3 1.04.14.4-.2.1-.08.03-.75.3-2.05.8a86.61 86.61 0 0 1-4.52 1.58c-1.04.6-3.68 1.46-4.45 1.92-.17-.03-5.2 1.93-2.35.66.24-.1.7-.27.67-.23l.3-.24c-3 .88-5.28 2.1-8.2 3.16.87-.28 2-.72 1.28-.36l-2.7 1 .52-.3-4.04 1.45.6-.1-.36.12c-.1.03-.27.1-.26.08-.05.01-.1.01-.14.01-.1.03-.1-.1-.1-.15-.02-.05.01-.02-.04-.13-.1-.17-.18-.35-.28-.55a35.73 35.73 0 0 0-.76-1.31c-.58-.9.76 1.84-.3-.1l-4.44-9.57c.01.36-.4-.5-.84-1.4l.06-.16c-1.75-3.35-.35-1.38-2-4.72l-.44-.55c-1.56-3.02-.5-1.77-2.25-5.12.6 1.37.01.75-.64-.96l.3.38c-.4-.93-.57-1.23-.8-1.86.28.54.28.23-.28-1.15l.5.87-1.22-2.55c-.65-2.07-1.9-5.28-2-6.18l-.7-2.36c-.4-1.24-.74-2.62-.98-3.1.35.87-.26-1.6.05-.94-.2-.57-.52-1.7-.82-2.9a26.37 26.37 0 0 1-.55-3.12l.07.26c-.76-5.18-1.37-8.88-1.22-13.6-.14.2-.07-2.27-.25-1.66.01-1.22.07-2.4.14-3.48s.25-2.1.35-3c.2-1.83.45-3.25.3-4.17.28-2.22.56-2.6.8-3.7l-.07.53c.72-4.1 1.1-5.28 1.83-8.3.37-1.5.2-1.8 1.02-4.47-.14.9.12-.2.47-1.2-.2.64-.22.84.28-.43.03-.2.1-.48.17-.75.01-.01.03-.06.04-.03.5-1.66.38-1.4.12-.62 0-.04-.04.01-.15.24.35-.84.73-2.03 1.08-3.04.37-1 .68-1.8.8-1.87l1.22-3.47 2.28-6.07 1.23-2.93c.3-.4-.06.55-.54 1.72.4-.94.8-1.9 1.26-2.8.1.08-.7 1.62-1.05 2.5 1.7-3.24 3.1-6.9 5.58-10.42l.4-.8.15-.2c-.05-.02.43-.85.8-1.38.46-.42.16.16 1.44-1.52 1.06-1.3 2.95-3.72 4.46-5.3-.86.8-.63.5-.3.12.76-.74 1.26-1.1 1.84-1.67l.14.04c.01-.08.42-.5.9-.94.6-.52 1.3-1.08 1.42-1.23.54-.28-1.23 1.1-1.37 1.33 1.63-1.34 2.07-1.63 2.5-1.93s.84-.63 2.65-1.7c1.92-1.17-.43.06.45-.57 1.74-.96 3.5-1.86 5.75-2.37-.25.01-.5.05-.73.07 1.8-.58 3.3-.88 4.64-.96 1.35-.13 3.3-.73 4.55-.56l2.2-.34c1.2-.01 2.84.07 3.96.12h1.2c1.54-.05 1.85.25 3.08.4 1.24.14 2.12.8 3.24 1.2 2.17.8 4.15 1.97 6.7 3.56-.16-.08.4.38.35.37 2.36 1.64 4.54 3.84 4.78 3.67 1.47 1.53 1.13 1.3 1.24 1.58.08-.1 1.37 1.23 2.4 2.53l-.52-.56c1.03 1.2 2 2.47 2.93 3.75l-.36-.9c1.42 2.1.14.7 1.56 2.65l.15-.13c1.88 2.97 2.64 4.9 4.06 7.98 3.13 6.3 5.77 13.14 7.6 20.1 1.8 6.97 3.07 14 4 20.53l-.05.6c-.16.28.9 3.55.78 4.08l.34 1.5c.03.43.13 1.34-.04.6.2 1.4.25 1.43.46 2.44l.1 1.53c.73 5.56 1.65 10.25 2.38 16.1.33 3.53 1 8.6 1.66 13.74l.12.9.06.4-.12.02zm79.52-30.47c-.1.05-.3.24-.44.38l-.45.44a15.01 15.01 0 0 1-.95.84c-.64.52-1.24.94-1.5 1.07l-1.4.9c-.74.48-1.56 1-1.84 1.23.5-.4-1 .48-.62.16-.66.52-2.72 1.7-3.66 1.95l.16-.08c-1.63.66-3.06 1.16-4.47 1.55-1.4.38-2.8.68-4.4.77.08.04-.3.08-.64.1-.08.01-.17.01-.24.02-.04.01-.24 0-.3.04-.16.06-.2.1-.02.07-3.25 1.1-5.94 1.56-7.02 2.24-1.46.45-1.76.44-2.52.65l.34-.12-5.57 1.67-.4.14c-.06-.8-.28-3.37-.5-4.02.18.7.04-1.24.23-.7-.22-.9-.58-3.55-.55-4.64l.04.2c-.2-3-.57-5.26-.83-7.73.18 0 .36-.01.55-.01l.08.07c2.45-.15 4.63.08 6.26-.07 2.54-.1 1.68.25 4.36-.02a12.89 12.89 0 0 0 1.07-.02c.6-.1.8-.18 1-.26.22-.1.45-.15 1.1-.44 0 .01.1.01.37-.2l-.04.03c.34-.23.87-.6.48-.27l3.57-2.5c.32-.2.63-.4.96-.58.3-.15.7-.3 1.08-.42.8-.27 1.63-.53 2.53-.8.73-.37 2.53-.96 3.06-1.28.02.01.27-.1.54-.17.28-.1.62-.14.68-.1.1.02.15.12.14.13-.01.03-.04-.05-.17-.05-.04 0-.15.01-.18 0l-.18.1c.1 0 .23-.03.26-.03.03.01.06.01.07.02.02.01.04.03.04.06.03-.05-.07.4-.26.74-.2.35-.43.66-.76.9-.74.48-1.57.9-2.43 1.38 1.08-.55 2.36-1.27 1.56-.77-.95.53-2.3 1.18-2.46 1.5.01-.06.01-.13.07-.2-.16.13-.2.23-.3.33a1 1 0 0 0-.18.25.76.76 0 0 0-.06.2c0 .03-.01.06-.01.1 0 .08.05.1.06.1-.01.04-.02.07-.02.1 0 .02-.03 1.8-1.73 3.58-1.94 2.03-4.16 1.56-4.26 1.54a.49.49 0 0 0-.6.37c-.06.27.1.54.37.6.04.01.38.1.9.1 1.02 0 2.75-.3 4.3-1.9 1.98-2.06 2-4.18 2-4.26s-.02-.16-.06-.23c1.12-.1 1.67-.1 3.28-.3.82-.12-1.4.08.24-.1 1.96-.2 5.22-.35 7.5-.8-.24-.05.4-.16 1.04-.24l.08.07c.86-.12 1.14-.03 1.27.02.12.06.12.12.12.14-.04 0 .1.05-.01.72v.04c-.01.08-.03.16-.04.25l-7.94 2.3c-.3-.6-.53-1-.56-1.03a.5.5 0 0 0-.69-.15.5.5 0 0 0-.15.69c.01.02 1.14 1.77 1.4 3.86l.42 3.7a.5.5 0 0 0 .5.45h.05c.27-.03.48-.27.45-.54l-.27-2.44 6.67-2.03c.1.08.26.2.36.33-.08-.06-.27-.18-.42-.25a2.7 2.7 0 0 1 .44.32c.07.01.08.12-.01.2zm1.06-2.97c-.03.12-.2.46-.68.8.06-.08.12-.16.17-.24-.42.4-.63.54-.94.7l-.03.01v-.01c.13-.1.12-.12-.03-.06l-.63.26-6.1 1.86c-.01-.1-.02-.2-.04-.3-.1-.86-.34-1.66-.6-2.33l7.9-2.27c.04-.01.07-.04.1-.06.08.1.17.18.26.3l.2.06c.04.01.05.02.07.03.04.02.06.04.1.06.05.04.08.08.1.12a.7.7 0 0 1 .09.24c.02.08.05.25.06.35 0 .12-.03.35-.3.72.25-.32.3-.37.28-.25z"/></g></svg>