<svg width="720" height="640" viewBox="0 0 720 640" fill="black" xmlns="http://www.w3.org/2000/svg">
  <g xmlns="http://www.w3.org/2000/svg" fill="none" fill-rule="evenodd">
    <rect width="720" height="640"/>
  </g>
<g transform="translate(120, 80)"><path xmlns="http://www.w3.org/2000/svg" d="M258.66 47.9s-1.83 1.25-3.23 1.32c-1.4.07-1.47-.07-1.47-1.03s-.15-1.54-.37-2.27-1.17-1.83-1.17-1.83-.8 1.54-2.64 1.98-3.6-.3-6.53-1.54c-2.94-1.25-5.72-1.47-8.15-.8-2.42.66-3.3 1.4-4.26 2.13s-2.35 2.95-2.35 2.95-2.83-.33-5.87 1.08c-3.34 1.56-4.77 5.87-5.14 9.03s.6 6.68 1.17 8.5 1.65 4.13 1.65 4.13.18-.22.5-.5l.12.6c-1 1.04-1.6 2.48-1.6 4.1 0 3.15 2.37 5.7 5.3 5.7.37 0 .72-.05 1.07-.13l-6.87 22.43-2.2 5.7s3.2 4.1 10.8 5.7c5.2 1.1 8.7 1.2 11 1 1.9-.2 4.2-.6 3-4.1-1.7-5.2-1.1-8.5-1.1-8.5l2.4-13.1c1.63.3 3.14.35 4.3-.01 3.2-1 5.9-4.4 6.9-10.1.5-3.3.8-9.2.8-13.4 0-1.1-.1-3.4-.3-5.4-.07-.52-.16-1.02-.26-1.5a11.2 11.2 0 0 0 3.3-2.34c4.95-5.07 1.2-9.77 1.2-9.77zm-30.63 32.2c.01.03.02.06.02.1l-.08-.05c.02-.01.04-.02.06-.04z" fill="#fff"/><path xmlns="http://www.w3.org/2000/svg" d="M251.86 60.2l.33-.04c-.02-.03-.1-.01-.33.04zm-29.66 9.23l.08-.04c-.06.02-.08.03-.08.04zm38.86-18.17v.02l.03.1-.03-.12z"/><circle xmlns="http://www.w3.org/2000/svg" cx="242.08" cy="72.05" r="1.4"/><path xmlns="http://www.w3.org/2000/svg" d="M224.94 72.72c-1.6 0-2.9 1.35-2.9 3s1.3 3 2.9 3 2.9-1.35 2.9-3-1.3-3-2.9-3zm0 5c-1.05 0-1.9-.9-1.9-2s.85-2 1.9-2 1.9.9 1.9 2-.85 2-1.9 2zm14.48-10.36c.12-.13 1.2-1.8 3.9-1.6.4 0 .8-.3.8-.7s-.3-.8-.7-.8c-3.6-.3-5.2 2.1-5.3 2.2-.2.3-.18.75.15 1 .5.38.92.16 1.15-.1zm11.14-2.54c.15-.02 1.24-.35 2.1.14.14.08.3.16.4.16.2 0 .5-.1.6-.3a.78.78 0 0 0-.2-1c-1.4-1-3.13-.44-3.28-.4a.73.73 0 0 0-.52.9c.1.4.5.54.9.5z"/><circle xmlns="http://www.w3.org/2000/svg" cx="252.08" cy="71.25" r="1.4"/><path xmlns="http://www.w3.org/2000/svg" d="M244.3 82.96c-3.6.17-4.65-2.7-4.7-2.85-.18-.4-.56-.54-.95-.4s-.55.56-.4.95c.55 1.45 2.42 3.98 6.22 3.8.4-.04.67-.37.62-.87a.76.76 0 0 0-.77-.62zm16.76-31.68l-.57-2.03-.22-.55-.18-.37-.23-.4c-.32-.52-.68-.98-1-1.3l-.47.35-.78.37-.46.3-.27.16a1.93 1.93 0 0 1-.56.21l.01-.04c-.48.3-1.07.28-1.2.32l.01-.03c-.05 0-.1.01-.15 0l.05-.03c-.06.02-.1-.02-.12-.07-.01-.03-.01-.04-.02-.1v-.38c-.04-.63-.17-1.27-.3-1.8l-.1.12c-.04-.18-.07-.36-.17-.6l-.13-.3c-.04-.1-.12-.22-.18-.33a8.35 8.35 0 0 0-.82-1.12l-.52-.03c-.14-.01-.26-.05-.34.02-.18.1-.43.18-.83.28-.22.33-.58.66-.68.7-.16.12-.35.22-.56.3v-.04c-.8.6-1.73.55-2.55.32l-2.95-.96c.3.08-.1-.1-.06-.13-1.06-.42-2.35-.9-2.44-.65-.85-.28-.68-.28-.76-.42-.02.1-.8-.06-1.48-.17h.33a11.3 11.3 0 0 0-2-.2 4.79 4.79 0 0 1 .38.23c-1.05-.1-.26-.3-1.3-.23l.02.17c-1.46.03-2.4.01-3.8.34-1.22.38-2.46 1.15-3.42 1.98-.6.52-.96 1.03-1.35 1.56l-.55.8-.13.2-.04.08c-.03.04-.05.1-.08.14h-.2l-.66.02-1.3.15a14.34 14.34 0 0 0-2.52.65c-.8.3-1.6.65-2.33 1.18-.7.52-1.3 1.13-1.83 1.77l-.25.13c-.26-.02-.6 1.5-.8 1.6l-.2.63c-.1.15-.27.5-.2.18-.23.56-.2.6-.3 1l-.3.58c-.74 2.24-.7 4.37-.43 6.8.05 1.16.33 2.68.8 4.24.23.78.53 1.6.85 2.34l.5 1.13.8 1.72c.08 0 .13.01.2.02a6.42 6.42 0 0 0-1.07 3.57c0 3.42 2.6 6.2 5.8 6.2.12 0 .24-.02.36-.03l-6.63 21.65-2.3 5.96.17.22c.14.17 3.4 4.26 11.1 5.88 3.44.73 6.48 1.1 9.08 1.1a22.56 22.56 0 0 0 2.07-.09c1.28-.13 2.7-.37 3.4-1.45.5-.8.52-1.88.03-3.3-1.63-5-1.1-8.22-1.08-8.25l2.3-12.56c.68.1 1.35.18 1.96.18.76 0 1.46-.1 2.08-.28 3.63-1.14 6.27-4.96 7.25-10.5.1-.64.18-1.36.26-2.14 1.83-.73 3.13-3.16 3.13-6.12 0-2.67-1.06-4.9-2.6-5.86-.03-1.26-.13-3.14-.3-4.8-.02-.17-.06-.33-.1-.5 1.08-.5 2.23-1.22 3.5-2.52.85-.9 1.65-1.98 2.17-3.23.54-1.26.72-2.66.56-3.94zm-21.2 52.15c-.03.14-.6 3.5 1.12 8.75.38 1.1.4 1.93.07 2.45-.45.7-1.6.88-2.64 1-2.9.25-6.55-.08-10.85-1-6.34-1.33-9.56-4.47-10.33-5.3l2.1-5.45 6.78-22.16c.58-.16 1.13-.4 1.63-.75.08.3.16.6.22.88.53 2.22 2.42 4.1 5.96 5.93 2.5 1.3 5.52 2.5 8.25 3.06l-2.3 12.6zm13.6-23.2c-.9 5.15-3.3 8.7-6.56 9.7-3 .94-8.62-1.07-12.52-3.07-3.2-1.65-5-3.38-5.44-5.27a24.44 24.44 0 0 0-.35-1.35l-.24-1.25c-.88 1.16-2.2 1.92-3.7 1.92-2.65 0-4.8-2.33-4.8-5.2s2.15-5.2 4.8-5.2c1.2 0 2.28.48 3.12 1.27.1.1.2.22.3.35l.23.36c.07.12.28.38.46.5.4.3.8.44 1.14.52l.93.2c.92.08 1.54-.14 2.2-.45a5.42 5.42 0 0 0 .9-.6l3.95.67c0 .08-.01.17-.01.25 0 3.6 2.2 6.6 5 6.6 2.7 0 5-3 5-6.6a8.76 8.76 0 0 0-.07-1.03c.05-.05.1-.1.17-.14-.01.1.01.23.07.35.5 1.3 1.4 3.8 1.3 4.7s-.85 1-1.2 1.1c-.45.12-.75.45-.65.9.12.58.65.63.95.6.8-.1 2.2-.9 2.3-2.4a4.77 4.77 0 0 0-.04-.82c.76 1 1.76 1.62 2.88 1.62.04 0 .08-.01.12-.01a42.74 42.74 0 0 1-.23 1.75zM236.38 64.3c-.2-1.83-1.2-3.7-2.13-4.98-.25-.34-.34-.46-.42-.7-.03-.1-.05-.2-.07-.27a1.12 1.12 0 0 0 .22-.03l.02.08c.02.02.05.03.07.04l.13.05a20.69 20.69 0 0 1 .76.35l1.04.52c3.87 1.95 6.4 2.96 11.87 2.92 2.42-.01 3.98-.3 5.5-.76l.5-.18c.01.08.03.15.04.22a73.09 73.09 0 0 1 .28 4.29c-.22-.05-.44-.08-.67-.08-2.2 0-3.95 2.33-4.24 5.44a2.4 2.4 0 0 0-.76-.09 1.91 1.91 0 0 0-1 .31c-.7-2.55-2.58-4.42-4.7-4.42-2.38 0-4.45 2.33-4.9 5.35l-3.22-.56c.1-.15.2-.33.17-.34.86-1.33 1.18-2.73 1.42-4.14 0 0 .06-.32.1-.86.05-.52.08-1.28-.02-2.16zm-2.44-6.13h0l.02.02h0c-.01-.01-.02-.02-.02-.03zm12.9 15.45c0 3.1-1.8 5.6-4 5.6s-4-2.5-4-5.6 1.8-5.6 4-5.6 4 2.5 4 5.6zm6.93 3.85c-.07.01-.15.02-.22.02-1.78 0-3.3-2.45-3.3-5.35s1.5-5.35 3.3-5.35a2.01 2.01 0 0 1 .69.13 125.81 125.81 0 0 1-.47 10.55zm1.47-9.9c.95.95 1.6 2.66 1.6 4.56 0 2.18-.85 4.1-2.02 4.93.26-3.05.4-6.7.43-9.5zm3.68-13.35c-.13.45-.36.83-.52 1.22-.23.36-.4.72-.65 1.05-.25.3-.47.65-.74.94-.28.28-.54.58-.86.85-.2.05.07-.23.4-.6a5.72 5.72 0 0 1-.88.75c-.06-.1.5-.43.74-.7-1.12.74-2.2 1.83-3.83 2.2l-.3.2-.1.02c.02.05-.3.22-.55.28-.25-.05-.04-.23-.83-.05-.64.01-1.8.32-2.64.37.46.01.3.07.12.1-.4.01-.65-.08-.97-.05l-.04-.14c.16.13-1.08.1-1.23.13-.22-.12.64-.03.75-.12-1.64-.1-.82-.02-2.45-.24-.88-.06.13.16-.3.2-.77-.12-1.55-.2-2.4-.55l.24.2a11.33 11.33 0 0 1-3.15-1.24l-3.17-1c-.8-.22-1.4-.28-1.6-.15-.05.04-.13.13-.2.2 0-.07.01-.13.03-.18.02-.07.04-.13-.05-.14-.06-.02-.2-.03-.37.15-.16.17-.27.55-.2 1.02.07.5.4 1 .62 1.6.25.6.53 1.34.73 2.2l-.07-.07c.33 1 .38 1.76.4 2.53.02.76 0 1.45-.02 2.18-.26.18-.38 1.7-.67 2.1v-.05a2.95 2.95 0 0 1-.87 1.55c-.42.4-.9.66-1.36.92.03-.04.03-.1.24-.2-.32.18-.78.3-1.07.3-.06 0-.1-.01-.12-.02-.1-.03-.2-.06-.3-.1-.16-.05-.23-.08-.25-.12-.26-.04-.47-.1-.58-.16-.06-.03-.1-.06-.12-.1-.03-.04-.14-.2-.24-.33-.4-.6-1.06-1.18-1.7-1.5-.65-.35-1.3-.54-1.86-.66-.57-.13-1.14-.14-1.55-.1l.1-.03c-.93.17-1.24.08-2.2.5-.06 0-.13.02-.12.01a20.35 20.35 0 0 1-.68.41c-.13.07-.25.16-.38.25l-.2.14c-.12.1-.23.18-.32.28-.1.2-.13-.07-.18-.12-.02-.04-.04-.08-.06-.1l.05-.13-.18-.38-.35-.82.23.62c-.33-.1-.37-1.3-.9-2.44-.32-1.14-1.2-2.2-1.3-3.47-.22-.57.3.48.05-.38.13-.05.15.4.23.15-.2-.85-.07-1.42-.22-2.47l.1-.05c-.26-1.38.27-2.54.28-3.46.1-.7.26-.9.4-1.13s.24-.44.4-1.15l.35-.46c.28-.54.01-.48.4-1.05.05.07.5-.7.37-.3.9-1.17 1.7-2.54 3.72-2.97.35-.33 1.36-.48 1.66-.66.06.02 2.03-.23.9.05-.1.02-.27.04-.26.01l-.12.13a8.7 8.7 0 0 0 1.16-.05c.2-.02.34-.04.57-.05.37-.01.75.01 1.1.03.15-.26.3-.52.46-.77l.22-.34.14-.2-.17.2a7.51 7.51 0 0 0-.23.32c-.13.18-.17.22-.05-.04l.4-.58.32-.44-.06.24c.33-.43.67-.85 1.02-1.2-.07.02-.15.05-.22.08.27-.26.48-.38.65-.47.26-.15.5-.33.8-.64.27-.3-.68.3-.04-.2.84-.52 2.34-.97 3.62-1.22-.14-.1.2-.17.54-.25l.06.1c.67-.17.8-.1.93-.04s.25.1.92.07l-.12.07c.12-.07.24-.15.37-.2.63-.06.8.02.97.1s.36.13 1.08.14c-.54-.1-.2-.3.46-.08l-.2.06c.37.08.5.07.74.17-.23-.01-.16.1.37.27l-.4.01a10.21 10.21 0 0 1 1.06.18c.72.42 2.07.84 2.35 1.1a15.55 15.55 0 0 0 .96.37c.52.18 1.13.3 1.4.27-.44.02.7.27.36.33.28-.01.85 0 1.43-.07a9.46 9.46 0 0 0 1.52-.3l-.12.06a4.37 4.37 0 0 0 1.21-.58 4.88 4.88 0 0 0 .49-.38c.08-.07.04-.05.07-.08a.81.81 0 0 0 .06-.13c.02-.07.06.01.1.02.04.03.07.08.1.13l.1.23c.03.12.05.23.08.36.12-.1.25.77.36.52a3.19 3.19 0 0 1 .12.6c.02.22.02.35.02.75 0 .36.04.7.17.97s.38.5.64.6.55.14.83.15c.13 0 .26-.01.4-.01l.24-.02c.36-.05.63-.17.8-.35.94-.3 1.13-.28 1.6-.46l-.2.12a3.72 3.72 0 0 1 .4-.2c.04-.03.08-.05.12-.08.07-.05.14-.1.2-.13.1-.01.15.16.2.24.03.05.04.1.08.16.07.13.1.28.18.43.22.5.52.52.62 1.55-.14-.3-.05.1-.04.47-.02-.24-.05-.3-.1.18.03.07.05.17.07.27-.01 0-.01.02-.02.01-.02.62.01.52.06.23.01.02.03-.01.07-.1-.14.66-.37 1.8-.57 1.82zm134.2 190.68l.01.1-.01-.1z"/><path xmlns="http://www.w3.org/2000/svg" d="M377.6 413.66c-.74-2.32-2.22-6.25-4.5-8.65-2.86-3.02-29-5.6-36.47-6.23-1-.04-1.9.42-2.4 1.27l-4.08-9.33-27.52 8.8 5.76 14.75c-.25.22-.4.55-.4.97-.1 2.84.4 9.14 4.65 18.12.54.93 1.63 1.48 2.7 1.13l60.9-18.32c1.06-.36 1.6-1.45 1.35-2.52zm-39-39l-.74-1.76-2.7.92-66.96-167.76h-74.4c.06 4.86 1.05 12.88 5.4 23.75a4.22 4.22 0 0 1-.04.33c-2.68 23.5-6.6 55.43-9.35 66.22-2.54 9.92-36.36 62.82-36.36 62.82l-1.56-.82-5.68 8.1c-1.3 1.8-.8 4.3 1 5.5l7.4 4.96-8.14 12.6c-.37-.22-.86-.24-1.28 0-2.4 1.4-7.6 5.2-13 13.5-.5 1.1-.3 2.2.5 3l30.17 28.42 34.52.1c.3-4.5.4-7.53-1-9.13-5.3-6.1-16.6-8.5-16.6-8.5l-5.6-11.6c-.34-.68-.96-1.1-1.66-1.3.06-.01.1-.01.1-.01l7.28-10.17 3.18 2.13c1.8 1.2 4.3.8 5.6-1l5.72-8.2-1.75-1.35s26.25-33.75 32.43-43.06c8.52-12.9 14.43-20.17 19.87-34.55l21.5 37.57c7.38 13.97 24.44 43.85 24.44 43.85l-3 1 4.5 8.62c1 1.9 3.2 2.8 5.3 2.1l41-13.5c4.76-2.36 1.02-10.3-.08-12.8zM167.23 404.2c.13 0 .25.01.38.01-.13 0-.25-.01-.38-.01zm-.78-.03c.1 0 .2.01.28.01-.1 0-.18-.01-.28-.01z" fill="#fff"/><path xmlns="http://www.w3.org/2000/svg" d="M202.5 207.3h0l-.54.1zm9.34 57.66l-.01-.1c-.5 1.83-.78 3-.94 4.3-.22.16-.37 1.5-.53 1.93v-.04c-.13 1.16-.65 2.3-.8 3.4 0-.05-.04-.08.01-.33-.16.8-.38 1.9-.5 1.92l-1.2 5.77-.01-.1c-.06.7-.2.9-.32 1.68-.02.04-.04.1-.05.08-.07.78-.5 2.2-.6 2.82h-.07l-.33 1.5.14-.56c.13.24-.38 1.1-.5 2.22-.26 1-.1 2.15-.44 3.18-.03.52-.03-.47-.14.3-.1 0 .02-.36-.1-.2-.13.75-.38 1.2-.53 2.1h-.08c-.14 1.22-.62 2.22-.68 3.04-.23 1.24-.4.77-.56 2.08l-.2.47c-.14.54.03.42-.16 1-.05-.05-.23.75-.2.4-.42 1.35-.5 2.8-1.1 4.58.03.42-.25 1.33-.26 1.58-.01.02-.68 1.66-.4.68.02-.08.1-.22.1-.2l-.02-.14c-.5.87-.68 1.73-1.18 2.64.16-.26.35-.63.27-.36l-.45.85.04-.2-.7 1.25.16-.14c-.38.6-.6.75-.9 1.5-.13.34.42-.53.07.13l-1.93 3c.13-.05-.04.22-.2.52l-.08-.01c-.57 1.15-.38.32-.97 1.45v-.12l-.04.37c-.47 1.05-.46.45-.95 1.64.25-.44.26-.12-.1.4l.02-.17c-.17.3-.2.4-.34.6.08-.2-.03-.15-.3.3l.1-.33-.4.88-1.24 1.83s-.9 1.3-1 1.68c.1-.3-.38.42-.3.16-.15.4-.75 1.45-1.08 1.8l.04-.08-2.53 3.94c.1-.01-.4.67-.18.56-.82 1.46-1.85 2.42-1.9 3.12-.4.64-.56.7-.8 1.03l.08-.16-1.57 2.43c-.26.46-.18.62-.73 1.38.12-.3-.1.04-.28.33.12-.2.14-.26-.16.1-.02.07-.07.16-.1.24-.01 0-.02.01-.02 0-.3.5-.23.43-.08.2 0 .02.02 0 .08-.06-.4.47-.94 1.43-1.07 1.43l-2.36 3.86c-.14.1.01-.2.23-.58l-.57.88c-.06-.05.3-.53.46-.8-.8.96-1.32 2.2-2.24 3.36l-.12.3-.06.07c.03.02-.1.3-.23.5-.17.13-.13-.1-.53.5-.38.44-.88 1.37-1.27 2 .24-.33.2-.2.12-.04-.2.3-.38.43-.5.68l-.1-.02c.15-.07-.45.84-.5.97-.17.13.27-.5.27-.6l-1.2 1.8c-.38.68.15-.07.01.3l-1.18 1.78.2-.16c-.67 1.1-1.1 1.73-1.67 2.4-4.84 8.3-.37 2.2-.37 2.2 2.28-3 3.17-4.76 5.63-8.5 2.24-3.25 2.96-4.02 5.18-7.46l3.25-4.97c.4-.83 1.38-2.1 1.88-3.04l.3-.3c.17-.33.4-.7.63-1v.03c.26-.5.62-1 .75-1.24v.03l.36-.57-.04.1c.48-.84 1-1.67 1.5-2.4h-.1c1.1-1.5 1.3-2.2 2.32-3.54v.03c.95-1.92 1.94-2.75 2.93-4.73-.12.25.1-.08.1-.05.52-.87 1.07-1.8.94-1.9.4-.62.36-.48.47-.53-.07-.04.24-.6.54-1.1l-.1.24.84-1.42-.3.2c.5-.72.26-.1.67-.83l-.1-.05c.65-1.02 1.16-1.54 1.83-2.5 1.25-2.1 2.46-4.32 3.5-6.62.24-.6.5-1.17.66-1.83l.4-1.78a70.08 70.08 0 0 1 .87-3.4l.13-.17c.15-.06.1-1.26.25-1.4l.06-.53c.06-.14.15-.44.12-.18.12-.47.1-.5.14-.84l.2-.5c.5-1.85.72-3.48 1.2-5.44.7-2.33 1.6-6.8 2.1-9.4.65-3.64 2.13-7.72 2.78-11.45.05-.12.08-.44.06-.44l.8-3.37c.03.03 3.9-16.32-.04-4.13z"/><path xmlns="http://www.w3.org/2000/svg" d="M378.56 413.47l-.14-.54-.14-.48-.32-.97c-.24-.66-.55-1.35-.98-2.08.22.37-.01-.2.04-.18-.67-1.4-1.6-2.85-1.87-2.7-.64-.96-.47-.82-.46-1-.04.04-.24-.13-.5-.4-.26-.26-.55-.62-1.05-.97.14.08.3.2.44.3-.86-.72-1.66-.94-2.48-1.25l.4.4c-1.24-.5-.23-.4-1.47-.73l-.04.2-4.44-1.55c-7.2-1.5-15.02-1.88-21.72-2.94l-.28-.18c-.1-.23-1.9.13-2.13-.1l-.8.02c-.22-.06-.68-.14-.28-.16-.72-.08-.75-.04-1.27-.03l-.77-.2-1.06-.12-.54-.05c-.26-.01-.48 0-.7.04a3.57 3.57 0 0 0-1.77.77l-.1-.2.13.14-.5-1.23v.2c-.22-.6-.2-.87-.6-1.5-.2-.28.15.6-.14-.01l-1.17-3.06c-.04.13-.15-.15-.3-.42l.05-.06c-.28-.52-.3-.63-.3-.75 0-.06 0-.12-.04-.22-.02-.05-.04-.12-.08-.2s-.1-.2-.14-.3l2.58-.86 5.04-1.7c2.1-.75 3.07-2.94 3.08-4.6.08-1.7-.3-3.17-.67-4.4a24.08 24.08 0 0 0-1.2-3.04c-.75-1.57-1.18-2.25-1.08-1.73.05.26.24.83.55 1.77.3.94.76 2.24 1.1 4 .17.88.3 1.88.24 2.97-.06 1.08-.38 2.28-1.3 3.1-.2.23-.5.36-.77.53-.15.1-.2.1-.4.17-.18.05-.35.1-.53.16l-2.25.66-5.06 1.5.37-.17c-8.6 2.7-13.98 4.46-19.8 6.62-1.02.03-7.04 2.3-9.07 2.86l.18-.08a113.92 113.92 0 0 1-3.94 1.37c-.7.23-1.22.42-1.8.4-.58.01-1.14-.14-1.65-.4-.5-.27-.93-.64-1.25-1.1-.28-.4-.6-1.14-.92-1.72-.63-1.22-1.27-2.42-1.93-3.57.12.17.24.24.8 1.3l-2.2-4.14.3-.07a12.81 12.81 0 0 0 2.01-.66l.83-.26a.3.3 0 0 1-.04-.08l1.6-.67c1.73-.56 2.24-.57 4-1.25.85-.28 1.74-.64 2.57-.95.35-.26 1.1-.38 1.52-.65h.2c.15-.1.33-.18.5-.2v.02c.22-.14.5-.2.6-.27v.02l.3-.1-.04.05c.4-.2.83-.36 1.22-.46l-.06-.07c.84-.2 1.08-.47 1.85-.62v.02c.85-.54 1.52-.37 2.4-.9-.1.07.07.02.06.05.43-.18.9-.35.85-.52.32-.1.28-.04.34.01-.03-.07.24-.2.5-.3l-.1.07.7-.28-.2-.08c.4-.1.15.13.5-.03l-.04-.1c.53-.16.9-.1 1.44-.2 2.13-.7 4.3-1.77 6.34-2.27l.12.05c.08.1.48-.37.6-.28l.2-.14c.07 0 .22-.03.1.04.2-.07.2-.1.35-.18h.25c.86-.23 1.5-.63 2.4-.9 1.1-.22 3.05-1.05 4.16-1.54 1.54-.75 3.6-.92 5.16-1.7a.37.37 0 0 0 .18-.1l1.5-.5s6.82-2.35 1.98-1.66c.07-.03.14-.06.2-.08l1.55-.6.46.97.37.76c.2.37.34.66.47.87.24.42.35.54.36.43s-.08-.46-.25-.97c-.04-.13-.1-.27-.14-.4-.03-.07-.05-.15-.08-.23l-.12-.33-.72-1.87-2.23.7-.17.05h-.04-.07l-.12.02c-.03-.1-.02-.12-.07-.27l-.47-1.25-.85-2.25-.86-2.24c-6.35-16.73-10.15-25.16-18.15-44.9l-15.76-40.1-10.5-26.14c-1.8-3.9-4.4-11.03-6.46-15.7l-.62-1.87c-.7-1.6-1.5-3.5-2.1-5.16l.07.1c-1.05-2.4-2.1-5.16-2.62-6.35l.07.1-1.2-2.95.25.5c-1.78-4.2-3.53-8.56-5.02-12.43l-.01.37-1.3-3.34-1.37-3.44-7.02.05a228.74 228.74 0 0 1-7.14-.06l.1-.04c-10.1.38-15.97-.26-26.4.1 1.3-.05-.56-.07-.45-.1-4.8.04-9.92.06-10 .35-3.5 0-2.85-.1-3.3-.2.02.12-3.02.18-5.74.18l1.26-.05-7.82.04 1.54.24c-4.15-.07-1.05-.3-5.02-.23l.05.2-2.05-.03-1.96-.05-1.3-.03-.33-.01c-.05.01-.12-.02-.15.01v1.97l.01.5v.43c.06 2.3.22 4.56.7 7.33.9 4.57 2.3 9.1 4 13.5l-4.15 36.43c-1.08 7.82-1.9 12.75-2.74 17.73l-1.43 7.86-1 4.57c-.22.8-.53 1.53-.8 2.36l-1.17 2.6c-3.4 6.92-7.57 14.16-11.4 20.74-1.66 3.22-5.12 8.6-7.2 12.35l-.97 1.36c-.7 1.3-1.6 2.8-2.43 4.02l.02-.1c-1.08 1.93-2.44 4-2.98 4.97l.02-.1-1.4 2.28.2-.42c-1.96 3.3-4.06 6.68-5.97 9.6l.28-.17-1.42 2.17c-.08.12-.15.23-.23.34 0 .02-.06.04 0 .06l-.38-.2-.22-.12h-.03l.3.15-.93-.48c-.1-.05-.2-.12-.3-.15l-.13.18-.97 1.4-3.23 4.7-1.2 1.7-.68.94c-.3.4-.52.86-.68 1.36v-.12c-.37 1.32-.16 2.65.4 3.7a4.93 4.93 0 0 0 1.09 1.38c.2.2.48.37.66.5l.57.38 4.28 2.94 2 1.4.96.66c1.9 1.3 3.95 2.66 6.4 4.15-.94-.57.35.32.26.3 3.4 2.22 7 4.6 7.2 4.4 2.45 1.64 1.95 1.4 2.2 1.7.06-.1 2.22 1.27 4.13 2.54l-.9-.55 5.16 3.4c-.85 1.2-1.7 2.4-2.56 3.47l-.18.1c-.15-.01-.5 1.04-.7 1.1l-.23.43c-.1.1-.28.3-.17.1-.26.36-.25.38-.4.66l-.34.34-.32.44c-.06-.18-.2-.45-.47-.84l.03-.01c-.3-.28-.5-.44-.8-.47.06-.17-.26-.2-.3-.3h.02c-.28-.03-.36-.37-.62-.4.02-.01.05-.04.1-.01-.16-.08-.37-.18-.33-.27-.36-.2-.8-.57-1.12-.58l.03-.01c-.2.01-.17-.1-.34-.14 0-.02-.01-.03 0-.03-.2 0-.4-.25-.54-.3l.03-.06-.28-.17.1.08c-.14.13-.14-.23-.4-.27-.17-.14-.6.07-.73-.14-.14.01.16-.06-.01-.1.05-.08.1-.01.1-.1-.16-.05-.16-.23-.37-.3l.03-.07c-.3-.03-.35-.35-.57-.34-.26-.1-.02-.28-.34-.32l-.03-.14c-.1-.08-.14.05-.22-.06.04-.05-.1-.14-.01-.14-.2-.25-.58-.22-.8-.58-.14.05-.26-.12-.37-.08.02-.05-.32-.23-.07-.2.02 0 .05.02.03.04l.06-.05c-.1-.24-.38-.16-.55-.3.04.06.12.1.04.1l-.17-.12.07-.03-.23-.2v.1c-.1-.12-.07-.25-.28-.26-.1.01.06.17-.08.1-.14-.16-.34-.4-.54-.55-.03.08-.08.04-.15.02l.03-.07c-.28-.07.01-.2-.26-.27l-.1.06c-.3-.01-.02-.2-.36-.2.1.05-.05.16-.14.06l.07-.04c-.07-.03-.1-.02-.14-.06.06-.01.08-.07-.02-.12l.1-.03h-.2c-.1-.15-.35-.2-.34-.33 0 0-.25-.23-.38-.18.1-.02-.04-.15.04-.18-.12.02-.37-.07-.4-.2h.02c-.27-.28-.6-.27-.83-.55-.04.08-.16-.06-.18.06-.35-.1-.4-.55-.7-.34-.14-.07-.1-.17-.17-.23l.04.01c-.27-.15-.34-.2-.52-.32-.1-.03-.22.1-.36-.06.1-.02.01-.05-.05-.1.05.02.07.01.01-.08-.02.01-.05.01-.07 0-.1-.06-.1-.03-.06.01-.01.01-.01.02-.01.04-.06-.14-.3-.2-.26-.3-.33-.2-.6-.25-.9-.4 0-.07.1-.07.18-.03l-.2-.1c.05-.07.13.03.2.06-.15-.26-.53-.2-.72-.47l-.1.02-.01-.02c-.02.03-.1.03-.15.01 0-.08.1-.13-.04-.2-.06-.12-.3-.16-.46-.22.06.06.02.07-.02.07-.06-.04-.06-.12-.13-.13l.05-.08c-.02.1-.22-.03-.27-.02 0-.08.13.02.18-.02l-.4-.25c-.18-.03-.03.1-.14.12-.13-.07-.3-.1-.4-.23v.1c-.26-.1-.4-.2-.5-.37-2.07-.57-.88.53-.88.53.56.6 1.04.63 1.87 1.1.67.5.76.76 1.52 1.2.34.24.72.46 1.07.67.23 0 .44.3.7.33l.03.1c.1.01.18.04.22.12l-.02.01c.13.02.22.12.28.13l-.02.01.12.07-.04.01a1.5 1.5 0 0 1 .52.31l.04-.08c.27.3.5.23.73.53h-.02c.5.06.5.53 1 .6-.06-.01 0 .05-.02.07.2.1.4.22.5.08.13.1.08.12.06.18.04-.06.17-.01.27.05h-.06l.3.17.02-.16c.13.14-.06.17.1.24l.06-.1c.2.16.23.4.38.6.83.62 1.9 1 2.6 1.7l-.01.1c-.06.12.33-.01.3.1l.13.01c.01.04.05.1-.01.1.08.06.1.05.18.06l.05.13c.3.28.68.34 1 .6.34.42 1.22.84 1.74 1.08.76.28 1.23 1.2 2.02 1.48.01.03.1.03.1.02l.6.43s1.02.7 1.5.8l-.9 1.3c-.14.2-.28.4-.42.62-.57-.1-1.15-.1-1.65.02a15.16 15.16 0 0 1-2.1.23c-1.77-.03-4.32-.2-6.8-.9-2.5-.65-4.86-1.88-6.45-2.97-1.64-1.07-3.2-2.5-4.56-4.13-1.34-1.64-2.46-3.42-3.07-5.37-.08-.3-.24-.58-.43-.82l.8-1.08c1.7-2.34 2.52-3.87 4-6.34l-1.37.07c-.04.06-.07.12-.12.2-.33.64.15-.06.03.27-.32.54-.6 1.1-1.04 1.66l.2-.15c-.58 1.02-.98 1.6-1.48 2.23-.67 1.24-1.13 2.12-1.43 2.75a2.29 2.29 0 0 0-.64-.33 2.28 2.28 0 0 0-1.1-.05c-.35.05-.76.28-.97.42-.76.47-1.46 1-2.12 1.55a2.21 2.21 0 0 0-.51.47c-1.43 1.1-2.76 2.34-4 3.63 0 0-1.15 1.17-2.5 2.83-.67.83-1.4 1.78-2.06 2.75-.33.5-.67.97-.96 1.45l-.44.7-.2.34a1.68 1.68 0 0 0-.23.49 3.24 3.24 0 0 0-.12 1.7 2.67 2.67 0 0 0 .54 1.16c.45.52.74.6.7.4 0-.2-.5-.8-.4-1.9a2.48 2.48 0 0 1 .26-.86 1.32 1.32 0 0 1 .28-.4l.4-.48a73.12 73.12 0 0 1 1.69-1.95c.26.4.75 1.07 1.56 2.06l-.06-.02c.84.9 1.38 1.43 2.1 1.9-.02.22.7.7.88.94l-.03-.01c.63.42 1.03 1.14 1.64 1.55-.03-.01-.07.01-.2-.1.4.34.94.8.9.9.92.84 2.15 2.08 2.84 2.5h-.06c.4.24.44.4.85.7.01.03.03.06.02.06.43.26 1.06 1 1.38 1.23l-.03.07.73.67-.26-.27c.22-.05.46.6 1.06 1 .47.48 1.25.66 1.7 1.2.3.17-.3-.1.1.2-.05.08-.2-.12-.17.03.38.3.5.62 1 1l-.03.07c.66.44 1 1.1 1.47 1.36.63.5.24.54.95 1l.17.3c.25.26.27.1.53.4-.06.03.33.4.12.27.6.7 1.43 1.16 2.18 2.1.27.1.66.56.86.62-.01.06.86.84.3.46-.05-.03-.12-.1-.1-.12h-.1c.4.57.95.8 1.42 1.28-.13-.16-.32-.33-.16-.25l.45.44-.14-.04.65.67-.04-.14c.3.34.33.55.78.82.2.12-.24-.37.12-.06a7.37 7.37 0 0 0 .84.82 8.02 8.02 0 0 0 1.07.72c-.03-.1.17-.01.37.08l-.01.08c.8.28.2.3 1.02.57l.18-.04c.76.15.32.3 1.2.4-.32-.1-.1-.2.28-.04l-.12.03c.22.06.3.05.44.1-.14 0-.1.08.22.17l-.24.02.65.05c.46.2 1.26.26 1.47.37a6.52 6.52 0 0 0 .6.05c.28 0 .6 0 .7-.06-.2.06.36.1.2.18.26-.07 1.05-.12 1.36-.03l-.06.01c1.16.1 1.98-.1 3.02.03-.05-.1.5-.03.37-.15 1.08-.1 1.96.25 2.35-.1.5-.01.58.1.83.1h-.12c.92-.02 1.18-.02 1.86-.01.34-.03.4-.2 1-.15-.2.06.05.05.28.05-.15.01-.2.03.1.08.04-.02.1-.03.17-.04 0 .01.01.01.01.02.38-.02.3-.04.14-.05.01-.01-.01-.02-.06-.04.4.1 1.1 0 1.15.1 1.14-.02 1.96-.12 2.9-.16.1.06-.12.1-.4.12l.67-.02c-.01.08-.4.04-.6.06.8.14 1.66-.12 2.6.01l.2-.06.06.01c0-.03.2-.08.35-.1.13.07-.01.16.46.16.37.07 1.05-.03 1.53-.06-.26-.01-.18-.05-.06-.08.23 0 .37.07.55.04l.02.1c-.1-.1.6-.1.7-.13.13.07-.36.06-.42.1h1.4c.5-.07-.1-.1.15-.17.44-.02.87-.08 1.37-.02l-.16-.08c.83-.06 1.32-.05 1.88.05l1.85-.22c0 .13-.03.2-.05.28-.06.17-.1.32-.01 1.23l-.1-.16.27.48c.22 1.7-.26.9-.01 2.83.01-.38.08-.47.14-.34.03.06.06.18.06.34v.25c0 .04 0 .1-.01.14-.04-.05-.07-.1-.1-.12.01.18.06.3.02.4-.03-.1-.07-.13-.1-.13-.01.02-.08.01-.2.02.02-.05.02-.1 0-.15 0 .04-.03.08-.07.1-.02.02-.05.04-.08.06-.02.01-.02.02-.06.03l-.18.03c-1.12-.12-2.9.04-3.37-.13 0 0-2.42-.1-2.97.1.5-.1-.85-.16-.47-.3-.63.13-2.48.23-3.22.1h.14c-2.74-.15-4.7.18-7.15-.01.1.14-1.2.06-.87.25-2.55.17-4.64-.4-5.56.17-1.16.02-1.37-.14-1.97-.17l.28-.03-4.4.02c-.8.05-.93.32-2.37.24.5-.1-.17-.1-.6-.1.07-.01.26-.02.2-.04-.01-.01-.05-.02-.14-.04-.04-.01-.1-.03-.17-.05-.05.05-.12.04-.17 0 0-.01 0-.02.01-.03-.04-.03-.07-.05-.1-.08-.06-.05-.1-.1-.15-.13a.5.5 0 0 0-.14-.1c-.03 0 .07.1.22.25-.03 0 0 .05.02.1-.5-.67-1.88-1.76-1.82-1.95-2-1.83-3.54-3.02-5.22-4.5-.12-.24.32.06.82.48l-1.2-1.07c.1-.1.72.57 1.1.9-1.24-1.46-3-2.53-4.5-4.2l-.4-.24-.08-.1c-.03.05-.45-.24-.7-.46-.15-.3.2-.18-.6-.93-.56-.68-1.85-1.66-2.72-2.4.44.44.25.35.02.2-.4-.38-.56-.68-.9-.93l.07-.15c.06.26-1.16-.87-1.35-.97-.15-.3.7.5.85.55l-2.43-2.26c-.94-.72.05.26-.45-.03-.78-.7-1.6-1.3-2.4-2.2l.18.36c-1.5-1.27-2.34-2.08-3.2-3.1-11.4-9.18-3.3-.98-3.3-.98 3.97 4.17 6.4 5.9 11.47 10.52 4.33 4.18 5.3 5.47 9.92 9.66l3.32 3.1 1.68 1.54 1.08 1 .2.18c.07.04.17.01.26.02h1.2c1.38-.2 3.82.02 5.45-.15l.63.12c.56-.06 1.22-.1 1.8-.03l-.04.03c.84-.1 1.8-.03 2.2-.07l-.04.03h1.02l-.18.05c1.47-.1 2.98-.1 4.3-.04l-.1-.15c2.85.18 3.9-.12 6.46.08l-.04.04c3.25-.37 5.13.28 8.48-.08-.42.05.18.07.15.1.77-.02 1.57-.04 2.18-.1 1-.03 1.6-.22 1.5-.33.1-.01.2-.01.28-.02.04-.01.1.01.1-.02l.02-.1a6.71 6.71 0 0 1 .06-.36c.03-.2.06-.3.1-.38.05-.14.1-.1.16-.2-.06.01-.07-.5-.08-.9a18.77 18.77 0 0 1 .02-1.27l.03.4c.03-.85.04-1.7.01-2.57l-.23.5c.04-1.36.3-.35.16-1.68l-.2.03c-.07-.95-.13-1.74-.38-2.55a4.36 4.36 0 0 0-.57-1.2 26.87 26.87 0 0 0-.8-1.04c-1.1-1.08-2.33-2.05-3.66-2.84-1.3-.82-2.7-1.5-4.1-2.1a45.58 45.58 0 0 0-4.26-1.58c-.7-.23-1.43-.44-2.14-.64l-1.07-.3-.7-.17-.8-1.74-.9-2.06v-.34c.14-.2-1.1-1.58-1.05-1.9l-.44-.68c-.06-.22-.23-.67-.02-.33-.32-.67-.35-.67-.65-1.13l-.23-.78a49.97 49.97 0 0 0-.91-1.93l-.23-.46c-.1-.2-.25-.43-.4-.6a3.59 3.59 0 0 0-1.12-.9c-.01 0-.02-.01-.03-.01l.44-.57c.3-.38.57-.7.74-1.05.62-.97.63-.5 1.2-1.56l.35-.32c.3-.4.1-.37.5-.8.03.07.46-.56.32-.25.83-1 1.4-2.2 2.54-3.5.05-.18.2-.42.37-.66.32.3.02.2 1.84 1.37l.07-.2c.5.33.95.7 1.54.97.57.26 1.16.4 1.74.44a4.88 4.88 0 0 0 3.2-.94c.23-.16.43-.36.63-.56l.28-.32.22-.28.9-1.16 1.96-2.57 3.38-4.83-1.7-1.32 7.35-9.62 7.9-10.48 15.1-20.17.58-.58c.4-.18 2.54-4.34 3.08-4.8l1.1-1.8c.36-.47 1.1-1.48.55-.58 1.1-1.6 1.1-1.67 1.83-2.87l1.28-1.67c2.8-4.05 5.14-7.86 7.33-12.04l-.1-3.2-.18.08c-2 4.44-4.62 7.9-6.2 10.74-2.67 4.26-2.16 2.6-4.9 7.1l-1.28 1.6c-1.28 1.85-.73 1.45-2.2 3.48 0-.18-1.82 2.57-1.1 1.3-3.27 4.5-6.44 9.4-11.12 15.17-.8 1.4-3.16 4.32-3.76 5.37-.2.1-4.55 5.95-2.16 2.5.2-.3.6-.8.6-.75l.2-.47c-2.75 3.23-4.57 6.2-7.15 9.5.8-.96 1.8-2.28 1.18-1.35l-2.4 3.08.4-.7-3.6 4.56.6-.55c-1.8 2.2-2.57 2.86-4.4 5.5-.67.94.13-.02.36-.26.16-.18.3-.32.27-.27-.01.03-.06.1-.17.24-.12.17-.3.4-.57.76l-.5.6a4.02 4.02 0 0 0-.82-.43c.02-.2-.57-.4-.7-.56h.02c-.5-.18-.82-.7-1.3-.87.02 0 .06-.03.16.03-.3-.18-.75-.43-.7-.53-.73-.46-1.7-1.18-2.26-1.35h.05c-.32-.1-.35-.22-.67-.37-.01-.02-.03-.04-.02-.04-.35-.1-.84-.55-1.1-.67l.02-.07-.58-.37.2.16c-.18.1-.37-.4-.85-.56-.37-.28-1-.2-1.35-.56-.24-.06.25 0-.08-.14.04-.1.17.04.14-.07-.3-.15-.4-.4-.8-.57l.03-.07c-.53-.2-.8-.66-1.17-.75-.5-.26-.2-.4-.76-.6l-.13-.2c-.2-.15-.22 0-.42-.2.05-.04-.26-.24-.1-.2-.47-.43-1.14-.6-1.73-1.2-.22 0-.52-.3-.7-.3.01-.06-.7-.47-.23-.3.04.01.1.06.08.07l.1-.03c-.3-.38-.75-.42-1.13-.7.1.1.26.2.13.17l-.35-.25h.1l-.52-.4.03.1c-.24-.2-.26-.38-.62-.5-.17-.04.2.25-.1.1-.32-.28-.8-.7-1.24-1.02-.01.1-.12.02-.26-.05l.03-.07c-.53-.23-.08-.25-.6-.5l.07-.02-.2.05c-.5-.16-.14-.28-.73-.43.2.12 0 .2-.22.01l.1-.02c-.14-.07-.2-.08-.27-.15.1.02.1-.06-.1-.18l.18.01-.43-.13c-.23-.25-.72-.46-.77-.62 0 0-.56-.44-.76-.44.16.02-.15-.22-.02-.22-.2-.04-.68-.3-.82-.48l.04.02c-.62-.52-1.2-.67-1.74-1.16-.02.1-.3-.16-.3-.02-.68-.33-1-.95-1.42-.8-.3-.17-.3-.3-.42-.4l.08.03a14.92 14.92 0 0 1-1.08-.7c-.2-.1-.33.01-.66-.26.15.02 0-.06-.13-.15.1.05.13.05-.02-.1-.04 0-.08-.02-.12-.03-.23-.15-.2-.1-.1-.03-.01 0-.01.02.01.06-.18-.22-.64-.42-.6-.53-.67-.42-1.2-.64-1.77-.98-.03-.1.13-.04.3.05l-.4-.24c.05-.06.25.1.38.18-.4-.42-1.03-.53-1.5-1l-.15-.02-.03-.03c-.02.03-.16-.01-.25-.06-.04-.1.1-.13-.18-.3-.17-.2-.62-.38-.92-.53.14.1.07.1-.01.1-.14-.1-.17-.2-.3-.24l.04-.1c0 .1-.4-.16-.48-.16-.04-.1.24.1.3.07l-.8-.53c-.33-.13 0 .1-.18.1-.26-.16-.55-.27-.8-.5l.05.13a4.74 4.74 0 0 1-.4-.23l.87-1.36 1.3-1.98c-.28.17 1.6-2.67 1-2.06 3.42-5.76 6.8-10.15 7.58-12.5 1.57-2.6 2-3 2.86-4.33l-.35.63 6-9.93c1.05-1.84 1-2.26 2.97-5.5-.53 1.1.24-.23.96-1.45-.45.8-.56 1.05.45-.52.1-.24.3-.6.47-.94.02-.01.06-.07.05-.03 1.16-2.07.92-1.73.36-.78.01-.06-.05.01-.25.3 1.37-2.05 3.42-5.94 3.7-6.1l2.4-4.4c.74-1.4 1.43-2.7 2.05-4.03.63-1.32 1.28-2.57 1.82-3.9l.86-1.98.72-2.13c.3-.63-.05.76-.66 2.43.5-1.35 1.02-2.74 1.27-4.12.06.03-.06.63-.23 1.38-.24.75-.58 1.65-.8 2.3 1.12-2.43 1.45-5 1.94-7.65l1.4-8.3.1-1.22.07-.34c-.06.01.06-1.3.17-2.17.24-.8.26.1.68-2.78.44-2.26.86-6.47 1.2-9.46-.23 1.6-.23 1.08-.18.38.2-1.44.4-2.25.5-3.37l.14-.1c-.1-.22.37-3.86.37-4.35.22-.8-.2 2.25-.15 2.62l1.08-8.66c.26-3.1-.22.54-.17-.95.3-2.72.52-5.4 1-8.5l-.26.97c.5-5.13.87-8.18 1.4-11.62l.08-1c.05.1.1.2.13.3 2.37 5.47 5.2 10.74 8.3 15.8 3.1 5.07 6.45 9.82 9.5 14.64l4.48 7.16 4.2 7.02.37.88c.04.46 3.34 4.9 3.58 5.7l1.37 2.1c.33.62 1.05 1.9.37.87 1.18 2 1.23 2.02 2.13 3.42l1.15 2.2 10.43 17.68 2.95 5.12c2.75 5.06 6.85 12.27 11.05 19.57l6.26 10.73 14.78 26.5 9.17 16.7-.3.1-2.68.9 3.6 6.88 1.5 2.83a5.37 5.37 0 0 0 2.89 2.48 4.15 4.15 0 0 0 1.5.3c.27.02.52-.01.7-.02l.28-.05c.4-.04.82-.15 1.18-.27l.98-.32 1.95-.64 1.44-.47 1.26-.33.02-.02s-.01 0 .1-.04c1.7-.53 3.5-1.15 5.16-1.7.62-.3 1.7-.6 2.58-.9l.66-.22.22-.03a4.91 4.91 0 0 1 1.02-.35l-.01.03c.46-.2 1.02-.35 1.25-.45l-.01.03.58-.2-.1.06a28.18 28.18 0 0 1 2.45-.82l-.05-.04.92-.3c.16-.05.3-.1.44-.15l1.85-.6c.14-.04.3-.08.45-.12l-.01.03c.22-.1.43-.2.63-.26l.97-.32c1.03-.3 1.98-.47 3.23-1.03-.23.1.12.01.1.04.73-.26 1.5-.52 1.7-.7l.63-.2c.02.01.04.03.07.04-.01-.02.07-.07.18-.12l1.18-.4.1.2a1.5 1.5 0 0 0 .04-.24h.01c.17.5-.14.1.18.76l.1-.06c.42 1.02.52 1.7.87 2.7.68 1.6 1.43 3.23 2.18 4.85-.05.08-.1.15-.15.24l-.22.54c-.1.3-.24.6-.37.92-.28.6-.6 1.22-.98 1.83-1 1.43-2.53 3.4-4.44 5.05s-4.17 2.92-5.95 3.6a21.07 21.07 0 0 1-8.29 1.69 14.8 14.8 0 0 1-2.12-.15c-.37-.06-.63-.1-1.07-.2l-.16-.03-.24-.04a4.17 4.17 0 0 0-.5 0l-.15.03c-.6-1.63-1.22-2.95-2-4.76.72-.1 1.05-.44 1.87-.8.8-.23 1.05-.15 1.84-.5.4-.12.8-.3 1.16-.45.14-.18.5-.17.67-.35l.1.04c.06-.06.14-.1.22-.1h0c.1-.1.22-.1.27-.15v.02l.13-.05-.01.04a1.54 1.54 0 0 1 .55-.23l-.04-.08c.4-.04.48-.25.85-.26v.02c.35-.36.72-.08 1.08-.44-.05.04.04.03.04.06.2-.1.4-.18.35-.34.15-.05.14.01.18.07-.03-.07.1-.14.2-.2l-.04.05.32-.14-.1-.1c.2-.02.1.15.25.06l-.04-.1c.25-.06.44.06.7.06.98-.28 1.9-.92 2.87-1.04l.07.07c.06.12.18-.27.26-.16l.08-.1c.04.01.1.01.06.06.1-.03.1-.05.15-.1l.13.04c.4-.07.67-.33 1.08-.44.53-.01 1.4-.46 1.88-.73.67-.43 1.7-.24 2.36-.7.03.01.08-.05.07-.07l.7-.22s3.34-1.1.47-1.24v-.03c-.4.07-.64.13-.85.36-.1-.15-.3.1-.42.07v-.02c-.2.2-.5.06-.7.25 0-.02-.01-.06.04-.08-.15.08-.36.2-.4.1-.37.16-.93.3-1.12.54l.01-.03c-.1.15-.18.08-.3.18-.01-.01-.03-.01-.03-.02-.12.15-.44.17-.55.26l-.03-.06-.3.12.12-.03c.02.2-.27-.03-.45.16-.2.05-.3.5-.54.5-.07.12.04-.16-.1-.05-.04-.1.05-.08-.01-.14-.14.1-.28-.01-.44.12l-.03-.07c-.2.2-.5.06-.6.24-.23.14-.24-.15-.45.08l-.13-.06c-.12.02-.04.14-.18.14-.01-.06-.17.01-.12-.08-.3 0-.52.33-.94.3-.04.14-.25.14-.28.25-.03-.05-.37.12-.2-.06.01-.02.05-.02.05 0v-.08c-.25-.06-.35.2-.57.25.07 0 .15-.03.1.03l-.2.06v-.07l-.3.06.06.06c-.15.01-.24-.1-.37.06-.05.08.17.05.03.13-.2.02-.5.04-.76.1.05.07-.01.1-.08.13l-.03-.07c-.22.2-.15-.12-.37.04v-.06l-.02.17c-.18.22-.17-.1-.36.17.1-.05.1.14-.03.15v-.08c-.06.04-.08.07-.13.08.03-.05-.01-.1-.1-.06l.04-.1-.15.2c-.17-.02-.37.15-.46.07 0 0-.33.06-.37.2.04-.1-.14-.05-.12-.15-.06.1-.27.25-.4.2l.02-.02c-.38.04-.57.32-.92.33.04.08-.14.1-.06.18-.3.22-.68-.01-.68.36-.14.07-.2-.01-.3 0l.03-.03c-.27.12-.35.15-.56.22-.1.07-.06.22-.26.25.04-.08-.03-.04-.1-.02.04-.02.05-.05-.06-.06-.01.02-.02.04-.04.06l-.01-.01c-.1.06-.08.07-.03.06 0 .01.01.02.03.03-.15-.04-.34.12-.4.02-.34.14-.56.34-.83.48-.05-.04 0-.1.08-.16l-.2.1c-.02-.08.1-.08.16-.12-.3-.04-.47.3-.8.3l-.04.08h-.02c.01.03-.04.1-.08.12-.06-.05-.05-.15-.2-.1-.14-.02-.3.14-.45.23.08-.02.07.03.04.06-.07.03-.13-.02-.18.02l-.04-.1c.06.07-.16.16-.17.2-.06-.05.1-.1.1-.15l-.43.16c-.13.12.06.07.01.18-.13.06-.24.17-.4.17l.08.06c-.23.15-.4.2-.6.17-.12.1-.22.17-.3.25l-.57-1.36-1.08-2.97-.63 1.7c.2.46.46 1 .66 1.44-.12-.35-.04-.25.04-.1.12.3.13.5.25.74l-.08.06c.04-.15.4.77.5.87 0 .2-.24-.46-.32-.52l.74 1.85c.32.64.04-.15.24.13.24.58.53 1.12.74 1.8v-.24c.48 1.05.73 1.7.93 2.46a2.22 2.22 0 0 0-.9 1.42c-.05.37-.03.56-.04.77a11.42 11.42 0 0 0 .01.6 17.93 17.93 0 0 0 .21 2.23c-.01.2.1.67.13.67a36.44 36.44 0 0 0 1 5.2s.4 1.56 1.1 3.53a42.45 42.45 0 0 0 1.25 3.13l.7 1.54c.12.25.24.5.36.72.13.23.2.46.43.77.75 1.03 1.93 1.33 2.6 1.2.7-.13.9-.38.7-.42-.18-.08-.95.08-1.8-.62-.2-.17-.4-.4-.55-.68-.15-.24-.22-.64-.37-1.05a51.07 51.07 0 0 1-.57-1.8c.42-.07.83-.17.83-.17 2.2-.47 3.23-1.04 5.76-1.87 2.25-.64 2.9-.66 5.2-1.43 1.1-.32 2.28-.72 3.36-1.06.48-.28 1.42-.43 2-.72h.26c.2-.1.44-.2.66-.22v.02c.3-.15.66-.22.8-.3l-.01.02.38-.12-.06.05a11 11 0 0 1 1.6-.52l-.07-.07c1.1-.23 1.42-.52 2.4-.7v.02c1.14-.6 1.96-.43 3.14-1-.15.07.08.02.07.05.57-.2 1.18-.4 1.14-.56.42-.12.36-.05.43-.01-.02-.07.33-.2.66-.3l-.14.07.93-.3-.22-.08c.5-.1.18.13.64-.05l-.04-.1c.7-.2 1.15-.14 1.84-.26 2.78-.8 5.66-1.97 8.28-2.55l.14.05c.1.1.65-.4.8-.3l.28-.15c.1 0 .27-.03.13.04.28-.08.28-.1.47-.2h.32c1.1-.27 2-.7 3.15-1.02 1.43-.26 3.98-1.2 5.44-1.72 2.04-.82 4.64-1.07 6.72-1.93.08 0 .24-.1.24-.1l1.97-.58s2.55-.76 3.98-1.33a.69.69 0 0 1 .02.13l.42 1.14c.22.6.48 1.28.64 1.48-.12-.2-.08.06-.12.1-.02.12-.07.23-.14.15.07.12.1.44-.06.68-.08.12-.2.2-.32.27a1.77 1.77 0 0 1-.53.1l.13-.05c-2.62.64-4.34 1.5-6.7 2.04.15.1-1.1.4-.74.48-2.33.9-4.47.95-5.16 1.76-1.08.36-1.33.26-1.9.4l.25-.1c-2.02.66-2.6.84-4.13 1.28-.74.28-.78.57-2.15.92.4-.23-.14-.05-.65.1.32-.1.4-.18-.28-.05-.08.06-.22.12-.35.18-.01-.01-.04 0-.03-.02-.83.3-.68.28-.28.17-.01.02.02.03.15.02-.92.13-2.44.74-2.6.6-2.53.8-4.3 1.53-6.38 2.23-.27-.02.2-.25.8-.46l-1.5.48c-.03-.13.84-.33 1.3-.5-1.85.33-3.62 1.3-5.77 1.75l-.4.23-.13.02c.02.05-.42.27-.73.38-.33-.02-.06-.26-1.1.06-.85.14-2.3.75-3.37 1.14.58-.16.42-.04.18.08-.52.16-.85.14-1.24.3l-.1-.14c.25.08-1.3.56-1.48.68-.33-.02.77-.34.88-.46l-3.1.96c-1.07.45.24.08-.25.37-.97.32-1.9.72-3.04.96l.4.03c-1.8.66-2.9.97-4.2 1.2-13.38 5.2-2.44 2.36-2.44 2.36 5.5-1.33 8.15-2.56 14.55-4.6 5.67-1.63 7.25-1.82 13.07-3.7 2.8-.82 5.76-1.77 8.48-2.63 1.23-.6 3.58-1.08 5.06-1.7l.63-.06a7.95 7.95 0 0 1 1.67-.54l-.02.04c.76-.32 1.67-.54 2.05-.7l-.02.04.95-.3-.15.1a43.1 43.1 0 0 1 4.03-1.27l-.15-.1c2.72-.65 3.6-1.23 6.08-1.77l-.02.04.54-.22c.1-.03.18-.07.26-.1s.17-.06.3-.13c.5-.2.9-.54 1.2-.9.63-.74.84-1.68.67-2.6zm-243.54-13.2c.03-.03.05-.06.08-.1l-.04.13-.04-.04zm9.26 8.7c-1.16-1.22-2.3-2.55-3.57-3.55-.04-.07-.22-.18-.23-.17l-1.6-1.55s-2.64-2.54-3.82-3.4c1.8-2.2 3-3.52 4.2-5.1.4-.03 1.68-1.62 2.26-1.97l-.03.06c.4-.48.9-.88 1.43-1.25.23.4.55.56.93 1.05.3.57.24.8.6 1.36.13.3.3.58.44.86.17.1.15.38.3.5l-.04.1c.06.04.1.1.08.17h-.02c.08.07.08.18.12.2h-.02l.04.1h-.03a.83.83 0 0 1 .17.43l.08-.03c-.02.32.18.4.13.68h-.02c.3.3-.06.57.22.88-.03-.04-.04.03-.06.02.06.16.08.33.25.32.01.12-.04.1-.1.13.07-.01.1.1.13.2l-.03-.04.05.27.14-.06c-.03.15-.17.05-.12.18l.12-.01c-.01.2-.2.33-.28.52-.02.78.18 1.7-.1 2.42h-.1c-.13 0 .16.23.04.24l.05.1c-.03.02-.06.07-.08.02-.02.08.01.08.04.15l-.1.08c-.1.3 0 .6-.08.93-.23.37-.23 1.14-.25 1.6.04.66-.65 1.2-.63 1.87-.02.01 0 .08.01.08l-.2.54c-.03.01-.26.62-.34 1.06zm29.77-2.38c.86 1.56.34 1.38 1.12 2.7-.07-.01-.15-.06-.2.03 0-.01-.01-.06.01-.07-.06.04-.15.1-.18 0-.16.07-.4.08-.47.26v-.03c-.03.12-.07.03-.13.1-.01-.01-.01-.02-.01-.02-.04.12-.2.06-.23.12l-.02-.06-.13.05h.05c.03.18-.13-.1-.2.05-.1 0-.1.42-.2.35-.02.1.01-.15-.04-.06-.03-.1.02-.07-.02-.14-.05.06-.13-.07-.2.01l-.02-.07c-.07.16-.22-.05-.26.1-.1.1-.12-.2-.2-.03l-.07-.1c-.05 0 0 .13-.07.1-.01-.06-.08-.03-.06-.1-.14-.07-.2.2-.4.07 0 .13-.1.08-.1.17-.02-.05-.16.03-.1-.1.01-.01.02-.01.02.01l-.01-.07c-.12-.1-.15.1-.24.12.03.02.07 0 .05.06l-.1.01V410h-.13l.04.07c-.07-.02-.12-.14-.16-.02-.02.07.08.1.02.12-.1-.03-.23-.08-.34-.07.03.08 0 .08-.02.1l-.02-.07c-.08.13-.08-.15-.17-.04l.01.1c-.06.17-.1-.14-.15.1.04-.02.06.15 0 .14v-.07c-.03.02-.03.05-.05.04.01-.04-.02-.1-.06-.08l.01-.1-.05.15c-.08-.06-.16.06-.2-.03 0 0-.15-.02-.15.1.01-.07-.07-.08-.07-.17-.02.08-.1.17-.17.1v-.01c-.17-.05-.23.18-.4.1.03.08-.06.05-.01.16-.12.14-.3-.16-.28.2-.06.03-.1-.06-.13-.07l.01-.02a.52.52 0 0 1-.24.08c-.04.04-.01.2-.1.18.01-.07-.02-.05-.05-.04.02-.01.02-.04-.03-.07 0 .02-.01.03-.01.05v-.01c-.05.03-.03.05-.01.05 0 .01.01.02.02.04-.07-.07-.14.04-.18-.06-.15.06-.23.2-.34.27-.03-.05-.01-.1.02-.14l-.08.04c-.02-.08.04-.06.06-.08-.14-.1-.2.18-.34.1v.06c.01.03-.01.08-.02.1-.03-.06-.04-.16-.1-.14-.06-.05-.13.07-.2.12.04 0 .04.04.03.07-.03.01-.06-.05-.08-.02l-.03-.1c.03.08-.06.1-.06.15-.03-.06.03-.07.03-.12l-.18.06c-.05.1.03.08.02.17-.05.03-.1.1-.18.07l.04.08c-.1.1-.16.1-.26.03-.65.86.05.95.05.95.37.1.47-.18.84-.33.35-.04.47.1.8-.06a2.27 2.27 0 0 0 .5-.17c.05-.14.2-.05.28-.18l.05.06c.02-.04.05-.08.1-.05v.02c.03-.06.1-.05.1-.08v.02l.05-.02v.03c.07-.08.15-.1.23-.1l-.03-.08c.18.06.2-.13.37-.06v.02c.13-.27.32.08.46-.18-.02.03.02.04.02.06.08-.05.17-.08.13-.25.06-.01.06.04.1.1-.02-.07.03-.12.08-.13l-.02.03.13-.06-.06-.13c.08.02.06.16.12.1l-.03-.1c.1 0 .2.15.33.2.43-.05.8-.45 1.24-.35l.04.08c.04.12.06-.2.1-.1l.03-.07c.02.02.05.04.04.07.04-.01.04-.03.06-.07l.06.07c.18.02.28-.16.46-.18.25.1.6-.13.8-.27.27-.26.76.14 1.03-.15.01.02.03-.03.03-.05l.1-.02.03.12c.35.78.45.46.8 1.35-.12-.01.44 1.12.1.66.28.72.64 1.42 1.02 2.13-.01.01-.03.02-.04.01h0c-.03.16-.2-.03-.23.1 0-.01-.02-.06 0-.07-.05.04-.1.1-.15.02-.12.08-.32.12-.34.3l-.01-.03c-.01.12-.06.04-.1.1-.01-.01-.01-.02-.02-.02-.01.12-.15.08-.17.14l-.03-.06-.1.06h.04c.06.17-.12-.07-.15.07-.08.01.01.4-.1.36 0 .1-.02-.14-.05-.06-.04-.1 0-.07-.04-.13-.03.06-.12-.05-.16.03l-.03-.07c-.03.16-.2-.02-.2.12-.06.1-.14-.18-.18-.01l-.07-.08c-.04 0 .02.13-.04.1-.02-.06-.07-.02-.07-.1-.13-.05-.14.2-.33.1.02.13-.07.08-.05.18-.02-.05-.13.05-.1-.1 0-.01.01-.01.02.01l-.02-.07c-.13-.1-.1.13-.18.14.03.01.06 0 .06.05l-.07.02-.01-.06h-.1l.04.06c-.06-.02-.13-.13-.14 0 0 .07.1.08.04.12-.08-.02-.2-.05-.3-.04.04.08.02.08 0 .1l-.03-.07c-.05.13-.1-.14-.15-.02l.03.1c-.02.17-.1-.12-.1.1.03-.03.08.14.03.13l-.02-.07c-.02.02-.01.06-.03.05 0-.04-.03-.1-.06-.07l-.01-.1v.15c-.08-.05-.12.07-.18-.01 0 0-.13 0-.1.1-.01-.07-.08-.07-.1-.15 0 .08-.05.18-.12.12v-.01c-.16-.03-.16.2-.3.15.04.08-.04.06.02.15-.07.15-.3-.12-.2.2-.04.04-.1-.05-.13-.05l.01-.02c-.1.07-.1.08-.2.1-.02.05.03.2-.04.2 0-.07-.03-.05-.05-.03.01-.02.01-.04-.04-.06v.05h-.01c-.03.04-.02.05.01.05 0 .01.01.02.02.03-.07-.06-.1.05-.16-.04-.1.07-.15.2-.24.3-.03-.05-.03-.1-.01-.13l-.06.05c-.03-.07.02-.06.04-.08-.14-.08-.12.2-.27.13v.07h-.01a.17.17 0 0 1 0 .1c-.04-.06-.06-.15-.1-.12-.07-.05-.1.08-.13.13.03 0 .04.04.04.07-.02.01-.07-.05-.07-.01l-.04-.1c.04.08-.03.12-.02.16-.04-.06.01-.07 0-.12-.1.05-.05.03-.14.08-.02.1.04.08.05.16-.04.04-.06.12-.13.1l.05.07c-.06.1-.12.1-.2.06-.38.9.23.92.23.92.33.06.36-.22.64-.4.28-.08.42.04.67-.14.14-.04.26-.14.38-.2.01-.14.17-.07.2-.2l.06.05c.01-.04.03-.08.07-.05l.01.02c.02-.07.07-.05.08-.1l.01.02.04-.03v.03c.04-.08.1-.1.18-.1l-.04-.08c.16.04.14-.15.3-.1v.02c.05-.27.3.05.35-.22-.01.03.03.04.03.06.06-.05.13-.1.06-.25.05-.02.06.03.1.1-.03-.07 0-.12.04-.14l-.01.03.1-.07-.08-.12c.08.01.08.15.13.1l-.05-.1c.1-.01.2.13.32.17.35-.1.58-.52.97-.46l.05.08c.06.12.01-.2.07-.1l.01-.07c.02.02.05.03.04.06.03-.01.03-.03.04-.08l.07.06c.15 0 .2-.2.35-.22.23.08.48-.2.62-.35.17-.28.67.06.84-.25.02.01.02-.03.01-.05l.2-.07.3.54.33.66.53 1.12.67.16.35.1.2.06a12.02 12.02 0 0 1 .78.27c.64-.05 1.94.48 2.4.48.05.1 2.63.96 1.1.6-.13-.03-.35-.1-.33-.14l-.22.05c1.4.74 2.72.88 4.12 1.57-.4-.23-.97-.47-.56-.38.44.2.88.4 1.3.63l-.3-.04a30.68 30.68 0 0 1 1.86 1.05l-.2-.26c.9.56 1.06.95 2.13 1.44.5.22-.7-.7.2-.1l.88.74.94.9c.32.3.6.68.9 1a3.13 3.13 0 0 1 .57.89c.08-.18.24.15.38.57l-.1.08.06.2-.42-.04c-2.43-.2-3.68.03-6.57.07-2.54-.06-3.2-.22-5.84-.18-1.25-.02-2.6.01-3.82.02-.58.12-1.6-.01-2.3.1l-.27-.07c-.24.03-.52.06-.75.02v-.02c-.35.05-.75.01-.93.04v-.02h-.43l.07-.03a12.19 12.19 0 0 1-1.81.01l.05.1c-1.2-.1-1.64.06-2.72-.07l.02-.02c-.68.1-1.23.05-1.77 0a11.06 11.06 0 0 0-.84-.06l-.87-.03c.17 0-.06-.06-.04-.08-.6-.1-1.25-.27-1.3-.1-.44-.14-.34-.16-.38-.24-.02.07-.4-.02-.75-.15l.17.03c-.33-.1-.65-.23-.97-.36l.13.2c-.5-.25-.06-.2-.56-.4l-.04.1c-.68-.35-1-.7-1.55-1.16-.32-.2-.56-.4-.84-.66l-.88-.8-1.78-1.6c-1.18-1.07-2.33-2.13-3.32-3.2l-.03-.15c.05-.13-.7-.4-.7-.58l-.3-.2c-.05-.08-.18-.24-.04-.14-.22-.22-.24-.2-.43-.34l-.2-.3c-.85-.9-1.72-1.5-2.64-2.43-1.02-1.2-3.25-3.1-4.53-4.2-.5-.4-.98-.86-1.46-1.35.15-.07.35-.2.62-.45v.02c.2-.28.27-.48.22-.74.18.02.1-.25.18-.3h.01c-.06-.23.24-.36.18-.58.01.01.05.03.04.07.02-.14.04-.34.14-.32.07-.33.24-.78.14-1.03l.02.02c-.07-.15.02-.16.01-.3.01 0 .02-.01.03-.01-.07-.16.07-.4.05-.5l.07.01.04-.26-.04.1c-.17-.07.16-.17.08-.4.06-.17-.3-.43-.18-.6-.07-.1.12.1.08-.04.1.01.05.07.13.05-.02-.14.13-.2.1-.37h.07c-.1-.23.16-.38.05-.54-.03-.23.24-.12.12-.36l.1-.08c.03-.1-.1-.08-.05-.2.06.01.07-.13.12-.06.13-.23-.1-.5.1-.82-.12-.08-.03-.24-.12-.3.05 0 .03-.33.13-.14.01.02.01.04-.02.04l.07.03c.15-.18-.06-.34-.03-.52-.03.05-.02.13-.07.07l.02-.17.06.04.05-.25-.08.03c.05-.12.17-.17.06-.3-.06-.07-.1.12-.13-.02.05-.17.13-.42.15-.64-.1.02-.08-.04-.1-.1l.07-.01c-.1-.23.16-.1.06-.32l-.1-.03c-.17-.2.14-.12-.08-.34.02.1-.16.06-.14-.05l.07.02c-.02-.06-.05-.08-.04-.12.04.03.1.01.1-.08l.1.05-.15-.16c.07-.14-.07-.33.02-.4 0 0 0-.3-.12-.33.08.04.08-.12.16-.1-.1-.06-.2-.26-.13-.36h.01c.01-.34-.24-.5-.2-.82-.08.04-.08-.12-.17-.06-.2-.25.05-.6-.3-.58-.06-.12.03-.18.02-.25h.03c-.12-.23-.14-.3-.2-.47-.06-.08-.22-.03-.24-.2.08.03.04-.03.02-.1.03.03.05.04.06-.06-.02 0-.04-.01-.06-.03v-.01c-.06-.1-.07-.06-.06-.01-.01 0-.02.01-.03.03.03-.13-.13-.27-.03-.33-.15-.28-.35-.43-.5-.64.04-.05.1-.02.16.04l-.1-.15c.07-.04.1.07.13.12.02-.26-.32-.34-.34-.62l-.08-.02v-.02c-.03.02-.1-.01-.12-.04.04-.07.14-.08.07-.2.01-.12-.18-.23-.28-.32.03.07-.02.07-.05.05-.04-.05 0-.12-.05-.15l.08-.06c-.06.07-.17-.1-.2-.1.04-.07.1.05.16.04l-.22-.3c-.14-.07-.06.07-.17.06-.08-.1-.2-.15-.23-.3l-.04.08a.56.56 0 0 1-.28-.42l.87-.58.53-.35c.15-.1.4-.27.4-.3-.04.05.1.07-.26.28.1-.06.17-.1.27-.17.03-.03.07-.05.1-.07.08-.03.18-.04.26-.01.17.05.24.23.22.3 0 .06.03.2 0 .22.57 1.54 1.55 3.15 2.63 4.48 1.07 1.34 2.22 2.4 3.02 2.96l-.13-.06c.94.6 1.08.95 2.1 1.66.04.06.1.12.08.12a53.02 53.02 0 0 1 1.52 1c.12.1.2.17.2.2l1.18.84c.43.28.9.57 1.37.8.93.45 1.84.73 2.42.83l-.1.01c.1.01.16.02.23.03.5.22 1.12.44 1.8.53.74.2 1.5.2 2.27.2v.05c.48.04.95.1 1.43.1l-.53-.05c.2-.18 1.07.2 2.1.1.04 0 .08-.01.13-.01-.13.06-.44.05-.2.15 1.18-.08 1.96.13 3.4-.2l.08.1a1.76 1.76 0 0 1 1.9.34c.2.2.34.4.46.67.2.36.37.66.55.9zm-20.66-48.56v.01l-.05-.03.03.02zm25.74 36.06l-.64-.62.72.5a.7.7 0 0 0-.08.1zM156.28 362c1.44 1.02 1.73 1.4 3.3 2.38.7.5 1.5.98 2.22 1.44.4.12.93.62 1.38.8l.1.16c.16.06.33.15.45.27l-.02.01c.23.1.45.27.56.32l-.02.01.25.16h-.06c.4.2.76.44 1.07.67l.02-.1c.64.55 1 .57 1.55 1.08h-.02c.92.34 1.16.97 2.1 1.33-.12-.05.02.07 0 .08.4.23.8.5.9.35.27.2.2.2.2.27.04-.06.3.07.5.2l-.1-.04.62.4-.04-.2c.3.25-.01.2.3.38l.06-.1c.43.32.6.64.98 1 1.77 1.25 3.87 2.3 5.43 3.6l.02.12c-.04.13.57.15.57.3l.23.08c.04.06.14.15.03.1.18.13.2.1.35.17l.15.2c.68.53 1.37.8 2.1 1.34.8.74 2.58 1.75 3.6 2.34 1.48.76 2.8 2.26 4.3 3.02.04.05.18.1.18.08l1.27.88.6.4c-.02.02-.03.03-.04.05l1.54 1.22.22.18c.08.06-.23-.17-.17-.12l.12.1c-.08.1-.15.2-.23.3l-.8 1.08-1.63 2.24-1.64 2.28-1 1.4-.16.2c-.1.12-.22.24-.34.33.35-.13-.34.63-1.38.82l-.13-.1c-.94.15-1.5-.12-1.82-.28-.28-.17-.5-.38-.67-.53-.35-.32-.7-.64-2.85-2l-.84-.35c-3.97-2.35-1.92-1.6-6.36-4.16 1.7 1.1.64.76-1.4-.67l.6.25c-1.16-.74-1.57-.96-2.32-1.5.72.4.46.1-1.24-1l1.2.63-3.3-1.94c-2.4-1.75-6.37-4.22-7.3-5.04 0 0-5.24-3.6-6.56-4.26 1.13.6-1.76-1.37-.86-.93-.72-.4-2.1-1.26-3.5-2.16l-.52-.34-.25-.17-.18-.13a3.04 3.04 0 0 1-.57-.63c-.3-.46-.4-.95-.4-1.3l.05.25c-.1-.62 0-1.24.28-1.75.06-.14.15-.23.24-.4l.36-.5.7-1 3.84-5.63.1-.18c-.06-.05-.3-.17-.4-.22l.93.5.03.02.02.01c.01.01.01.01-.04-.02l-.22-.1-.1-.06c-.04-.02.02.01.02.01l.35.18.7.37c.1.04.26.17.33.14l.02-.04c.72.44 1.43.8 2.45 1.44zm56.28-154.93c-2.4.02-1.13-.27 1.82-.22l-.75.12c1.63-.03 2.18-.08 3.26-.05-.97.06-.5.17 1.9.15l-1.6.15 4.54-.22c3.5.13 9.06-.03 10.5.14l3.2.02c-.15.7-.06 1.2-.26 2.18-.33.95-.56 1.15-.9 2.13l-.6 1.38c0 .26-.28.57-.34.85l-.12.05c-.02.1-.05.2-.14.27h-.01c-.03.15-.14.27-.15.34v-.02l-.08.15-.01-.04c-.08.24-.23.45-.38.62l.08.03c-.36.33-.3.6-.67.86v-.02c-.17.57-.65.58-.86 1.15.03-.07-.05-.01-.07-.03-.16.2-.34.42-.22.54-.13.14-.15.08-.2.05.06.05-.03.2-.13.3l.03-.07-.27.33.16.04c-.2.14-.16-.08-.3.1l.08.08c-.25.2-.5.2-.78.34-.93.83-1.83 1.9-2.9 2.4l-.1-.04c-.1-.1-.16.34-.27.26l-.08.12c-.04 0-.13.03-.1-.04-.1.07-.1.1-.15.17l-.16.01c-.44.23-.74.56-1.2.8-.62.18-1.6.85-2.18 1.22-.8.58-2.03.54-2.87 1.06-.04-.01-.1.06-.1.07-.3.08-.57.18-.86.26 0 0-1.04.3-1.67.55-.12.04-.2.1-.3.14a1.01 1.01 0 0 0-.07-.15l.06-.1c.01.26-.7-1.46-.83-1.65-.07-.35.42.86.53 1l-1.42-3.44c-.56-1.2.01.26-.3-.3-.45-1.08-.92-2.12-1.35-3.4l.07.43c-.84-2.03-1.3-3.27-1.72-4.7l-2.56-6.3c.74.03 1.8.01 3.84-.1zm71.44 168l-6.4-11 .24.33c-1.8-2.85-2.14-3.8-4.05-7.03-.08-.2-.2-.43-.17-.4-1.94-3.12-5.16-9.35-6.62-11.96v-.22l-3.67-6.3 1.33 2.38c-.74-.66-2.57-4.9-5.35-9.4-2.4-4.33-5.52-8.42-7.94-12.96-1.34-2.06 1.28 1.76-.64-1.37.08-.18.94 1.44.58.55-1.85-3.1-2.8-5.2-5.1-9l.02-.22c-3.1-4.9-5.35-9.54-7.5-12.76-3.1-5.1-1.72-3.64-5.1-8.88l-1.1-2.16c-1.35-2.3-1.16-1.53-2.6-4.1.2.1-1.86-3.24-.88-1.8-3.34-5.8-7.27-11.47-11.8-19.03-1.22-1.5-3.57-5.26-4.47-6.37-.03-.12-1.22-1.98-2.05-3.3-.82-1.33-1.26-2.12.12-.07.24.35.65.98.6.96l.42.43c-2.5-4.3-4.87-7.64-7.1-12.03.62 1.32 1.56 3.03.86 1.92l-2.07-4.08c.16.27.34.54.52.8-.98-2.05-1.95-4.1-2.8-6.2l.25.9c-.63-1.54-1.02-2.6-1.4-3.72l-1.52-4c-.65-1.57.87 3.03-.32-.27-1.4-4.23-2.9-10.75-3.2-16.35-.05.27-.1.02-.16-.48-.01-.14-.03-.3-.05-.5 0-.06-.01-.13-.01-.2-.01-.07-.03-.16.05-.14a1.74 1.74 0 0 1 .14.12c.07-.01.1-.02.22-.03l.83-.01 1.16.01a9.25 9.25 0 0 1 1.14.09c.55.07 1.1.15 4.12.08l1.06-.17c3.2-.15 3.67-.03 4.73.02.36 1.4 1 3.35 1 3.35 1.98 6.17 3.4 9.22 6.4 16.3 2.64 6.23 3.23 7.94 6.38 14.22 1.46 3 3.13 6.16 4.66 9.05.82 1.32 2 3.8 2.96 5.36l.28.66c.33.54.7 1.18.98 1.76l-.04-.03c.5.8.98 1.76 1.23 2.15l-.04-.02.56 1-.12-.16a106.77 106.77 0 0 1 2.37 4.22l.02-.15c1.47 2.84 2.2 3.77 3.53 6.33l-.04-.02c2 3.05 2.73 5.08 4.8 8.22-.26-.4.06.2.03.17.9 1.48 1.85 3.07 2 3 .64 1.1.48.9.5 1.1.06-.04.65.88 1.15 1.73l-.26-.37 1.47 2.4-.16-.55c.73 1.3.05.4.8 1.63l.1-.08c1.06 1.78 1.52 2.92 2.45 4.68 4.13 7.2 8.58 14.97 12.02 21.9l.08.34c-.04.2 1.16 1.8 1.2 2.12l.47.77c.1.23.32.72.1.33.38.74.4.75.72 1.26l.34.83c1.46 2.94 2.9 5.35 4.45 8.43 1.76 3.76 5.47 10.65 7.6 14.62 3.05 5.56 5.92 12.35 9.03 18.05.08.2.36.67.37.66l2.65 5.3 5.3 10.37c2.1 3.94 3.1 5.37-1.3-4.65l.1.12c-1.4-2.93-2.3-4.77-3.43-6.7 0-.4-1.18-2.4-1.47-3.1l.04.06c-1-1.7-1.74-3.7-2.7-5.35.05.06.1.08.3.47-.65-1.23-1.54-2.9-1.5-3.05-1.52-2.95-3.58-7.1-4.7-8.94l.1.12c-.65-1.03-.73-1.4-1.4-2.58-.02-.07-.06-.16-.05-.15-.7-1.13-1.77-3.43-2.3-4.36l.03-.1-1.2-2.34.44.88c-.32-.22-.8-1.83-1.78-3.47-.8-1.6-2-3.05-2.77-4.74-.48-.75.48.63-.18-.52.07-.08.34.52.25.18-.64-1.13-.9-1.94-1.68-3.33l.04-.1c-1.1-1.8-1.73-3.54-2.5-4.72-1.05-1.88-.47-1.4-1.64-3.3l-.32-.82c-.43-.86-.43-.55-.88-1.52.1.03-.58-1.22-.24-.7-1.03-2.18-2.4-4.26-3.76-7.14-.43-.55-1.12-2-1.45-2.4.01-.1-1.52-2.82-.56-1.3.08.13.2.37.18.36l.17.15c-.74-1.66-1.64-2.86-2.48-4.44.23.48.58 1.1.3.7l-.8-1.47.22.27-1.17-2.2.1.34c-.56-1.08-.66-1.52-1.42-2.66-.36-.5.47 1.05-.17-.05-.73-1.45-1.92-3.58-2.95-5.4.02.2-.25-.28-.57-.75l.03-.1c-1.23-1.82-.28-.77-1.47-2.6l.14.14-.43-.4c-1.13-1.6-.4-1-1.7-2.76.45.74.07.43-.45-.5l.2.2c-.3-.5-.44-.65-.63-1 .2.28.18.1-.27-.63l.37.45-.94-1.34c-.58-1.13-1.67-2.8-1.84-3.3 0 0-1.32-2.37-1.73-2.86.33.44-.4-.87-.1-.54a27.6 27.6 0 0 1-1.85-3.1l.1.13c-1.45-2.7-2.7-4.52-3.95-6.98-.01.15-.68-1.14-.6-.78-1.48-2.44-2.32-4.67-3.1-5.4-.63-1.13-.66-1.4-.97-2l.16.26-2.36-4.35c-.45-.78-.67-.83-1.38-2.28.3.43-.02-.15-.3-.68.2.34.26.43-.07-.3a3.67 3.67 0 0 1-.24-.38c0-.01-.01-.04 0-.03-.5-.9-.42-.72-.2-.3-.02-.02-.01.02.04.16-.42-.97-1.35-2.6-1.3-2.76l-3.62-6.84c-.08-.28.23.23.57.88l-.8-1.6c.08-.02.5.9.75 1.4-.82-1.97-2.03-3.9-2.96-6.23l-.27-.44-.05-.14c-.03.02-.3-.47-.46-.8-.08-.35.16-.04-.35-1.17-.34-.92-1.15-2.53-1.68-3.7.26.64.14.45 0 .2a10.75 10.75 0 0 1-.3-.78c.22.06.55.12 1.05.15l-.02.03c.5-.06.83-.14 1.13-.38.1.15.4-.1.54-.1l-.01.02c.25-.22.65-.1.9-.32-.01.02 0 .06-.06.1.2-.1.47-.23.52-.15.48-.22 1.18-.45 1.4-.74v.03c.13-.18.22-.1.4-.25.02.01.03.01.03.01.15-.18.54-.28.67-.4l.04.06.36-.2-.14.06c-.04-.2.33-.03.54-.28.26-.1.3-.6.6-.66.08-.14-.04.18.1.02.05.08-.05.1.03.14.15-.14.34-.1.52-.27l.05.06c.2-.3.58-.24.7-.46.25-.24.3.06.52-.26l.17.01c.14-.07.02-.16.2-.22.03.06.2-.08.16.03.38-.12.54-.57 1.05-.73.01-.16.26-.26.27-.38.05.04.4-.3.25-.04-.01.02-.05.05-.06.03l.02.08c.3-.07.35-.4.58-.56-.08.03-.16.1-.14.02l.2-.16v.08l.33-.22-.1-.02c.17-.1.3-.04.4-.27.03-.1-.2.05-.07-.1.22-.14.56-.34.8-.55-.08-.04-.02-.1.04-.17l.06.05c.18-.3.2.03.4-.27l-.03-.12c.1-.33.23-.02.32-.4-.08.1-.16-.07-.03-.17v.08c.05-.08.05-.12.1-.16-.01.07.06.1.14-.02v.13l.08-.28c.2-.1.34-.4.47-.4 0 0 .3-.3.3-.45 0 .1.17-.06.2.05.01-.14.17-.43.32-.5v.03c.4-.32.4-.74.75-1.04-.08-.03.1-.2-.04-.2.17-.42.65-.57.44-.9.1-.18.2-.17.26-.25v.05c.17-.35.24-.44.37-.7.04-.14-.1-.24.06-.45.02.1.06 0 .1-.08-.02.06-.01.1.1-.01-.01-.02-.01-.05 0-.08h.02c.05-.15.02-.14-.02-.07-.01-.01-.02-.01-.05 0 .15-.1.2-.4.3-.38.17-.45.2-.8.32-1.2.07-.02.08.1.06.2a2.76 2.76 0 0 0 .08-.27c.07.03-.01.17-.03.26.24-.27.12-.7.38-1.03l-.03-.1.02-.02c-.03-.01-.05-.1-.04-.17.08-.03.15.05.2-.13.1-.13.1-.43.12-.64-.04.1-.07.06-.08.01.02-.1.1-.13.1-.2l.1.02c-.1.01-.03-.27-.06-.32.08-.04.02.16.07.2l.13-.58c-.03-.22-.1.02-.16-.1.02-.18-.01-.37.1-.57l-.1.05c0-.35.03-.55.15-.77-.01-.1-.03-.17-.04-.25 2.06 0 4.3-.03 5.14-.12-1.5.12 2.64.16 1.46.3 1.95-.13 7.72-.24 10.03-.1l-.44.02a327.03 327.03 0 0 0 8.23.02l6.7-.08.32.78.6 1.5 1.2 3.13c0-.38 1.43 3.4 1.23 2.4 3.1 7.3 5 13.56 6.6 16 1.37 3.34 1.46 4.02 2.12 5.76l-.35-.8 5.13 12.74c.98 2.3 1.37 2.57 2.98 6.76-.64-1.3.06.4.68 1.95-.4-1-.57-1.28.18.8.15.28.34.7.52 1.12 0 .02.03.1 0 .07 1.07 2.6.92 2.12.45.9.04.05.02-.05-.1-.44.95 2.75 3 7.53 2.98 7.92l8.23 19.82c.2.77-.48-.73-1.27-2.6l1.88 4.6c-.14.01-1.13-2.63-1.72-4.04 2 5.58 4.73 11.26 7.12 17.78l.63 1.3.14.4c.04-.04.7 1.38 1.1 2.33.26.96-.28.04 1 3.23.9 2.57 2.92 7.15 4.3 10.44-.7-1.8-.4-1.24-.06-.5.64 1.6.9 2.56 1.44 3.77l-.07.16c.2.18 1.82 4.2 2.1 4.73.25.95-1.08-2.44-1.32-2.8l3.85 9.6c1.47 3.37-.1-.68.67.9 1.23 3 2.5 5.9 3.8 9.4l-.3-1.15c2.36 5.63 3.7 9.02 5.1 12.9l4.05 9.38 2.2 4.97.4.86c-.52.16-.92.3-1.3.56-.15-.13-.68.22-.9.24l.01-.02c-.46.3-1.07.26-1.52.54.01-.02.01-.07.12-.1-.35.14-.82.35-.88.26-.84.32-2.03.7-2.52 1.03l.03-.04c-.27.2-.4.16-.72.33-.02-.01-.05 0-.05-.01-.3.22-.97.36-1.23.5l-.04-.06-.66.25.25-.07c-.03.2-.54.07-1 .35-.46.14-.8.68-1.3.76-.2.16.15-.2-.16-.02-.04-.1.14-.1.03-.15-.3.16-.57.1-.96.3l-.04-.06c-.5.3-1.03.26-1.34.5-.53.25-.44-.08-.96.26l-.26-.02c-.25.07-.13.18-.42.23 0-.07-.36.07-.22-.04-.65.12-1.2.57-2.06.7-.13.18-.56.25-.66.38-.04-.04-.82.28-.4.01.04-.02.1-.05.1-.02l.03-.1c-.5.03-.8.36-1.27.5.14-.02.32-.1.22 0l-.43.14.07-.1-.64.2.1.04c-.32.07-.47-.01-.78.2-.14.1.33-.01.01.13-.43.1-1.07.24-1.6.4.08.06-.06.1-.2.18l-.04-.06c-.52.3-.26-.08-.8.2l-.06.13c-.45.3-.32-.05-.8.33.22-.1.16.12-.12.18l.04-.1c-.14.07-.18.1-.3.13.08-.07.01-.12-.2-.03l.12-.14-.37.27c-.35.04-.82.3-1 .26 0 0-.7.2-.83.36.12-.1-.27-.01-.2-.12-.15.14-.66.38-.9.38l.04-.02c-.8.2-1.3.58-2.03.73.06.07-.33.16-.2.23-.7.36-1.4.25-1.55.67-.32.13-.42.06-.6.1l.07-.04c-.6.24-.8.3-1.25.46-.22.1-.2.27-.63.38.1-.1-.05-.04-.2.02.1-.04.12-.08-.1-.05-.02.03-.06.06-.1.08-.26.1-.2.1-.1.07 0 .01.01.02.05.02-.3.02-.74.27-.8.17-.76.3-1.28.6-1.9.86-.1-.03.04-.13.22-.2l-.45.18c-.02-.08.25-.14.38-.2-.6.07-1.08.5-1.75.63l-.1.1h-.04c.01.03-.1.12-.2.17-.1-.03-.05-.15-.36-.04-.27.02-.7.28-1 .43.18-.05.14.01.07.06-.16.06-.27.02-.38.1l-.05-.08c.1.06-.38.23-.43.3-.1-.03.22-.14.25-.2l-.94.34c-.3.2.1.06-.04.2l-.27.12-7.82-13.65zm38.88 51.25c-.1-.03.07-.13.3-.23l-.6.2c-.02-.08.33-.15.5-.22-.75.1-1.42.57-2.3.7l-.15.1h-.05c.01.03-.16.13-.28.18-.14-.03-.04-.16-.45-.03-.34.03-.9.3-1.33.48.23-.06.17 0 .08.05-.2.06-.34.03-.5.1l-.05-.08c.1.06-.5.25-.57.3-.14-.03.3-.15.34-.22l-1.23.4c-.42.2.1.06-.08.2-.38.14-.74.3-1.2.4l.17.04c-.7.28-1.15.4-1.67.47-.88.38-1.46.67-1.87.9l-.18-.6.1.1c-.9-2.65-1.4-4.32-2.1-6.12.18-.36-.5-2.23-.5-2.9l.03.06a8.85 8.85 0 0 1-.23-1.02c.5.05.8-.15 1.44-.23.63.03.8.2 1.44.14.3.02.64 0 .94 0 .15-.12.4.03.57-.07l.06.08c.06-.03.13-.05.2 0v.02c.1-.04.2 0 .23-.02l-.01.02h.1l-.02.03a.76.76 0 0 1 .45.02v-.1c.28.14.4-.02.65.14v.02c.37-.17.48.26.86.1-.05.02.01.05 0 .07.16.01.32.05.37-.12.1.03.08.08.07.14.02-.07.12-.08.2-.06h-.05l.26.04v-.15c.12.08-.02.17.12.18l.03-.1c.17.1.22.3.36.43.65.3 1.52.44 2.02 1l-.02.1c-.06.12.27-.06.23.06h.1c.01.03.03.08-.02.08.06.04.08.03.14.03v.1c.2.23.5.24.74.46.2.36.84.7 1.2.92.57.26.65 1.1 1.18 1.42 0 .03.06.04.07.03.1.14.2.3.3.44 0 0 .37.53.66.82a.72.72 0 0 0 .2.14c-.4.18-.82.35-1.27.5zm50.7-15.5l.04-.04c-1.1.26-1.78.45-2.48.8-.17-.13-.9.25-1.16.27l.02-.02c-.62.33-1.4.3-1.98.6.02-.02.02-.07.17-.12-.46.16-1.08.4-1.14.3-1.1.36-2.65.78-3.3 1.15l.04-.04c-.37.23-.52.17-.95.36-.03-.01-.06 0-.06-.01-.4.24-1.27.4-1.62.55l-.04-.06-.87.28.33-.1c-.06.2-.7.1-1.3.4-.6.16-1.1.73-1.73.83-.27.17.22-.2-.2-.02-.04-.1.2-.12.05-.16-.42.17-.73.12-1.25.34l-.04-.06c-.65.34-1.34.3-1.76.57-.7.28-.54-.07-1.25.3l-.32-.01c-.32.08-.2.2-.56.25 0-.07-.46.1-.27-.03-.83.15-1.58.63-2.68.78-.2.2-.74.28-.9.42-.04-.04-1.06.3-.5.02.05-.02.14-.05.14-.03l.05-.1c-.64.05-1.07.4-1.67.56.18-.03.42-.1.27-.01l-.55.16.1-.1-.83.2.14.04c-.4.08-.6 0-1.02.24-.2.12.4-.02-.01.13a31.86 31.86 0 0 0-2.07.47c.1.06-.1.12-.28.2l-.04-.06c-.7.32-.3-.08-1 .22l.05-.07-.15.2c-.6.34-.4-.04-1.06.37.28-.1.18.12-.18.2l.07-.1c-.2.07-.25.12-.38.15.1-.07.03-.12-.25-.02l.17-.14-.5.3c-.44.05-1.08.35-1.28.3 0 0-.92.23-1.1.4.16-.12-.34 0-.23-.12-.2.15-.88.42-1.18.42l.05-.02c-1.05.23-1.7.64-2.66.82.07.07-.43.17-.28.24-.92.4-1.8.3-2.04.74-.43.15-.53.08-.76.13l.1-.05c-.8.27-1.03.35-1.64.52-.3.12-.3.3-.84.4.16-.1-.06-.04-.26.03.13-.05.16-.08-.12-.04-.03.03-.1.06-.14.08-.34.1-.27.1-.12.08-.01.01.01.02.06.02-.37.03-.97.3-1.04.2-.34.1-.63.22-.92.33.07-.15.1-.42.06-.87h.03c-.12-.3-.23-.5-.47-.58.12-.13-.14-.22-.14-.32h.02c-.22-.07-.17-.38-.38-.46.02 0 .05-.03.08 0-.1-.1-.26-.2-.2-.28-.23-.23-.52-.6-.78-.63l.03-.01c-.16-.01-.12-.1-.26-.15 0-.01 0-.03.01-.03-.17-.01-.28-.25-.4-.28l.04-.05-.2-.16.06.07c-.15.12-.07-.2-.3-.25-.12-.14-.52.08-.6-.1-.12.02.15-.06 0-.1.06-.08.08-.01.1-.1-.13-.04-.1-.2-.27-.25l.04-.06c-.25-.01-.26-.3-.44-.28-.2-.07.01-.27-.25-.27v-.13c-.07-.06-.12.07-.2-.03.04-.05-.08-.1 0-.13-.15-.2-.48-.15-.67-.44-.12.07-.22-.07-.3-.01.02-.05-.27-.16-.06-.18.02 0 .04.01.03.03l.05-.05c-.1-.2-.3-.1-.47-.2.04.04.1.07.04.1l-.15-.08.06-.04-.22-.14v.08c-.1-.1-.08-.23-.26-.18-.08.03.07.14-.06.1-.13-.12-.33-.27-.52-.36-.01.1-.06.07-.12.06l.02-.07c-.24.02-.03-.18-.26-.18l-.07.1c-.23.1-.06-.18-.33-.04.1.01-.01.17-.1.1l.05-.06c-.06 0-.1.02-.12 0 .04-.03.05-.1-.04-.1l.08-.07-.2.08c-.1-.1-.32-.06-.35-.17 0 0-.25-.1-.34-.01.07-.06-.07-.1-.02-.18-.08.06-.3.08-.36-.01l.02-.01c-.3-.13-.53.03-.8-.1 0 .1-.14.02-.1.14-.3.08-.48-.28-.62.05-.13 0-.14-.1-.2-.12l.03-.01a2.42 2.42 0 0 1-.48-.01c-.1.03-.1.18-.27.13.05-.06-.01-.05-.07-.06.04-.01.05-.03-.02-.08-.01.02-.03.03-.05.04-.1 0-.08.02-.04.03 0 .01 0 .02.01.04-.1-.1-.28-.01-.3-.12-.3.01-.5.1-.75.16-.03-.06.03-.1.1-.13l-.17.02c0-.08.1-.04.15-.06-.2-.13-.43.12-.67 0l-.05.06h-.01c0 .03-.05.08-.1.1-.03-.07 0-.16-.12-.16-.1-.07-.27.04-.4.08.07.01.05.05.02.07-.06 0-.1-.06-.14-.03v-.1c.03.1-.15.1-.17.14-.04-.07.1-.06.1-.12l-.36.03c-.12.08.03.1-.03.17-.1.02-.22.1-.35.05l.05.08c-.2.08-.33.08-.48 0-.07.04-.12.07-.18.1-.08-1.08-.03-2.16-.14-3.12.02.07.1.07.1.44-.01-.24-.01-.5-.02-.76 0-.1.04-.22.12-.28.16-.13.34-.06.33.02l1.03.16a17.91 17.91 0 0 0 1.28.1c.87.03 1.75-.01 2.58-.1 1.67-.18 3.16-.56 4.05-.93l-.12.08c1-.44 1.35-.38 2.48-.84.07 0 .15-.01.14 0 1.06-.5 3.22-1.27 4.03-1.8l.1.07c.7-.4 1.37-.8 2-1.28l-.75.48c.05-.22.44-.42 1-.72.53-.33 1.23-.76 1.8-1.42 1.24-1.07 1.8-2.74 2.86-3.98.32-.73-.2.7.37-.33.15.06-.22.5.05.33.6-1 1.17-1.52 1.72-2.87h.14c.15-.45.32-.88.48-1.28a1.6 1.6 0 0 1 .55-.71c.45-.34 1-.4 1.43-.5 1.85.06 1.2.48 3.17.4l.74.24c.02 0 .04 0 .06.01 0 .07 0 .13-.01.2-.14.36-.33.4-.37.8-.06.18-.08.38-.1.57.1.12-.06.23.01.36l-.08.02c.03.04.04.1-.01.12h.07c.04.07-.01.12.01.15h0v.07h-.03c.03.1.01.2-.04.27l.1.02c-.14.15.01.26-.14.4l-.02-.01c.17.26-.24.27-.1.54-.02-.03-.05 0-.07-.01 0 .1-.02.2.15.25-.02.07-.07.04-.13.03.07.02.1.1.07.14l-.02-.03-.02.16.14.01c-.06.07-.17-.03-.16.06l.1.03c-.05.1-.24.12-.36.2-.18.44-.03 1-.34 1.37l-.1-.01c-.13-.03.15.17.03.15l.04.07c-.03.01-.06.03-.08 0-.02.04 0 .05.03.1l-.1.03c-.1.16 0 .36-.1.54-.22.18-.2.65-.18.92.1.4-.52.66-.4 1.07-.02.01.01.05.02.05l-.1.32s-.5 1.55.87.65l.02.02c.12-.16.16-.27.06-.43.17.03.06-.14.12-.17h.01c-.1-.14.17-.2.08-.33.01.01.06.02.05.05 0-.08-.01-.2.1-.17.03-.2.14-.43.02-.6h.02c-.1-.1.01-.1-.02-.18h.03c-.08-.1.04-.2.02-.3l.07.01.03-.15-.03.05c-.17-.07.14-.08.06-.2.05-.1-.3-.3-.2-.38-.07-.07.12.08.08-.01.1.02.05.05.13.05-.02-.08.13-.1.1-.2l.07.02c-.1-.15.16-.2.05-.3-.03-.13.24-.02.13-.18l.1-.02c.03-.05-.1-.07-.05-.12.06.02.07-.06.12-.01.13-.1-.06-.3.15-.43-.1-.07-.01-.14-.1-.2.05.01.06-.17.14-.04.01.01 0 .03-.02.02l.07.03c.16-.06-.02-.2.03-.3-.03.02-.04.06-.08.02l.04-.1.05.04.07-.13h-.08c.06-.06.2-.04.1-.15-.05-.05-.12.03-.12-.04.07-.07.2-.2.24-.3-.1-.01-.07-.04-.08-.08l.07.02c-.07-.15.17 0 .12-.14l.05.02-.14-.07c-.1-.15.17-.02 0-.2 0 .05-.16-.02-.12-.07l.07.03c-.01-.04-.03-.06-.01-.07.03.03.1.04.1-.01l.08.06-.1-.13c.1-.05.03-.18.14-.18 0 0 .1-.13-.01-.2.06.05.1-.03.18.02-.06-.06-.1-.2 0-.2l.01.01c.13-.14-.03-.32.1-.44-.1-.02-.02-.08-.13-.1-.06-.2.3-.22-.02-.37 0-.08.1-.06.13-.1l.01.02c.01-.14.02-.18.05-.28-.02-.06-.17-.1-.1-.2.05.05.05.01.06-.03 0 .02.02.04.08 0-.02-.01-.03-.02-.03-.04.01-.06-.01-.06-.02-.03-.01 0-.02-.01-.04 0 .1-.04.04-.16.15-.14.02-.17-.05-.32-.05-.47a.1.1 0 0 1 .1.1l.01-.1c.08.02.03.07.04.1.16-.08-.06-.28.1-.38l-.05-.05.01-.01c-.03-.01-.07-.05-.07-.07.07 0 .16.05.17-.02.08-.04.01-.16-.01-.24-.02.03-.06.01-.08-.01.01-.03.08-.03.06-.07l.1.02c-.1-.01-.07-.1-.1-.14.07 0 .04.07.1.1.03-.14.01-.07.04-.2-.05-.1-.1-.01-.16-.07 0-.06-.02-.12.01-.17a3.41 3.41 0 0 1 .52.06c-.07.1 1.16.2.6.25 1.47.27 3 .26 4.75.45a2.66 2.66 0 0 1 .02.3c-.12.35-.3.4-.32.8-.05.17-.06.37-.08.54.1.1-.05.23.03.34l-.08.02c.03.04.04.1 0 .1l-.02-.01c.04.06 0 .1.02.14l-.02-.01v.06l-.03-.02a.29.29 0 0 1-.02.26l.1.01c-.13.15.03.25-.12.37l-.02-.01c.18.24-.22.27-.05.5-.02-.03-.05 0-.07-.01 0 .1 0 .2.16.23-.02.07-.06.04-.13.04.07.02.1.08.08.13l-.02-.03-.01.15h.14c-.06.07-.17-.02-.16.07l.1.02c-.05.1-.23.13-.34.22-.15.43.04.96-.25 1.32h-.1c-.13-.02.16.15.04.14l.05.06c-.03.01-.06.03-.08 0-.01.04.01.05.04.1l-.1.03c-.1.16.02.34-.05.5-.2.18-.15.63-.12.88.1.37-.47.65-.33 1.04-.02.01.01.04.03.05l-.1.3s-.38 1.5.9.58l.03.01c.1-.16.14-.26.03-.4.17.02.05-.14.1-.16h.01c-.1-.13.16-.2.06-.32.01.01.06.02.06.04-.01-.08-.02-.2.08-.17.01-.18.1-.4-.02-.56h.03c-.1-.1 0-.1-.04-.17h.03c-.1-.1.03-.2 0-.27l.07.01v-.14l-.03.05c-.18-.06.14-.08.04-.2.04-.1-.33-.27-.22-.35-.07-.07.13.07.08-.01.1.02.05.05.13.04-.03-.08.12-.1.08-.2l.07.01c-.1-.14.14-.2.03-.3-.04-.13.23-.03.12-.18l.1-.02c.03-.05-.1-.06-.05-.1.06.02.07-.06.12-.01.13-.1-.08-.3.12-.42-.1-.06-.02-.13-.1-.18.05.01.05-.17.14-.05.01.01 0 .02-.02.02l.07.03c.16-.07-.04-.2.01-.28-.03.02-.03.06-.08.03l.03-.1.06.03.06-.12h-.08c.05-.06.18-.05.1-.14-.05-.05-.1.04-.12-.03.07-.07.17-.18.22-.3-.1-.01-.08-.04-.1-.07h.07c-.08-.14.17-.01.1-.14h.05l-.15-.06c-.12-.14.16-.02-.01-.18 0 .05-.17-.01-.12-.06l.07.03c-.01-.03-.04-.05-.02-.07.03.03.1.03.1-.02l.08.05-.1-.1c.1-.05.02-.18.12-.18 0 0 .08-.13-.02-.2.06.04.1-.03.18.01-.07-.05-.1-.18-.02-.2l.01.01c.12-.14-.05-.3.08-.42-.1-.01-.02-.08-.14-.08-.07-.17.28-.22-.04-.35 0-.07.1-.06.12-.1h.01c0-.13.01-.17.03-.27-.02-.05-.18-.1-.12-.17.06.04.05 0 .06-.03.01.02.03.03.08 0-.02-.01-.03-.02-.04-.03.01-.06-.01-.05-.03-.03h-.04c.1-.04.03-.15.14-.14.01-.17-.07-.3-.08-.45.06 0 .1.04.1.08v-.1c.08.02.03.06.04.1.15-.08-.08-.26.07-.37l-.06-.04.01-.01c-.03-.01-.07-.05-.08-.07.07 0 .16.04.17-.03.08-.04 0-.15-.02-.23-.02.03-.05.01-.08-.01.01-.03.08-.04.05-.07l.1.02c-.1-.01-.07-.1-.1-.13.07 0 .05.06.1.08l.03-.2c-.05-.1-.1-.01-.16-.06 0-.02-.01-.05-.01-.07a23.89 23.89 0 0 1 1.3.23c.62-.14 2 .16 2.45.06.06.1 2.76.37 1.2.36-.14 0-.37-.03-.35-.07l-.2.1c1.53.43 2.85.24 4.4.5-.45-.1-1.06-.18-.64-.2l1.43.22-.3.06 2.12.38-.27-.17c1.03.23 1.36.5 2.56.52.55-.01-.95-.33.15-.2a212.09 212.09 0 0 1 5.13 1.28c-.13-.18.33-.06.82.02l.02.14c1.84.32.6.42 2.36.83l-.18.03.53-.1c.4.08.63.17.77.25.15.08.24.15.3.23.06.07.17.15.26.22.05.05.08.04.2.12.1.1.25.2.43.35-.48-.5.01-.45.5.28l-.23-.1c.32.36.45.47.6.75-.22-.2-.23-.03.18.55l-.4-.3a31.59 31.59 0 0 1 .9 1.03l1.04 2.22c-.4.14-.98.22-1.75.34zM2711.8 107l.5-.12c-.02-.02-.15 0-.5.12zm19.8-3.25h-.03c-.04.01-.1.02-.13.04l.16-.04z"/><path xmlns="http://www.w3.org/2000/svg" d="M2711.8 107l.5-.12c-.02-.02-.15 0-.5.12zm19.8-3.25h-.03c-.04.01-.1.02-.13.04l.16-.04z"/><path xmlns="http://www.w3.org/2000/svg" d="M341.76 98.9l-4.7-1c-.4-.1-.9 0-1.2.4l-7.48 8.57c-.1-.2-.22-.27-.22-.27s-6.6 2-8.3 3.4c-1.7 1.3-4.7 3.2-4.9 5.2s-.5 3.9-1.9 6.4c-.9 1.6-7.47 7.85-12.04 12.1l-1.83-1.87c-.7-.7-.8-.5-1.9.4-3.7 2.9-13.8 10.9-17 12.8-3.9 2.4-8 2.3-13.9-3.4-2.3-2.16-4.93-5.12-7.35-8.03-5.27-15.7-12.33-27.7-23.93-32.33-10.27-4.96-26.45-2.2-44.23 14.06-25.9 23.6-32.8 41.5-35.4 59.4-2.7 17.8-.9 42.9-.9 42.9l7.15.5.85 12.9s-1.4 6.2.9 13.7c2.3 7.4 3.3 8 3.8 9s1.7-.2 1.7-.2.6 2.3 2 2.4c1.3.1 1.4-1.4 1.4-1.4s.85 1.05 1.7.7c.95-.4 1.2-3.05 1.37-5.16.32-3.7.83-7.84.93-8.84s1 2.1 1.7 3.8c.6 1.6 2.7 2.2 2.3-.8-.5-3.1-.5-5.7-.7-6.6-.2-.8-1-2.8-1.6-4.2l-.6-1.4s-.6-1.1 0-4.2c.17-.92.63-4.2 1.24-8.54l6.36.44s3.06-23.05 8.18-37.97l-4.48 26.97h83.6l-2.4-19.4c5.54-.37 11.2-2.95 18.9-8.1 12-7.9 24.3-24.1 27.9-29 .9-1.1 1.1-1.3.4-2l-4.5-4.6 9.47-12.94.82-.57 5.9-4.5c1.02-.82 5.75-8.22 8.67-12.86.47-.24.85-.64 1.14-1.24a1.16 1.16 0 0 0 .1-.72l.97-1.56c.03-.05-.03-.1-.08-.07l-1.28.9c-.16-.18-.35-.35-.58-.5 1.1.2 1.93-.2 2.67-1.34 1-1.53-1.5-2.9-2.66-3.66l4.66-5.74c.5-.7.2-1.7-.7-1.9zm-22.44 20.92l-.13.1c.03-.04.05-.08.07-.12.85-1.44 2.05-4.1 2.4-4.87-.3.66-1.52 3.42-2.4 4.87l.06.01zm5.56 1.7l-.07-.02c.03 0 .06.01.1.01l-.02.01zm1.18-9.5c-1.1 1.26-4.32 2.75-4.34 2.75.02-.05.04-.08.04-.08s2.83-1.12 4.83-3.3l-.53.62zm2.47-4.33c.02-.38-.05-.64-.14-.82.03.05.18.3.14.82zm.94 10.6c-.36-.08-.7-.15-.9-.2-.04-.01-.1-.02-.14-.02l.27-.33a6.72 6.72 0 0 0 .98.42l-.2.14zm2.27-4.32h0c.02 0 .02 0 .03.01-.01 0-.02-.01-.03-.01zm3.15-3.87l.06-.08c.07.06.13.12.2.17-.1-.03-.17-.06-.26-.1z" fill="#fff"/><path xmlns="http://www.w3.org/2000/svg" d="M176.98 232.3c0-.01-.01-.02-.01-.03s-.01-.01-.01-.02l.02.05zm130.85-66.9h0l-.08.23z"/><path xmlns="http://www.w3.org/2000/svg" d="M251.77 114.56h0l.26.23zm91.2-15.23c-.4-.5-.02.13-.24-.07-.3-.44-.86-.54-1.28-.66l.13.1c-.78-.1-1.24-.2-1.73-.4-5.85-.54-1.4.66-1.4.66 1.1.33 1.96.5 2.87.64l.3.05c.05.01.1.01.13.03.08.03.15.1.2.18a.47.47 0 0 1 .04.36c0 .04-.02.07-.03.1-.02.03-.01.03-.07.1l-.3.4-3.6 4.2-.54.67c-.86-.47-2.23-1-3.3-.82-.6.1-1 .4-1.3.9s-.4 1-.2 1.7c.18.58.52 1.17.96 1.73-1.54-.43-4.07-.7-4.86 1.07-.2.5-.2 1 .1 1.6.22.5.62.97 1.12 1.4-.9-.1-2.02-.02-2.82.5-.5.3-.8.7-.9 1.3s.1 1.2.5 1.7a4.04 4.04 0 0 0 .8.8c-.77-.1-1.66-.05-2.3.4-.4.2-.7.7-.8 1.2s0 1.1.4 1.6l.12.14h-.03-.12c-.05-.01 0 0-.1-.03l-.35-.1-.7-.22-1.43-.42-2.27-.64 1.15-2.1.13-.07c.14.01.15-.77.3-.82l.08-.32c.06-.07.16-.24.12-.08.13-.27.1-.28.16-.5l.2-.26c.05-.1.04-.07.06-.1.03-.01.04-.02.14-.06l.34-.18.65-.38 1.35-.82a6.88 6.88 0 0 0 1.17-.74c.2-.16.43-.35.64-.58l.35-.43c.05-.06.1-.1.16-.16a10.4 10.4 0 0 0 1.9-2.83c.2-.5.35-.94.35-1.56 0-.26-.06-.5-.14-.73l1.47-1.5c.55-.58 1.08-1.17 1.52-1.8.06-.04.16-.22.15-.23l1.4-1.58 2.58-3.13c.2-.37.7-.38.78-.45.05-.04.02-.13-.17-.22-.18-.07-.64-.2-1.15.27l.01-.01-1.2 1 .01-.06c-.8.83-1.3 1.36-1.72 2.06-.2-.02-.64.7-.86.87v-.03c-.36.62-1.04 1.02-1.4 1.6.01-.03-.02-.07.08-.2-.3.4-.72.92-.82.88l-.85 1-.5.6-.17-.12-1.9.57-1.47.48-3.64 1.46c-.63.3-1.28.6-1.93 1.1l-1.64 1.24c-1.1.88-2.25 1.78-3.03 3.12-.14.35-.33.76-.4 1.3l-.15 1.27c-.12.86-.32 1.7-.5 2.38l-.25.5c-.13.46-.34 1-.6 1.42v-.04c-.28.73-.7 1.24-.96 1.56v-.04l-.58.68.08-.13c-.83 1-1.78 1.98-2.65 2.8l.13-.01-4.2 4.03v-.04c-1.23 1.37-2.3 2.23-3.42 3.23l-1.47-1.46-.13-.13-.2-.17c-.3-.2-.58-.35-.9-.34s-.6.13-.87.3c-.27.18-.55.42-.72.56l-1.1.86c-.8.7-.77 1.02-2.32 2.15.42-.46-.18.03-.74.47.35-.3.44-.4-.35.1a4.22 4.22 0 0 1-.37.38c-.01 0-.04.02-.04 0-.92.76-.73.66-.3.33-.01.03.04.02.2-.06-1.06.65-2.72 2.12-2.95 2.07l-7.13 5.7c-.33.1.2-.34.87-.88l-1.7 1.23c-.06-.12.95-.74 1.46-1.14-1.08.63-2.1 1.43-3.2 2.1-1.08.65-2.35 1.13-3.7 1.04l-.56.1c-.05 0-.1-.02-.16-.03.01.04-.62.08-1.02-.03-.35-.23.08-.2-1.2-.65-.96-.46-2.77-1.4-3.95-2.3.6.52.37.4.07.22l-1.24-1.15.05-.16c.1.26-1.02-.74-1.5-1.16l-.53 1.8 1.66 1.47c1.57 1.35 3.03 2.33 4.48 3s2.93 1 4.43.92c1.5-.06 2.98-.52 4.4-1.32s2.78-1.8 4.45-3.05c3.2-2.34 6.5-4.98 9.52-7.38.66-.65 1.65-1.43 2.68-2.24l.78-.6.42-.35c.04-.04.1-.08.15-.05l.07.04.3.26.5.7c.54.47 1.17 1.05 1.65 1.63h-.05c.82.7 1.65 1.63 2.06 1.98h-.05l.94.94-.2-.12c1.4 1.3 2.78 2.7 3.96 3.96v-.2c2.48 2.76 3.65 3.53 5.85 6.05l-.06-.01a30.49 30.49 0 0 1 2.13 2l.46.48.35.38c.1.1.07.26-.04.34-.05.06-.05.04-.23.24a10.28 10.28 0 0 0-.44.53l-.83 1.08c-.55.74-1.13 1.53-1.73 2.46.3-.46-.2.14-.2.08-1.2 1.63-2.57 3.33-2.36 3.54-.95 1.14-.84.88-1.04.96.1.07-.67 1.1-1.42 2l.3-.44-2.13 2.55.6-.34c-1.2 1.28-.5.15-1.58 1.45l.16.1c-1.66 1.8-2.85 2.63-4.58 4.22-3.45 3.44-7.06 7-11.06 9.9s-8.22 5.52-12.4 7.07c-.14.01-.28.01-.42.01-.12-.07-.66.2-1.23.5-.56.3-1.18.53-1.36.5-.32.12-.64.26-.96.37-.3.02-.9.1-.4-.05-.93.17-.94.25-1.6.4h-.9c-.6-3.28-.67-6.25-1.2-8.44-.62-3.62.01-2.5-.78-6.24l-.06-1.5c-.22-1.62-.38-1.13-.58-2.93.12.1-.27-2.28-.01-1.25-.5-4.1-1.57-8.2-2.34-13.57-.4-1.12-.87-3.82-1.2-4.64.1-.17-1.25-5.35-.33-2.4.08.25.2.7.14.7l.2.33a31.65 31.65 0 0 0-1.02-4.26c-.43-1.34-.88-2.66-1.28-4.15.2.9.54 2.05.24 1.3-.24-.92-.5-1.83-.78-2.74l.27.54-1.24-3.87-.01-.01c-.02-.08-.05-.16-.07-.23l.02-.04c-.02-.02-.03-.04-.05-.06-.4-1.5-.53-2.32-1.35-4.2-.46-.96.52 1.9-.28-.14-.9-2.63-2.25-6.6-3.85-9.8.02.36-.4-.5-.86-1.38l.06-.16c-1-1.62-1.1-1.96-1.22-2.3-.05-.17-.1-.34-.27-.67-.16-.33-.43-.82-1-1.6l-.5-.47c-2.07-2.72-.82-1.7-3.4-4.52.47.6.53.77.33.62s-.63-.65-1.26-1.33l.4.26c-.72-.73-1-.95-1.44-1.46.46.4.35.1-.7-.97l.8.63c-.68-.68-1.5-1.22-2.25-1.8-.4-.38-.86-.83-1.37-1.23l-.87-.6.6 1.2c-1.95-2.23-4.12-3.8-6.33-4.87-2.24-1.07-4.5-1.7-6.85-2.02-4.7-.6-9.8-.1-16.2 2.2a51.74 51.74 0 0 0-6.97 3 42.35 42.35 0 0 0-2.71 1.47c-.87.47-1.67 1-2.48 1.5-3.2 2.06-6.4 4.33-10.87 8.5a172.14 172.14 0 0 0-12.44 12.63c-.8 1.1-2.02 2.52-3.28 4-1.2 1.52-2.46 3.07-3.34 4.4l-.82.94a43.71 43.71 0 0 1-2 2.89l.01-.08c-.82 1.44-1.9 2.97-2.28 3.7V143l-1 1.75.13-.32-1.04 1.9c-.34.64-.65 1.3-.98 1.93l-.97 1.88-.86 1.84.22-.14c-.62 1.26-1.1 2.33-1.48 3.32s-.74 1.86-1 2.74l-.87 2.68-1 3.18-.02-.08-1.7 8.08c-.47 2.5-.95 5.03-1.07 8.3.04-.82-.1.34-.14.27-.26 3-.4 6.23-.12 6.3-.12 2.2-.18 1.78-.3 2.06.12-.01.1 1.9.06 3.6l-.02-.8-.06 4.9.25-.96c-.1 2.6-.3.66-.25 3.14l.2-.03c-.04 3.6-.3 5.7-.35 9.18l.18 5.07.14 2.56.1 1.48.1 1.5v.07c.01.01.04.01.06.01l.55.04 6.83.4c.1 1.43.17 3 .32 4.2l-.02.77c.08.68.16 1.48.17 2.17l-.02-.04c.12 1.02.17 2.17.23 2.67l-.02-.04.1 1.24-.04-.2.12 1.23-.1.62-.1.68c-.1.9-.17 1.78-.2 2.6l.1-.13c-.1 1.76 0 2.97.12 4.12.13 1.15.3 2.25.6 3.82l-.03-.04 1.5 4.94c.5 1.5.97 3.05 2.06 4.87-.28-.45.07.22.03.2a14.15 14.15 0 0 0 .61.95 4.28 4.28 0 0 1 .29.48c.16.25.38.45.63.55.26.1.53.08.76.02.06-.02.12-.03.18-.05.05-.02.15-.06.13-.06l.05-.04c.07-.05.12-.12.18-.2.04-.02.06.02.1-.04.05.16.1.26.14.37l.15.33c.06.13.02.13.04.23.04-.03.2.25.6.6.36.36 1.13.7 1.83.5-.1.03-.2.05-.3.06.23-.02.45-.07.66-.2a1.65 1.65 0 0 0 .58-.6 1.09 1.09 0 0 0 .08-.31c.06.05.15.14.23.2l.05.03-.04-.06-.22-.32a2.16 2.16 0 0 0 .23.22c.2.16.35.25.4.3.05.03.1.06.24.1.14.02.38.07.75-.08.1-.05.18-.1.28-.17l-.1-.08c.57-.5.67-1.04.85-1.5.15-.47.25-.92.35-1.36s.17-.88.25-1.34l.2-1.4.53-5.2.13-1.32c.06-.07.1.1.13.14l.1.24.25.64.32.82a3.17 3.17 0 0 0 .5.88 2.26 2.26 0 0 0 .83.69c.34.18.88.26 1.28.03.4-.2.64-.7.7-1.02.07-.35.08-.67.07-1-.04-.65-.16-1.16-.23-1.72a46.19 46.19 0 0 1-.18-1.65l-.26-3.3c-.02-.27-.1-.62-.18-.88l-.26-.8-.54-1.5-.06-.38c.06-.2-1.08-2.07-1.1-2.4l-.13-.26-.02-.05a1.67 1.67 0 0 1-.16-.47c-.02-.24-.03-.77.03-.33-.05-.82-.05-.85-.05-1.47a9.68 9.68 0 0 1 .2-.9c.55-2.92.8-5.52 1.18-8.44l1.05.07 5.62.44.34-2.26.24-1.42.23-.56c.24-.22.26-3.7.54-4.16l.16-1.55c.1-.42.3-1.33.22-.55.25-1.42.22-1.46.35-2.5l.4-1.5c1.12-5.4 1.84-10.1 3.3-15.64-.3 1.85-.58 3.35-.94 4.94-.88 7.1-1.27 10.96-1.37 12.78-.8.1-.9.2-.02.35-.05 1.45.15 1.13.45.06 1.73.22 5.7.5 12.88.83l-.25.05c5.53.1 9 .14 12.82-.1.6.3 4.54.03 5.84.12l-.12.02c3.37-.22 6.95.18 10.2-.01-.13.02-.2.1-.94.1 2.37-.04 5.6-.1 5.8.07 5.66-.04 13.56.03 17.18-.23l-.25.05c2.07-.18 2.67-.03 4.98-.12.13.02.3.03.26.04 2.25-.18 6.57-.03 8.4-.1l.12.1 4.63-.03-1.83-.02c.15-.08.43-.1.83-.1l1.94.06c1.4.47.72-1.05.74-2.06l-.14-1.2a16.02 16.02 0 0 0-.18-1.18c-.32-3.03-1.37-6.05-1.62-9.2-.33-1.48.4 1.3.01-.93.15-.1.23 1.03.28.44-.3-1.85-.3-3.17-.6-5.18a5.01 5.01 0 0 0 .75-.02c.35-.02.8-.1 1.46-.3l1.1-.05c1.14-.3.76-.42 2.02-.7-.04.13 1.57-.48.9-.13 2.84-.86 5.34-2.57 8.73-4.3.6-.6 2.28-1.5 2.7-2 .14.05 3.18-2.14 1.52-.76-.14.12-.4.3-.4.26l-.15.24c.96-.5 1.76-1.12 2.54-1.73.75-.65 1.48-1.3 2.33-1.97-.52.37-1.2.9-.8.48.54-.4 1.04-.82 1.55-1.25l-.25.35c.76-.63 1.56-1.23 2.3-1.9l-.4.18c1.1-.93 1.67-1.1 2.7-2.36.46-.58-1.1.83-.03-.26 1.47-1.26 3.6-3.24 5.3-5.02-.26.07.2-.4.63-.93l.14.03c1.62-2.06.86-.5 2.47-2.56l.17-.46c1.35-1.93 1.02-.8 2.44-3-.64.8-.52.2.33-.74l-.1.32c.42-.56.53-.77.85-1.1-.22.36 0 .28.63-.53l-.32.63 1.05-1.65c1.04-1.1 2.37-3.07 2.87-3.46l1.04-1.35a37.71 37.71 0 0 0 .76-1.06l.3-.43c.1-.14.26-.4.3-.5-.28.47.07.13.36-.33.28-.44.3-1.02.34-.58.02-.37-.1-.93-.55-1.42-.13-.15-.2-.2-.26-.27l-.23-.2-.46-.44c-.62-.6-1.23-1.23-1.52-1.63l.15.13c-.77-.85-1.5-1.6-2.2-2.3l.85-1.12.23-.17c.17-.02.86-1.5 1.1-1.62l.38-.62c.14-.15.4-.48.22-.17.4-.54.4-.56.65-.98l.5-.53c1.6-2.1 2.82-4 4.48-6.23l.4-.48.06-.03.14-.1.3-.2a10.73 10.73 0 0 0 .59-.42l1.24-.93 2.67-2.06 1.67-1.32.35-.36c.2-.24.36-.45.53-.68a63.21 63.21 0 0 0 1.65-2.44c1.36-2.17 2.92-4.44 4.47-6.74l2.3-3.46c.01-.01.02-.03.03-.04.15-.2.3-.4.43-.63.08-.1.14-.22.17-.34l.45-.72.64-1.57c.24-.24.46-.5.63-.77.3-.4.4-.9.3-1.3-.3-1.06-1.7-2.03-2.7-2.64l.87-1.25c.1-.04.01.15-.13.36l.4-.5c.06.05-.2.3-.3.47.58-.5.9-1.3 1.54-1.9l.07-.18.04-.03c-.03-.02.06-.2.14-.3.14-.06.12.1.4-.24.27-.23.6-.8.86-1.17-.16.18-.15.1-.1 0 .14-.17.27-.23.36-.38l.1.04c-.06 0 .01-.1.1-.27.12-.2.18-.42.18-.47.13-.13-.1.43-.13.52.32-.52.27-.7.3-.83.02-.07.1-.24-.14-.8zm-41.75 33.35c-.04-.05-.08-.1-.13-.15l.15.13-.02.02zm-123.06 88.07l-.08.06c-.18 2.26-.7 4.2-.78 5.7-.14 1.14-.28 1.5-.4 1.92-.1.4-.24.82-.16 2.1-.02.34-.03.68.01 1.04.06.3.1.46.22.68.18.34.27.38.57 1.17-.08-.04.52 1.35.2.76l.7 1.83c.23.6.52 1.3.66 1.84.2 1.3.26 2.9.38 4.62.1.37.2 1 .3 1.58.1.57.1 1.05.1 1.27-.01.01-.06.22-.12.33-.05.1-.18.16-.28.13-.1-.02-.27-.14-.28-.17-.04-.04.13.07.3.08.04 0 .1-.01.1 0 .01-.03.01-.06 0-.1-.04.01-.07 0-.1-.01-.02 0-.16-.1-.26-.17-.23-.2-.38-.42-.55-.8l-.4-.9-.2-.54c-.24-.62-.48-1.32-.74-1.86.14.3.28.7.36.94.12.34.14.44-.02.07-.17-.47-.35-.96-.54-1.24-.18-.28-.34-.4-.5-.52l.2.05c-.12-.1-.22-.18-.35-.2-.04-.03-.22-.02-.24.02-.04.01-.04.2-.07.3l-.23 1.43.1-.32c-.2 1.36-.37 1.77-.55 3.44-.07.75.25-1.26.06.23-.3 1.8-.83 4.75-1.05 6.82.1-.2.04.4-.07.97l-.1.05c-.15.8-.32 1.02-.4 1.12-.1.08-.15.1-.18.07-.01-.01-.04.01-.1 0-.03 0-.06-.01-.12-.02-.04-.02-.03 0-.13-.06a1.52 1.52 0 0 1-.32-.23c.01.01.02.01.02.01-.05-.04-.1-.07-.15-.1-.02.01-.03.01-.05.02l-.4-9.2c-.01-.28-.2-.48-.52-.48a.5.5 0 0 0-.48.52l.4 9.55c-.08.04-.15.08-.24.12-.02.1-.05.18-.08.25s-.06.15-.08.15c-.03.04-.06.07-.1.08-.05.04-.1.05-.14.07-.06.01-.1.04-.26.04-.14 0-.3.01-.57-.17.25.2.3.2.2.22-.1-.01-.4-.12-.67-.56.07.06.14.1.2.15-.17-.2-.27-.36-.36-.5-.07-.12-.18-.3-.3-.65.2.4.2.38-.03-.37l-.03-.34a5.58 5.58 0 0 0 .14.37 7.46 7.46 0 0 1-.14-.44l-.68-7.32a.5.5 0 0 0-.54-.45c-.27.03-.48.27-.45.54l.68 7.33-.12.12a1.18 1.18 0 0 1-.22.17c-.04.03-.07.06-.1.08l-.06.03c0 .01-.05.03-.07.04-.05 0-.1-.02-.15-.07-.02-.02-.03-.05-.05-.07-.04-.07-.06-.13-.13-.24-.23-.38-.45-.7-.64-1.02-.37-.65-.65-1.25-.7-1.52 0 0-.3-.66-.58-1.4-.3-.75-.6-1.6-.77-1.9.26.53-.24-1-.02-.6-.33-.7-1.06-2.8-1.18-3.67l.05.16c-.67-3.17-1.1-5.48-.92-8.4-.1.13.03-1.4-.1-1.04a15.42 15.42 0 0 1 .23-2.14l.1-.53c.01-.32-.01-.4-.02-.58l-.04-.92c-.05-1.16-.12-2.07-.32-2.62-.1-1.4-.03-1.67-.06-2.4l.04.33-.37-5.34a5.51 5.51 0 0 0-.07-.52l2.86.17 10.13.62 2.95.2c.01.25-.02.47-.04.7zm93-13.92l.08.6.04.26c-.03.05-.15.02-.23.03l-.5.01-3.76.06-6.63.12c-10.78.32-23.32-.53-34.36-.17-.18-.02-.5-.01-.78.01s-.5.04-.5.05l-10.1-.03s-19.46-.03-24.53.4c.58-2.3 1.38-6.67 1.38-6.67 1.33-6.82 2.03-11.6 2.9-17.43l-.67.36c.77-2.4 1.67-4.97 2.76-7.5 2.07-4.67 5.45-8.73 8.2-11.45 3.8-3.88 8.56-7.4 13.5-10.68 4.93-3.3 10.1-6.3 14.63-9.77.32-.2 1.05-.8 1.03-.83 2.77-2.07 5.45-4.34 7.78-6.98 0 0 .13-.15.38-.42l.96-1.23a13.06 13.06 0 0 0 .54-.74l-2.72.68-.95 1.23c-.16.06-.4.3-.75.64-.35.32-.77.73-1.2 1.17-.88.84-1.83 1.75-2.37 2.12l.08-.1c-2.47 2.35-5.65 4.1-8.3 6.06.1-.1.1-.2.74-.62-1.98 1.36-4.7 3.22-4.95 3.18l-7.87 5.4c-2.6 1.88-4.9 3.73-6.26 5l.17-.2c-.77.73-1.3 1.17-1.83 1.64s-1.14.92-1.97 1.77c-.1.07-.24.18-.23.15-1.64 1.63-4.76 4.8-5.85 6.35l-.16.03-1.38 1.87-1.23 1.98.94-1.47c-.03.34-.55 1.05-1.23 2.07-.6 1.07-1.44 2.43-1.94 4.03-1.26 2.9-1.56 6.15-2.6 9.2-.27 1.52.13-1.37-.37.88-.17.03.2-1.06-.1-.53-.54 2.2-1.12 3.54-1.68 6.27l-.15.08c-.6 3.6-1.65 6.65-1.9 9.07-.6 3.7-.84 2.4-1.3 6.27l-.42 1.46c-.3 1.64.01 1.2-.37 3.02-.1-.13-.45 2.3-.38 1.2-.15.78-.3 1.56-.4 2.36l-.15 1.06-.04.4-.23.01h-.1l-.27-.01-.54-.03-2.2-.12c-1.5-.1-3.1-.23-4.8-.43-1.2.12-3.96-.2-4.86-.1-.14-.1-5.53-.4-2.42-.38.27 0 .74.04.7.07l.38-.1c-3.1-.45-5.7-.26-8.78-.5.9.1 2.14.18 1.3.2l-2.87-.2.6-.06-4.26-.35.56.17c-.13-.01-.26-.03-.38-.04l-.18-.02c-.03-.01-.03-.01-.05-.01-.05-.02-.1-.03-.13-.05-.1 0-.03-.13-.02-.2v-.05c0-.01.01-.01 0-.14l-.03-.6a21.63 21.63 0 0 0-.15-1.5c-.16-1.06-.07 2-.22-.22l-.08-10.57c-.14.34-.15-.63-.2-1.6l.12-.12c-.2-3.8.26-1.4.14-5.15l.1.33-.25-1c-.18-3.4.27-1.82.06-5.6-.03 1.5-.3.7-.18-1.14l.1.47c.01-1.02-.01-1.36.05-2.03.03.6.16.33.22-1.16l.1 1-.05-2.83c.26-2.16.45-5.6.73-6.47l.34-2.44c.16-1.3.4-2.7.38-3.25-.04.94.42-1.58.44-.84.05-.6.22-1.78.43-2.98a29.09 29.09 0 0 1 .77-3.08l-.05.27c1.43-5.05 2.4-8.68 4.5-12.9-.22.14.88-2.1.46-1.62.5-1.1 1.06-2.15 1.57-3.1.5-.97 1.1-1.8 1.56-2.6.93-1.6 1.76-2.78 2-3.68 1.17-1.9 1.58-2.13 2.27-3.05l-.3.45c2.37-3.45 3.2-4.36 5.12-6.8.97-1.22.92-1.57 2.8-3.65-.5.76.2-.14.92-.9-.44.5-.55.68.43-.28a7.88 7.88 0 0 1 .47-.61c.01 0 .06-.04.05-.01 1.16-1.3.93-1.1.37-.52.02-.04-.05 0-.24.16.67-.62 1.5-1.55 2.25-2.32.75-.75 1.37-1.36 1.5-1.37l2.56-2.65 2.36-2.34 2.24-2.23 2.34-2.16c.43-.25-.3.48-1.2 1.35.76-.7 1.52-1.38 2.32-2.03.06.12-1.32 1.18-2 1.85 2.9-2.25 5.68-5.02 9.4-7.18l.7-.57.22-.12c-.04-.04.75-.6 1.3-.94.6-.2.08.2 1.94-.8 1.5-.74 4.23-2.17 6.27-3-1.12.38-.78.2-.32-.02 1-.36 1.6-.48 2.37-.75l.1.1c.05-.07.6-.27 1.2-.48l1.8-.53c.6-.03-1.57.5-1.8.64 2.04-.54 2.57-.63 3.08-.72.52-.1 1.03-.23 3.13-.45 2.24-.27-.42-.12.65-.33 2-.16 3.97-.24 6.23.22-.23-.1-.47-.16-.7-.24 1.87.22 3.36.57 4.63 1.05 1.28.45 2.34 1.03 3.42 1.7a20.18 20.18 0 0 1 5.16 3.97l1.87 1.44.02.03c.14.1.27.2.38.28l1.08 1.23c-.1-.24-.24-.5-.36-.73 1.17 1.27.9 1.1 1 1.35.04-.04.4.25.85.72.43.5.97 1.18 1.48 1.83l-.5-.57c.48.63 1 1.2 1.44 1.87l1.32 1.97-.3-.9c.66 1.07.7 1.24.72 1.4.04.15.08.28.7 1.32l.15-.12a66.37 66.37 0 0 1 1.11 2.12c.33.66.56 1.3.83 1.95l.78 1.94.8 2.2c2.7 6.46 4.98 13.43 6.85 20.38 1.8 6.94 3.04 13.94 3.94 20.46l-.05.6c-.16.28.88 3.54.76 4.06l.33 1.5c.03.43.13 1.33-.04.6.2 1.4.24 1.43.45 2.43l.1 1.52c.7 5.54 1.6 10.22 2.3 16.06.3 3.5.94 8.55 1.6 13.68zm54.2-87.43c0-.3.1-.5.4-.8.7-.4 2-.3 2.7-.1.2.1.4.1.7.2 1.4.3 3 .7 2.8 1.7-.2 1.3-.8 2-3.1 1.6-1.3-.2-2.6-.9-3.2-1.7-.2-.2-.4-.5-.3-.9zm7.43 1.9l.04-.1c-.44.88-.68 1.06-1.24 2l-.1.1c-.5.94-1.73 2.57-2.2 3.26h-.1l-.32.4-.3.33-.84.65.64-.47c-.1.3-1.34.88-2.5 1.9-1.16.84-2.08 2.08-3.34 2.9-.53.48.43-.47-.4.2-.08-.06.37-.33.1-.24-.13.1-.24.18-.35.26-.56.77-.98 1.17-1.6 2.13h-.1c-.88 1.44-1.95 2.5-2.5 3.48-.97 1.44-.87.8-1.8 2.35l-.5.5c-.47.6-.23.52-.77 1.18-.02-.08-.68.84-.43.4a25.85 25.85 0 0 0-1.26 1.7c-1.27-1.23-2.5-2.38-3.74-3.8.01.2-1.17-1.1-1-.66-2.5-2.3-4.15-4.77-5.36-5.2a11.58 11.58 0 0 1-.84-.9c.3-.3.56-.56.66-.7-.27.35.63-.45.43-.16.36-.45 1.54-1.64 2.08-2.04l-.1.1c1.86-1.65 3-3.02 4.64-4.52-.13.01.73-.8.45-.66 1.53-1.72 3.1-2.9 3.3-3.94.5-.95.65-1.1.9-1.6l-.08.25c.74-1.9.8-2.5 1.07-3.98.03-.37.01-.6 0-.88 0-.3-.03-.58.25-1.1-.1.37.06-.07.32-.44-.14.25-.2.32.2-.13a1.21 1.21 0 0 1 .18-.29c.01 0 .03-.02.02 0 .5-.58.4-.5.14-.24 0-.02-.02-.01-.1.07.58-.55 1.7-1.54 1.84-1.5l1.35-1.05.63-.5c.18-.15.37-.3.57-.4.8-.5 1.67-.9 2.6-1.3.23-.03-.2.2-.72.43l1.32-.55c.02.08-.75.34-1.15.52.8-.27 1.62-.6 2.47-.94l1.32-.5c.23-.07.46-.15.7-.23.1-.03.23-.07.35-.1l.16-.03.1-.06c.04-.02.1-.07.12-.04l.03.06c0 .06-.06.13.02.18-.03.05.04.15.04.22l-.03-.04a.81.81 0 0 1 .03.2 6.13 6.13 0 0 1-.14.55c-.15.4-.44 1.04-.8 1.64h-.02c-.17.25-.33.5-.52.74.07-.1.15-.17.22-.26.01.01 0 .03 0 .04-.07.1-.13.2-.2.3-.18.18-.44.4-.64.73-.04.04-.06.1-.1.13-.04.04-.08.07-.1.1l-.1-.04c.22-.05-.9.9-1.03 1.02-.26.1.57-.5.62-.63-.74.62-.96.74-1.16.88-.2.13-.4.28-1.25.76l-.26.17c-.32.14-.63.25-.86.45-.13.07-.25.13-.35.17-.3.62-.38.35-.56 1.05l-.22.24c-.16.3.01.27-.2.6-.05-.05-.25.4-.2.18-.23.36-.38.77-.56 1.2a7.59 7.59 0 0 1-.31.65l-.23.4c-.12.2-.04 1.55.16 1.56 0 .03.45.17.76.28.2.07.46.33.6.36.3.06.47.05.64.06l.56.2.6.2c.4.17.64.16 1.08.27.13.06.3.12.44.18.08.03.16.07.25.1.1.04.13.07.33.12.45.1 1.02.1 1.5-.22a6.04 6.04 0 0 0 2.58 1c.4.1.8.1 1.2.1 1.3 0 2.5-.5 2.9-2.4.1-.65-.13-1.14-.53-1.5a3.53 3.53 0 0 0 .33.01c.6 0 1.27-.1 1.86-.34-.62 1.02-1.23 1.9-1.58 2.58zm-1.73-3.1c-1.5-.2-2.9-1-3.6-1.9-.2-.2-.4-.6-.3-1 0-.4.2-.6.5-.8.4-.3 1.1-.4 1.7-.4.5 0 1 0 1.4.2.2.1.4.1.7.2.2.03.4.08.63.12.35.15.7.28 1.07.38.35.12.7.2 1.07.3.4.2.74.42.93.7.1.2.1.4.1.6-.2 1-.9 2.1-4.2 1.6zm5.04-1.87c-.01-.28-.1-.56-.23-.84.03-.01.07 0 .1 0 .25 0 .5-.03.73-.07l-.6.9zm2.06-3.13c-.64 1.37-1.72 1.65-4.12 1.07-.54-.2-1.1-.35-1.63-.47-1.32-.52-2.45-1.4-2.86-2.3-.2-.3-.2-.6-.1-.9.6-1.4 3.4-.8 4.3-.5.2.1.3.1.5.2a15.23 15.23 0 0 1 .7.24c.26.2.52.4.8.56.63.34 1.15.54 1.62.66.37.27.67.55.78.84a.61.61 0 0 1 .01.6zm.62-1.25c-.02-.03-.03-.06-.05-.08.04-.01.06-.02.1-.03l-.05.1zm1.38-2.75c.1.3 0 .5-.1.7-.65.97-1.3 1.35-2.22 1.2-.8-.54-1.78-.96-2.58-1.27-.93-.74-1.66-1.67-1.9-2.53-.1-.3-.1-.8.1-1.1s.5-.4.8-.5h.4c.9 0 2 .5 2.4.9.2.1.4.2.7.4.8.5 2.2 1.4 2.4 2.2z"/><path xmlns="http://www.w3.org/2000/svg" d="M266.15 140.4l-.03.1.84.68-.8-.78z"/></g></svg>